M48
; DRILL file {KiCad 5.1.10-88a1d61d58~90~ubuntu20.04.1} date Mon Aug 30 21:25:47 2021
; FORMAT={-:-/ absolute / metric / decimal}
; #@! TF.CreationDate,2021-08-30T21:25:47+02:00
; #@! TF.GenerationSoftware,Kicad,Pcbnew,5.1.10-88a1d61d58~90~ubuntu20.04.1
; #@! TF.FileFunction,Plated,1,4,PTH
FMAT,2
METRIC
T1C0.200
T2C0.300
T3C0.400
T4C0.500
T5C1.000
T6C2.700
%
G90
G05
T1
X191.0Y-45.0
X191.0Y-48.0
X191.0Y-54.0
X191.0Y-56.0
X191.0Y-60.0
X191.0Y-62.0
X191.0Y-64.0
X191.0Y-66.0
X191.0Y-68.0
X191.0Y-72.0
X191.0Y-80.0
X191.0Y-82.0
X191.0Y-86.0
X191.0Y-94.0
X191.0Y-96.0
X191.0Y-98.0
X191.0Y-100.0
X191.0Y-102.0
X191.0Y-104.0
X191.0Y-106.0
X191.0Y-108.0
X191.0Y-110.0
X192.0Y-112.0
X193.0Y-48.0
X193.0Y-54.0
X193.0Y-56.0
X193.0Y-58.0
X193.0Y-60.0
X193.0Y-62.0
X193.0Y-64.0
X193.0Y-66.0
X193.0Y-68.0
X193.0Y-70.0
X193.0Y-72.0
X193.0Y-76.0
X193.0Y-78.0
X193.0Y-82.0
X193.0Y-84.0
X193.0Y-86.0
X193.0Y-92.0
X193.0Y-94.0
X193.0Y-96.0
X193.0Y-98.0
X193.0Y-100.0
X193.0Y-102.0
X193.0Y-104.0
X193.0Y-106.0
X194.0Y-114.0
X194.825Y-90.085
X195.0Y-48.0
X195.0Y-50.0
X195.0Y-52.0
X195.0Y-56.0
X195.0Y-58.0
X195.0Y-60.0
X195.0Y-62.0
X195.0Y-64.0
X195.0Y-66.0
X195.0Y-94.0
X195.0Y-96.0
X195.0Y-98.0
X195.0Y-100.0
X195.0Y-102.0
X195.0Y-104.0
X195.0Y-106.0
X196.0Y-114.0
X197.0Y-48.0
X197.0Y-50.0
X197.0Y-52.0
X197.0Y-54.0
X197.0Y-62.0
X197.0Y-64.0
X197.0Y-96.0
X197.0Y-98.0
X197.0Y-100.0
X197.0Y-102.0
X197.0Y-104.0
X197.025Y-106.35
X197.525Y-91.65
X197.55Y-90.3
X197.65Y-99.1
X197.7Y-102.75
X197.85Y-87.933
X198.0Y-110.0
X198.0Y-112.0
X198.0Y-114.0
X198.35Y-87.6
X198.688Y-92.912
X198.809Y-97.599
X198.9Y-87.9
X199.0Y-48.0
X199.0Y-50.0
X199.0Y-52.0
X199.0Y-54.0
X199.0Y-56.0
X199.0Y-58.0
X199.0Y-60.0
X199.0Y-68.0
X199.0Y-70.0
X199.0Y-72.0
X199.0Y-76.0
X199.0Y-78.0
X199.0Y-80.0
X199.0Y-82.0
X199.0Y-84.0
X199.2Y-90.3
X199.225Y-105.825
X199.233Y-98.554
X199.35Y-102.9
X199.498Y-99.668
X199.675Y-104.45
X199.825Y-100.717
X199.85Y-84.38
X199.9Y-106.275
X200.0Y-110.0
X200.0Y-112.0
X200.0Y-114.0
X200.412Y-93.936
X200.449Y-87.726
X200.475Y-95.325
X200.5Y-105.675
X200.541Y-96.892
X200.878Y-85.128
X200.967Y-97.883
X200.97Y-47.4
X201.0Y-48.0
X201.0Y-50.0
X201.0Y-52.0
X201.0Y-54.0
X201.0Y-56.0
X201.0Y-58.0
X201.0Y-60.0
X201.0Y-68.0
X201.0Y-70.0
X201.001Y-96.1
X201.125Y-64.925
X201.188Y-105.25
X201.213Y-102.726
X201.283Y-104.423
X201.3Y-95.875
X201.3Y-99.475
X201.319Y-98.872
X201.354Y-103.857
X201.5Y-79.875
X201.509Y-85.063
X201.525Y-90.085
X201.575Y-64.525
X201.6Y-86.925
X201.76Y-82.43
X201.814Y-95.23
X201.887Y-102.037
X202.0Y-110.0
X202.0Y-112.0
X202.0Y-114.0
X202.054Y-108.814
X202.325Y-94.7
X202.45Y-86.075
X202.45Y-86.925
X202.45Y-87.775
X202.45Y-96.625
X202.634Y-109.394
X202.7Y-94.225
X203.0Y-48.0
X203.0Y-50.0
X203.0Y-52.0
X203.0Y-54.0
X203.0Y-56.0
X203.0Y-58.0
X203.0Y-64.0
X203.0Y-68.0
X203.0Y-72.0
X203.0Y-74.0
X203.0Y-76.0
X203.0Y-78.0
X203.0Y-80.0
X203.019Y-98.429
X203.2Y-80.55
X203.3Y-85.225
X203.3Y-86.925
X203.3Y-88.625
X203.51Y-47.4
X203.825Y-90.425
X203.825Y-91.675
X204.0Y-112.0
X204.0Y-114.0
X204.147Y-110.504
X204.15Y-86.075
X204.15Y-87.775
X204.425Y-92.725
X204.5Y-66.175
X204.564Y-96.8
X204.717Y-55.597
X204.725Y-94.025
X204.727Y-109.924
X204.767Y-97.348
X204.9Y-83.975
X204.95Y-81.6
X205.0Y-52.0
X205.0Y-54.0
X205.0Y-64.0
X205.0Y-70.0
X205.0Y-72.0
X205.0Y-74.0
X205.0Y-76.0
X205.0Y-78.0
X205.0Y-86.075
X205.0Y-86.925
X205.0Y-87.775
X205.125Y-96.025
X205.159Y-90.05
X205.2Y-59.55
X205.2Y-61.825
X205.2Y-93.1
X205.3Y-80.175
X205.375Y-58.675
X205.4Y-94.242
X205.55Y-67.0
X205.59Y-84.7
X205.66Y-62.275
X205.667Y-59.083
X205.675Y-58.275
X205.75Y-74.65
X205.8Y-94.125
X205.8Y-96.075
X205.85Y-86.925
X205.9Y-73.775
X205.944Y-85.054
X206.0Y-110.0
X206.0Y-112.0
X206.0Y-114.0
X206.05Y-47.4
X206.175Y-94.242
X206.3Y-85.41
X206.3Y-92.625
X206.375Y-93.525
X206.525Y-54.15
X206.654Y-85.764
X206.789Y-55.166
X206.965Y-60.682
X207.0Y-48.0
X207.0Y-50.0
X207.0Y-52.0
X207.0Y-78.0
X207.0Y-80.0
X207.0Y-82.0
X207.0Y-84.0
X207.15Y-94.225
X207.25Y-90.225
X207.282Y-67.0
X207.475Y-93.55
X207.572Y-66.754
X207.743Y-65.157
X207.75Y-93.25
X207.815Y-59.832
X207.815Y-60.682
X207.815Y-61.532
X207.862Y-66.464
X208.0Y-112.0
X208.0Y-114.0
X208.04Y-78.38
X208.05Y-92.975
X208.475Y-65.8
X208.5Y-80.65
X208.59Y-47.4
X208.625Y-92.85
X208.665Y-58.982
X208.665Y-59.832
X208.665Y-60.682
X208.665Y-61.532
X208.665Y-62.382
X208.725Y-107.725
X208.85Y-92.15
X208.95Y-80.65
X209.0Y-48.0
X209.0Y-50.0
X209.0Y-52.0
X209.0Y-82.0
X209.0Y-84.0
X209.125Y-64.625
X209.4Y-80.65
X209.5Y-107.025
X209.515Y-58.982
X209.515Y-59.832
X209.515Y-60.682
X209.515Y-61.532
X209.515Y-62.382
X209.7Y-107.93
X209.78Y-56.262
X210.0Y-110.0
X210.0Y-112.0
X210.0Y-114.0
X210.21Y-64.58
X210.3Y-54.15
X210.365Y-59.832
X210.365Y-60.682
X210.365Y-61.532
X210.531Y-106.648
X210.698Y-106.107
X210.7Y-64.1
X210.867Y-105.583
X211.0Y-48.0
X211.0Y-50.0
X211.0Y-68.0
X211.0Y-70.0
X211.0Y-77.0
X211.0Y-77.6
X211.0Y-78.2
X211.0Y-78.8
X211.0Y-84.0
X211.0Y-86.0
X211.0Y-88.0
X211.0Y-90.0
X211.13Y-47.4
X211.215Y-60.682
X211.5Y-80.25
X211.875Y-79.625
X211.95Y-99.35
X212.0Y-110.0
X212.0Y-112.0
X212.0Y-114.0
X212.3Y-99.85
X212.325Y-98.85
X212.375Y-94.55
X212.5Y-62.775
X212.523Y-62.272
X212.525Y-59.075
X212.647Y-104.521
X212.65Y-103.75
X212.65Y-105.225
X212.875Y-53.5
X213.0Y-66.0
X213.0Y-68.0
X213.0Y-70.0
X213.0Y-88.0
X213.0Y-90.0
X213.0Y-92.0
X213.0Y-94.0
X213.0Y-59.525
X213.025Y-62.775
X213.35Y-82.6
X213.35Y-86.475
X213.35Y-94.775
X213.65Y-95.05
X213.67Y-47.4
X213.975Y-95.3
X214.0Y-56.15
X214.0Y-110.0
X214.0Y-112.0
X214.0Y-114.0
X214.5Y-82.6
X214.5Y-86.475
X214.538Y-61.091
X215.0Y-56.0
X215.0Y-60.0
X215.0Y-64.0
X215.0Y-70.0
X215.0Y-88.0
X215.0Y-90.0
X215.0Y-92.0
X215.0Y-94.0
X215.132Y-65.094
X215.196Y-61.82
X215.4Y-57.55
X215.575Y-94.725
X215.875Y-95.0
X216.0Y-81.3
X216.0Y-100.0
X216.0Y-108.0
X216.0Y-110.0
X216.0Y-112.0
X216.0Y-114.0
X216.175Y-95.275
X216.21Y-47.4
X216.475Y-95.55
X217.0Y-48.0
X217.0Y-50.0
X217.0Y-52.0
X217.0Y-54.0
X217.0Y-56.0
X217.0Y-58.0
X217.0Y-60.0
X217.0Y-62.0
X217.0Y-64.0
X217.0Y-68.0
X217.0Y-70.0
X217.0Y-82.0
X217.0Y-84.0
X217.0Y-86.0
X217.0Y-88.0
X217.0Y-90.0
X217.0Y-92.0
X217.0Y-94.0
X217.425Y-80.725
X217.725Y-77.3
X217.725Y-77.9
X217.725Y-78.5
X217.725Y-79.1
X217.725Y-79.7
X218.0Y-98.0
X218.0Y-106.0
X218.0Y-108.0
X218.0Y-110.0
X218.0Y-112.0
X218.0Y-114.0
X218.225Y-77.6
X218.225Y-78.2
X218.225Y-78.8
X218.225Y-79.4
X218.525Y-66.88
X218.525Y-70.755
X218.75Y-47.4
X219.0Y-66.0
X220.0Y-42.0
X220.0Y-44.0
X220.0Y-46.0
X220.0Y-48.0
X220.0Y-50.0
X220.0Y-52.0
X220.0Y-54.0
X220.0Y-68.0
X220.0Y-70.0
X220.0Y-72.0
X220.0Y-74.0
X220.0Y-76.0
X220.0Y-78.0
X220.0Y-114.0
X221.0Y-92.0
X221.0Y-94.0
X222.0Y-42.0
X222.0Y-44.0
X222.0Y-46.0
X222.0Y-48.0
X222.0Y-50.0
X222.0Y-52.0
X222.0Y-54.0
X222.0Y-68.0
X222.0Y-70.0
X222.0Y-72.0
X222.0Y-74.0
X222.0Y-76.0
X222.0Y-78.0
X222.0Y-114.0
X223.0Y-92.0
X223.0Y-94.0
X224.0Y-42.0
X224.0Y-44.0
X224.0Y-46.0
X224.0Y-48.0
X224.0Y-50.0
X224.0Y-52.0
X224.0Y-54.0
X224.0Y-68.0
X224.0Y-70.0
X224.0Y-72.0
X224.0Y-74.0
X224.0Y-76.0
X224.0Y-78.0
X224.0Y-114.0
X225.0Y-92.0
X225.0Y-94.0
X226.0Y-42.0
X226.0Y-44.0
X226.0Y-46.0
X226.0Y-48.0
X226.0Y-50.0
X226.0Y-52.0
X226.0Y-54.0
X226.0Y-68.0
X226.0Y-70.0
X226.0Y-72.0
X226.0Y-74.0
X226.0Y-76.0
X226.0Y-78.0
X226.0Y-114.0
X227.0Y-92.0
X227.0Y-94.0
X228.0Y-42.0
X228.0Y-44.0
X228.0Y-46.0
X228.0Y-48.0
X228.0Y-50.0
X228.0Y-52.0
X228.0Y-54.0
X228.0Y-68.0
X228.0Y-70.0
X228.0Y-72.0
X228.0Y-74.0
X228.0Y-76.0
X228.0Y-78.0
X228.0Y-114.0
X229.0Y-92.0
X229.0Y-94.0
X230.0Y-42.0
X230.0Y-44.0
X230.0Y-46.0
X230.0Y-48.0
X230.0Y-50.0
X230.0Y-52.0
X230.0Y-54.0
X230.0Y-68.0
X230.0Y-70.0
X230.0Y-74.0
X230.0Y-76.0
X230.0Y-78.0
X230.0Y-114.0
X230.137Y-71.862
X231.0Y-92.0
X231.0Y-94.0
X232.0Y-42.0
X232.0Y-44.0
X232.0Y-46.0
X232.0Y-48.0
X232.0Y-50.0
X232.0Y-52.0
X232.0Y-54.0
X232.0Y-68.0
X232.0Y-70.0
X232.0Y-74.0
X232.0Y-76.0
X232.0Y-78.0
X232.0Y-114.0
X232.137Y-71.862
X233.0Y-92.0
X233.0Y-94.0
X234.0Y-42.0
X234.0Y-44.0
X234.0Y-48.0
X234.0Y-50.0
X234.0Y-52.0
X234.0Y-54.0
X234.0Y-68.0
X234.0Y-70.0
X234.0Y-74.0
X234.0Y-76.0
X234.0Y-78.0
X234.0Y-114.0
X234.137Y-71.862
X235.0Y-92.0
X235.0Y-94.0
X235.987Y-50.012
X236.0Y-42.0
X236.0Y-44.0
X236.0Y-46.0
X236.0Y-48.0
X236.0Y-52.0
X236.0Y-54.0
X236.0Y-68.0
X236.0Y-70.0
X236.0Y-72.0
X236.0Y-74.0
X236.0Y-76.0
X236.0Y-78.0
X236.0Y-114.0
X237.0Y-92.0
X237.0Y-94.0
X237.987Y-52.012
X238.0Y-48.0
X238.0Y-50.0
X238.0Y-54.0
X238.0Y-68.0
X238.0Y-70.0
X238.0Y-72.0
X238.0Y-74.0
X238.0Y-76.0
X238.0Y-78.0
X238.0Y-114.0
X239.0Y-92.0
X239.0Y-94.0
X240.0Y-48.0
X240.0Y-50.0
X240.0Y-68.0
X240.0Y-70.0
X240.0Y-72.0
X240.0Y-74.0
X240.0Y-114.0
X241.0Y-92.0
X241.0Y-94.0
X242.0Y-48.0
X242.0Y-50.0
X242.0Y-68.0
X242.0Y-70.0
X242.0Y-72.0
X242.0Y-114.0
X243.54Y-72.59
X243.55Y-49.75
X243.565Y-95.44
X244.0Y-48.0
X244.0Y-64.0
X244.0Y-66.0
X244.0Y-68.0
X244.0Y-70.0
X244.0Y-72.0
X244.0Y-84.0
X244.0Y-86.0
X244.0Y-88.0
X244.0Y-90.0
X244.0Y-92.0
X244.0Y-94.0
X244.0Y-108.0
X244.0Y-110.0
X244.0Y-112.0
X244.0Y-114.0
X244.845Y-105.5
X246.0Y-48.0
X246.0Y-50.0
X246.0Y-64.0
X246.0Y-66.0
X246.0Y-68.0
X246.0Y-70.0
X246.0Y-72.0
X246.0Y-108.0
X246.0Y-110.0
X246.0Y-112.0
X246.0Y-114.0
X248.0Y-48.0
X248.0Y-50.0
X248.0Y-64.0
X248.0Y-66.0
X248.0Y-68.0
X248.0Y-70.0
X248.0Y-72.0
X248.0Y-88.0
X248.0Y-90.0
X248.0Y-92.0
X248.0Y-94.0
X248.0Y-110.0
X248.0Y-112.0
X248.0Y-114.0
X248.9Y-62.95
X249.225Y-85.75
X249.745Y-55.55
X249.745Y-78.4
X249.75Y-101.25
X250.0Y-48.0
X250.0Y-50.0
X250.0Y-96.0
X250.0Y-106.0
X250.0Y-108.0
X250.0Y-110.0
X250.0Y-112.0
X250.0Y-114.0
X250.97Y-55.43
X250.97Y-78.28
X250.975Y-101.13
X252.0Y-48.0
X252.0Y-50.0
X252.0Y-58.0
X252.0Y-60.0
X252.0Y-62.0
X252.0Y-64.0
X252.0Y-66.0
X252.0Y-68.0
X252.0Y-70.0
X252.0Y-72.0
X252.0Y-84.0
X252.0Y-86.0
X252.0Y-88.0
X252.0Y-90.0
X252.0Y-92.0
X252.0Y-94.0
X252.0Y-96.0
X252.0Y-106.0
X252.0Y-108.0
X252.0Y-110.0
X252.0Y-112.0
X252.0Y-114.0
X254.0Y-48.0
X254.0Y-60.0
X254.0Y-62.0
X254.0Y-64.0
X254.0Y-66.0
X254.0Y-68.0
X254.0Y-70.0
X254.0Y-72.0
X254.0Y-84.0
X254.0Y-86.0
X254.0Y-88.0
X254.0Y-90.0
X254.0Y-92.0
X254.0Y-94.0
X254.0Y-106.0
X254.0Y-108.0
X254.0Y-110.0
X254.0Y-112.0
X254.0Y-114.0
X256.0Y-48.0
X256.0Y-60.0
X256.0Y-62.0
X256.0Y-64.0
X256.0Y-66.0
X256.0Y-68.0
X256.0Y-70.0
X256.0Y-72.0
X256.0Y-84.0
X256.0Y-86.0
X256.0Y-88.0
X256.0Y-90.0
X256.0Y-92.0
X256.0Y-94.0
X256.0Y-106.0
X256.0Y-108.0
X256.0Y-110.0
X256.0Y-112.0
X256.0Y-114.0
X258.0Y-42.0
X258.0Y-48.0
X258.0Y-60.0
X258.0Y-62.0
X258.0Y-64.0
X258.0Y-66.0
X258.0Y-68.0
X258.0Y-70.0
X258.0Y-72.0
X258.0Y-84.0
X258.0Y-86.0
X258.0Y-88.0
X258.0Y-90.0
X258.0Y-92.0
X258.0Y-94.0
X258.0Y-106.0
X258.0Y-112.0
X258.0Y-114.0
X260.0Y-42.0
X260.0Y-48.0
X260.0Y-60.0
X260.0Y-62.0
X260.0Y-64.0
X260.0Y-66.0
X260.0Y-68.0
X260.0Y-70.0
X260.0Y-72.0
X260.0Y-84.0
X260.0Y-86.0
X260.0Y-88.0
X260.0Y-90.0
X260.0Y-92.0
X260.0Y-94.0
X260.0Y-106.0
X260.0Y-114.0
X262.0Y-42.0
X262.0Y-48.0
X262.0Y-60.0
X262.0Y-62.0
X262.0Y-64.0
X262.0Y-66.0
X262.0Y-68.0
X262.0Y-70.0
X262.0Y-72.0
X262.0Y-84.0
X262.0Y-86.0
X262.0Y-88.0
X262.0Y-90.0
X262.0Y-92.0
X262.0Y-94.0
X262.0Y-106.0
X262.0Y-114.0
X264.0Y-44.0
X264.0Y-46.0
X264.0Y-48.0
X264.0Y-50.0
X264.0Y-52.0
X264.0Y-54.0
X264.0Y-56.0
X264.0Y-58.0
X264.0Y-60.0
X264.0Y-62.0
X264.0Y-64.0
X264.0Y-66.0
X264.0Y-68.0
X264.0Y-70.0
X264.0Y-72.0
X264.0Y-74.0
X264.0Y-76.0
X264.0Y-78.0
X264.0Y-80.0
X264.0Y-82.0
X264.0Y-84.0
X264.0Y-86.0
X264.0Y-88.0
X264.0Y-90.0
X264.0Y-92.0
X264.0Y-94.0
X264.0Y-96.0
X264.0Y-98.0
X264.0Y-100.0
X264.0Y-102.0
X264.0Y-104.0
X264.0Y-106.0
X264.0Y-108.0
X264.0Y-110.0
X264.0Y-112.0
T2
X204.098Y-102.091
X205.086Y-101.103
X205.104Y-103.097
X206.074Y-100.116
X206.091Y-102.109
X206.145Y-104.139
X207.061Y-99.128
X207.079Y-101.121
X207.133Y-103.151
X207.151Y-105.144
X208.067Y-100.134
X208.121Y-102.163
X208.139Y-104.157
X209.109Y-101.175
X209.127Y-103.169
X210.115Y-102.181
X238.5Y-40.5
X238.5Y-41.75
X238.5Y-43.0
X238.5Y-44.25
X238.5Y-45.5
X240.35Y-40.5
X240.35Y-41.75
X240.35Y-43.0
X240.35Y-44.25
X240.35Y-45.5
X242.2Y-40.5
X242.2Y-41.75
X242.2Y-43.0
X242.2Y-44.25
X242.2Y-45.5
X244.05Y-40.5
X244.05Y-41.75
X244.05Y-43.0
X244.05Y-45.5
X245.9Y-40.5
X245.9Y-41.75
X245.9Y-43.0
X245.9Y-45.5
X247.75Y-40.5
X247.75Y-41.75
X247.75Y-43.0
X247.75Y-45.5
X248.95Y-40.5
X248.95Y-41.75
X248.95Y-43.0
X248.95Y-45.5
X250.8Y-40.5
X250.8Y-41.75
X250.8Y-43.0
X250.8Y-45.5
X252.65Y-40.5
X252.65Y-41.75
X252.65Y-43.0
X252.65Y-45.5
X254.5Y-40.5
X254.5Y-41.75
X254.5Y-43.0
X254.5Y-44.25
X254.5Y-45.5
X256.35Y-40.5
X256.35Y-41.75
X256.35Y-43.0
X256.35Y-44.25
X256.35Y-45.5
T3
X206.25Y-70.6
X206.3Y-71.6
X207.15Y-70.6
X207.15Y-71.6
X208.0Y-70.6
X208.0Y-71.6
X253.495Y-50.65
X253.495Y-51.65
X253.495Y-52.65
X253.495Y-53.65
X253.495Y-54.65
X253.495Y-55.65
X253.495Y-56.65
X253.495Y-57.65
X253.495Y-58.65
X253.495Y-73.5
X253.495Y-74.5
X253.495Y-75.5
X253.495Y-76.5
X253.495Y-77.5
X253.495Y-78.5
X253.495Y-79.5
X253.495Y-80.5
X253.495Y-81.5
X253.5Y-96.35
X253.5Y-97.35
X253.5Y-98.35
X253.5Y-99.35
X253.5Y-100.35
X253.5Y-101.35
X253.5Y-102.35
X253.5Y-103.35
X253.5Y-104.35
X254.495Y-50.65
X254.495Y-51.65
X254.495Y-52.65
X254.495Y-53.65
X254.495Y-54.65
X254.495Y-55.65
X254.495Y-56.65
X254.495Y-57.65
X254.495Y-58.65
X254.495Y-73.5
X254.495Y-74.5
X254.495Y-75.5
X254.495Y-76.5
X254.495Y-77.5
X254.495Y-78.5
X254.495Y-79.5
X254.495Y-80.5
X254.495Y-81.5
X254.5Y-96.35
X254.5Y-97.35
X254.5Y-98.35
X254.5Y-99.35
X254.5Y-100.35
X254.5Y-101.35
X254.5Y-102.35
X254.5Y-103.35
X254.5Y-104.35
X255.495Y-50.65
X255.495Y-51.65
X255.495Y-52.65
X255.495Y-53.65
X255.495Y-54.65
X255.495Y-55.65
X255.495Y-56.65
X255.495Y-57.65
X255.495Y-58.65
X255.495Y-73.5
X255.495Y-74.5
X255.495Y-75.5
X255.495Y-76.5
X255.495Y-77.5
X255.495Y-78.5
X255.495Y-79.5
X255.495Y-80.5
X255.495Y-81.5
X255.5Y-96.35
X255.5Y-97.35
X255.5Y-98.35
X255.5Y-99.35
X255.5Y-100.35
X255.5Y-101.35
X255.5Y-102.35
X255.5Y-103.35
X255.5Y-104.35
X256.495Y-50.65
X256.495Y-51.65
X256.495Y-52.65
X256.495Y-53.65
X256.495Y-54.65
X256.495Y-55.65
X256.495Y-56.65
X256.495Y-57.65
X256.495Y-58.65
X256.495Y-73.5
X256.495Y-74.5
X256.495Y-75.5
X256.495Y-76.5
X256.495Y-77.5
X256.495Y-78.5
X256.495Y-79.5
X256.495Y-80.5
X256.495Y-81.5
X256.5Y-96.35
X256.5Y-97.35
X256.5Y-98.35
X256.5Y-99.35
X256.5Y-100.35
X256.5Y-101.35
X256.5Y-102.35
X256.5Y-103.35
X256.5Y-104.35
X257.495Y-50.65
X257.495Y-51.65
X257.495Y-52.65
X257.495Y-53.65
X257.495Y-54.65
X257.495Y-55.65
X257.495Y-56.65
X257.495Y-57.65
X257.495Y-58.65
X257.495Y-73.5
X257.495Y-74.5
X257.495Y-75.5
X257.495Y-76.5
X257.495Y-77.5
X257.495Y-78.5
X257.495Y-79.5
X257.495Y-80.5
X257.495Y-81.5
X257.5Y-96.35
X257.5Y-97.35
X257.5Y-98.35
X257.5Y-99.35
X257.5Y-100.35
X257.5Y-101.35
X257.5Y-102.35
X257.5Y-103.35
X257.5Y-104.35
X258.495Y-50.65
X258.495Y-51.65
X258.495Y-52.65
X258.495Y-53.65
X258.495Y-54.65
X258.495Y-55.65
X258.495Y-56.65
X258.495Y-57.65
X258.495Y-58.65
X258.495Y-73.5
X258.495Y-74.5
X258.495Y-75.5
X258.495Y-76.5
X258.495Y-77.5
X258.495Y-78.5
X258.495Y-79.5
X258.495Y-80.5
X258.495Y-81.5
X258.5Y-96.35
X258.5Y-97.35
X258.5Y-98.35
X258.5Y-99.35
X258.5Y-100.35
X258.5Y-101.35
X258.5Y-102.35
X258.5Y-103.35
X258.5Y-104.35
X259.495Y-50.65
X259.495Y-51.65
X259.495Y-52.65
X259.495Y-53.65
X259.495Y-54.65
X259.495Y-55.65
X259.495Y-56.65
X259.495Y-57.65
X259.495Y-58.65
X259.495Y-73.5
X259.495Y-74.5
X259.495Y-75.5
X259.495Y-76.5
X259.495Y-77.5
X259.495Y-78.5
X259.495Y-79.5
X259.495Y-80.5
X259.495Y-81.5
X259.5Y-96.35
X259.5Y-97.35
X259.5Y-98.35
X259.5Y-99.35
X259.5Y-100.35
X259.5Y-101.35
X259.5Y-102.35
X259.5Y-103.35
X259.5Y-104.35
X260.495Y-50.65
X260.495Y-51.65
X260.495Y-52.65
X260.495Y-53.65
X260.495Y-54.65
X260.495Y-55.65
X260.495Y-56.65
X260.495Y-57.65
X260.495Y-58.65
X260.495Y-73.5
X260.495Y-74.5
X260.495Y-75.5
X260.495Y-76.5
X260.495Y-77.5
X260.495Y-78.5
X260.495Y-79.5
X260.495Y-80.5
X260.495Y-81.5
X260.5Y-96.35
X260.5Y-97.35
X260.5Y-98.35
X260.5Y-99.35
X260.5Y-100.35
X260.5Y-101.35
X260.5Y-102.35
X260.5Y-103.35
X260.5Y-104.35
X261.495Y-50.65
X261.495Y-51.65
X261.495Y-52.65
X261.495Y-53.65
X261.495Y-54.65
X261.495Y-55.65
X261.495Y-56.65
X261.495Y-57.65
X261.495Y-58.65
X261.495Y-73.5
X261.495Y-74.5
X261.495Y-75.5
X261.495Y-76.5
X261.495Y-77.5
X261.495Y-78.5
X261.495Y-79.5
X261.495Y-80.5
X261.495Y-81.5
X261.5Y-96.35
X261.5Y-97.35
X261.5Y-98.35
X261.5Y-99.35
X261.5Y-100.35
X261.5Y-101.35
X261.5Y-102.35
X261.5Y-103.35
X261.5Y-104.35
T4
X220.485Y-57.315
X220.485Y-58.815
X220.485Y-60.315
X220.485Y-61.815
X220.485Y-63.315
X220.485Y-64.815
X220.485Y-66.315
X220.5Y-80.15
X220.5Y-81.65
X220.5Y-83.15
X220.5Y-84.65
X220.5Y-86.15
X220.5Y-87.65
X220.5Y-89.15
X220.5Y-104.5
X220.5Y-106.0
X220.5Y-107.5
X220.5Y-109.0
X220.5Y-110.5
X220.5Y-112.0
X222.485Y-57.315
X222.485Y-58.815
X222.485Y-60.315
X222.485Y-61.815
X222.485Y-63.315
X222.485Y-64.815
X222.485Y-66.315
X222.5Y-80.15
X222.5Y-81.65
X222.5Y-83.15
X222.5Y-84.65
X222.5Y-86.15
X222.5Y-87.65
X222.5Y-89.15
X222.5Y-103.0
X222.5Y-104.5
X222.5Y-106.0
X222.5Y-107.5
X222.5Y-109.0
X222.5Y-110.5
X222.5Y-112.0
X224.485Y-57.315
X224.485Y-58.815
X224.485Y-60.315
X224.485Y-61.815
X224.485Y-63.315
X224.485Y-64.815
X224.485Y-66.315
X224.5Y-80.15
X224.5Y-81.65
X224.5Y-83.15
X224.5Y-84.65
X224.5Y-86.15
X224.5Y-87.65
X224.5Y-89.15
X224.5Y-103.0
X224.5Y-104.5
X224.5Y-106.0
X224.5Y-107.5
X224.5Y-109.0
X224.5Y-110.5
X224.5Y-112.0
X226.485Y-57.315
X226.485Y-58.815
X226.485Y-60.315
X226.485Y-61.815
X226.485Y-63.315
X226.485Y-64.815
X226.485Y-66.315
X226.5Y-80.15
X226.5Y-81.65
X226.5Y-83.15
X226.5Y-84.65
X226.5Y-86.15
X226.5Y-87.65
X226.5Y-89.15
X226.5Y-103.0
X226.5Y-104.5
X226.5Y-106.0
X226.5Y-107.5
X226.5Y-109.0
X226.5Y-110.5
X226.5Y-112.0
X228.485Y-57.315
X228.485Y-58.815
X228.485Y-60.315
X228.485Y-61.815
X228.485Y-63.315
X228.485Y-64.815
X228.485Y-66.315
X228.5Y-80.15
X228.5Y-81.65
X228.5Y-83.15
X228.5Y-84.65
X228.5Y-86.15
X228.5Y-87.65
X228.5Y-89.15
X228.5Y-103.0
X228.5Y-104.5
X228.5Y-106.0
X228.5Y-107.5
X228.5Y-109.0
X228.5Y-110.5
X228.5Y-112.0
X230.485Y-57.315
X230.485Y-58.815
X230.485Y-60.315
X230.485Y-61.815
X230.485Y-63.315
X230.485Y-64.815
X230.485Y-66.315
X230.5Y-80.15
X230.5Y-81.65
X230.5Y-83.15
X230.5Y-84.65
X230.5Y-86.15
X230.5Y-87.65
X230.5Y-89.15
X230.5Y-103.0
X230.5Y-104.5
X230.5Y-106.0
X230.5Y-107.5
X230.5Y-109.0
X230.5Y-110.5
X230.5Y-112.0
X232.485Y-57.315
X232.485Y-58.815
X232.485Y-60.315
X232.485Y-61.815
X232.485Y-63.315
X232.485Y-64.815
X232.485Y-66.315
X232.5Y-80.15
X232.5Y-81.65
X232.5Y-83.15
X232.5Y-84.65
X232.5Y-86.15
X232.5Y-87.65
X232.5Y-89.15
X232.5Y-103.0
X232.5Y-104.5
X232.5Y-106.0
X232.5Y-107.5
X232.5Y-109.0
X232.5Y-110.5
X232.5Y-112.0
X234.485Y-57.315
X234.485Y-58.815
X234.485Y-60.315
X234.485Y-61.815
X234.485Y-63.315
X234.485Y-64.815
X234.485Y-66.315
X234.5Y-80.15
X234.5Y-81.65
X234.5Y-83.15
X234.5Y-84.65
X234.5Y-86.15
X234.5Y-87.65
X234.5Y-89.15
X234.5Y-103.0
X234.5Y-104.5
X234.5Y-106.0
X234.5Y-107.5
X234.5Y-109.0
X234.5Y-110.5
X234.5Y-112.0
X236.485Y-57.315
X236.485Y-58.815
X236.485Y-60.315
X236.485Y-61.815
X236.485Y-63.315
X236.485Y-64.815
X236.485Y-66.315
X236.5Y-80.15
X236.5Y-81.65
X236.5Y-83.15
X236.5Y-84.65
X236.5Y-86.15
X236.5Y-87.65
X236.5Y-89.15
X236.5Y-103.0
X236.5Y-104.5
X236.5Y-106.0
X236.5Y-107.5
X236.5Y-109.0
X236.5Y-110.5
X236.5Y-112.0
X238.485Y-57.315
X238.485Y-58.815
X238.485Y-60.315
X238.485Y-61.815
X238.485Y-63.315
X238.485Y-64.815
X238.485Y-66.315
X238.5Y-80.15
X238.5Y-81.65
X238.5Y-83.15
X238.5Y-84.65
X238.5Y-86.15
X238.5Y-87.65
X238.5Y-89.15
X238.5Y-103.0
X238.5Y-104.5
X238.5Y-106.0
X238.5Y-107.5
X238.5Y-109.0
X238.5Y-110.5
X238.5Y-112.0
T5
X191.825Y-49.88
X191.825Y-52.42
X191.825Y-54.96
X191.825Y-57.5
X191.825Y-70.825
X191.825Y-73.365
X191.825Y-75.905
X191.825Y-78.445
X191.825Y-80.985
X191.825Y-84.605
X191.825Y-87.145
X191.825Y-89.685
X191.825Y-92.225
X199.95Y-41.86
X199.95Y-44.4
X202.49Y-41.86
X202.49Y-44.4
X205.03Y-41.86
X205.03Y-44.4
X207.57Y-41.86
X207.57Y-44.4
X210.11Y-41.86
X210.11Y-44.4
X212.65Y-41.86
X212.65Y-44.4
X215.19Y-41.86
X215.19Y-44.4
X217.73Y-41.86
X217.73Y-44.4
X244.475Y-44.25
X247.015Y-44.25
X249.555Y-44.25
X252.095Y-44.25
T6
X195.0Y-45.0
X195.0Y-110.0
X260.0Y-45.0
X260.0Y-110.0
T0
M30
