G04 #@! TF.GenerationSoftware,KiCad,Pcbnew,5.1.10-88a1d61d58~90~ubuntu20.04.1*
G04 #@! TF.CreationDate,2021-08-30T21:25:50+02:00*
G04 #@! TF.ProjectId,eval_board_tmc6200-ta,6576616c-5f62-46f6-9172-645f746d6336,rev?*
G04 #@! TF.SameCoordinates,Original*
G04 #@! TF.FileFunction,Soldermask,Bot*
G04 #@! TF.FilePolarity,Negative*
%FSLAX46Y46*%
G04 Gerber Fmt 4.6, Leading zero omitted, Abs format (unit mm)*
G04 Created by KiCad (PCBNEW 5.1.10-88a1d61d58~90~ubuntu20.04.1) date 2021-08-30 21:25:50*
%MOMM*%
%LPD*%
G01*
G04 APERTURE LIST*
%ADD10C,2.000000*%
%ADD11C,0.010000*%
%ADD12C,5.400000*%
%ADD13C,3.100000*%
%ADD14O,1.700000X1.700000*%
%ADD15R,1.700000X1.700000*%
G04 APERTURE END LIST*
D10*
X195000000Y-115000000D02*
G75*
G02*
X190000000Y-110000000I0J5000000D01*
G01*
D11*
G36*
X198750000Y-42500000D02*
G01*
X193250000Y-42500000D01*
X193250000Y-40000000D01*
X198750000Y-40000000D01*
X198750000Y-42500000D01*
G37*
X198750000Y-42500000D02*
X193250000Y-42500000D01*
X193250000Y-40000000D01*
X198750000Y-40000000D01*
X198750000Y-42500000D01*
D10*
X265000000Y-110000000D02*
G75*
G02*
X260000000Y-115000000I-5000000J0D01*
G01*
X190000000Y-45000000D02*
G75*
G02*
X195000000Y-40000000I5000000J0D01*
G01*
X260000000Y-40000000D02*
G75*
G02*
X265000000Y-45000000I0J-5000000D01*
G01*
X195000000Y-40000000D02*
X260000000Y-40000000D01*
X190000000Y-110000000D02*
X190000000Y-45000000D01*
X260000000Y-115000000D02*
X195000000Y-115000000D01*
X265000000Y-45000000D02*
X265000000Y-110000000D01*
D12*
X195000000Y-110000000D03*
D13*
X195000000Y-110000000D03*
D14*
X191825000Y-80985000D03*
X191825000Y-78445000D03*
X191825000Y-75905000D03*
X191825000Y-73365000D03*
D15*
X191825000Y-70825000D03*
D14*
X191825000Y-84605000D03*
X191825000Y-87145000D03*
X191825000Y-89685000D03*
D15*
X191825000Y-92225000D03*
D14*
X252095000Y-44250000D03*
X249555000Y-44250000D03*
X247015000Y-44250000D03*
D15*
X244475000Y-44250000D03*
D14*
X217730000Y-41860000D03*
X217730000Y-44400000D03*
X215190000Y-41860000D03*
X215190000Y-44400000D03*
X212650000Y-41860000D03*
X212650000Y-44400000D03*
X210110000Y-41860000D03*
X210110000Y-44400000D03*
X207570000Y-41860000D03*
X207570000Y-44400000D03*
X205030000Y-41860000D03*
X205030000Y-44400000D03*
X202490000Y-41860000D03*
X202490000Y-44400000D03*
X199950000Y-41860000D03*
D15*
X199950000Y-44400000D03*
D14*
X191825000Y-49880000D03*
X191825000Y-52420000D03*
X191825000Y-54960000D03*
D15*
X191825000Y-57500000D03*
D12*
X195000000Y-45000000D03*
D13*
X195000000Y-45000000D03*
D12*
X260000000Y-45000000D03*
D13*
X260000000Y-45000000D03*
D12*
X260000000Y-110000000D03*
D13*
X260000000Y-110000000D03*
M02*
