%TF.GenerationSoftware,KiCad,Pcbnew,6.0.4-6f826c9f35~116~ubuntu20.04.1*%
%TF.CreationDate,2022-03-31T23:30:20+02:00*%
%TF.ProjectId,eval_board_tmc6200-ta,6576616c-5f62-46f6-9172-645f746d6336,rev?*%
%TF.SameCoordinates,Original*%
%TF.FileFunction,Soldermask,Top*%
%TF.FilePolarity,Negative*%
%FSLAX46Y46*%
G04 Gerber Fmt 4.6, Leading zero omitted, Abs format (unit mm)*
G04 Created by KiCad (PCBNEW 6.0.4-6f826c9f35~116~ubuntu20.04.1) date 2022-03-31 23:30:20*
%MOMM*%
%LPD*%
G01*
G04 APERTURE LIST*
G04 Aperture macros list*
%AMRoundRect*
0 Rectangle with rounded corners*
0 $1 Rounding radius*
0 $2 $3 $4 $5 $6 $7 $8 $9 X,Y pos of 4 corners*
0 Add a 4 corners polygon primitive as box body*
4,1,4,$2,$3,$4,$5,$6,$7,$8,$9,$2,$3,0*
0 Add four circle primitives for the rounded corners*
1,1,$1+$1,$2,$3*
1,1,$1+$1,$4,$5*
1,1,$1+$1,$6,$7*
1,1,$1+$1,$8,$9*
0 Add four rect primitives between the rounded corners*
20,1,$1+$1,$2,$3,$4,$5,0*
20,1,$1+$1,$4,$5,$6,$7,0*
20,1,$1+$1,$6,$7,$8,$9,0*
20,1,$1+$1,$8,$9,$2,$3,0*%
%AMFreePoly0*
4,1,67,-0.740873,1.161197,-0.737337,1.159733,-0.710267,1.132663,-0.708803,1.129127,-0.705000,1.110000,-0.705000,0.625000,-0.585000,0.625000,-0.585000,1.110000,-0.581197,1.129127,-0.579733,1.132663,-0.552663,1.159733,-0.549127,1.161197,-0.530000,1.165000,-0.110000,1.165000,-0.090873,1.161197,-0.087337,1.159733,-0.060267,1.132663,-0.058803,1.129127,-0.055000,1.110000,-0.055000,0.625000,
0.065000,0.625000,0.065000,1.110000,0.068803,1.129127,0.070267,1.132663,0.097337,1.159733,0.100873,1.161197,0.120000,1.165000,0.540000,1.165000,0.559127,1.161197,0.562663,1.159733,0.589733,1.132663,0.591197,1.129127,0.595000,1.110000,0.595000,0.625000,0.715000,0.625000,0.715000,1.110000,0.718803,1.129127,0.720267,1.132663,0.747337,1.159733,0.750873,1.161197,
0.770000,1.165000,1.190000,1.165000,1.209127,1.161197,1.212663,1.159733,1.239733,1.132663,1.241197,1.129127,1.245000,1.110000,1.245000,-1.140000,1.241197,-1.159127,1.239733,-1.162663,1.212663,-1.189733,1.209127,-1.191197,1.190000,-1.195000,-1.180000,-1.195000,-1.199127,-1.191197,-1.202663,-1.189733,-1.229733,-1.162663,-1.231197,-1.159127,-1.235000,-1.140000,-1.235000,1.110000,
-1.231197,1.129127,-1.229733,1.132663,-1.202663,1.159733,-1.199127,1.161197,-1.180000,1.165000,-0.760000,1.165000,-0.740873,1.161197,-0.740873,1.161197,$1*%
%AMFreePoly1*
4,1,37,0.585355,0.785355,0.600000,0.750000,0.600000,-0.750000,0.585355,-0.785355,0.550000,-0.800000,0.000000,-0.799999,-0.012524,-0.794812,-0.080857,-0.793560,-0.094851,-0.791293,-0.230166,-0.749018,-0.242962,-0.742915,-0.360972,-0.664360,-0.371539,-0.654911,-0.462760,-0.546392,-0.470252,-0.534356,-0.527347,-0.404597,-0.531160,-0.390943,-0.548742,-0.256483,-0.547388,-0.256306,-0.550000,-0.250000,
-0.550000,0.250000,-0.549522,0.251153,-0.549368,0.263802,-0.527558,0.403879,-0.523412,0.417435,-0.463164,0.545760,-0.455381,0.557609,-0.361537,0.663867,-0.350741,0.673055,-0.230846,0.748703,-0.217906,0.754492,-0.081598,0.793449,-0.067552,0.795373,-0.011991,0.795033,0.000000,0.799999,0.550000,0.800000,0.585355,0.785355,0.585355,0.785355,$1*%
%AMFreePoly2*
4,1,37,0.012350,0.794884,0.074210,0.794507,0.088231,0.792412,0.224052,0.751793,0.236921,0.745846,0.355883,0.668739,0.366566,0.659420,0.459104,0.552023,0.466742,0.540080,0.525419,0.411028,0.529398,0.397421,0.549495,0.257088,0.550000,0.250000,0.550000,-0.250000,0.549996,-0.250610,0.549847,-0.262827,0.549158,-0.270511,0.525638,-0.410312,0.521328,-0.423818,0.459515,-0.551397,
0.451589,-0.563150,0.356454,-0.668254,0.345546,-0.677309,0.224736,-0.751486,0.211726,-0.757116,0.074953,-0.794405,0.060885,-0.796158,0.011462,-0.795252,0.000000,-0.799999,-0.550000,-0.800000,-0.585355,-0.785355,-0.600000,-0.750000,-0.600000,0.750000,-0.585355,0.785355,-0.550000,0.800000,0.000000,0.799999,0.012350,0.794884,0.012350,0.794884,$1*%
G04 Aperture macros list end*
%ADD10C,0.100000*%
%ADD11C,0.010000*%
%TA.AperFunction,Profile*%
%ADD12C,0.100000*%
%TD*%
%ADD13RoundRect,0.190000X0.140000X0.170000X-0.140000X0.170000X-0.140000X-0.170000X0.140000X-0.170000X0*%
%ADD14RoundRect,0.050000X-0.450000X-0.600000X0.450000X-0.600000X0.450000X0.600000X-0.450000X0.600000X0*%
%ADD15RoundRect,0.275000X-0.017678X0.335876X-0.335876X0.017678X0.017678X-0.335876X0.335876X-0.017678X0*%
%ADD16RoundRect,0.185000X0.035355X-0.226274X0.226274X-0.035355X-0.035355X0.226274X-0.226274X0.035355X0*%
%ADD17RoundRect,0.185000X-0.185000X0.135000X-0.185000X-0.135000X0.185000X-0.135000X0.185000X0.135000X0*%
%ADD18RoundRect,0.050000X-0.210000X0.350000X-0.210000X-0.350000X0.210000X-0.350000X0.210000X0.350000X0*%
%ADD19FreePoly0,180.000000*%
%ADD20RoundRect,0.299997X0.312503X1.075003X-0.312503X1.075003X-0.312503X-1.075003X0.312503X-1.075003X0*%
%ADD21RoundRect,0.299750X0.312750X1.075250X-0.312750X1.075250X-0.312750X-1.075250X0.312750X-1.075250X0*%
%ADD22RoundRect,0.050000X0.850000X-0.850000X0.850000X0.850000X-0.850000X0.850000X-0.850000X-0.850000X0*%
%ADD23O,1.800000X1.800000*%
%ADD24RoundRect,0.299999X-0.325001X-1.100001X0.325001X-1.100001X0.325001X1.100001X-0.325001X1.100001X0*%
%ADD25RoundRect,0.299550X-0.325450X-1.100450X0.325450X-1.100450X0.325450X1.100450X-0.325450X1.100450X0*%
%ADD26C,3.200000*%
%ADD27C,5.500000*%
%ADD28RoundRect,0.185000X-0.135000X-0.185000X0.135000X-0.185000X0.135000X0.185000X-0.135000X0.185000X0*%
%ADD29RoundRect,0.275000X-0.250000X0.225000X-0.250000X-0.225000X0.250000X-0.225000X0.250000X0.225000X0*%
%ADD30RoundRect,0.185000X-0.226274X-0.035355X-0.035355X-0.226274X0.226274X0.035355X0.035355X0.226274X0*%
%ADD31RoundRect,0.275000X-0.335876X-0.017678X-0.017678X-0.335876X0.335876X0.017678X0.017678X0.335876X0*%
%ADD32RoundRect,0.050000X-0.850000X-0.850000X0.850000X-0.850000X0.850000X0.850000X-0.850000X0.850000X0*%
%ADD33RoundRect,0.190000X-0.140000X-0.170000X0.140000X-0.170000X0.140000X0.170000X-0.140000X0.170000X0*%
%ADD34RoundRect,0.190000X-0.219203X-0.021213X-0.021213X-0.219203X0.219203X0.021213X0.021213X0.219203X0*%
%ADD35RoundRect,0.050000X0.371231X0.618718X-0.618718X-0.371231X-0.371231X-0.618718X0.618718X0.371231X0*%
%ADD36RoundRect,0.050000X-0.618718X0.371231X0.371231X-0.618718X0.618718X-0.371231X-0.371231X0.618718X0*%
%ADD37RoundRect,0.050000X0.000000X3.606245X-3.606245X0.000000X0.000000X-3.606245X3.606245X0.000000X0*%
%ADD38RoundRect,0.190000X0.219203X0.021213X0.021213X0.219203X-0.219203X-0.021213X-0.021213X-0.219203X0*%
%ADD39RoundRect,0.275000X0.335876X0.017678X0.017678X0.335876X-0.335876X-0.017678X-0.017678X-0.335876X0*%
%ADD40RoundRect,0.185000X-0.035355X0.226274X-0.226274X0.035355X0.035355X-0.226274X0.226274X-0.035355X0*%
%ADD41RoundRect,0.185000X0.226274X0.035355X0.035355X0.226274X-0.226274X-0.035355X-0.035355X-0.226274X0*%
%ADD42RoundRect,0.050000X0.450000X0.600000X-0.450000X0.600000X-0.450000X-0.600000X0.450000X-0.600000X0*%
%ADD43RoundRect,0.275000X0.017678X-0.335876X0.335876X-0.017678X-0.017678X0.335876X-0.335876X0.017678X0*%
%ADD44RoundRect,0.050000X0.850000X0.850000X-0.850000X0.850000X-0.850000X-0.850000X0.850000X-0.850000X0*%
%ADD45RoundRect,0.299999X0.325001X0.650001X-0.325001X0.650001X-0.325001X-0.650001X0.325001X-0.650001X0*%
%ADD46RoundRect,0.185000X0.135000X0.185000X-0.135000X0.185000X-0.135000X-0.185000X0.135000X-0.185000X0*%
%ADD47RoundRect,0.299997X4.550003X-4.150003X4.550003X4.150003X-4.550003X4.150003X-4.550003X-4.150003X0*%
%ADD48RoundRect,0.296400X4.553600X-4.153600X4.553600X4.153600X-4.553600X4.153600X-4.553600X-4.153600X0*%
%ADD49RoundRect,0.050000X-0.475000X-0.150000X0.475000X-0.150000X0.475000X0.150000X-0.475000X0.150000X0*%
%ADD50RoundRect,0.050000X-0.425000X-0.150000X0.425000X-0.150000X0.425000X0.150000X-0.425000X0.150000X0*%
%ADD51RoundRect,0.250000X0.275000X-0.200000X0.275000X0.200000X-0.275000X0.200000X-0.275000X-0.200000X0*%
%ADD52RoundRect,0.299999X-1.450001X0.450001X-1.450001X-0.450001X1.450001X-0.450001X1.450001X0.450001X0*%
%ADD53RoundRect,0.190000X0.021213X-0.219203X0.219203X-0.021213X-0.021213X0.219203X-0.219203X0.021213X0*%
%ADD54FreePoly1,315.000000*%
%ADD55RoundRect,0.050000X-0.883883X-0.176777X-0.176777X-0.883883X0.883883X0.176777X0.176777X0.883883X0*%
%ADD56FreePoly2,315.000000*%
%ADD57RoundRect,0.185000X0.185000X-0.135000X0.185000X0.135000X-0.185000X0.135000X-0.185000X-0.135000X0*%
%ADD58RoundRect,0.050000X-0.600000X-2.350000X0.600000X-2.350000X0.600000X2.350000X-0.600000X2.350000X0*%
%ADD59RoundRect,0.197500X0.172500X-0.147500X0.172500X0.147500X-0.172500X0.147500X-0.172500X-0.147500X0*%
%ADD60RoundRect,0.197500X0.017678X-0.226274X0.226274X-0.017678X-0.017678X0.226274X-0.226274X0.017678X0*%
%ADD61RoundRect,0.070000X0.484368X0.222739X0.222739X0.484368X-0.484368X-0.222739X-0.222739X-0.484368X0*%
%ADD62RoundRect,0.070000X0.222739X-0.484368X0.484368X-0.222739X-0.222739X0.484368X-0.484368X0.222739X0*%
%ADD63RoundRect,0.070000X0.000000X-3.005204X3.005204X0.000000X0.000000X3.005204X-3.005204X0.000000X0*%
%ADD64RoundRect,0.035000X0.318198X-0.106066X-0.106066X0.318198X-0.318198X0.106066X0.106066X-0.318198X0*%
%ADD65RoundRect,0.035000X0.106066X0.318198X-0.318198X-0.106066X-0.106066X-0.318198X0.318198X0.106066X0*%
%ADD66RoundRect,0.035000X2.439518X0.000000X0.000000X2.439518X-2.439518X0.000000X0.000000X-2.439518X0*%
%ADD67RoundRect,0.197500X-0.226274X-0.017678X-0.017678X-0.226274X0.226274X0.017678X0.017678X0.226274X0*%
%ADD68RoundRect,0.190000X-0.021213X0.219203X-0.219203X0.021213X0.021213X-0.219203X0.219203X-0.021213X0*%
%ADD69RoundRect,0.299999X0.229810X-0.689431X0.689431X-0.229810X-0.229810X0.689431X-0.689431X0.229810X0*%
%ADD70RoundRect,0.250000X0.053033X-0.335876X0.335876X-0.053033X-0.053033X0.335876X-0.335876X0.053033X0*%
%ADD71RoundRect,0.250000X-0.275000X0.200000X-0.275000X-0.200000X0.275000X-0.200000X0.275000X0.200000X0*%
%ADD72FreePoly1,45.000000*%
%ADD73RoundRect,0.050000X0.176777X-0.883883X0.883883X-0.176777X-0.176777X0.883883X-0.883883X0.176777X0*%
%ADD74FreePoly2,45.000000*%
%ADD75RoundRect,0.050000X-0.400000X0.450000X-0.400000X-0.450000X0.400000X-0.450000X0.400000X0.450000X0*%
G04 APERTURE END LIST*
D10*
G36*
X85786231Y-139295000D02*
G01*
X77022746Y-139295000D01*
X77022746Y-131295000D01*
X85786231Y-131295000D01*
X85786231Y-139295000D01*
G37*
X85786231Y-139295000D02*
X77022746Y-139295000D01*
X77022746Y-131295000D01*
X85786231Y-131295000D01*
X85786231Y-139295000D01*
G36*
X85766011Y-162145000D02*
G01*
X77002526Y-162145000D01*
X77002526Y-154145000D01*
X85766011Y-154145000D01*
X85766011Y-162145000D01*
G37*
X85766011Y-162145000D02*
X77002526Y-162145000D01*
X77002526Y-154145000D01*
X85766011Y-154145000D01*
X85766011Y-162145000D01*
G36*
X85771011Y-184995000D02*
G01*
X77007526Y-184995000D01*
X77007526Y-176995000D01*
X85771011Y-176995000D01*
X85771011Y-184995000D01*
G37*
X85771011Y-184995000D02*
X77007526Y-184995000D01*
X77007526Y-176995000D01*
X85771011Y-176995000D01*
X85771011Y-184995000D01*
G36*
X80728000Y-126645000D02*
G01*
X72478000Y-126645000D01*
X72478000Y-120645000D01*
X80728000Y-120645000D01*
X80728000Y-126645000D01*
G37*
X80728000Y-126645000D02*
X72478000Y-126645000D01*
X72478000Y-120645000D01*
X80728000Y-120645000D01*
X80728000Y-126645000D01*
D11*
G36*
X22728000Y-123145000D02*
G01*
X17228000Y-123145000D01*
X17228000Y-120645000D01*
X22728000Y-120645000D01*
X22728000Y-123145000D01*
G37*
X22728000Y-123145000D02*
X17228000Y-123145000D01*
X17228000Y-120645000D01*
X22728000Y-120645000D01*
X22728000Y-123145000D01*
D10*
G36*
X72228000Y-126645000D02*
G01*
X61978000Y-126645000D01*
X61978000Y-120645000D01*
X72228000Y-120645000D01*
X72228000Y-126645000D01*
G37*
X72228000Y-126645000D02*
X61978000Y-126645000D01*
X61978000Y-120645000D01*
X72228000Y-120645000D01*
X72228000Y-126645000D01*
D12*
X13978000Y-190645000D02*
G75*
G03*
X18978000Y-195645000I5000000J0D01*
G01*
X83978000Y-195645000D02*
G75*
G03*
X88978000Y-190645000I0J5000000D01*
G01*
X18978000Y-120645000D02*
G75*
G03*
X13978000Y-125645000I0J-5000000D01*
G01*
X88978000Y-125645000D02*
G75*
G03*
X83978000Y-120645000I-5000000J0D01*
G01*
X18978000Y-120645000D02*
X83978000Y-120645000D01*
X13978000Y-190645000D02*
X13978000Y-125645000D01*
X83978000Y-195645000D02*
X18978000Y-195645000D01*
X88978000Y-125645000D02*
X88978000Y-190645000D01*
D10*
G36*
X85786231Y-139295000D02*
G01*
X77022746Y-139295000D01*
X77022746Y-131295000D01*
X85786231Y-131295000D01*
X85786231Y-139295000D01*
G37*
X85786231Y-139295000D02*
X77022746Y-139295000D01*
X77022746Y-131295000D01*
X85786231Y-131295000D01*
X85786231Y-139295000D01*
G36*
X85766011Y-162145000D02*
G01*
X77002526Y-162145000D01*
X77002526Y-154145000D01*
X85766011Y-154145000D01*
X85766011Y-162145000D01*
G37*
X85766011Y-162145000D02*
X77002526Y-162145000D01*
X77002526Y-154145000D01*
X85766011Y-154145000D01*
X85766011Y-162145000D01*
G36*
X85771011Y-184995000D02*
G01*
X77007526Y-184995000D01*
X77007526Y-176995000D01*
X85771011Y-176995000D01*
X85771011Y-184995000D01*
G37*
X85771011Y-184995000D02*
X77007526Y-184995000D01*
X77007526Y-176995000D01*
X85771011Y-176995000D01*
X85771011Y-184995000D01*
G36*
X80728000Y-126645000D02*
G01*
X72478000Y-126645000D01*
X72478000Y-120645000D01*
X80728000Y-120645000D01*
X80728000Y-126645000D01*
G37*
X80728000Y-126645000D02*
X72478000Y-126645000D01*
X72478000Y-120645000D01*
X80728000Y-120645000D01*
X80728000Y-126645000D01*
D11*
G36*
X22728000Y-123145000D02*
G01*
X17228000Y-123145000D01*
X17228000Y-120645000D01*
X22728000Y-120645000D01*
X22728000Y-123145000D01*
G37*
X22728000Y-123145000D02*
X17228000Y-123145000D01*
X17228000Y-120645000D01*
X22728000Y-120645000D01*
X22728000Y-123145000D01*
D10*
G36*
X72228000Y-126645000D02*
G01*
X61978000Y-126645000D01*
X61978000Y-120645000D01*
X72228000Y-120645000D01*
X72228000Y-126645000D01*
G37*
X72228000Y-126645000D02*
X61978000Y-126645000D01*
X61978000Y-120645000D01*
X72228000Y-120645000D01*
X72228000Y-126645000D01*
D12*
X13978000Y-190645000D02*
G75*
G03*
X18978000Y-195645000I5000000J0D01*
G01*
X83978000Y-195645000D02*
G75*
G03*
X88978000Y-190645000I0J5000000D01*
G01*
X18978000Y-120645000D02*
G75*
G03*
X13978000Y-125645000I0J-5000000D01*
G01*
X88978000Y-125645000D02*
G75*
G03*
X83978000Y-120645000I-5000000J0D01*
G01*
X18978000Y-120645000D02*
X83978000Y-120645000D01*
X13978000Y-190645000D02*
X13978000Y-125645000D01*
X83978000Y-195645000D02*
X18978000Y-195645000D01*
X88978000Y-125645000D02*
X88978000Y-190645000D01*
D13*
X68546920Y-134233920D03*
X67586920Y-134233920D03*
D14*
X64979280Y-178272440D03*
X68279280Y-178272440D03*
D15*
X38526762Y-183731391D03*
X37430746Y-184827407D03*
D16*
X24119463Y-181047920D03*
X24840711Y-180326672D03*
D17*
X73355200Y-130904520D03*
X73355200Y-131924520D03*
D18*
X69957040Y-177524200D03*
X70607040Y-177524200D03*
X71257040Y-177524200D03*
X71907040Y-177524200D03*
D19*
X70932040Y-179754200D03*
D20*
X76626180Y-133974840D03*
D21*
X73701180Y-133974840D03*
D18*
X69957040Y-181374840D03*
X71257040Y-181374840D03*
X70607040Y-181374840D03*
X71907040Y-181374840D03*
D19*
X70932040Y-183604840D03*
D15*
X28801008Y-161296992D03*
X27704992Y-162393008D03*
D22*
X23928000Y-125045000D03*
D23*
X23928000Y-122505000D03*
X26468000Y-125045000D03*
X26468000Y-122505000D03*
X29008000Y-125045000D03*
X29008000Y-122505000D03*
X31548000Y-125045000D03*
X31548000Y-122505000D03*
X34088000Y-125045000D03*
X34088000Y-122505000D03*
X36628000Y-125045000D03*
X36628000Y-122505000D03*
X39168000Y-125045000D03*
X39168000Y-122505000D03*
X41708000Y-125045000D03*
X41708000Y-122505000D03*
D24*
X32846000Y-155568000D03*
D25*
X35796000Y-155568000D03*
D21*
X76631260Y-179679600D03*
X73706260Y-179679600D03*
D26*
X83978000Y-190645000D03*
D27*
X83978000Y-190645000D03*
D28*
X34088000Y-127335000D03*
X35108000Y-127335000D03*
D22*
X68453000Y-124895000D03*
D23*
X70993000Y-124895000D03*
X73533000Y-124895000D03*
X76073000Y-124895000D03*
D29*
X32928000Y-159020000D03*
X32928000Y-160570000D03*
D30*
X28829123Y-146459886D03*
X29550371Y-147181134D03*
D31*
X26827680Y-189257431D03*
X27923696Y-190353447D03*
D32*
X15803000Y-151470000D03*
D23*
X15803000Y-154010000D03*
X15803000Y-156550000D03*
X15803000Y-159090000D03*
X15803000Y-161630000D03*
D28*
X18565400Y-183095900D03*
X19585400Y-183095900D03*
X67536600Y-158064200D03*
X68556600Y-158064200D03*
D17*
X73355200Y-176604200D03*
X73355200Y-177624200D03*
D33*
X71442640Y-130906520D03*
X72402640Y-130906520D03*
D34*
X28868589Y-172705589D03*
X29547411Y-173384411D03*
D16*
X37368616Y-142870140D03*
X38089864Y-142148892D03*
D30*
X35645633Y-135273456D03*
X36366881Y-135994704D03*
D35*
X35985279Y-181768604D03*
X35631726Y-181415051D03*
X35278172Y-181061497D03*
X34924619Y-180707944D03*
X34571066Y-180354391D03*
X34217512Y-180000837D03*
X33863959Y-179647284D03*
X33510405Y-179293730D03*
X33156852Y-178940177D03*
X32803299Y-178586624D03*
X32449745Y-178233070D03*
X32096192Y-177879517D03*
D36*
X30045582Y-177879517D03*
X29692029Y-178233070D03*
X29338475Y-178586624D03*
X28984922Y-178940177D03*
X28631369Y-179293730D03*
X28277815Y-179647284D03*
X27924262Y-180000837D03*
X27570708Y-180354391D03*
X27217155Y-180707944D03*
X26863602Y-181061497D03*
X26510048Y-181415051D03*
X26156495Y-181768604D03*
D35*
X26156495Y-183819214D03*
X26510048Y-184172767D03*
X26863602Y-184526321D03*
X27217155Y-184879874D03*
X27570708Y-185233427D03*
X27924262Y-185586981D03*
X28277815Y-185940534D03*
X28631369Y-186294088D03*
X28984922Y-186647641D03*
X29338475Y-187001194D03*
X29692029Y-187354748D03*
X30045582Y-187708301D03*
D36*
X32096192Y-187708301D03*
X32449745Y-187354748D03*
X32803299Y-187001194D03*
X33156852Y-186647641D03*
X33510405Y-186294088D03*
X33863959Y-185940534D03*
X34217512Y-185586981D03*
X34571066Y-185233427D03*
X34924619Y-184879874D03*
X35278172Y-184526321D03*
X35631726Y-184172767D03*
X35985279Y-183819214D03*
D37*
X31070887Y-182793909D03*
D38*
X31678763Y-136935157D03*
X30999941Y-136256335D03*
D39*
X26551909Y-178403342D03*
X25455893Y-177307326D03*
D40*
X33566738Y-134622918D03*
X32845490Y-135344166D03*
D18*
X69957040Y-131824520D03*
X71907040Y-131824520D03*
X70607040Y-131824520D03*
X71257040Y-131824520D03*
D19*
X70932040Y-134054520D03*
D30*
X27167376Y-175184376D03*
X27888624Y-175905624D03*
D41*
X26663624Y-161705624D03*
X25942376Y-160984376D03*
D42*
X72129920Y-140274040D03*
X68829920Y-140274040D03*
D30*
X31664621Y-135520944D03*
X32385869Y-136242192D03*
D43*
X31249992Y-173413008D03*
X32346008Y-172316992D03*
D44*
X15803000Y-138145000D03*
D23*
X15803000Y-135605000D03*
X15803000Y-133065000D03*
X15803000Y-130525000D03*
D14*
X64979280Y-132567680D03*
X68279280Y-132567680D03*
D42*
X72129920Y-163123880D03*
X68829920Y-163123880D03*
X72129920Y-185973720D03*
X68829920Y-185973720D03*
D45*
X40653000Y-159095000D03*
X37703000Y-159095000D03*
D46*
X76626180Y-136075000D03*
X75606180Y-136075000D03*
D38*
X37059845Y-135287598D03*
X36381023Y-134608776D03*
D47*
X53308000Y-166007500D03*
D48*
X53308000Y-152507500D03*
D38*
X29797859Y-137359421D03*
X29119037Y-136680599D03*
D49*
X34096000Y-157755000D03*
D50*
X34046000Y-158255000D03*
X34046000Y-158755000D03*
X34046000Y-159255000D03*
X35946000Y-159255000D03*
X35946000Y-158755000D03*
X35946000Y-158255000D03*
X35946000Y-157755000D03*
D51*
X31238000Y-154760000D03*
X31238000Y-153110000D03*
D52*
X65059560Y-180423600D03*
X65059560Y-184523600D03*
D13*
X68546920Y-179933600D03*
X67586920Y-179933600D03*
D28*
X26468000Y-127335000D03*
X27488000Y-127335000D03*
D16*
X35167376Y-176380624D03*
X35888624Y-175659376D03*
D53*
X28388589Y-163459411D03*
X29067411Y-162780589D03*
D46*
X68559680Y-153745000D03*
X67539680Y-153745000D03*
X76610500Y-158925000D03*
X75590500Y-158925000D03*
D54*
X36600226Y-144571910D03*
D55*
X37519465Y-145491149D03*
D56*
X38438704Y-146410388D03*
D30*
X26099361Y-176183027D03*
X26820609Y-176904275D03*
D27*
X83978000Y-125645000D03*
D26*
X83978000Y-125645000D03*
D13*
X68546920Y-157083760D03*
X67586920Y-157083760D03*
D57*
X26258000Y-164085000D03*
X26258000Y-163065000D03*
D43*
X32123910Y-190134243D03*
X33219926Y-189038227D03*
D31*
X27902483Y-188182628D03*
X28998499Y-189278644D03*
D28*
X68552600Y-141945360D03*
X69572600Y-141945360D03*
X68552600Y-164795200D03*
X69572600Y-164795200D03*
D58*
X37948000Y-154970000D03*
X41258000Y-154970000D03*
D38*
X34952667Y-137394776D03*
X34273845Y-136715954D03*
D28*
X41708000Y-127335000D03*
X42728000Y-127335000D03*
D53*
X29819073Y-136037131D03*
X30497895Y-135358309D03*
D34*
X30620461Y-144694476D03*
X31299283Y-145373298D03*
D28*
X29008000Y-127335000D03*
X30028000Y-127335000D03*
D16*
X23518422Y-178891244D03*
X24239670Y-178169996D03*
D28*
X31548000Y-127335000D03*
X32568000Y-127335000D03*
D46*
X25318000Y-165025000D03*
X24298000Y-165025000D03*
D30*
X34938526Y-135980563D03*
X35659774Y-136701811D03*
D28*
X23928000Y-127335000D03*
X24948000Y-127335000D03*
D18*
X69957040Y-154675960D03*
X70607040Y-154675960D03*
X71257040Y-154675960D03*
X71907040Y-154675960D03*
D19*
X70932040Y-156905960D03*
D53*
X37073988Y-138172593D03*
X37752810Y-137493771D03*
D26*
X18978000Y-125645000D03*
D27*
X18978000Y-125645000D03*
D39*
X24713432Y-189257431D03*
X23617416Y-188161415D03*
D57*
X42503000Y-149015000D03*
X42503000Y-147995000D03*
D59*
X42503000Y-150915000D03*
X42503000Y-149945000D03*
D34*
X30208589Y-169845589D03*
X30887411Y-170524411D03*
D33*
X71442640Y-176606200D03*
X72402640Y-176606200D03*
D60*
X24733243Y-174238419D03*
X25419137Y-173552525D03*
D31*
X36215089Y-186877451D03*
X37311105Y-187973467D03*
D14*
X64978400Y-155420000D03*
X68278400Y-155420000D03*
D17*
X73355200Y-153718800D03*
X73355200Y-154738800D03*
D44*
X15803000Y-172870000D03*
D23*
X15803000Y-170330000D03*
X15803000Y-167790000D03*
X15803000Y-165250000D03*
D47*
X53308000Y-143157500D03*
D48*
X53308000Y-129657500D03*
D16*
X26044928Y-172926735D03*
X26766176Y-172205487D03*
D39*
X31024690Y-146866472D03*
X29928674Y-145770456D03*
D61*
X29674115Y-141963865D03*
X30133735Y-142423485D03*
X30593354Y-142883104D03*
X31052974Y-143342723D03*
X31512593Y-143802343D03*
X31972212Y-144261962D03*
X32431832Y-144721582D03*
D62*
X33704624Y-144721582D03*
X34164244Y-144261962D03*
X34623863Y-143802343D03*
X35083482Y-143342723D03*
X35543102Y-142883104D03*
X36002721Y-142423485D03*
X36462341Y-141963865D03*
D61*
X36462341Y-140691073D03*
X36002721Y-140231453D03*
X35543102Y-139771834D03*
X35083482Y-139312215D03*
X34623863Y-138852595D03*
X34164244Y-138392976D03*
X33704624Y-137933356D03*
D62*
X32431832Y-137933356D03*
X31972212Y-138392976D03*
X31512593Y-138852595D03*
X31052974Y-139312215D03*
X30593354Y-139771834D03*
X30133735Y-140231453D03*
X29674115Y-140691073D03*
D63*
X33068228Y-141327469D03*
D17*
X36358000Y-160205000D03*
X36358000Y-161225000D03*
D64*
X28127264Y-170469138D03*
X28480817Y-170115584D03*
X28834371Y-169762031D03*
X29187924Y-169408478D03*
X29541478Y-169054924D03*
X29895031Y-168701371D03*
X30248584Y-168347817D03*
X30602138Y-167994264D03*
D65*
X30602138Y-167145736D03*
X30248584Y-166792183D03*
X29895031Y-166438629D03*
X29541478Y-166085076D03*
X29187924Y-165731522D03*
X28834371Y-165377969D03*
X28480817Y-165024416D03*
X28127264Y-164670862D03*
D64*
X27278736Y-164670862D03*
X26925183Y-165024416D03*
X26571629Y-165377969D03*
X26218076Y-165731522D03*
X25864522Y-166085076D03*
X25510969Y-166438629D03*
X25157416Y-166792183D03*
X24803862Y-167145736D03*
D65*
X24803862Y-167994264D03*
X25157416Y-168347817D03*
X25510969Y-168701371D03*
X25864522Y-169054924D03*
X26218076Y-169408478D03*
X26571629Y-169762031D03*
X26925183Y-170115584D03*
X27278736Y-170469138D03*
D66*
X27703000Y-167570000D03*
D30*
X24119463Y-182299501D03*
X24840711Y-183020749D03*
D41*
X22813624Y-180930624D03*
X22092376Y-180209376D03*
D28*
X67536600Y-180919120D03*
X68556600Y-180919120D03*
D41*
X25530140Y-182331320D03*
X24808892Y-181610072D03*
D28*
X36628000Y-127335000D03*
X37648000Y-127335000D03*
D24*
X32848000Y-152315000D03*
D25*
X35798000Y-152315000D03*
D59*
X38478000Y-166605000D03*
X38478000Y-165635000D03*
D40*
X29833214Y-134622918D03*
X29111966Y-135344166D03*
D53*
X38068651Y-143570176D03*
X38747473Y-142891354D03*
D39*
X30841077Y-176624403D03*
X29745061Y-175528387D03*
D52*
X65059560Y-134718840D03*
X65059560Y-138818840D03*
X65059560Y-157573760D03*
X65059560Y-161673760D03*
D67*
X30265053Y-171292053D03*
X30950947Y-171977947D03*
D51*
X31238000Y-157775000D03*
X31238000Y-156125000D03*
D28*
X68552600Y-187645040D03*
X69572600Y-187645040D03*
D53*
X38474060Y-139572665D03*
X39152882Y-138893843D03*
D33*
X71440100Y-153758900D03*
X72400100Y-153758900D03*
D43*
X36054992Y-177268008D03*
X37151008Y-176171992D03*
D41*
X24151281Y-183710178D03*
X23430033Y-182988930D03*
D15*
X25791769Y-186022417D03*
X24695753Y-187118433D03*
D47*
X53308000Y-188857500D03*
D48*
X53308000Y-175357500D03*
D57*
X37328000Y-164760000D03*
X37328000Y-163740000D03*
D46*
X68559280Y-130896360D03*
X67539280Y-130896360D03*
D40*
X37088130Y-136758381D03*
X36366882Y-137479629D03*
D27*
X18978000Y-190645000D03*
D26*
X18978000Y-190645000D03*
D30*
X28383646Y-137345279D03*
X29104894Y-138066527D03*
D68*
X28817411Y-171305589D03*
X28138589Y-171984411D03*
D30*
X29537376Y-171974376D03*
X30258624Y-172695624D03*
D69*
X37510017Y-178562983D03*
X39595983Y-176477017D03*
D28*
X39168000Y-127335000D03*
X40188000Y-127335000D03*
D70*
X25703381Y-188267481D03*
X26870107Y-187100755D03*
D40*
X38488201Y-138158452D03*
X37766953Y-138879700D03*
D18*
X69957040Y-135675160D03*
X71257040Y-135675160D03*
X71907040Y-135675160D03*
X70607040Y-135675160D03*
D19*
X70932040Y-137905160D03*
D40*
X22813624Y-182259376D03*
X22092376Y-182980624D03*
D16*
X23783587Y-180004938D03*
X24504835Y-179283690D03*
D57*
X38478000Y-164760000D03*
X38478000Y-163740000D03*
D71*
X29718000Y-156125000D03*
X29718000Y-157775000D03*
D53*
X33552596Y-136037131D03*
X34231418Y-135358309D03*
D46*
X68561680Y-176601120D03*
X67541680Y-176601120D03*
D20*
X76610500Y-156825000D03*
X73685500Y-156825000D03*
D72*
X23168761Y-173054239D03*
D73*
X24088000Y-172135000D03*
D74*
X25007239Y-171215761D03*
D59*
X37328000Y-166605000D03*
X37328000Y-165635000D03*
D46*
X76615500Y-181785000D03*
X75595500Y-181785000D03*
D18*
X69957040Y-158525000D03*
X71257040Y-158525000D03*
X70607040Y-158525000D03*
X71907040Y-158525000D03*
D19*
X70932040Y-160755000D03*
D28*
X67536600Y-135219440D03*
X68556600Y-135219440D03*
D16*
X23147191Y-177883617D03*
X23868439Y-177162369D03*
D75*
X20838200Y-184318400D03*
X18938200Y-184318400D03*
X19888200Y-186318400D03*
G36*
X57849904Y-193306499D02*
G01*
X57849904Y-193308499D01*
X57848501Y-193309472D01*
X57848495Y-193309473D01*
X57848166Y-193309500D01*
X48767834Y-193309500D01*
X48766102Y-193308500D01*
X48766102Y-193306500D01*
X48767834Y-193305500D01*
X57848172Y-193305499D01*
X57849904Y-193306499D01*
G37*
G36*
X48460000Y-188854494D02*
G01*
X48460001Y-192997672D01*
X48459001Y-192999404D01*
X48457001Y-192999404D01*
X48456028Y-192998001D01*
X48456027Y-192997995D01*
X48456000Y-192997666D01*
X48456000Y-188854494D01*
X48457000Y-188852762D01*
X48459000Y-188852762D01*
X48460000Y-188854494D01*
G37*
G36*
X58159972Y-184716999D02*
G01*
X58159973Y-184717005D01*
X58160000Y-184717334D01*
X58160000Y-188861450D01*
X58159000Y-188863182D01*
X58157000Y-188863182D01*
X58156000Y-188861450D01*
X58155999Y-184717328D01*
X58156999Y-184715596D01*
X58158999Y-184715596D01*
X58159972Y-184716999D01*
G37*
G36*
X31785402Y-186969654D02*
G01*
X31785570Y-186970929D01*
X31783067Y-186983517D01*
X31786718Y-187001872D01*
X31797225Y-187017598D01*
X32786895Y-188007268D01*
X32802621Y-188017775D01*
X32820976Y-188021426D01*
X32833564Y-188018923D01*
X32835458Y-188019566D01*
X32835848Y-188021528D01*
X32835065Y-188022548D01*
X32821097Y-188031880D01*
X32821200Y-188033456D01*
X32820334Y-188034343D01*
X32793143Y-188048565D01*
X32776355Y-188079311D01*
X32774648Y-188080352D01*
X32773489Y-188080016D01*
X32773208Y-188079828D01*
X32763992Y-188093621D01*
X32762198Y-188094506D01*
X32760535Y-188093395D01*
X32760367Y-188092120D01*
X32762870Y-188079532D01*
X32759219Y-188061177D01*
X32748712Y-188045451D01*
X31759042Y-187055781D01*
X31743316Y-187045274D01*
X31724961Y-187041623D01*
X31712373Y-187044126D01*
X31710479Y-187043483D01*
X31710089Y-187041521D01*
X31710872Y-187040501D01*
X31724840Y-187031169D01*
X31724737Y-187029593D01*
X31725603Y-187028706D01*
X31752794Y-187014484D01*
X31769582Y-186983738D01*
X31771289Y-186982697D01*
X31772448Y-186983033D01*
X31772729Y-186983221D01*
X31781945Y-186969428D01*
X31783739Y-186968543D01*
X31785402Y-186969654D01*
G37*
G36*
X30359829Y-186969428D02*
G01*
X30369161Y-186983396D01*
X30370737Y-186983293D01*
X30371624Y-186984159D01*
X30385846Y-187011350D01*
X30416592Y-187028138D01*
X30417633Y-187029845D01*
X30417297Y-187031004D01*
X30417109Y-187031285D01*
X30430902Y-187040501D01*
X30431787Y-187042295D01*
X30430676Y-187043958D01*
X30429401Y-187044126D01*
X30416813Y-187041623D01*
X30398458Y-187045274D01*
X30382732Y-187055781D01*
X29393062Y-188045451D01*
X29382555Y-188061177D01*
X29378904Y-188079532D01*
X29381407Y-188092120D01*
X29380764Y-188094014D01*
X29378802Y-188094404D01*
X29377782Y-188093621D01*
X29368450Y-188079653D01*
X29366874Y-188079756D01*
X29365987Y-188078890D01*
X29351765Y-188051699D01*
X29321019Y-188034911D01*
X29319978Y-188033204D01*
X29320314Y-188032045D01*
X29320502Y-188031764D01*
X29306709Y-188022548D01*
X29305824Y-188020754D01*
X29306935Y-188019091D01*
X29308210Y-188018923D01*
X29320798Y-188021426D01*
X29339153Y-188017775D01*
X29354879Y-188007268D01*
X30344549Y-187017598D01*
X30355056Y-187001872D01*
X30358707Y-186983517D01*
X30356204Y-186970929D01*
X30356847Y-186969035D01*
X30358809Y-186968645D01*
X30359829Y-186969428D01*
G37*
G36*
X32138956Y-186616100D02*
G01*
X32139124Y-186617375D01*
X32136621Y-186629963D01*
X32140272Y-186648318D01*
X32150779Y-186664044D01*
X33140449Y-187653714D01*
X33156175Y-187664221D01*
X33174530Y-187667872D01*
X33187118Y-187665369D01*
X33189012Y-187666012D01*
X33189402Y-187667974D01*
X33188619Y-187668994D01*
X33174652Y-187678326D01*
X33174755Y-187679901D01*
X33173888Y-187680788D01*
X33146698Y-187695009D01*
X33129908Y-187725758D01*
X33128201Y-187726799D01*
X33127042Y-187726463D01*
X33126761Y-187726275D01*
X33117545Y-187740068D01*
X33115751Y-187740953D01*
X33114088Y-187739842D01*
X33113920Y-187738567D01*
X33116423Y-187725979D01*
X33112772Y-187707624D01*
X33102265Y-187691898D01*
X32112595Y-186702228D01*
X32096869Y-186691721D01*
X32078514Y-186688070D01*
X32065926Y-186690573D01*
X32064032Y-186689930D01*
X32063642Y-186687968D01*
X32064425Y-186686948D01*
X32078392Y-186677616D01*
X32078289Y-186676041D01*
X32079156Y-186675154D01*
X32106346Y-186660933D01*
X32123136Y-186630184D01*
X32124843Y-186629143D01*
X32126002Y-186629479D01*
X32126283Y-186629667D01*
X32135499Y-186615874D01*
X32137293Y-186614989D01*
X32138956Y-186616100D01*
G37*
G36*
X30006275Y-186615874D02*
G01*
X30015607Y-186629841D01*
X30017182Y-186629738D01*
X30018069Y-186630605D01*
X30032290Y-186657795D01*
X30063039Y-186674585D01*
X30064080Y-186676292D01*
X30063744Y-186677451D01*
X30063556Y-186677732D01*
X30077349Y-186686948D01*
X30078234Y-186688742D01*
X30077123Y-186690405D01*
X30075848Y-186690573D01*
X30063260Y-186688070D01*
X30044905Y-186691721D01*
X30029179Y-186702228D01*
X29039509Y-187691898D01*
X29029002Y-187707624D01*
X29025351Y-187725979D01*
X29027854Y-187738567D01*
X29027211Y-187740461D01*
X29025249Y-187740851D01*
X29024229Y-187740068D01*
X29014897Y-187726101D01*
X29013322Y-187726204D01*
X29012435Y-187725337D01*
X28998214Y-187698147D01*
X28967465Y-187681357D01*
X28966424Y-187679650D01*
X28966760Y-187678491D01*
X28966948Y-187678210D01*
X28953155Y-187668994D01*
X28952270Y-187667200D01*
X28953381Y-187665537D01*
X28954656Y-187665369D01*
X28967244Y-187667872D01*
X28985599Y-187664221D01*
X29001325Y-187653714D01*
X29990995Y-186664044D01*
X30001502Y-186648318D01*
X30005153Y-186629963D01*
X30002650Y-186617375D01*
X30003293Y-186615481D01*
X30005255Y-186615091D01*
X30006275Y-186615874D01*
G37*
G36*
X32492509Y-186262547D02*
G01*
X32492677Y-186263822D01*
X32490174Y-186276410D01*
X32493825Y-186294765D01*
X32504332Y-186310491D01*
X33494002Y-187300161D01*
X33509728Y-187310668D01*
X33528083Y-187314319D01*
X33540671Y-187311816D01*
X33542565Y-187312459D01*
X33542955Y-187314421D01*
X33542172Y-187315441D01*
X33528204Y-187324773D01*
X33528307Y-187326349D01*
X33527441Y-187327236D01*
X33500250Y-187341458D01*
X33483462Y-187372204D01*
X33481755Y-187373245D01*
X33480596Y-187372909D01*
X33480315Y-187372721D01*
X33471099Y-187386514D01*
X33469305Y-187387399D01*
X33467642Y-187386288D01*
X33467474Y-187385013D01*
X33469977Y-187372425D01*
X33466326Y-187354070D01*
X33455819Y-187338344D01*
X32466149Y-186348674D01*
X32450423Y-186338167D01*
X32432068Y-186334516D01*
X32419480Y-186337019D01*
X32417586Y-186336376D01*
X32417196Y-186334414D01*
X32417979Y-186333394D01*
X32431947Y-186324062D01*
X32431844Y-186322486D01*
X32432710Y-186321599D01*
X32459901Y-186307377D01*
X32476689Y-186276631D01*
X32478396Y-186275590D01*
X32479555Y-186275926D01*
X32479836Y-186276114D01*
X32489052Y-186262321D01*
X32490846Y-186261436D01*
X32492509Y-186262547D01*
G37*
G36*
X29652722Y-186262321D02*
G01*
X29662054Y-186276289D01*
X29663630Y-186276186D01*
X29664517Y-186277052D01*
X29678739Y-186304243D01*
X29709485Y-186321031D01*
X29710526Y-186322738D01*
X29710190Y-186323897D01*
X29710002Y-186324178D01*
X29723795Y-186333394D01*
X29724680Y-186335188D01*
X29723569Y-186336851D01*
X29722294Y-186337019D01*
X29709706Y-186334516D01*
X29691351Y-186338167D01*
X29675625Y-186348674D01*
X28685955Y-187338344D01*
X28675448Y-187354070D01*
X28671797Y-187372425D01*
X28674300Y-187385013D01*
X28673657Y-187386907D01*
X28671695Y-187387297D01*
X28670675Y-187386514D01*
X28661343Y-187372546D01*
X28659767Y-187372649D01*
X28658880Y-187371783D01*
X28644658Y-187344592D01*
X28613912Y-187327804D01*
X28612871Y-187326097D01*
X28613207Y-187324938D01*
X28613395Y-187324657D01*
X28599602Y-187315441D01*
X28598717Y-187313647D01*
X28599828Y-187311984D01*
X28601103Y-187311816D01*
X28613691Y-187314319D01*
X28632046Y-187310668D01*
X28647772Y-187300161D01*
X29637442Y-186310491D01*
X29647949Y-186294765D01*
X29651600Y-186276410D01*
X29649097Y-186263822D01*
X29649740Y-186261928D01*
X29651702Y-186261538D01*
X29652722Y-186262321D01*
G37*
G36*
X32846062Y-185908994D02*
G01*
X32846230Y-185910269D01*
X32843727Y-185922857D01*
X32847378Y-185941212D01*
X32857885Y-185956938D01*
X33847555Y-186946608D01*
X33863281Y-186957115D01*
X33881636Y-186960766D01*
X33894224Y-186958263D01*
X33896118Y-186958906D01*
X33896508Y-186960868D01*
X33895725Y-186961888D01*
X33881757Y-186971220D01*
X33881860Y-186972796D01*
X33880994Y-186973683D01*
X33853803Y-186987905D01*
X33837015Y-187018651D01*
X33835308Y-187019692D01*
X33834149Y-187019356D01*
X33833868Y-187019168D01*
X33824652Y-187032961D01*
X33822858Y-187033846D01*
X33821195Y-187032735D01*
X33821027Y-187031460D01*
X33823530Y-187018872D01*
X33819879Y-187000517D01*
X33809372Y-186984791D01*
X32819702Y-185995121D01*
X32803976Y-185984614D01*
X32785621Y-185980963D01*
X32773033Y-185983466D01*
X32771139Y-185982823D01*
X32770749Y-185980861D01*
X32771532Y-185979841D01*
X32785500Y-185970509D01*
X32785397Y-185968933D01*
X32786263Y-185968046D01*
X32813454Y-185953824D01*
X32830242Y-185923078D01*
X32831949Y-185922037D01*
X32833108Y-185922373D01*
X32833389Y-185922561D01*
X32842605Y-185908768D01*
X32844399Y-185907883D01*
X32846062Y-185908994D01*
G37*
G36*
X29299169Y-185908768D02*
G01*
X29308501Y-185922736D01*
X29310077Y-185922633D01*
X29310964Y-185923499D01*
X29325186Y-185950690D01*
X29355932Y-185967478D01*
X29356973Y-185969185D01*
X29356637Y-185970344D01*
X29356449Y-185970625D01*
X29370242Y-185979841D01*
X29371127Y-185981635D01*
X29370016Y-185983298D01*
X29368741Y-185983466D01*
X29356153Y-185980963D01*
X29337798Y-185984614D01*
X29322072Y-185995121D01*
X28332402Y-186984791D01*
X28321895Y-187000517D01*
X28318244Y-187018872D01*
X28320747Y-187031460D01*
X28320104Y-187033354D01*
X28318142Y-187033744D01*
X28317122Y-187032961D01*
X28307790Y-187018993D01*
X28306214Y-187019096D01*
X28305327Y-187018230D01*
X28291105Y-186991039D01*
X28260359Y-186974251D01*
X28259318Y-186972544D01*
X28259654Y-186971385D01*
X28259842Y-186971104D01*
X28246049Y-186961888D01*
X28245164Y-186960094D01*
X28246275Y-186958431D01*
X28247550Y-186958263D01*
X28260138Y-186960766D01*
X28278493Y-186957115D01*
X28294219Y-186946608D01*
X29283889Y-185956938D01*
X29294396Y-185941212D01*
X29298047Y-185922857D01*
X29295544Y-185910269D01*
X29296187Y-185908375D01*
X29298149Y-185907985D01*
X29299169Y-185908768D01*
G37*
G36*
X33199616Y-185555440D02*
G01*
X33199784Y-185556715D01*
X33197281Y-185569303D01*
X33200932Y-185587658D01*
X33211439Y-185603384D01*
X34201109Y-186593054D01*
X34216835Y-186603561D01*
X34235190Y-186607212D01*
X34247778Y-186604709D01*
X34249672Y-186605352D01*
X34250062Y-186607314D01*
X34249279Y-186608334D01*
X34235312Y-186617666D01*
X34235415Y-186619241D01*
X34234548Y-186620128D01*
X34207358Y-186634349D01*
X34190568Y-186665098D01*
X34188861Y-186666139D01*
X34187702Y-186665803D01*
X34187421Y-186665615D01*
X34178205Y-186679408D01*
X34176411Y-186680293D01*
X34174748Y-186679182D01*
X34174580Y-186677907D01*
X34177083Y-186665319D01*
X34173432Y-186646964D01*
X34162925Y-186631238D01*
X33173255Y-185641568D01*
X33157529Y-185631061D01*
X33139174Y-185627410D01*
X33126586Y-185629913D01*
X33124692Y-185629270D01*
X33124302Y-185627308D01*
X33125085Y-185626288D01*
X33139052Y-185616956D01*
X33138949Y-185615381D01*
X33139816Y-185614494D01*
X33167006Y-185600273D01*
X33183796Y-185569524D01*
X33185503Y-185568483D01*
X33186662Y-185568819D01*
X33186943Y-185569007D01*
X33196159Y-185555214D01*
X33197953Y-185554329D01*
X33199616Y-185555440D01*
G37*
G36*
X28945615Y-185555214D02*
G01*
X28954947Y-185569181D01*
X28956522Y-185569078D01*
X28957409Y-185569945D01*
X28971630Y-185597135D01*
X29002379Y-185613925D01*
X29003420Y-185615632D01*
X29003084Y-185616791D01*
X29002896Y-185617072D01*
X29016689Y-185626288D01*
X29017574Y-185628082D01*
X29016463Y-185629745D01*
X29015188Y-185629913D01*
X29002600Y-185627410D01*
X28984245Y-185631061D01*
X28968519Y-185641568D01*
X27978849Y-186631238D01*
X27968342Y-186646964D01*
X27964691Y-186665319D01*
X27967194Y-186677907D01*
X27966551Y-186679801D01*
X27964589Y-186680191D01*
X27963569Y-186679408D01*
X27954237Y-186665441D01*
X27952662Y-186665544D01*
X27951775Y-186664677D01*
X27937554Y-186637487D01*
X27906805Y-186620697D01*
X27905764Y-186618990D01*
X27906100Y-186617831D01*
X27906288Y-186617550D01*
X27892495Y-186608334D01*
X27891610Y-186606540D01*
X27892721Y-186604877D01*
X27893996Y-186604709D01*
X27906584Y-186607212D01*
X27924939Y-186603561D01*
X27940665Y-186593054D01*
X28930335Y-185603384D01*
X28940842Y-185587658D01*
X28944493Y-185569303D01*
X28941990Y-185556715D01*
X28942633Y-185554821D01*
X28944595Y-185554431D01*
X28945615Y-185555214D01*
G37*
G36*
X33553169Y-185201887D02*
G01*
X33553337Y-185203162D01*
X33550834Y-185215750D01*
X33554485Y-185234105D01*
X33564992Y-185249831D01*
X34554662Y-186239501D01*
X34570388Y-186250008D01*
X34588743Y-186253659D01*
X34601331Y-186251156D01*
X34603225Y-186251799D01*
X34603615Y-186253761D01*
X34602832Y-186254781D01*
X34588864Y-186264113D01*
X34588967Y-186265689D01*
X34588101Y-186266576D01*
X34560910Y-186280798D01*
X34544122Y-186311544D01*
X34542415Y-186312585D01*
X34541256Y-186312249D01*
X34540975Y-186312061D01*
X34531759Y-186325854D01*
X34529965Y-186326739D01*
X34528302Y-186325628D01*
X34528134Y-186324353D01*
X34530637Y-186311765D01*
X34526986Y-186293410D01*
X34516479Y-186277684D01*
X33526809Y-185288014D01*
X33511083Y-185277507D01*
X33492728Y-185273856D01*
X33480140Y-185276359D01*
X33478246Y-185275716D01*
X33477856Y-185273754D01*
X33478639Y-185272734D01*
X33492607Y-185263402D01*
X33492504Y-185261826D01*
X33493370Y-185260939D01*
X33520561Y-185246717D01*
X33537349Y-185215971D01*
X33539056Y-185214930D01*
X33540215Y-185215266D01*
X33540496Y-185215454D01*
X33549712Y-185201661D01*
X33551506Y-185200776D01*
X33553169Y-185201887D01*
G37*
G36*
X28592062Y-185201661D02*
G01*
X28601394Y-185215629D01*
X28602970Y-185215526D01*
X28603857Y-185216392D01*
X28618079Y-185243583D01*
X28648825Y-185260371D01*
X28649866Y-185262078D01*
X28649530Y-185263237D01*
X28649342Y-185263518D01*
X28663135Y-185272734D01*
X28664020Y-185274528D01*
X28662909Y-185276191D01*
X28661634Y-185276359D01*
X28649046Y-185273856D01*
X28630691Y-185277507D01*
X28614965Y-185288014D01*
X27625295Y-186277684D01*
X27614788Y-186293410D01*
X27611137Y-186311765D01*
X27613640Y-186324353D01*
X27612997Y-186326247D01*
X27611035Y-186326637D01*
X27610015Y-186325854D01*
X27600683Y-186311886D01*
X27599107Y-186311989D01*
X27598220Y-186311123D01*
X27583998Y-186283932D01*
X27553252Y-186267144D01*
X27552211Y-186265437D01*
X27552547Y-186264278D01*
X27552735Y-186263997D01*
X27538942Y-186254781D01*
X27538057Y-186252987D01*
X27539168Y-186251324D01*
X27540443Y-186251156D01*
X27553031Y-186253659D01*
X27571386Y-186250008D01*
X27587112Y-186239501D01*
X28576782Y-185249831D01*
X28587289Y-185234105D01*
X28590940Y-185215750D01*
X28588437Y-185203162D01*
X28589080Y-185201268D01*
X28591042Y-185200878D01*
X28592062Y-185201661D01*
G37*
G36*
X33906723Y-184848333D02*
G01*
X33906891Y-184849608D01*
X33904388Y-184862196D01*
X33908039Y-184880551D01*
X33918546Y-184896277D01*
X34908216Y-185885947D01*
X34923942Y-185896454D01*
X34942297Y-185900105D01*
X34954885Y-185897602D01*
X34956779Y-185898245D01*
X34957169Y-185900207D01*
X34956386Y-185901227D01*
X34942419Y-185910559D01*
X34942522Y-185912134D01*
X34941655Y-185913021D01*
X34914465Y-185927242D01*
X34897675Y-185957991D01*
X34895968Y-185959032D01*
X34894809Y-185958696D01*
X34894528Y-185958508D01*
X34885312Y-185972301D01*
X34883518Y-185973186D01*
X34881855Y-185972075D01*
X34881687Y-185970800D01*
X34884190Y-185958212D01*
X34880539Y-185939857D01*
X34870032Y-185924131D01*
X33880362Y-184934461D01*
X33864636Y-184923954D01*
X33846281Y-184920303D01*
X33833693Y-184922806D01*
X33831799Y-184922163D01*
X33831409Y-184920201D01*
X33832192Y-184919181D01*
X33846159Y-184909849D01*
X33846056Y-184908274D01*
X33846923Y-184907387D01*
X33874113Y-184893166D01*
X33890903Y-184862417D01*
X33892610Y-184861376D01*
X33893769Y-184861712D01*
X33894050Y-184861900D01*
X33903266Y-184848107D01*
X33905060Y-184847222D01*
X33906723Y-184848333D01*
G37*
G36*
X28238508Y-184848107D02*
G01*
X28247840Y-184862074D01*
X28249415Y-184861971D01*
X28250302Y-184862838D01*
X28264523Y-184890028D01*
X28295272Y-184906818D01*
X28296313Y-184908525D01*
X28295977Y-184909684D01*
X28295789Y-184909965D01*
X28309582Y-184919181D01*
X28310467Y-184920975D01*
X28309356Y-184922638D01*
X28308081Y-184922806D01*
X28295493Y-184920303D01*
X28277138Y-184923954D01*
X28261412Y-184934461D01*
X27271742Y-185924131D01*
X27261235Y-185939857D01*
X27257584Y-185958212D01*
X27260087Y-185970800D01*
X27259444Y-185972694D01*
X27257482Y-185973084D01*
X27256462Y-185972301D01*
X27247130Y-185958334D01*
X27245555Y-185958437D01*
X27244668Y-185957570D01*
X27230447Y-185930380D01*
X27199698Y-185913590D01*
X27198657Y-185911883D01*
X27198993Y-185910724D01*
X27199181Y-185910443D01*
X27185388Y-185901227D01*
X27184503Y-185899433D01*
X27185614Y-185897770D01*
X27186889Y-185897602D01*
X27199477Y-185900105D01*
X27217832Y-185896454D01*
X27233558Y-185885947D01*
X28223228Y-184896277D01*
X28233735Y-184880551D01*
X28237386Y-184862196D01*
X28234883Y-184849608D01*
X28235526Y-184847714D01*
X28237488Y-184847324D01*
X28238508Y-184848107D01*
G37*
G36*
X34260276Y-184494780D02*
G01*
X34260444Y-184496055D01*
X34257941Y-184508643D01*
X34261592Y-184526998D01*
X34272099Y-184542724D01*
X35261769Y-185532394D01*
X35277495Y-185542901D01*
X35295850Y-185546552D01*
X35308438Y-185544049D01*
X35310332Y-185544692D01*
X35310722Y-185546654D01*
X35309939Y-185547674D01*
X35295971Y-185557006D01*
X35296074Y-185558582D01*
X35295208Y-185559469D01*
X35268017Y-185573691D01*
X35251229Y-185604437D01*
X35249522Y-185605478D01*
X35248363Y-185605142D01*
X35248082Y-185604954D01*
X35238866Y-185618747D01*
X35237072Y-185619632D01*
X35235409Y-185618521D01*
X35235241Y-185617246D01*
X35237744Y-185604658D01*
X35234093Y-185586303D01*
X35223586Y-185570577D01*
X34233916Y-184580907D01*
X34218190Y-184570400D01*
X34199835Y-184566749D01*
X34187247Y-184569252D01*
X34185353Y-184568609D01*
X34184963Y-184566647D01*
X34185746Y-184565627D01*
X34199714Y-184556295D01*
X34199611Y-184554719D01*
X34200477Y-184553832D01*
X34227668Y-184539610D01*
X34244456Y-184508864D01*
X34246163Y-184507823D01*
X34247322Y-184508159D01*
X34247603Y-184508347D01*
X34256819Y-184494554D01*
X34258613Y-184493669D01*
X34260276Y-184494780D01*
G37*
G36*
X27884955Y-184494554D02*
G01*
X27894287Y-184508522D01*
X27895863Y-184508419D01*
X27896750Y-184509285D01*
X27910972Y-184536476D01*
X27941718Y-184553264D01*
X27942759Y-184554971D01*
X27942423Y-184556130D01*
X27942235Y-184556411D01*
X27956028Y-184565627D01*
X27956913Y-184567421D01*
X27955802Y-184569084D01*
X27954527Y-184569252D01*
X27941939Y-184566749D01*
X27923584Y-184570400D01*
X27907858Y-184580907D01*
X26918188Y-185570577D01*
X26907681Y-185586303D01*
X26904030Y-185604658D01*
X26906533Y-185617246D01*
X26905890Y-185619140D01*
X26903928Y-185619530D01*
X26902908Y-185618747D01*
X26893576Y-185604779D01*
X26892000Y-185604882D01*
X26891113Y-185604016D01*
X26876891Y-185576825D01*
X26846145Y-185560037D01*
X26845104Y-185558330D01*
X26845440Y-185557171D01*
X26845628Y-185556890D01*
X26831835Y-185547674D01*
X26830950Y-185545880D01*
X26832061Y-185544217D01*
X26833336Y-185544049D01*
X26845924Y-185546552D01*
X26864279Y-185542901D01*
X26880005Y-185532394D01*
X27869675Y-184542724D01*
X27880182Y-184526998D01*
X27883833Y-184508643D01*
X27881330Y-184496055D01*
X27881973Y-184494161D01*
X27883935Y-184493771D01*
X27884955Y-184494554D01*
G37*
G36*
X66501462Y-185272599D02*
G01*
X66501462Y-185274599D01*
X66500059Y-185275572D01*
X66500053Y-185275573D01*
X66499724Y-185275600D01*
X63619396Y-185275600D01*
X63617664Y-185274600D01*
X63617664Y-185272600D01*
X63619396Y-185271600D01*
X66499730Y-185271599D01*
X66501462Y-185272599D01*
G37*
G36*
X34613829Y-184141227D02*
G01*
X34613997Y-184142502D01*
X34611494Y-184155090D01*
X34615145Y-184173445D01*
X34625652Y-184189171D01*
X35615322Y-185178841D01*
X35631048Y-185189348D01*
X35649403Y-185192999D01*
X35661991Y-185190496D01*
X35663885Y-185191139D01*
X35664275Y-185193101D01*
X35663492Y-185194121D01*
X35649524Y-185203453D01*
X35649627Y-185205029D01*
X35648761Y-185205916D01*
X35621570Y-185220138D01*
X35604782Y-185250884D01*
X35603075Y-185251925D01*
X35601916Y-185251589D01*
X35601635Y-185251401D01*
X35592419Y-185265194D01*
X35590625Y-185266079D01*
X35588962Y-185264968D01*
X35588794Y-185263693D01*
X35591297Y-185251105D01*
X35587646Y-185232750D01*
X35577139Y-185217024D01*
X34587469Y-184227354D01*
X34571743Y-184216847D01*
X34553388Y-184213196D01*
X34540800Y-184215699D01*
X34538906Y-184215056D01*
X34538516Y-184213094D01*
X34539299Y-184212074D01*
X34553267Y-184202742D01*
X34553164Y-184201166D01*
X34554030Y-184200279D01*
X34581221Y-184186057D01*
X34598009Y-184155311D01*
X34599716Y-184154270D01*
X34600875Y-184154606D01*
X34601156Y-184154794D01*
X34610372Y-184141001D01*
X34612166Y-184140116D01*
X34613829Y-184141227D01*
G37*
G36*
X27531402Y-184141001D02*
G01*
X27540734Y-184154969D01*
X27542310Y-184154866D01*
X27543197Y-184155732D01*
X27557419Y-184182923D01*
X27588165Y-184199711D01*
X27589206Y-184201418D01*
X27588870Y-184202577D01*
X27588682Y-184202858D01*
X27602475Y-184212074D01*
X27603360Y-184213868D01*
X27602249Y-184215531D01*
X27600974Y-184215699D01*
X27588386Y-184213196D01*
X27570031Y-184216847D01*
X27554305Y-184227354D01*
X26564635Y-185217024D01*
X26554128Y-185232750D01*
X26550477Y-185251105D01*
X26552980Y-185263693D01*
X26552337Y-185265587D01*
X26550375Y-185265977D01*
X26549355Y-185265194D01*
X26540023Y-185251226D01*
X26538447Y-185251329D01*
X26537560Y-185250463D01*
X26523338Y-185223272D01*
X26492592Y-185206484D01*
X26491551Y-185204777D01*
X26491887Y-185203618D01*
X26492075Y-185203337D01*
X26478282Y-185194121D01*
X26477397Y-185192327D01*
X26478508Y-185190664D01*
X26479783Y-185190496D01*
X26492371Y-185192999D01*
X26510726Y-185189348D01*
X26526452Y-185178841D01*
X27516122Y-184189171D01*
X27526629Y-184173445D01*
X27530280Y-184155090D01*
X27527777Y-184142502D01*
X27528420Y-184140608D01*
X27530382Y-184140218D01*
X27531402Y-184141001D01*
G37*
G36*
X34967383Y-183787673D02*
G01*
X34967551Y-183788948D01*
X34965048Y-183801536D01*
X34968699Y-183819891D01*
X34979206Y-183835617D01*
X35968876Y-184825287D01*
X35984602Y-184835794D01*
X36002957Y-184839445D01*
X36015545Y-184836942D01*
X36017439Y-184837585D01*
X36017829Y-184839547D01*
X36017046Y-184840567D01*
X36003079Y-184849899D01*
X36003182Y-184851474D01*
X36002315Y-184852361D01*
X35975125Y-184866582D01*
X35958335Y-184897331D01*
X35956628Y-184898372D01*
X35955469Y-184898036D01*
X35955188Y-184897848D01*
X35945972Y-184911641D01*
X35944178Y-184912526D01*
X35942515Y-184911415D01*
X35942347Y-184910140D01*
X35944850Y-184897552D01*
X35941199Y-184879197D01*
X35930692Y-184863471D01*
X34941022Y-183873801D01*
X34925296Y-183863294D01*
X34906941Y-183859643D01*
X34894353Y-183862146D01*
X34892459Y-183861503D01*
X34892069Y-183859541D01*
X34892852Y-183858521D01*
X34906819Y-183849189D01*
X34906716Y-183847614D01*
X34907583Y-183846727D01*
X34934773Y-183832506D01*
X34951563Y-183801757D01*
X34953270Y-183800716D01*
X34954429Y-183801052D01*
X34954710Y-183801240D01*
X34963926Y-183787447D01*
X34965720Y-183786562D01*
X34967383Y-183787673D01*
G37*
G36*
X27177848Y-183787447D02*
G01*
X27187180Y-183801414D01*
X27188755Y-183801311D01*
X27189642Y-183802178D01*
X27203863Y-183829368D01*
X27234612Y-183846158D01*
X27235653Y-183847865D01*
X27235317Y-183849024D01*
X27235129Y-183849305D01*
X27248922Y-183858521D01*
X27249807Y-183860315D01*
X27248696Y-183861978D01*
X27247421Y-183862146D01*
X27234833Y-183859643D01*
X27216478Y-183863294D01*
X27200752Y-183873801D01*
X26211082Y-184863471D01*
X26200575Y-184879197D01*
X26196924Y-184897552D01*
X26199427Y-184910140D01*
X26198784Y-184912034D01*
X26196822Y-184912424D01*
X26195802Y-184911641D01*
X26186470Y-184897674D01*
X26184895Y-184897777D01*
X26184008Y-184896910D01*
X26169787Y-184869720D01*
X26139038Y-184852930D01*
X26137997Y-184851223D01*
X26138333Y-184850064D01*
X26138521Y-184849783D01*
X26124728Y-184840567D01*
X26123843Y-184838773D01*
X26124954Y-184837110D01*
X26126229Y-184836942D01*
X26138817Y-184839445D01*
X26157172Y-184835794D01*
X26172898Y-184825287D01*
X27162568Y-183835617D01*
X27173075Y-183819891D01*
X27176726Y-183801536D01*
X27174223Y-183788948D01*
X27174866Y-183787054D01*
X27176828Y-183786664D01*
X27177848Y-183787447D01*
G37*
G36*
X70338772Y-184228840D02*
G01*
X70339040Y-184229840D01*
X70339040Y-184714641D01*
X70342767Y-184733385D01*
X70344080Y-184736556D01*
X70351331Y-184747409D01*
X70351462Y-184749405D01*
X70349799Y-184750516D01*
X70348557Y-184750183D01*
X70345590Y-184748201D01*
X70279225Y-184727433D01*
X70208442Y-184748223D01*
X70205538Y-184750164D01*
X70203543Y-184750295D01*
X70202431Y-184748632D01*
X70202764Y-184747390D01*
X70210000Y-184736556D01*
X70211313Y-184733385D01*
X70215040Y-184714641D01*
X70215040Y-184229840D01*
X70216040Y-184228108D01*
X70217040Y-184227840D01*
X70337040Y-184227840D01*
X70338772Y-184228840D01*
G37*
G36*
X70988772Y-184228840D02*
G01*
X70989040Y-184229840D01*
X70989040Y-184714641D01*
X70992767Y-184733385D01*
X70994080Y-184736556D01*
X71001331Y-184747409D01*
X71001462Y-184749405D01*
X70999799Y-184750516D01*
X70998557Y-184750183D01*
X70995590Y-184748201D01*
X70929225Y-184727433D01*
X70858442Y-184748223D01*
X70855538Y-184750164D01*
X70853543Y-184750295D01*
X70852431Y-184748632D01*
X70852764Y-184747390D01*
X70860000Y-184736556D01*
X70861313Y-184733385D01*
X70865040Y-184714641D01*
X70865040Y-184229840D01*
X70866040Y-184228108D01*
X70867040Y-184227840D01*
X70987040Y-184227840D01*
X70988772Y-184228840D01*
G37*
G36*
X71638772Y-184228840D02*
G01*
X71639040Y-184229840D01*
X71639040Y-184714641D01*
X71642767Y-184733385D01*
X71644080Y-184736556D01*
X71651331Y-184747409D01*
X71651462Y-184749405D01*
X71649799Y-184750516D01*
X71648557Y-184750183D01*
X71645590Y-184748201D01*
X71579225Y-184727433D01*
X71508442Y-184748223D01*
X71505538Y-184750164D01*
X71503543Y-184750295D01*
X71502431Y-184748632D01*
X71502764Y-184747390D01*
X71510000Y-184736556D01*
X71511313Y-184733385D01*
X71515040Y-184714641D01*
X71515040Y-184229840D01*
X71516040Y-184228108D01*
X71517040Y-184227840D01*
X71637040Y-184227840D01*
X71638772Y-184228840D01*
G37*
G36*
X35320936Y-183434120D02*
G01*
X35321104Y-183435395D01*
X35318601Y-183447983D01*
X35322252Y-183466338D01*
X35332759Y-183482064D01*
X36322429Y-184471734D01*
X36338155Y-184482241D01*
X36356510Y-184485892D01*
X36369098Y-184483389D01*
X36370992Y-184484032D01*
X36371382Y-184485994D01*
X36370599Y-184487014D01*
X36356631Y-184496346D01*
X36356734Y-184497922D01*
X36355868Y-184498809D01*
X36328677Y-184513031D01*
X36311889Y-184543777D01*
X36310182Y-184544818D01*
X36309023Y-184544482D01*
X36308742Y-184544294D01*
X36299526Y-184558087D01*
X36297732Y-184558972D01*
X36296069Y-184557861D01*
X36295901Y-184556586D01*
X36298404Y-184543998D01*
X36294753Y-184525643D01*
X36284246Y-184509917D01*
X35294576Y-183520247D01*
X35278850Y-183509740D01*
X35260495Y-183506089D01*
X35247907Y-183508592D01*
X35246013Y-183507949D01*
X35245623Y-183505987D01*
X35246406Y-183504967D01*
X35260374Y-183495635D01*
X35260271Y-183494059D01*
X35261137Y-183493172D01*
X35288328Y-183478950D01*
X35305116Y-183448204D01*
X35306823Y-183447163D01*
X35307982Y-183447499D01*
X35308263Y-183447687D01*
X35317479Y-183433894D01*
X35319273Y-183433009D01*
X35320936Y-183434120D01*
G37*
G36*
X26824295Y-183433894D02*
G01*
X26833627Y-183447862D01*
X26835203Y-183447759D01*
X26836090Y-183448625D01*
X26850312Y-183475816D01*
X26881058Y-183492604D01*
X26882099Y-183494311D01*
X26881763Y-183495470D01*
X26881575Y-183495751D01*
X26895368Y-183504967D01*
X26896253Y-183506761D01*
X26895142Y-183508424D01*
X26893867Y-183508592D01*
X26881279Y-183506089D01*
X26862924Y-183509740D01*
X26847198Y-183520247D01*
X25857528Y-184509917D01*
X25847021Y-184525643D01*
X25843370Y-184543998D01*
X25845873Y-184556586D01*
X25845230Y-184558480D01*
X25843268Y-184558870D01*
X25842248Y-184558087D01*
X25832916Y-184544119D01*
X25831340Y-184544222D01*
X25830453Y-184543356D01*
X25816231Y-184516165D01*
X25785485Y-184499377D01*
X25784444Y-184497670D01*
X25784780Y-184496511D01*
X25784968Y-184496230D01*
X25771175Y-184487014D01*
X25770290Y-184485220D01*
X25771401Y-184483557D01*
X25772676Y-184483389D01*
X25785264Y-184485892D01*
X25803619Y-184482241D01*
X25819345Y-184471734D01*
X26809015Y-183482064D01*
X26819522Y-183466338D01*
X26823173Y-183447983D01*
X26820670Y-183435395D01*
X26821313Y-183433501D01*
X26823275Y-183433111D01*
X26824295Y-183433894D01*
G37*
G36*
X57849898Y-184406500D02*
G01*
X57849898Y-184408500D01*
X57848166Y-184409500D01*
X48767828Y-184409501D01*
X48766096Y-184408501D01*
X48766096Y-184406501D01*
X48767499Y-184405528D01*
X48767505Y-184405527D01*
X48767834Y-184405500D01*
X57848166Y-184405500D01*
X57849898Y-184406500D01*
G37*
G36*
X66501456Y-183772600D02*
G01*
X66501456Y-183774600D01*
X66499724Y-183775600D01*
X63619390Y-183775601D01*
X63617658Y-183774601D01*
X63617658Y-183772601D01*
X63619061Y-183771628D01*
X63619067Y-183771627D01*
X63619396Y-183771600D01*
X66499724Y-183771600D01*
X66501456Y-183772600D01*
G37*
G36*
X24458400Y-183145573D02*
G01*
X24485176Y-183185645D01*
X24675815Y-183376284D01*
X24716073Y-183403184D01*
X24716958Y-183404978D01*
X24715847Y-183406641D01*
X24714244Y-183406714D01*
X24688965Y-183396985D01*
X24688662Y-183397773D01*
X24687107Y-183399031D01*
X24686049Y-183398910D01*
X24648718Y-183383876D01*
X24580682Y-183396843D01*
X24530460Y-183444532D01*
X24514001Y-183511777D01*
X24530131Y-183554963D01*
X24529800Y-183556936D01*
X24528979Y-183557528D01*
X24527313Y-183558173D01*
X24537120Y-183583521D01*
X24536813Y-183585498D01*
X24534947Y-183586219D01*
X24533592Y-183585354D01*
X24506816Y-183545282D01*
X24316177Y-183354643D01*
X24275919Y-183327743D01*
X24275034Y-183325949D01*
X24276145Y-183324286D01*
X24277748Y-183324213D01*
X24303027Y-183333942D01*
X24303330Y-183333154D01*
X24304885Y-183331896D01*
X24305943Y-183332017D01*
X24343274Y-183347051D01*
X24411310Y-183334084D01*
X24461532Y-183286395D01*
X24477991Y-183219150D01*
X24461861Y-183175964D01*
X24462192Y-183173991D01*
X24463013Y-183173399D01*
X24464679Y-183172754D01*
X24454872Y-183147406D01*
X24455179Y-183145429D01*
X24457045Y-183144708D01*
X24458400Y-183145573D01*
G37*
G36*
X25147829Y-182456144D02*
G01*
X25174605Y-182496216D01*
X25365244Y-182686855D01*
X25405502Y-182713755D01*
X25406387Y-182715549D01*
X25405276Y-182717212D01*
X25403673Y-182717285D01*
X25378395Y-182707556D01*
X25378092Y-182708345D01*
X25376536Y-182709603D01*
X25375478Y-182709482D01*
X25338153Y-182694449D01*
X25270118Y-182707414D01*
X25219896Y-182755101D01*
X25203433Y-182822346D01*
X25219561Y-182865534D01*
X25219230Y-182867507D01*
X25218409Y-182868099D01*
X25216743Y-182868744D01*
X25226550Y-182894092D01*
X25226243Y-182896069D01*
X25224377Y-182896790D01*
X25223022Y-182895925D01*
X25196246Y-182855853D01*
X25005607Y-182665214D01*
X24965349Y-182638314D01*
X24964464Y-182636520D01*
X24965575Y-182634857D01*
X24967178Y-182634784D01*
X24992456Y-182644513D01*
X24992759Y-182643724D01*
X24994315Y-182642466D01*
X24995373Y-182642587D01*
X25032698Y-182657620D01*
X25100733Y-182644655D01*
X25150955Y-182596968D01*
X25167418Y-182529723D01*
X25151290Y-182486535D01*
X25151621Y-182484562D01*
X25152442Y-182483970D01*
X25154108Y-182483325D01*
X25144301Y-182457977D01*
X25144608Y-182456000D01*
X25146474Y-182455279D01*
X25147829Y-182456144D01*
G37*
G36*
X23737152Y-182424325D02*
G01*
X23763928Y-182464397D01*
X23954567Y-182655036D01*
X23994825Y-182681936D01*
X23995710Y-182683730D01*
X23994599Y-182685393D01*
X23992996Y-182685466D01*
X23967717Y-182675737D01*
X23967414Y-182676525D01*
X23965859Y-182677783D01*
X23964801Y-182677662D01*
X23927470Y-182662628D01*
X23859434Y-182675595D01*
X23809212Y-182723284D01*
X23792753Y-182790529D01*
X23808883Y-182833715D01*
X23808552Y-182835688D01*
X23807731Y-182836280D01*
X23806065Y-182836925D01*
X23815872Y-182862273D01*
X23815565Y-182864250D01*
X23813699Y-182864971D01*
X23812344Y-182864106D01*
X23785568Y-182824034D01*
X23594929Y-182633395D01*
X23554671Y-182606495D01*
X23553786Y-182604701D01*
X23554897Y-182603038D01*
X23556500Y-182602965D01*
X23581779Y-182612694D01*
X23582082Y-182611906D01*
X23583637Y-182610648D01*
X23584695Y-182610769D01*
X23622026Y-182625803D01*
X23690062Y-182612836D01*
X23740284Y-182565147D01*
X23756743Y-182497902D01*
X23740613Y-182454716D01*
X23740944Y-182452743D01*
X23741765Y-182452151D01*
X23743431Y-182451506D01*
X23733624Y-182426158D01*
X23733931Y-182424181D01*
X23735797Y-182423460D01*
X23737152Y-182424325D01*
G37*
G36*
X25846275Y-181773754D02*
G01*
X26087904Y-182015383D01*
X26088422Y-182017315D01*
X26087008Y-182018729D01*
X26085532Y-182018552D01*
X26024232Y-181985081D01*
X25955150Y-181990021D01*
X25899706Y-182031526D01*
X25875502Y-182096418D01*
X25890269Y-182164299D01*
X25901700Y-182181574D01*
X25911973Y-182194559D01*
X25912270Y-182195078D01*
X25915978Y-182204663D01*
X25915671Y-182206640D01*
X25913805Y-182207361D01*
X25912450Y-182206496D01*
X25885675Y-182166424D01*
X25695036Y-181975785D01*
X25654777Y-181948885D01*
X25653892Y-181947091D01*
X25655003Y-181945428D01*
X25656606Y-181945355D01*
X25666054Y-181948991D01*
X25666576Y-181949288D01*
X25680011Y-181959899D01*
X25744529Y-181985883D01*
X25812564Y-181972918D01*
X25862786Y-181925230D01*
X25879256Y-181857956D01*
X25856671Y-181792260D01*
X25843333Y-181776458D01*
X25842980Y-181774489D01*
X25844508Y-181773199D01*
X25846275Y-181773754D01*
G37*
G36*
X24426581Y-181734896D02*
G01*
X24453357Y-181774968D01*
X24643996Y-181965607D01*
X24684254Y-181992507D01*
X24685139Y-181994301D01*
X24684028Y-181995964D01*
X24682425Y-181996037D01*
X24657147Y-181986308D01*
X24656844Y-181987097D01*
X24655288Y-181988355D01*
X24654230Y-181988234D01*
X24616905Y-181973201D01*
X24548870Y-181986166D01*
X24498648Y-182033853D01*
X24482185Y-182101098D01*
X24498313Y-182144286D01*
X24497982Y-182146259D01*
X24497161Y-182146851D01*
X24495495Y-182147496D01*
X24505302Y-182172844D01*
X24504995Y-182174821D01*
X24503129Y-182175542D01*
X24501774Y-182174677D01*
X24474998Y-182134605D01*
X24284359Y-181943966D01*
X24244101Y-181917066D01*
X24243216Y-181915272D01*
X24244327Y-181913609D01*
X24245930Y-181913536D01*
X24271208Y-181923265D01*
X24271511Y-181922476D01*
X24273067Y-181921218D01*
X24274125Y-181921339D01*
X24311450Y-181936372D01*
X24379485Y-181923407D01*
X24429707Y-181875720D01*
X24446170Y-181808475D01*
X24430042Y-181765287D01*
X24430373Y-181763314D01*
X24431194Y-181762722D01*
X24432860Y-181762077D01*
X24423053Y-181736729D01*
X24423360Y-181734752D01*
X24425226Y-181734031D01*
X24426581Y-181734896D01*
G37*
G36*
X25845705Y-181029957D02*
G01*
X25845873Y-181031232D01*
X25843370Y-181043820D01*
X25847021Y-181062175D01*
X25857528Y-181077901D01*
X26847198Y-182067571D01*
X26862924Y-182078078D01*
X26881279Y-182081729D01*
X26893867Y-182079226D01*
X26895761Y-182079869D01*
X26896151Y-182081831D01*
X26895368Y-182082851D01*
X26881400Y-182092183D01*
X26881503Y-182093759D01*
X26880637Y-182094646D01*
X26853446Y-182108868D01*
X26836658Y-182139614D01*
X26834951Y-182140655D01*
X26833792Y-182140319D01*
X26833511Y-182140131D01*
X26824295Y-182153924D01*
X26822501Y-182154809D01*
X26820838Y-182153698D01*
X26820670Y-182152423D01*
X26823173Y-182139835D01*
X26819522Y-182121480D01*
X26809015Y-182105754D01*
X25819345Y-181116084D01*
X25803619Y-181105577D01*
X25785264Y-181101926D01*
X25772676Y-181104429D01*
X25770782Y-181103786D01*
X25770392Y-181101824D01*
X25771175Y-181100804D01*
X25785143Y-181091472D01*
X25785040Y-181089896D01*
X25785906Y-181089009D01*
X25813097Y-181074787D01*
X25829885Y-181044041D01*
X25831592Y-181043000D01*
X25832751Y-181043336D01*
X25833032Y-181043524D01*
X25842248Y-181029731D01*
X25844042Y-181028846D01*
X25845705Y-181029957D01*
G37*
G36*
X36299526Y-181029731D02*
G01*
X36308858Y-181043699D01*
X36310434Y-181043596D01*
X36311321Y-181044462D01*
X36325543Y-181071653D01*
X36356289Y-181088441D01*
X36357330Y-181090148D01*
X36356994Y-181091307D01*
X36356806Y-181091588D01*
X36370599Y-181100804D01*
X36371484Y-181102598D01*
X36370373Y-181104261D01*
X36369098Y-181104429D01*
X36356510Y-181101926D01*
X36338155Y-181105577D01*
X36322429Y-181116084D01*
X35332759Y-182105754D01*
X35322252Y-182121480D01*
X35318601Y-182139835D01*
X35321104Y-182152423D01*
X35320461Y-182154317D01*
X35318499Y-182154707D01*
X35317479Y-182153924D01*
X35308147Y-182139956D01*
X35306571Y-182140059D01*
X35305684Y-182139193D01*
X35291462Y-182112002D01*
X35260716Y-182095214D01*
X35259675Y-182093507D01*
X35260011Y-182092348D01*
X35260199Y-182092067D01*
X35246406Y-182082851D01*
X35245521Y-182081057D01*
X35246632Y-182079394D01*
X35247907Y-182079226D01*
X35260495Y-182081729D01*
X35278850Y-182078078D01*
X35294576Y-182067571D01*
X36284246Y-181077901D01*
X36294753Y-181062175D01*
X36298404Y-181043820D01*
X36295901Y-181031232D01*
X36296544Y-181029338D01*
X36298506Y-181028948D01*
X36299526Y-181029731D01*
G37*
G36*
X26199259Y-180676403D02*
G01*
X26199427Y-180677678D01*
X26196924Y-180690266D01*
X26200575Y-180708621D01*
X26211082Y-180724347D01*
X27200752Y-181714017D01*
X27216478Y-181724524D01*
X27234833Y-181728175D01*
X27247421Y-181725672D01*
X27249315Y-181726315D01*
X27249705Y-181728277D01*
X27248922Y-181729297D01*
X27234955Y-181738629D01*
X27235058Y-181740204D01*
X27234191Y-181741091D01*
X27207001Y-181755312D01*
X27190211Y-181786061D01*
X27188504Y-181787102D01*
X27187345Y-181786766D01*
X27187064Y-181786578D01*
X27177848Y-181800371D01*
X27176054Y-181801256D01*
X27174391Y-181800145D01*
X27174223Y-181798870D01*
X27176726Y-181786282D01*
X27173075Y-181767927D01*
X27162568Y-181752201D01*
X26172898Y-180762531D01*
X26157172Y-180752024D01*
X26138817Y-180748373D01*
X26126229Y-180750876D01*
X26124335Y-180750233D01*
X26123945Y-180748271D01*
X26124728Y-180747251D01*
X26138695Y-180737919D01*
X26138592Y-180736344D01*
X26139459Y-180735457D01*
X26166649Y-180721236D01*
X26183439Y-180690487D01*
X26185146Y-180689446D01*
X26186305Y-180689782D01*
X26186586Y-180689970D01*
X26195802Y-180676177D01*
X26197596Y-180675292D01*
X26199259Y-180676403D01*
G37*
G36*
X35945972Y-180676177D02*
G01*
X35955304Y-180690144D01*
X35956879Y-180690041D01*
X35957766Y-180690908D01*
X35971987Y-180718098D01*
X36002736Y-180734888D01*
X36003777Y-180736595D01*
X36003441Y-180737754D01*
X36003253Y-180738035D01*
X36017046Y-180747251D01*
X36017931Y-180749045D01*
X36016820Y-180750708D01*
X36015545Y-180750876D01*
X36002957Y-180748373D01*
X35984602Y-180752024D01*
X35968876Y-180762531D01*
X34979206Y-181752201D01*
X34968699Y-181767927D01*
X34965048Y-181786282D01*
X34967551Y-181798870D01*
X34966908Y-181800764D01*
X34964946Y-181801154D01*
X34963926Y-181800371D01*
X34954594Y-181786404D01*
X34953019Y-181786507D01*
X34952132Y-181785640D01*
X34937911Y-181758450D01*
X34907162Y-181741660D01*
X34906121Y-181739953D01*
X34906457Y-181738794D01*
X34906645Y-181738513D01*
X34892852Y-181729297D01*
X34891967Y-181727503D01*
X34893078Y-181725840D01*
X34894353Y-181725672D01*
X34906941Y-181728175D01*
X34925296Y-181724524D01*
X34941022Y-181714017D01*
X35930692Y-180724347D01*
X35941199Y-180708621D01*
X35944850Y-180690266D01*
X35942347Y-180677678D01*
X35942990Y-180675784D01*
X35944952Y-180675394D01*
X35945972Y-180676177D01*
G37*
G36*
X70338772Y-180378200D02*
G01*
X70339040Y-180379200D01*
X70339040Y-180864001D01*
X70342767Y-180882745D01*
X70344080Y-180885916D01*
X70354596Y-180901655D01*
X70370324Y-180912160D01*
X70373495Y-180913473D01*
X70392239Y-180917200D01*
X70811841Y-180917200D01*
X70830585Y-180913473D01*
X70833756Y-180912160D01*
X70849495Y-180901644D01*
X70860000Y-180885916D01*
X70861313Y-180882745D01*
X70865040Y-180864001D01*
X70865040Y-180379200D01*
X70866040Y-180377468D01*
X70867040Y-180377200D01*
X70987040Y-180377200D01*
X70988772Y-180378200D01*
X70989040Y-180379200D01*
X70989040Y-180864001D01*
X70992767Y-180882745D01*
X70994080Y-180885916D01*
X71004596Y-180901655D01*
X71020324Y-180912160D01*
X71023495Y-180913473D01*
X71042239Y-180917200D01*
X71461841Y-180917200D01*
X71480585Y-180913473D01*
X71483756Y-180912160D01*
X71499495Y-180901644D01*
X71510000Y-180885916D01*
X71511313Y-180882745D01*
X71515040Y-180864001D01*
X71515040Y-180379200D01*
X71516040Y-180377468D01*
X71517040Y-180377200D01*
X71637040Y-180377200D01*
X71638772Y-180378200D01*
X71639040Y-180379200D01*
X71639040Y-180864001D01*
X71642767Y-180882745D01*
X71644080Y-180885916D01*
X71654596Y-180901655D01*
X71670324Y-180912160D01*
X71673495Y-180913473D01*
X71692239Y-180917200D01*
X72111841Y-180917200D01*
X72130585Y-180913473D01*
X72133756Y-180912160D01*
X72149495Y-180901644D01*
X72157710Y-180889345D01*
X72159503Y-180888460D01*
X72161167Y-180889571D01*
X72161335Y-180890846D01*
X72158308Y-180906073D01*
X72158463Y-180906209D01*
X72158479Y-180907451D01*
X72147355Y-180943003D01*
X72158681Y-180981563D01*
X72158319Y-180983057D01*
X72161708Y-181000096D01*
X72161065Y-181001990D01*
X72159103Y-181002380D01*
X72158083Y-181001597D01*
X72150953Y-180990927D01*
X72135395Y-180980531D01*
X72116841Y-180976840D01*
X71697239Y-180976840D01*
X71678685Y-180980531D01*
X71663127Y-180990927D01*
X71652731Y-181006485D01*
X71649040Y-181025039D01*
X71649040Y-181724641D01*
X71652731Y-181743195D01*
X71659862Y-181753867D01*
X71659993Y-181755863D01*
X71658330Y-181756974D01*
X71657088Y-181756641D01*
X71650614Y-181752316D01*
X71584251Y-181731536D01*
X71513452Y-181752325D01*
X71506992Y-181756641D01*
X71504996Y-181756772D01*
X71503885Y-181755109D01*
X71504218Y-181753867D01*
X71511349Y-181743195D01*
X71515040Y-181724641D01*
X71515040Y-181025039D01*
X71511349Y-181006485D01*
X71500953Y-180990927D01*
X71485395Y-180980531D01*
X71466841Y-180976840D01*
X71047239Y-180976840D01*
X71028685Y-180980531D01*
X71013127Y-180990927D01*
X71002731Y-181006485D01*
X70999040Y-181025039D01*
X70999040Y-181724641D01*
X71002731Y-181743195D01*
X71009862Y-181753867D01*
X71009993Y-181755863D01*
X71008330Y-181756974D01*
X71007088Y-181756641D01*
X71000614Y-181752316D01*
X70934251Y-181731536D01*
X70863452Y-181752325D01*
X70856992Y-181756641D01*
X70854996Y-181756772D01*
X70853885Y-181755109D01*
X70854218Y-181753867D01*
X70861349Y-181743195D01*
X70865040Y-181724641D01*
X70865040Y-181025039D01*
X70861349Y-181006485D01*
X70850953Y-180990927D01*
X70835395Y-180980531D01*
X70816841Y-180976840D01*
X70397239Y-180976840D01*
X70378685Y-180980531D01*
X70363127Y-180990927D01*
X70352731Y-181006485D01*
X70349040Y-181025039D01*
X70349040Y-181724641D01*
X70352731Y-181743195D01*
X70359862Y-181753867D01*
X70359993Y-181755863D01*
X70358330Y-181756974D01*
X70357088Y-181756641D01*
X70350614Y-181752316D01*
X70284251Y-181731536D01*
X70213452Y-181752325D01*
X70206992Y-181756641D01*
X70204996Y-181756772D01*
X70203885Y-181755109D01*
X70204218Y-181753867D01*
X70211349Y-181743195D01*
X70215040Y-181724641D01*
X70215040Y-181025039D01*
X70211349Y-181006485D01*
X70200953Y-180990927D01*
X70185395Y-180980531D01*
X70166841Y-180976840D01*
X69747239Y-180976840D01*
X69728685Y-180980531D01*
X69713127Y-180990927D01*
X69705996Y-181001599D01*
X69704202Y-181002484D01*
X69702539Y-181001373D01*
X69702371Y-181000098D01*
X69705607Y-180983829D01*
X69705020Y-180983712D01*
X69703516Y-180982393D01*
X69703501Y-180981152D01*
X69711726Y-180954890D01*
X69693120Y-180891514D01*
X69693592Y-180889571D01*
X69695511Y-180889007D01*
X69696702Y-180889840D01*
X69704596Y-180901655D01*
X69720324Y-180912160D01*
X69723495Y-180913473D01*
X69742239Y-180917200D01*
X70161841Y-180917200D01*
X70180585Y-180913473D01*
X70183756Y-180912160D01*
X70199495Y-180901644D01*
X70210000Y-180885916D01*
X70211313Y-180882745D01*
X70215040Y-180864001D01*
X70215040Y-180379200D01*
X70216040Y-180377468D01*
X70217040Y-180377200D01*
X70337040Y-180377200D01*
X70338772Y-180378200D01*
G37*
G36*
X24526838Y-181108005D02*
G01*
X24527519Y-181109507D01*
X24527544Y-181137875D01*
X24528169Y-181137875D01*
X24529902Y-181138874D01*
X24530164Y-181140038D01*
X24527598Y-181171332D01*
X24560155Y-181232460D01*
X24620593Y-181266285D01*
X24689854Y-181262057D01*
X24724408Y-181242822D01*
X24742842Y-181228238D01*
X24743361Y-181227942D01*
X24752944Y-181224235D01*
X24754921Y-181224542D01*
X24755642Y-181226408D01*
X24754777Y-181227763D01*
X24714707Y-181254537D01*
X24453357Y-181515887D01*
X24413674Y-181575276D01*
X24411880Y-181576161D01*
X24410217Y-181575050D01*
X24410018Y-181574002D01*
X24414257Y-181522283D01*
X24381697Y-181461156D01*
X24321270Y-181427340D01*
X24249226Y-181432557D01*
X24246118Y-181433760D01*
X24244142Y-181433453D01*
X24243420Y-181431587D01*
X24244285Y-181430232D01*
X24284359Y-181403455D01*
X24474998Y-181212816D01*
X24514770Y-181153293D01*
X24523557Y-181109119D01*
X24524876Y-181107615D01*
X24526838Y-181108005D01*
G37*
G36*
X26552812Y-180322850D02*
G01*
X26552980Y-180324125D01*
X26550477Y-180336713D01*
X26554128Y-180355068D01*
X26564635Y-180370794D01*
X27554305Y-181360464D01*
X27570031Y-181370971D01*
X27588386Y-181374622D01*
X27600974Y-181372119D01*
X27602868Y-181372762D01*
X27603258Y-181374724D01*
X27602475Y-181375744D01*
X27588507Y-181385076D01*
X27588610Y-181386652D01*
X27587744Y-181387539D01*
X27560553Y-181401761D01*
X27543765Y-181432507D01*
X27542058Y-181433548D01*
X27540899Y-181433212D01*
X27540618Y-181433024D01*
X27531402Y-181446817D01*
X27529608Y-181447702D01*
X27527945Y-181446591D01*
X27527777Y-181445316D01*
X27530280Y-181432728D01*
X27526629Y-181414373D01*
X27516122Y-181398647D01*
X26526452Y-180408977D01*
X26510726Y-180398470D01*
X26492371Y-180394819D01*
X26479783Y-180397322D01*
X26477889Y-180396679D01*
X26477499Y-180394717D01*
X26478282Y-180393697D01*
X26492250Y-180384365D01*
X26492147Y-180382789D01*
X26493013Y-180381902D01*
X26520204Y-180367680D01*
X26536992Y-180336934D01*
X26538699Y-180335893D01*
X26539858Y-180336229D01*
X26540139Y-180336417D01*
X26549355Y-180322624D01*
X26551149Y-180321739D01*
X26552812Y-180322850D01*
G37*
G36*
X35592419Y-180322624D02*
G01*
X35601751Y-180336592D01*
X35603327Y-180336489D01*
X35604214Y-180337355D01*
X35618436Y-180364546D01*
X35649182Y-180381334D01*
X35650223Y-180383041D01*
X35649887Y-180384200D01*
X35649699Y-180384481D01*
X35663492Y-180393697D01*
X35664377Y-180395491D01*
X35663266Y-180397154D01*
X35661991Y-180397322D01*
X35649403Y-180394819D01*
X35631048Y-180398470D01*
X35615322Y-180408977D01*
X34625652Y-181398647D01*
X34615145Y-181414373D01*
X34611494Y-181432728D01*
X34613997Y-181445316D01*
X34613354Y-181447210D01*
X34611392Y-181447600D01*
X34610372Y-181446817D01*
X34601040Y-181432849D01*
X34599464Y-181432952D01*
X34598577Y-181432086D01*
X34584355Y-181404895D01*
X34553609Y-181388107D01*
X34552568Y-181386400D01*
X34552904Y-181385241D01*
X34553092Y-181384960D01*
X34539299Y-181375744D01*
X34538414Y-181373950D01*
X34539525Y-181372287D01*
X34540800Y-181372119D01*
X34553388Y-181374622D01*
X34571743Y-181370971D01*
X34587469Y-181360464D01*
X35577139Y-180370794D01*
X35587646Y-180355068D01*
X35591297Y-180336713D01*
X35588794Y-180324125D01*
X35589437Y-180322231D01*
X35591399Y-180321841D01*
X35592419Y-180322624D01*
G37*
G36*
X66501462Y-181172599D02*
G01*
X66501462Y-181174599D01*
X66500059Y-181175572D01*
X66500053Y-181175573D01*
X66499724Y-181175600D01*
X63619396Y-181175600D01*
X63617664Y-181174600D01*
X63617664Y-181172600D01*
X63619396Y-181171600D01*
X66499730Y-181171599D01*
X66501462Y-181172599D01*
G37*
G36*
X26906365Y-179969297D02*
G01*
X26906533Y-179970572D01*
X26904030Y-179983160D01*
X26907681Y-180001515D01*
X26918188Y-180017241D01*
X27907858Y-181006911D01*
X27923584Y-181017418D01*
X27941939Y-181021069D01*
X27954527Y-181018566D01*
X27956421Y-181019209D01*
X27956811Y-181021171D01*
X27956028Y-181022191D01*
X27942060Y-181031523D01*
X27942163Y-181033099D01*
X27941297Y-181033986D01*
X27914106Y-181048208D01*
X27897318Y-181078954D01*
X27895611Y-181079995D01*
X27894452Y-181079659D01*
X27894171Y-181079471D01*
X27884955Y-181093264D01*
X27883161Y-181094149D01*
X27881498Y-181093038D01*
X27881330Y-181091763D01*
X27883833Y-181079175D01*
X27880182Y-181060820D01*
X27869675Y-181045094D01*
X26880005Y-180055424D01*
X26864279Y-180044917D01*
X26845924Y-180041266D01*
X26833336Y-180043769D01*
X26831442Y-180043126D01*
X26831052Y-180041164D01*
X26831835Y-180040144D01*
X26845803Y-180030812D01*
X26845700Y-180029236D01*
X26846566Y-180028349D01*
X26873757Y-180014127D01*
X26890545Y-179983381D01*
X26892252Y-179982340D01*
X26893411Y-179982676D01*
X26893692Y-179982864D01*
X26902908Y-179969071D01*
X26904702Y-179968186D01*
X26906365Y-179969297D01*
G37*
G36*
X35238866Y-179969071D02*
G01*
X35248198Y-179983039D01*
X35249774Y-179982936D01*
X35250661Y-179983802D01*
X35264883Y-180010993D01*
X35295629Y-180027781D01*
X35296670Y-180029488D01*
X35296334Y-180030647D01*
X35296146Y-180030928D01*
X35309939Y-180040144D01*
X35310824Y-180041938D01*
X35309713Y-180043601D01*
X35308438Y-180043769D01*
X35295850Y-180041266D01*
X35277495Y-180044917D01*
X35261769Y-180055424D01*
X34272099Y-181045094D01*
X34261592Y-181060820D01*
X34257941Y-181079175D01*
X34260444Y-181091763D01*
X34259801Y-181093657D01*
X34257839Y-181094047D01*
X34256819Y-181093264D01*
X34247487Y-181079296D01*
X34245911Y-181079399D01*
X34245024Y-181078533D01*
X34230802Y-181051342D01*
X34200056Y-181034554D01*
X34199015Y-181032847D01*
X34199351Y-181031688D01*
X34199539Y-181031407D01*
X34185746Y-181022191D01*
X34184861Y-181020397D01*
X34185972Y-181018734D01*
X34187247Y-181018566D01*
X34199835Y-181021069D01*
X34218190Y-181017418D01*
X34233916Y-181006911D01*
X35223586Y-180017241D01*
X35234093Y-180001515D01*
X35237744Y-179983160D01*
X35235241Y-179970572D01*
X35235884Y-179968678D01*
X35237846Y-179968288D01*
X35238866Y-179969071D01*
G37*
G36*
X27259919Y-179615743D02*
G01*
X27260087Y-179617018D01*
X27257584Y-179629606D01*
X27261235Y-179647961D01*
X27271742Y-179663687D01*
X28261412Y-180653357D01*
X28277138Y-180663864D01*
X28295493Y-180667515D01*
X28308081Y-180665012D01*
X28309975Y-180665655D01*
X28310365Y-180667617D01*
X28309582Y-180668637D01*
X28295615Y-180677969D01*
X28295718Y-180679544D01*
X28294851Y-180680431D01*
X28267661Y-180694652D01*
X28250871Y-180725401D01*
X28249164Y-180726442D01*
X28248005Y-180726106D01*
X28247724Y-180725918D01*
X28238508Y-180739711D01*
X28236714Y-180740596D01*
X28235051Y-180739485D01*
X28234883Y-180738210D01*
X28237386Y-180725622D01*
X28233735Y-180707267D01*
X28223228Y-180691541D01*
X27233558Y-179701871D01*
X27217832Y-179691364D01*
X27199477Y-179687713D01*
X27186889Y-179690216D01*
X27184995Y-179689573D01*
X27184605Y-179687611D01*
X27185388Y-179686591D01*
X27199355Y-179677259D01*
X27199252Y-179675684D01*
X27200119Y-179674797D01*
X27227309Y-179660576D01*
X27244099Y-179629827D01*
X27245806Y-179628786D01*
X27246965Y-179629122D01*
X27247246Y-179629310D01*
X27256462Y-179615517D01*
X27258256Y-179614632D01*
X27259919Y-179615743D01*
G37*
G36*
X34885312Y-179615517D02*
G01*
X34894644Y-179629484D01*
X34896219Y-179629381D01*
X34897106Y-179630248D01*
X34911327Y-179657438D01*
X34942076Y-179674228D01*
X34943117Y-179675935D01*
X34942781Y-179677094D01*
X34942593Y-179677375D01*
X34956386Y-179686591D01*
X34957271Y-179688385D01*
X34956160Y-179690048D01*
X34954885Y-179690216D01*
X34942297Y-179687713D01*
X34923942Y-179691364D01*
X34908216Y-179701871D01*
X33918546Y-180691541D01*
X33908039Y-180707267D01*
X33904388Y-180725622D01*
X33906891Y-180738210D01*
X33906248Y-180740104D01*
X33904286Y-180740494D01*
X33903266Y-180739711D01*
X33893934Y-180725744D01*
X33892359Y-180725847D01*
X33891472Y-180724980D01*
X33877251Y-180697790D01*
X33846502Y-180681000D01*
X33845461Y-180679293D01*
X33845797Y-180678134D01*
X33845985Y-180677853D01*
X33832192Y-180668637D01*
X33831307Y-180666843D01*
X33832418Y-180665180D01*
X33833693Y-180665012D01*
X33846281Y-180667515D01*
X33864636Y-180663864D01*
X33880362Y-180653357D01*
X34870032Y-179663687D01*
X34880539Y-179647961D01*
X34884190Y-179629606D01*
X34881687Y-179617018D01*
X34882330Y-179615124D01*
X34884292Y-179614734D01*
X34885312Y-179615517D01*
G37*
G36*
X27613472Y-179262190D02*
G01*
X27613640Y-179263465D01*
X27611137Y-179276053D01*
X27614788Y-179294408D01*
X27625295Y-179310134D01*
X28614965Y-180299804D01*
X28630691Y-180310311D01*
X28649046Y-180313962D01*
X28661634Y-180311459D01*
X28663528Y-180312102D01*
X28663918Y-180314064D01*
X28663135Y-180315084D01*
X28649167Y-180324416D01*
X28649270Y-180325992D01*
X28648404Y-180326879D01*
X28621213Y-180341101D01*
X28604425Y-180371847D01*
X28602718Y-180372888D01*
X28601559Y-180372552D01*
X28601278Y-180372364D01*
X28592062Y-180386157D01*
X28590268Y-180387042D01*
X28588605Y-180385931D01*
X28588437Y-180384656D01*
X28590940Y-180372068D01*
X28587289Y-180353713D01*
X28576782Y-180337987D01*
X27587112Y-179348317D01*
X27571386Y-179337810D01*
X27553031Y-179334159D01*
X27540443Y-179336662D01*
X27538549Y-179336019D01*
X27538159Y-179334057D01*
X27538942Y-179333037D01*
X27552910Y-179323705D01*
X27552807Y-179322129D01*
X27553673Y-179321242D01*
X27580864Y-179307020D01*
X27597652Y-179276274D01*
X27599359Y-179275233D01*
X27600518Y-179275569D01*
X27600799Y-179275757D01*
X27610015Y-179261964D01*
X27611809Y-179261079D01*
X27613472Y-179262190D01*
G37*
G36*
X34531759Y-179261964D02*
G01*
X34541091Y-179275932D01*
X34542667Y-179275829D01*
X34543554Y-179276695D01*
X34557776Y-179303886D01*
X34588522Y-179320674D01*
X34589563Y-179322381D01*
X34589227Y-179323540D01*
X34589039Y-179323821D01*
X34602832Y-179333037D01*
X34603717Y-179334831D01*
X34602606Y-179336494D01*
X34601331Y-179336662D01*
X34588743Y-179334159D01*
X34570388Y-179337810D01*
X34554662Y-179348317D01*
X33564992Y-180337987D01*
X33554485Y-180353713D01*
X33550834Y-180372068D01*
X33553337Y-180384656D01*
X33552694Y-180386550D01*
X33550732Y-180386940D01*
X33549712Y-180386157D01*
X33540380Y-180372189D01*
X33538804Y-180372292D01*
X33537917Y-180371426D01*
X33523695Y-180344235D01*
X33492949Y-180327447D01*
X33491908Y-180325740D01*
X33492244Y-180324581D01*
X33492432Y-180324300D01*
X33478639Y-180315084D01*
X33477754Y-180313290D01*
X33478865Y-180311627D01*
X33480140Y-180311459D01*
X33492728Y-180313962D01*
X33511083Y-180310311D01*
X33526809Y-180299804D01*
X34516479Y-179310134D01*
X34526986Y-179294408D01*
X34530637Y-179276053D01*
X34528134Y-179263465D01*
X34528777Y-179261571D01*
X34530739Y-179261181D01*
X34531759Y-179261964D01*
G37*
G36*
X27967026Y-178908636D02*
G01*
X27967194Y-178909911D01*
X27964691Y-178922499D01*
X27968342Y-178940854D01*
X27978849Y-178956580D01*
X28968519Y-179946250D01*
X28984245Y-179956757D01*
X29002600Y-179960408D01*
X29015188Y-179957905D01*
X29017082Y-179958548D01*
X29017472Y-179960510D01*
X29016689Y-179961530D01*
X29002722Y-179970862D01*
X29002825Y-179972437D01*
X29001958Y-179973324D01*
X28974768Y-179987545D01*
X28957978Y-180018294D01*
X28956271Y-180019335D01*
X28955112Y-180018999D01*
X28954831Y-180018811D01*
X28945615Y-180032604D01*
X28943821Y-180033489D01*
X28942158Y-180032378D01*
X28941990Y-180031103D01*
X28944493Y-180018515D01*
X28940842Y-180000160D01*
X28930335Y-179984434D01*
X27940665Y-178994764D01*
X27924939Y-178984257D01*
X27906584Y-178980606D01*
X27893996Y-178983109D01*
X27892102Y-178982466D01*
X27891712Y-178980504D01*
X27892495Y-178979484D01*
X27906462Y-178970152D01*
X27906359Y-178968577D01*
X27907226Y-178967690D01*
X27934416Y-178953469D01*
X27951206Y-178922720D01*
X27952913Y-178921679D01*
X27954072Y-178922015D01*
X27954353Y-178922203D01*
X27963569Y-178908410D01*
X27965363Y-178907525D01*
X27967026Y-178908636D01*
G37*
G36*
X34178205Y-178908410D02*
G01*
X34187537Y-178922377D01*
X34189112Y-178922274D01*
X34189999Y-178923141D01*
X34204220Y-178950331D01*
X34234969Y-178967121D01*
X34236010Y-178968828D01*
X34235674Y-178969987D01*
X34235486Y-178970268D01*
X34249279Y-178979484D01*
X34250164Y-178981278D01*
X34249053Y-178982941D01*
X34247778Y-178983109D01*
X34235190Y-178980606D01*
X34216835Y-178984257D01*
X34201109Y-178994764D01*
X33211439Y-179984434D01*
X33200932Y-180000160D01*
X33197281Y-180018515D01*
X33199784Y-180031103D01*
X33199141Y-180032997D01*
X33197179Y-180033387D01*
X33196159Y-180032604D01*
X33186827Y-180018637D01*
X33185252Y-180018740D01*
X33184365Y-180017873D01*
X33170144Y-179990683D01*
X33139395Y-179973893D01*
X33138354Y-179972186D01*
X33138690Y-179971027D01*
X33138878Y-179970746D01*
X33125085Y-179961530D01*
X33124200Y-179959736D01*
X33125311Y-179958073D01*
X33126586Y-179957905D01*
X33139174Y-179960408D01*
X33157529Y-179956757D01*
X33173255Y-179946250D01*
X34162925Y-178956580D01*
X34173432Y-178940854D01*
X34177083Y-178922499D01*
X34174580Y-178909911D01*
X34175223Y-178908017D01*
X34177185Y-178907627D01*
X34178205Y-178908410D01*
G37*
G36*
X28320579Y-178555083D02*
G01*
X28320747Y-178556358D01*
X28318244Y-178568946D01*
X28321895Y-178587301D01*
X28332402Y-178603027D01*
X29322072Y-179592697D01*
X29337798Y-179603204D01*
X29356153Y-179606855D01*
X29368741Y-179604352D01*
X29370635Y-179604995D01*
X29371025Y-179606957D01*
X29370242Y-179607977D01*
X29356274Y-179617309D01*
X29356377Y-179618885D01*
X29355511Y-179619772D01*
X29328320Y-179633994D01*
X29311532Y-179664740D01*
X29309825Y-179665781D01*
X29308666Y-179665445D01*
X29308385Y-179665257D01*
X29299169Y-179679050D01*
X29297375Y-179679935D01*
X29295712Y-179678824D01*
X29295544Y-179677549D01*
X29298047Y-179664961D01*
X29294396Y-179646606D01*
X29283889Y-179630880D01*
X28294219Y-178641210D01*
X28278493Y-178630703D01*
X28260138Y-178627052D01*
X28247550Y-178629555D01*
X28245656Y-178628912D01*
X28245266Y-178626950D01*
X28246049Y-178625930D01*
X28260017Y-178616598D01*
X28259914Y-178615022D01*
X28260780Y-178614135D01*
X28287971Y-178599913D01*
X28304759Y-178569167D01*
X28306466Y-178568126D01*
X28307625Y-178568462D01*
X28307906Y-178568650D01*
X28317122Y-178554857D01*
X28318916Y-178553972D01*
X28320579Y-178555083D01*
G37*
G36*
X33824652Y-178554857D02*
G01*
X33833984Y-178568825D01*
X33835560Y-178568722D01*
X33836447Y-178569588D01*
X33850669Y-178596779D01*
X33881415Y-178613567D01*
X33882456Y-178615274D01*
X33882120Y-178616433D01*
X33881932Y-178616714D01*
X33895725Y-178625930D01*
X33896610Y-178627724D01*
X33895499Y-178629387D01*
X33894224Y-178629555D01*
X33881636Y-178627052D01*
X33863281Y-178630703D01*
X33847555Y-178641210D01*
X32857885Y-179630880D01*
X32847378Y-179646606D01*
X32843727Y-179664961D01*
X32846230Y-179677549D01*
X32845587Y-179679443D01*
X32843625Y-179679833D01*
X32842605Y-179679050D01*
X32833273Y-179665082D01*
X32831697Y-179665185D01*
X32830810Y-179664319D01*
X32816588Y-179637128D01*
X32785842Y-179620340D01*
X32784801Y-179618633D01*
X32785137Y-179617474D01*
X32785325Y-179617193D01*
X32771532Y-179607977D01*
X32770647Y-179606183D01*
X32771758Y-179604520D01*
X32773033Y-179604352D01*
X32785621Y-179606855D01*
X32803976Y-179603204D01*
X32819702Y-179592697D01*
X33809372Y-178603027D01*
X33819879Y-178587301D01*
X33823530Y-178568946D01*
X33821027Y-178556358D01*
X33821670Y-178554464D01*
X33823632Y-178554074D01*
X33824652Y-178554857D01*
G37*
G36*
X66501456Y-179672600D02*
G01*
X66501456Y-179674600D01*
X66499724Y-179675600D01*
X63619390Y-179675601D01*
X63617658Y-179674601D01*
X63617658Y-179672601D01*
X63619061Y-179671628D01*
X63619067Y-179671627D01*
X63619396Y-179671600D01*
X66499724Y-179671600D01*
X66501456Y-179672600D01*
G37*
G36*
X28674132Y-178201530D02*
G01*
X28674300Y-178202805D01*
X28671797Y-178215393D01*
X28675448Y-178233748D01*
X28685955Y-178249474D01*
X29675625Y-179239144D01*
X29691351Y-179249651D01*
X29709706Y-179253302D01*
X29722294Y-179250799D01*
X29724188Y-179251442D01*
X29724578Y-179253404D01*
X29723795Y-179254424D01*
X29709827Y-179263756D01*
X29709930Y-179265332D01*
X29709064Y-179266219D01*
X29681873Y-179280441D01*
X29665085Y-179311187D01*
X29663378Y-179312228D01*
X29662219Y-179311892D01*
X29661938Y-179311704D01*
X29652722Y-179325497D01*
X29650928Y-179326382D01*
X29649265Y-179325271D01*
X29649097Y-179323996D01*
X29651600Y-179311408D01*
X29647949Y-179293053D01*
X29637442Y-179277327D01*
X28647772Y-178287657D01*
X28632046Y-178277150D01*
X28613691Y-178273499D01*
X28601103Y-178276002D01*
X28599209Y-178275359D01*
X28598819Y-178273397D01*
X28599602Y-178272377D01*
X28613570Y-178263045D01*
X28613467Y-178261469D01*
X28614333Y-178260582D01*
X28641524Y-178246360D01*
X28658312Y-178215614D01*
X28660019Y-178214573D01*
X28661178Y-178214909D01*
X28661459Y-178215097D01*
X28670675Y-178201304D01*
X28672469Y-178200419D01*
X28674132Y-178201530D01*
G37*
G36*
X33471099Y-178201304D02*
G01*
X33480431Y-178215272D01*
X33482007Y-178215169D01*
X33482894Y-178216035D01*
X33497116Y-178243226D01*
X33527862Y-178260014D01*
X33528903Y-178261721D01*
X33528567Y-178262880D01*
X33528379Y-178263161D01*
X33542172Y-178272377D01*
X33543057Y-178274171D01*
X33541946Y-178275834D01*
X33540671Y-178276002D01*
X33528083Y-178273499D01*
X33509728Y-178277150D01*
X33494002Y-178287657D01*
X32504332Y-179277327D01*
X32493825Y-179293053D01*
X32490174Y-179311408D01*
X32492677Y-179323996D01*
X32492034Y-179325890D01*
X32490072Y-179326280D01*
X32489052Y-179325497D01*
X32479720Y-179311529D01*
X32478144Y-179311632D01*
X32477257Y-179310766D01*
X32463035Y-179283575D01*
X32432289Y-179266787D01*
X32431248Y-179265080D01*
X32431584Y-179263921D01*
X32431772Y-179263640D01*
X32417979Y-179254424D01*
X32417094Y-179252630D01*
X32418205Y-179250967D01*
X32419480Y-179250799D01*
X32432068Y-179253302D01*
X32450423Y-179249651D01*
X32466149Y-179239144D01*
X33455819Y-178249474D01*
X33466326Y-178233748D01*
X33469977Y-178215393D01*
X33467474Y-178202805D01*
X33468117Y-178200911D01*
X33470079Y-178200521D01*
X33471099Y-178201304D01*
G37*
G36*
X29027686Y-177847976D02*
G01*
X29027854Y-177849251D01*
X29025351Y-177861839D01*
X29029002Y-177880194D01*
X29039509Y-177895920D01*
X30029179Y-178885590D01*
X30044905Y-178896097D01*
X30063260Y-178899748D01*
X30075848Y-178897245D01*
X30077742Y-178897888D01*
X30078132Y-178899850D01*
X30077349Y-178900870D01*
X30063382Y-178910202D01*
X30063485Y-178911777D01*
X30062618Y-178912664D01*
X30035428Y-178926885D01*
X30018638Y-178957634D01*
X30016931Y-178958675D01*
X30015772Y-178958339D01*
X30015491Y-178958151D01*
X30006275Y-178971944D01*
X30004481Y-178972829D01*
X30002818Y-178971718D01*
X30002650Y-178970443D01*
X30005153Y-178957855D01*
X30001502Y-178939500D01*
X29990995Y-178923774D01*
X29001325Y-177934104D01*
X28985599Y-177923597D01*
X28967244Y-177919946D01*
X28954656Y-177922449D01*
X28952762Y-177921806D01*
X28952372Y-177919844D01*
X28953155Y-177918824D01*
X28967122Y-177909492D01*
X28967019Y-177907917D01*
X28967886Y-177907030D01*
X28995076Y-177892809D01*
X29011866Y-177862060D01*
X29013573Y-177861019D01*
X29014732Y-177861355D01*
X29015013Y-177861543D01*
X29024229Y-177847750D01*
X29026023Y-177846865D01*
X29027686Y-177847976D01*
G37*
G36*
X33117545Y-177847750D02*
G01*
X33126877Y-177861717D01*
X33128452Y-177861614D01*
X33129339Y-177862481D01*
X33143560Y-177889671D01*
X33174309Y-177906461D01*
X33175350Y-177908168D01*
X33175014Y-177909327D01*
X33174826Y-177909608D01*
X33188619Y-177918824D01*
X33189504Y-177920618D01*
X33188393Y-177922281D01*
X33187118Y-177922449D01*
X33174530Y-177919946D01*
X33156175Y-177923597D01*
X33140449Y-177934104D01*
X32150779Y-178923774D01*
X32140272Y-178939500D01*
X32136621Y-178957855D01*
X32139124Y-178970443D01*
X32138481Y-178972337D01*
X32136519Y-178972727D01*
X32135499Y-178971944D01*
X32126167Y-178957977D01*
X32124592Y-178958080D01*
X32123705Y-178957213D01*
X32109484Y-178930023D01*
X32078735Y-178913233D01*
X32077694Y-178911526D01*
X32078030Y-178910367D01*
X32078218Y-178910086D01*
X32064425Y-178900870D01*
X32063540Y-178899076D01*
X32064651Y-178897413D01*
X32065926Y-178897245D01*
X32078514Y-178899748D01*
X32096869Y-178896097D01*
X32112595Y-178885590D01*
X33102265Y-177895920D01*
X33112772Y-177880194D01*
X33116423Y-177861839D01*
X33113920Y-177849251D01*
X33114563Y-177847357D01*
X33116525Y-177846967D01*
X33117545Y-177847750D01*
G37*
G36*
X29381239Y-177494423D02*
G01*
X29381407Y-177495698D01*
X29378904Y-177508286D01*
X29382555Y-177526641D01*
X29393062Y-177542367D01*
X30382732Y-178532037D01*
X30398458Y-178542544D01*
X30416813Y-178546195D01*
X30429401Y-178543692D01*
X30431295Y-178544335D01*
X30431685Y-178546297D01*
X30430902Y-178547317D01*
X30416934Y-178556649D01*
X30417037Y-178558225D01*
X30416171Y-178559112D01*
X30388980Y-178573334D01*
X30372192Y-178604080D01*
X30370485Y-178605121D01*
X30369326Y-178604785D01*
X30369045Y-178604597D01*
X30359829Y-178618390D01*
X30358035Y-178619275D01*
X30356372Y-178618164D01*
X30356204Y-178616889D01*
X30358707Y-178604301D01*
X30355056Y-178585946D01*
X30344549Y-178570220D01*
X29354879Y-177580550D01*
X29339153Y-177570043D01*
X29320798Y-177566392D01*
X29308210Y-177568895D01*
X29306316Y-177568252D01*
X29305926Y-177566290D01*
X29306709Y-177565270D01*
X29320677Y-177555938D01*
X29320574Y-177554362D01*
X29321440Y-177553475D01*
X29348631Y-177539253D01*
X29365419Y-177508507D01*
X29367126Y-177507466D01*
X29368285Y-177507802D01*
X29368566Y-177507990D01*
X29377782Y-177494197D01*
X29379576Y-177493312D01*
X29381239Y-177494423D01*
G37*
G36*
X32763992Y-177494197D02*
G01*
X32773324Y-177508165D01*
X32774900Y-177508062D01*
X32775787Y-177508928D01*
X32790009Y-177536119D01*
X32820755Y-177552907D01*
X32821796Y-177554614D01*
X32821460Y-177555773D01*
X32821272Y-177556054D01*
X32835065Y-177565270D01*
X32835950Y-177567064D01*
X32834839Y-177568727D01*
X32833564Y-177568895D01*
X32820976Y-177566392D01*
X32802621Y-177570043D01*
X32786895Y-177580550D01*
X31797225Y-178570220D01*
X31786718Y-178585946D01*
X31783067Y-178604301D01*
X31785570Y-178616889D01*
X31784927Y-178618783D01*
X31782965Y-178619173D01*
X31781945Y-178618390D01*
X31772613Y-178604422D01*
X31771037Y-178604525D01*
X31770150Y-178603659D01*
X31755928Y-178576468D01*
X31725182Y-178559680D01*
X31724141Y-178557973D01*
X31724477Y-178556814D01*
X31724665Y-178556533D01*
X31710872Y-178547317D01*
X31709987Y-178545523D01*
X31711098Y-178543860D01*
X31712373Y-178543692D01*
X31724961Y-178546195D01*
X31743316Y-178542544D01*
X31759042Y-178532037D01*
X32748712Y-177542367D01*
X32759219Y-177526641D01*
X32762870Y-177508286D01*
X32760367Y-177495698D01*
X32761010Y-177493804D01*
X32762972Y-177493414D01*
X32763992Y-177494197D01*
G37*
G36*
X70206992Y-177142399D02*
G01*
X70213466Y-177146724D01*
X70279829Y-177167504D01*
X70350628Y-177146715D01*
X70357088Y-177142399D01*
X70359084Y-177142268D01*
X70360195Y-177143931D01*
X70359862Y-177145173D01*
X70352731Y-177155845D01*
X70349040Y-177174399D01*
X70349040Y-177874001D01*
X70352731Y-177892555D01*
X70359862Y-177903227D01*
X70359993Y-177905223D01*
X70358330Y-177906334D01*
X70357088Y-177906001D01*
X70350614Y-177901676D01*
X70284251Y-177880896D01*
X70213452Y-177901685D01*
X70206992Y-177906001D01*
X70204996Y-177906132D01*
X70203885Y-177904469D01*
X70204218Y-177903227D01*
X70211349Y-177892555D01*
X70215040Y-177874001D01*
X70215040Y-177174399D01*
X70211349Y-177155845D01*
X70204218Y-177145173D01*
X70204087Y-177143177D01*
X70205750Y-177142066D01*
X70206992Y-177142399D01*
G37*
G36*
X71708142Y-176917665D02*
G01*
X71707901Y-176918754D01*
X71678241Y-176973074D01*
X71683181Y-177042156D01*
X71724686Y-177097600D01*
X71789824Y-177121896D01*
X71798390Y-177122201D01*
X71800086Y-177123262D01*
X71800014Y-177125261D01*
X71798319Y-177126200D01*
X71697239Y-177126200D01*
X71678685Y-177129891D01*
X71663127Y-177140287D01*
X71652731Y-177155845D01*
X71649040Y-177174399D01*
X71649040Y-177874001D01*
X71652731Y-177892555D01*
X71659862Y-177903227D01*
X71659993Y-177905223D01*
X71658330Y-177906334D01*
X71657088Y-177906001D01*
X71650614Y-177901676D01*
X71584251Y-177880896D01*
X71513452Y-177901685D01*
X71506992Y-177906001D01*
X71504996Y-177906132D01*
X71503885Y-177904469D01*
X71504218Y-177903227D01*
X71511349Y-177892555D01*
X71515040Y-177874001D01*
X71515040Y-177174399D01*
X71511349Y-177155845D01*
X71500953Y-177140287D01*
X71485395Y-177129891D01*
X71466841Y-177126200D01*
X71086937Y-177126200D01*
X71085205Y-177125200D01*
X71085205Y-177123200D01*
X71086374Y-177122281D01*
X71153386Y-177102605D01*
X71198741Y-177050262D01*
X71208598Y-176981709D01*
X71180875Y-176921006D01*
X71181065Y-176919015D01*
X71182884Y-176918184D01*
X71183805Y-176918512D01*
X71230709Y-176949852D01*
X71302839Y-176964200D01*
X71582441Y-176964200D01*
X71654571Y-176949852D01*
X71705035Y-176916133D01*
X71707031Y-176916002D01*
X71708142Y-176917665D01*
G37*
G36*
X70856992Y-177142399D02*
G01*
X70863466Y-177146724D01*
X70929829Y-177167504D01*
X71000628Y-177146715D01*
X71007088Y-177142399D01*
X71009084Y-177142268D01*
X71010195Y-177143931D01*
X71009862Y-177145173D01*
X71002731Y-177155845D01*
X70999040Y-177174399D01*
X70999040Y-177874001D01*
X71002731Y-177892555D01*
X71009862Y-177903227D01*
X71009993Y-177905223D01*
X71008330Y-177906334D01*
X71007088Y-177906001D01*
X71000614Y-177901676D01*
X70934251Y-177880896D01*
X70863452Y-177901685D01*
X70856992Y-177906001D01*
X70854996Y-177906132D01*
X70853885Y-177904469D01*
X70854218Y-177903227D01*
X70861349Y-177892555D01*
X70865040Y-177874001D01*
X70865040Y-177174399D01*
X70861349Y-177155845D01*
X70854218Y-177145173D01*
X70854087Y-177143177D01*
X70855750Y-177142066D01*
X70856992Y-177142399D01*
G37*
G36*
X25662619Y-172980850D02*
G01*
X25689393Y-173020920D01*
X25950743Y-173282270D01*
X25991002Y-173309171D01*
X25991887Y-173310965D01*
X25990776Y-173312628D01*
X25989173Y-173312701D01*
X25973689Y-173306741D01*
X25904366Y-173301059D01*
X25843238Y-173333618D01*
X25809417Y-173394055D01*
X25813762Y-173463771D01*
X25818744Y-173477458D01*
X25818397Y-173479428D01*
X25816518Y-173480112D01*
X25815202Y-173479253D01*
X25783511Y-173431823D01*
X25539839Y-173188151D01*
X25492409Y-173156460D01*
X25491524Y-173154666D01*
X25492635Y-173153003D01*
X25494204Y-173152918D01*
X25507990Y-173157936D01*
X25577409Y-173162349D01*
X25637930Y-173128677D01*
X25670639Y-173067630D01*
X25664941Y-172997804D01*
X25659091Y-172982683D01*
X25659398Y-172980706D01*
X25661264Y-172979985D01*
X25662619Y-172980850D01*
G37*
G36*
X23156660Y-171962873D02*
G01*
X23157303Y-171963987D01*
X23159808Y-171976579D01*
X23170315Y-171992305D01*
X24230695Y-173052685D01*
X24246421Y-173063192D01*
X24259013Y-173065697D01*
X24260517Y-173067016D01*
X24260127Y-173068978D01*
X24259013Y-173069621D01*
X24242741Y-173072858D01*
X24243079Y-173074557D01*
X24242436Y-173076451D01*
X24241296Y-173076939D01*
X24217535Y-173079070D01*
X24162849Y-173121567D01*
X24144904Y-173172459D01*
X24143385Y-173173760D01*
X24142628Y-173173756D01*
X24141974Y-173173626D01*
X24138738Y-173189895D01*
X24137419Y-173191399D01*
X24135457Y-173191009D01*
X24134814Y-173189895D01*
X24132309Y-173177305D01*
X24121801Y-173161579D01*
X23061421Y-172101199D01*
X23045695Y-172090691D01*
X23033105Y-172088186D01*
X23031601Y-172086867D01*
X23031991Y-172084905D01*
X23033105Y-172084262D01*
X23049374Y-172081026D01*
X23049036Y-172079328D01*
X23049679Y-172077434D01*
X23050820Y-172076946D01*
X23074571Y-172074818D01*
X23129261Y-172032326D01*
X23147213Y-171981426D01*
X23148732Y-171980125D01*
X23149489Y-171980129D01*
X23150142Y-171980259D01*
X23153379Y-171963987D01*
X23154698Y-171962483D01*
X23156660Y-171962873D01*
G37*
G36*
X24040543Y-171078991D02*
G01*
X24041186Y-171080105D01*
X24043691Y-171092695D01*
X24054199Y-171108421D01*
X25114579Y-172168801D01*
X25130305Y-172179309D01*
X25142895Y-172181814D01*
X25144399Y-172183133D01*
X25144009Y-172185095D01*
X25142895Y-172185738D01*
X25126626Y-172188974D01*
X25126964Y-172190672D01*
X25126321Y-172192566D01*
X25125180Y-172193054D01*
X25101429Y-172195182D01*
X25046739Y-172237674D01*
X25028787Y-172288574D01*
X25027268Y-172289875D01*
X25026511Y-172289871D01*
X25025858Y-172289741D01*
X25022621Y-172306013D01*
X25021302Y-172307517D01*
X25019340Y-172307127D01*
X25018697Y-172306013D01*
X25016192Y-172293421D01*
X25005685Y-172277695D01*
X23945305Y-171217315D01*
X23929579Y-171206808D01*
X23916987Y-171204303D01*
X23915483Y-171202984D01*
X23915873Y-171201022D01*
X23916987Y-171200379D01*
X23933259Y-171197142D01*
X23932921Y-171195443D01*
X23933564Y-171193549D01*
X23934704Y-171193061D01*
X23958465Y-171190930D01*
X24013151Y-171148433D01*
X24031096Y-171097541D01*
X24032615Y-171096240D01*
X24033372Y-171096244D01*
X24034026Y-171096374D01*
X24037262Y-171080105D01*
X24038581Y-171078601D01*
X24040543Y-171078991D01*
G37*
G36*
X27278476Y-170014169D02*
G01*
X27279119Y-170015283D01*
X27279607Y-170017739D01*
X27311838Y-170079355D01*
X27376599Y-170114717D01*
X27379037Y-170115202D01*
X27380541Y-170116521D01*
X27380151Y-170118483D01*
X27379037Y-170119126D01*
X27372187Y-170120489D01*
X27361327Y-170127745D01*
X26937343Y-170551729D01*
X26930087Y-170562589D01*
X26928724Y-170569439D01*
X26927405Y-170570943D01*
X26925443Y-170570553D01*
X26924800Y-170569439D01*
X26924312Y-170566983D01*
X26892081Y-170505367D01*
X26827320Y-170470005D01*
X26824882Y-170469520D01*
X26823378Y-170468201D01*
X26823768Y-170466239D01*
X26824882Y-170465596D01*
X26831732Y-170464233D01*
X26842592Y-170456977D01*
X27266576Y-170032993D01*
X27273832Y-170022133D01*
X27275195Y-170015283D01*
X27276514Y-170013779D01*
X27278476Y-170014169D01*
G37*
G36*
X28130162Y-170014169D02*
G01*
X28130805Y-170015283D01*
X28132168Y-170022133D01*
X28139424Y-170032993D01*
X28563408Y-170456977D01*
X28574268Y-170464233D01*
X28581118Y-170465596D01*
X28582622Y-170466915D01*
X28582232Y-170468877D01*
X28581118Y-170469520D01*
X28578663Y-170470008D01*
X28517047Y-170502239D01*
X28481685Y-170567000D01*
X28481200Y-170569439D01*
X28479881Y-170570943D01*
X28477919Y-170570553D01*
X28477276Y-170569439D01*
X28475913Y-170562589D01*
X28468657Y-170551729D01*
X28044673Y-170127745D01*
X28033813Y-170120489D01*
X28026963Y-170119126D01*
X28025459Y-170117807D01*
X28025849Y-170115845D01*
X28026963Y-170115202D01*
X28029418Y-170114714D01*
X28091034Y-170082483D01*
X28126396Y-170017722D01*
X28126881Y-170015283D01*
X28128200Y-170013779D01*
X28130162Y-170014169D01*
G37*
G36*
X57849904Y-170456499D02*
G01*
X57849904Y-170458499D01*
X57848501Y-170459472D01*
X57848495Y-170459473D01*
X57848166Y-170459500D01*
X48767834Y-170459500D01*
X48766102Y-170458500D01*
X48766102Y-170456500D01*
X48767834Y-170455500D01*
X57848172Y-170455499D01*
X57849904Y-170456499D01*
G37*
G36*
X28483716Y-169660616D02*
G01*
X28484359Y-169661730D01*
X28485722Y-169668580D01*
X28492978Y-169679440D01*
X28916962Y-170103424D01*
X28927822Y-170110680D01*
X28934672Y-170112043D01*
X28936176Y-170113362D01*
X28935786Y-170115324D01*
X28934672Y-170115967D01*
X28932216Y-170116455D01*
X28870600Y-170148686D01*
X28835238Y-170213447D01*
X28834753Y-170215885D01*
X28833434Y-170217389D01*
X28831472Y-170216999D01*
X28830829Y-170215885D01*
X28829466Y-170209035D01*
X28822210Y-170198175D01*
X28398226Y-169774191D01*
X28387366Y-169766935D01*
X28380516Y-169765572D01*
X28379012Y-169764253D01*
X28379402Y-169762291D01*
X28380516Y-169761648D01*
X28382972Y-169761160D01*
X28444588Y-169728929D01*
X28479950Y-169664168D01*
X28480435Y-169661730D01*
X28481754Y-169660226D01*
X28483716Y-169660616D01*
G37*
G36*
X26924922Y-169660616D02*
G01*
X26925565Y-169661730D01*
X26926053Y-169664185D01*
X26958284Y-169725801D01*
X27023045Y-169761163D01*
X27025484Y-169761648D01*
X27026988Y-169762967D01*
X27026598Y-169764929D01*
X27025484Y-169765572D01*
X27018634Y-169766935D01*
X27007774Y-169774191D01*
X26583790Y-170198175D01*
X26576534Y-170209035D01*
X26575171Y-170215885D01*
X26573852Y-170217389D01*
X26571890Y-170216999D01*
X26571247Y-170215885D01*
X26570759Y-170213430D01*
X26538528Y-170151814D01*
X26473767Y-170116452D01*
X26471328Y-170115967D01*
X26469824Y-170114648D01*
X26470214Y-170112686D01*
X26471328Y-170112043D01*
X26478178Y-170110680D01*
X26489038Y-170103424D01*
X26913022Y-169679440D01*
X26920278Y-169668580D01*
X26921641Y-169661730D01*
X26922960Y-169660226D01*
X26924922Y-169660616D01*
G37*
G36*
X48460000Y-166003759D02*
G01*
X48460001Y-170147672D01*
X48459001Y-170149404D01*
X48457001Y-170149404D01*
X48456028Y-170148001D01*
X48456027Y-170147995D01*
X48456000Y-170147666D01*
X48456000Y-166003759D01*
X48457000Y-166002027D01*
X48459000Y-166002027D01*
X48460000Y-166003759D01*
G37*
G36*
X28837269Y-169307063D02*
G01*
X28837912Y-169308177D01*
X28839275Y-169315027D01*
X28846531Y-169325887D01*
X29270515Y-169749871D01*
X29281375Y-169757127D01*
X29288225Y-169758490D01*
X29289729Y-169759809D01*
X29289339Y-169761771D01*
X29288225Y-169762414D01*
X29285770Y-169762902D01*
X29224154Y-169795133D01*
X29188792Y-169859894D01*
X29188307Y-169862332D01*
X29186988Y-169863836D01*
X29185026Y-169863446D01*
X29184383Y-169862332D01*
X29183020Y-169855482D01*
X29175764Y-169844622D01*
X28751780Y-169420638D01*
X28740920Y-169413382D01*
X28734070Y-169412019D01*
X28732566Y-169410700D01*
X28732956Y-169408738D01*
X28734070Y-169408095D01*
X28736525Y-169407607D01*
X28798141Y-169375376D01*
X28833503Y-169310615D01*
X28833988Y-169308177D01*
X28835307Y-169306673D01*
X28837269Y-169307063D01*
G37*
G36*
X26571369Y-169307063D02*
G01*
X26572012Y-169308177D01*
X26572500Y-169310632D01*
X26604731Y-169372248D01*
X26669492Y-169407610D01*
X26671930Y-169408095D01*
X26673434Y-169409414D01*
X26673044Y-169411376D01*
X26671930Y-169412019D01*
X26665080Y-169413382D01*
X26654220Y-169420638D01*
X26230236Y-169844622D01*
X26222980Y-169855482D01*
X26221617Y-169862332D01*
X26220298Y-169863836D01*
X26218336Y-169863446D01*
X26217693Y-169862332D01*
X26217205Y-169859877D01*
X26184974Y-169798261D01*
X26120213Y-169762899D01*
X26117775Y-169762414D01*
X26116271Y-169761095D01*
X26116661Y-169759133D01*
X26117775Y-169758490D01*
X26124625Y-169757127D01*
X26135485Y-169749871D01*
X26559469Y-169325887D01*
X26566725Y-169315027D01*
X26568088Y-169308177D01*
X26569407Y-169306673D01*
X26571369Y-169307063D01*
G37*
G36*
X26217815Y-168953509D02*
G01*
X26218458Y-168954623D01*
X26218946Y-168957079D01*
X26251177Y-169018695D01*
X26315938Y-169054057D01*
X26318377Y-169054542D01*
X26319881Y-169055861D01*
X26319491Y-169057823D01*
X26318377Y-169058466D01*
X26311527Y-169059829D01*
X26300667Y-169067085D01*
X25876683Y-169491069D01*
X25869427Y-169501929D01*
X25868064Y-169508779D01*
X25866745Y-169510283D01*
X25864783Y-169509893D01*
X25864140Y-169508779D01*
X25863652Y-169506323D01*
X25831421Y-169444707D01*
X25766660Y-169409345D01*
X25764221Y-169408860D01*
X25762717Y-169407541D01*
X25763107Y-169405579D01*
X25764221Y-169404936D01*
X25771071Y-169403573D01*
X25781931Y-169396317D01*
X26205915Y-168972333D01*
X26213171Y-168961473D01*
X26214534Y-168954623D01*
X26215853Y-168953119D01*
X26217815Y-168953509D01*
G37*
G36*
X29190823Y-168953509D02*
G01*
X29191466Y-168954623D01*
X29192829Y-168961473D01*
X29200085Y-168972333D01*
X29624069Y-169396317D01*
X29634929Y-169403573D01*
X29641779Y-169404936D01*
X29643283Y-169406255D01*
X29642893Y-169408217D01*
X29641779Y-169408860D01*
X29639323Y-169409348D01*
X29577707Y-169441579D01*
X29542345Y-169506340D01*
X29541860Y-169508779D01*
X29540541Y-169510283D01*
X29538579Y-169509893D01*
X29537936Y-169508779D01*
X29536573Y-169501929D01*
X29529317Y-169491069D01*
X29105333Y-169067085D01*
X29094473Y-169059829D01*
X29087623Y-169058466D01*
X29086119Y-169057147D01*
X29086509Y-169055185D01*
X29087623Y-169054542D01*
X29090079Y-169054054D01*
X29151695Y-169021823D01*
X29187057Y-168957062D01*
X29187542Y-168954623D01*
X29188861Y-168953119D01*
X29190823Y-168953509D01*
G37*
G36*
X29544376Y-168599956D02*
G01*
X29545019Y-168601070D01*
X29546382Y-168607920D01*
X29553638Y-168618780D01*
X29977622Y-169042764D01*
X29988482Y-169050020D01*
X29995332Y-169051383D01*
X29996836Y-169052702D01*
X29996446Y-169054664D01*
X29995332Y-169055307D01*
X29992877Y-169055795D01*
X29931261Y-169088026D01*
X29895899Y-169152787D01*
X29895414Y-169155225D01*
X29894095Y-169156729D01*
X29892133Y-169156339D01*
X29891490Y-169155225D01*
X29890127Y-169148375D01*
X29882871Y-169137515D01*
X29458887Y-168713531D01*
X29448027Y-168706275D01*
X29441177Y-168704912D01*
X29439673Y-168703593D01*
X29440063Y-168701631D01*
X29441177Y-168700988D01*
X29443632Y-168700500D01*
X29505248Y-168668269D01*
X29540610Y-168603508D01*
X29541095Y-168601070D01*
X29542414Y-168599566D01*
X29544376Y-168599956D01*
G37*
G36*
X25864262Y-168599956D02*
G01*
X25864905Y-168601070D01*
X25865393Y-168603525D01*
X25897624Y-168665141D01*
X25962385Y-168700503D01*
X25964823Y-168700988D01*
X25966327Y-168702307D01*
X25965937Y-168704269D01*
X25964823Y-168704912D01*
X25957973Y-168706275D01*
X25947113Y-168713531D01*
X25523129Y-169137515D01*
X25515873Y-169148375D01*
X25514510Y-169155225D01*
X25513191Y-169156729D01*
X25511229Y-169156339D01*
X25510586Y-169155225D01*
X25510098Y-169152770D01*
X25477867Y-169091154D01*
X25413106Y-169055792D01*
X25410668Y-169055307D01*
X25409164Y-169053988D01*
X25409554Y-169052026D01*
X25410668Y-169051383D01*
X25417518Y-169050020D01*
X25428378Y-169042764D01*
X25852362Y-168618780D01*
X25859618Y-168607920D01*
X25860981Y-168601070D01*
X25862300Y-168599566D01*
X25864262Y-168599956D01*
G37*
G36*
X29897929Y-168246402D02*
G01*
X29898572Y-168247516D01*
X29899935Y-168254366D01*
X29907191Y-168265226D01*
X30331175Y-168689210D01*
X30342035Y-168696466D01*
X30348885Y-168697829D01*
X30350389Y-168699148D01*
X30349999Y-168701110D01*
X30348885Y-168701753D01*
X30346430Y-168702241D01*
X30284814Y-168734472D01*
X30249452Y-168799233D01*
X30248967Y-168801672D01*
X30247648Y-168803176D01*
X30245686Y-168802786D01*
X30245043Y-168801672D01*
X30243680Y-168794822D01*
X30236424Y-168783962D01*
X29812440Y-168359978D01*
X29801580Y-168352722D01*
X29794730Y-168351359D01*
X29793226Y-168350040D01*
X29793616Y-168348078D01*
X29794730Y-168347435D01*
X29797185Y-168346947D01*
X29858801Y-168314716D01*
X29894163Y-168249955D01*
X29894648Y-168247516D01*
X29895967Y-168246012D01*
X29897929Y-168246402D01*
G37*
G36*
X25510709Y-168246402D02*
G01*
X25511352Y-168247516D01*
X25511840Y-168249972D01*
X25544071Y-168311588D01*
X25608832Y-168346950D01*
X25611270Y-168347435D01*
X25612774Y-168348754D01*
X25612384Y-168350716D01*
X25611270Y-168351359D01*
X25604420Y-168352722D01*
X25593560Y-168359978D01*
X25169576Y-168783962D01*
X25162320Y-168794822D01*
X25160957Y-168801672D01*
X25159638Y-168803176D01*
X25157676Y-168802786D01*
X25157033Y-168801672D01*
X25156545Y-168799216D01*
X25124314Y-168737600D01*
X25059553Y-168702238D01*
X25057115Y-168701753D01*
X25055611Y-168700434D01*
X25056001Y-168698472D01*
X25057115Y-168697829D01*
X25063965Y-168696466D01*
X25074825Y-168689210D01*
X25498809Y-168265226D01*
X25506065Y-168254366D01*
X25507428Y-168247516D01*
X25508747Y-168246012D01*
X25510709Y-168246402D01*
G37*
G36*
X25157155Y-167892849D02*
G01*
X25157798Y-167893963D01*
X25158286Y-167896418D01*
X25190517Y-167958034D01*
X25255278Y-167993396D01*
X25257717Y-167993881D01*
X25259221Y-167995200D01*
X25258831Y-167997162D01*
X25257717Y-167997805D01*
X25250867Y-167999168D01*
X25240007Y-168006424D01*
X24816023Y-168430408D01*
X24808767Y-168441268D01*
X24807404Y-168448118D01*
X24806085Y-168449622D01*
X24804123Y-168449232D01*
X24803480Y-168448118D01*
X24802992Y-168445663D01*
X24770761Y-168384047D01*
X24706000Y-168348685D01*
X24703561Y-168348200D01*
X24702057Y-168346881D01*
X24702447Y-168344919D01*
X24703561Y-168344276D01*
X24710411Y-168342913D01*
X24721271Y-168335657D01*
X25145255Y-167911673D01*
X25152511Y-167900813D01*
X25153874Y-167893963D01*
X25155193Y-167892459D01*
X25157155Y-167892849D01*
G37*
G36*
X30251483Y-167892849D02*
G01*
X30252126Y-167893963D01*
X30253489Y-167900813D01*
X30260745Y-167911673D01*
X30684729Y-168335657D01*
X30695589Y-168342913D01*
X30702439Y-168344276D01*
X30703943Y-168345595D01*
X30703553Y-168347557D01*
X30702439Y-168348200D01*
X30699983Y-168348688D01*
X30638367Y-168380919D01*
X30603005Y-168445680D01*
X30602520Y-168448118D01*
X30601201Y-168449622D01*
X30599239Y-168449232D01*
X30598596Y-168448118D01*
X30597233Y-168441268D01*
X30589977Y-168430408D01*
X30165993Y-168006424D01*
X30155133Y-167999168D01*
X30148283Y-167997805D01*
X30146779Y-167996486D01*
X30147169Y-167994524D01*
X30148283Y-167993881D01*
X30150739Y-167993393D01*
X30212355Y-167961162D01*
X30247717Y-167896401D01*
X30248202Y-167893963D01*
X30249521Y-167892459D01*
X30251483Y-167892849D01*
G37*
G36*
X24806761Y-166690768D02*
G01*
X24807404Y-166691882D01*
X24808767Y-166698732D01*
X24816023Y-166709592D01*
X25240007Y-167133576D01*
X25250867Y-167140832D01*
X25257717Y-167142195D01*
X25259221Y-167143514D01*
X25258831Y-167145476D01*
X25257717Y-167146119D01*
X25255261Y-167146607D01*
X25193645Y-167178838D01*
X25158283Y-167243599D01*
X25157798Y-167246037D01*
X25156479Y-167247541D01*
X25154517Y-167247151D01*
X25153874Y-167246037D01*
X25152511Y-167239187D01*
X25145255Y-167228327D01*
X24721271Y-166804343D01*
X24710411Y-166797087D01*
X24703561Y-166795724D01*
X24702057Y-166794405D01*
X24702447Y-166792443D01*
X24703561Y-166791800D01*
X24706017Y-166791312D01*
X24767633Y-166759081D01*
X24802995Y-166694320D01*
X24803480Y-166691882D01*
X24804799Y-166690378D01*
X24806761Y-166690768D01*
G37*
G36*
X30601877Y-166690768D02*
G01*
X30602520Y-166691882D01*
X30603008Y-166694337D01*
X30635239Y-166755953D01*
X30700000Y-166791315D01*
X30702439Y-166791800D01*
X30703943Y-166793119D01*
X30703553Y-166795081D01*
X30702439Y-166795724D01*
X30695589Y-166797087D01*
X30684729Y-166804343D01*
X30260745Y-167228327D01*
X30253489Y-167239187D01*
X30252126Y-167246037D01*
X30250807Y-167247541D01*
X30248845Y-167247151D01*
X30248202Y-167246037D01*
X30247714Y-167243582D01*
X30215483Y-167181966D01*
X30150722Y-167146604D01*
X30148283Y-167146119D01*
X30146779Y-167144800D01*
X30147169Y-167142838D01*
X30148283Y-167142195D01*
X30155133Y-167140832D01*
X30165993Y-167133576D01*
X30589977Y-166709592D01*
X30597233Y-166698732D01*
X30598596Y-166691882D01*
X30599915Y-166690378D01*
X30601877Y-166690768D01*
G37*
G36*
X30248324Y-166337214D02*
G01*
X30248967Y-166338328D01*
X30249455Y-166340784D01*
X30281686Y-166402400D01*
X30346447Y-166437762D01*
X30348885Y-166438247D01*
X30350389Y-166439566D01*
X30349999Y-166441528D01*
X30348885Y-166442171D01*
X30342035Y-166443534D01*
X30331175Y-166450790D01*
X29907191Y-166874774D01*
X29899935Y-166885634D01*
X29898572Y-166892484D01*
X29897253Y-166893988D01*
X29895291Y-166893598D01*
X29894648Y-166892484D01*
X29894160Y-166890028D01*
X29861929Y-166828412D01*
X29797168Y-166793050D01*
X29794730Y-166792565D01*
X29793226Y-166791246D01*
X29793616Y-166789284D01*
X29794730Y-166788641D01*
X29801580Y-166787278D01*
X29812440Y-166780022D01*
X30236424Y-166356038D01*
X30243680Y-166345178D01*
X30245043Y-166338328D01*
X30246362Y-166336824D01*
X30248324Y-166337214D01*
G37*
G36*
X25160314Y-166337214D02*
G01*
X25160957Y-166338328D01*
X25162320Y-166345178D01*
X25169576Y-166356038D01*
X25593560Y-166780022D01*
X25604420Y-166787278D01*
X25611270Y-166788641D01*
X25612774Y-166789960D01*
X25612384Y-166791922D01*
X25611270Y-166792565D01*
X25608815Y-166793053D01*
X25547199Y-166825284D01*
X25511837Y-166890045D01*
X25511352Y-166892484D01*
X25510033Y-166893988D01*
X25508071Y-166893598D01*
X25507428Y-166892484D01*
X25506065Y-166885634D01*
X25498809Y-166874774D01*
X25074825Y-166450790D01*
X25063965Y-166443534D01*
X25057115Y-166442171D01*
X25055611Y-166440852D01*
X25056001Y-166438890D01*
X25057115Y-166438247D01*
X25059570Y-166437759D01*
X25121186Y-166405528D01*
X25156548Y-166340767D01*
X25157033Y-166338328D01*
X25158352Y-166336824D01*
X25160314Y-166337214D01*
G37*
G36*
X25513867Y-165983661D02*
G01*
X25514510Y-165984775D01*
X25515873Y-165991625D01*
X25523129Y-166002485D01*
X25947113Y-166426469D01*
X25957973Y-166433725D01*
X25964823Y-166435088D01*
X25966327Y-166436407D01*
X25965937Y-166438369D01*
X25964823Y-166439012D01*
X25962368Y-166439500D01*
X25900752Y-166471731D01*
X25865390Y-166536492D01*
X25864905Y-166538930D01*
X25863586Y-166540434D01*
X25861624Y-166540044D01*
X25860981Y-166538930D01*
X25859618Y-166532080D01*
X25852362Y-166521220D01*
X25428378Y-166097236D01*
X25417518Y-166089980D01*
X25410668Y-166088617D01*
X25409164Y-166087298D01*
X25409554Y-166085336D01*
X25410668Y-166084693D01*
X25413123Y-166084205D01*
X25474739Y-166051974D01*
X25510101Y-165987213D01*
X25510586Y-165984775D01*
X25511905Y-165983271D01*
X25513867Y-165983661D01*
G37*
G36*
X29894771Y-165983661D02*
G01*
X29895414Y-165984775D01*
X29895902Y-165987230D01*
X29928133Y-166048846D01*
X29992894Y-166084208D01*
X29995332Y-166084693D01*
X29996836Y-166086012D01*
X29996446Y-166087974D01*
X29995332Y-166088617D01*
X29988482Y-166089980D01*
X29977622Y-166097236D01*
X29553638Y-166521220D01*
X29546382Y-166532080D01*
X29545019Y-166538930D01*
X29543700Y-166540434D01*
X29541738Y-166540044D01*
X29541095Y-166538930D01*
X29540607Y-166536475D01*
X29508376Y-166474859D01*
X29443615Y-166439497D01*
X29441177Y-166439012D01*
X29439673Y-166437693D01*
X29440063Y-166435731D01*
X29441177Y-166435088D01*
X29448027Y-166433725D01*
X29458887Y-166426469D01*
X29882871Y-166002485D01*
X29890127Y-165991625D01*
X29891490Y-165984775D01*
X29892809Y-165983271D01*
X29894771Y-165983661D01*
G37*
G36*
X25867421Y-165630107D02*
G01*
X25868064Y-165631221D01*
X25869427Y-165638071D01*
X25876683Y-165648931D01*
X26300667Y-166072915D01*
X26311527Y-166080171D01*
X26318377Y-166081534D01*
X26319881Y-166082853D01*
X26319491Y-166084815D01*
X26318377Y-166085458D01*
X26315921Y-166085946D01*
X26254305Y-166118177D01*
X26218943Y-166182938D01*
X26218458Y-166185377D01*
X26217139Y-166186881D01*
X26215177Y-166186491D01*
X26214534Y-166185377D01*
X26213171Y-166178527D01*
X26205915Y-166167667D01*
X25781931Y-165743683D01*
X25771071Y-165736427D01*
X25764221Y-165735064D01*
X25762717Y-165733745D01*
X25763107Y-165731783D01*
X25764221Y-165731140D01*
X25766677Y-165730652D01*
X25828293Y-165698421D01*
X25863655Y-165633660D01*
X25864140Y-165631221D01*
X25865459Y-165629717D01*
X25867421Y-165630107D01*
G37*
G36*
X29541217Y-165630107D02*
G01*
X29541860Y-165631221D01*
X29542348Y-165633677D01*
X29574579Y-165695293D01*
X29639340Y-165730655D01*
X29641779Y-165731140D01*
X29643283Y-165732459D01*
X29642893Y-165734421D01*
X29641779Y-165735064D01*
X29634929Y-165736427D01*
X29624069Y-165743683D01*
X29200085Y-166167667D01*
X29192829Y-166178527D01*
X29191466Y-166185377D01*
X29190147Y-166186881D01*
X29188185Y-166186491D01*
X29187542Y-166185377D01*
X29187054Y-166182921D01*
X29154823Y-166121305D01*
X29090062Y-166085943D01*
X29087623Y-166085458D01*
X29086119Y-166084139D01*
X29086509Y-166082177D01*
X29087623Y-166081534D01*
X29094473Y-166080171D01*
X29105333Y-166072915D01*
X29529317Y-165648931D01*
X29536573Y-165638071D01*
X29537936Y-165631221D01*
X29539255Y-165629717D01*
X29541217Y-165630107D01*
G37*
G36*
X58159972Y-161866999D02*
G01*
X58159973Y-161867005D01*
X58160000Y-161867334D01*
X58160000Y-166009389D01*
X58159000Y-166011121D01*
X58157000Y-166011121D01*
X58156000Y-166009389D01*
X58155999Y-161867328D01*
X58156999Y-161865596D01*
X58158999Y-161865596D01*
X58159972Y-161866999D01*
G37*
G36*
X29187664Y-165276554D02*
G01*
X29188307Y-165277668D01*
X29188795Y-165280123D01*
X29221026Y-165341739D01*
X29285787Y-165377101D01*
X29288225Y-165377586D01*
X29289729Y-165378905D01*
X29289339Y-165380867D01*
X29288225Y-165381510D01*
X29281375Y-165382873D01*
X29270515Y-165390129D01*
X28846531Y-165814113D01*
X28839275Y-165824973D01*
X28837912Y-165831823D01*
X28836593Y-165833327D01*
X28834631Y-165832937D01*
X28833988Y-165831823D01*
X28833500Y-165829368D01*
X28801269Y-165767752D01*
X28736508Y-165732390D01*
X28734070Y-165731905D01*
X28732566Y-165730586D01*
X28732956Y-165728624D01*
X28734070Y-165727981D01*
X28740920Y-165726618D01*
X28751780Y-165719362D01*
X29175764Y-165295378D01*
X29183020Y-165284518D01*
X29184383Y-165277668D01*
X29185702Y-165276164D01*
X29187664Y-165276554D01*
G37*
G36*
X26220974Y-165276554D02*
G01*
X26221617Y-165277668D01*
X26222980Y-165284518D01*
X26230236Y-165295378D01*
X26654220Y-165719362D01*
X26665080Y-165726618D01*
X26671930Y-165727981D01*
X26673434Y-165729300D01*
X26673044Y-165731262D01*
X26671930Y-165731905D01*
X26669475Y-165732393D01*
X26607859Y-165764624D01*
X26572497Y-165829385D01*
X26572012Y-165831823D01*
X26570693Y-165833327D01*
X26568731Y-165832937D01*
X26568088Y-165831823D01*
X26566725Y-165824973D01*
X26559469Y-165814113D01*
X26135485Y-165390129D01*
X26124625Y-165382873D01*
X26117775Y-165381510D01*
X26116271Y-165380191D01*
X26116661Y-165378229D01*
X26117775Y-165377586D01*
X26120230Y-165377098D01*
X26181846Y-165344867D01*
X26217208Y-165280106D01*
X26217693Y-165277668D01*
X26219012Y-165276164D01*
X26220974Y-165276554D01*
G37*
G36*
X28834110Y-164923001D02*
G01*
X28834753Y-164924115D01*
X28835241Y-164926570D01*
X28867472Y-164988186D01*
X28932233Y-165023548D01*
X28934672Y-165024033D01*
X28936176Y-165025352D01*
X28935786Y-165027314D01*
X28934672Y-165027957D01*
X28927822Y-165029320D01*
X28916962Y-165036576D01*
X28492978Y-165460560D01*
X28485722Y-165471420D01*
X28484359Y-165478270D01*
X28483040Y-165479774D01*
X28481078Y-165479384D01*
X28480435Y-165478270D01*
X28479947Y-165475815D01*
X28447716Y-165414199D01*
X28382955Y-165378837D01*
X28380516Y-165378352D01*
X28379012Y-165377033D01*
X28379402Y-165375071D01*
X28380516Y-165374428D01*
X28387366Y-165373065D01*
X28398226Y-165365809D01*
X28822210Y-164941825D01*
X28829466Y-164930965D01*
X28830829Y-164924115D01*
X28832148Y-164922611D01*
X28834110Y-164923001D01*
G37*
G36*
X26574528Y-164923001D02*
G01*
X26575171Y-164924115D01*
X26576534Y-164930965D01*
X26583790Y-164941825D01*
X27007774Y-165365809D01*
X27018634Y-165373065D01*
X27025484Y-165374428D01*
X27026988Y-165375747D01*
X27026598Y-165377709D01*
X27025484Y-165378352D01*
X27023028Y-165378840D01*
X26961412Y-165411071D01*
X26926050Y-165475832D01*
X26925565Y-165478270D01*
X26924246Y-165479774D01*
X26922284Y-165479384D01*
X26921641Y-165478270D01*
X26920278Y-165471420D01*
X26913022Y-165460560D01*
X26489038Y-165036576D01*
X26478178Y-165029320D01*
X26471328Y-165027957D01*
X26469824Y-165026638D01*
X26470214Y-165024676D01*
X26471328Y-165024033D01*
X26473784Y-165023545D01*
X26535400Y-164991314D01*
X26570762Y-164926553D01*
X26571247Y-164924115D01*
X26572566Y-164922611D01*
X26574528Y-164923001D01*
G37*
G36*
X38712186Y-165069197D02*
G01*
X38712576Y-165071159D01*
X38711494Y-165072344D01*
X38707318Y-165074199D01*
X38654281Y-165119200D01*
X38634079Y-165185446D01*
X38652900Y-165252097D01*
X38705266Y-165298320D01*
X38707484Y-165299354D01*
X38708631Y-165300993D01*
X38707786Y-165302805D01*
X38706249Y-165303129D01*
X38650301Y-165292000D01*
X38305699Y-165292000D01*
X38249752Y-165303129D01*
X38247858Y-165302486D01*
X38247468Y-165300524D01*
X38248517Y-165299354D01*
X38250803Y-165298288D01*
X38303009Y-165252320D01*
X38321993Y-165185717D01*
X38301956Y-165119422D01*
X38248550Y-165074078D01*
X38244728Y-165072388D01*
X38243549Y-165070773D01*
X38244357Y-165068944D01*
X38245927Y-165068597D01*
X38293199Y-165078000D01*
X38662801Y-165078000D01*
X38710292Y-165068554D01*
X38712186Y-165069197D01*
G37*
G36*
X37562186Y-165069197D02*
G01*
X37562576Y-165071159D01*
X37561494Y-165072344D01*
X37557318Y-165074199D01*
X37504281Y-165119200D01*
X37484079Y-165185446D01*
X37502900Y-165252097D01*
X37555266Y-165298320D01*
X37557484Y-165299354D01*
X37558631Y-165300993D01*
X37557786Y-165302805D01*
X37556249Y-165303129D01*
X37500301Y-165292000D01*
X37155699Y-165292000D01*
X37099752Y-165303129D01*
X37097858Y-165302486D01*
X37097468Y-165300524D01*
X37098517Y-165299354D01*
X37100803Y-165298288D01*
X37153009Y-165252320D01*
X37171993Y-165185717D01*
X37151956Y-165119422D01*
X37098550Y-165074078D01*
X37094728Y-165072388D01*
X37093549Y-165070773D01*
X37094357Y-165068944D01*
X37095927Y-165068597D01*
X37143199Y-165078000D01*
X37512801Y-165078000D01*
X37560292Y-165068554D01*
X37562186Y-165069197D01*
G37*
G36*
X28480557Y-164569447D02*
G01*
X28481200Y-164570561D01*
X28481688Y-164573017D01*
X28513919Y-164634633D01*
X28578680Y-164669995D01*
X28581118Y-164670480D01*
X28582622Y-164671799D01*
X28582232Y-164673761D01*
X28581118Y-164674404D01*
X28574268Y-164675767D01*
X28563408Y-164683023D01*
X28139424Y-165107007D01*
X28132168Y-165117867D01*
X28130805Y-165124717D01*
X28129486Y-165126221D01*
X28127524Y-165125831D01*
X28126881Y-165124717D01*
X28126393Y-165122261D01*
X28094162Y-165060645D01*
X28029401Y-165025283D01*
X28026963Y-165024798D01*
X28025459Y-165023479D01*
X28025849Y-165021517D01*
X28026963Y-165020874D01*
X28033813Y-165019511D01*
X28044673Y-165012255D01*
X28468657Y-164588271D01*
X28475913Y-164577411D01*
X28477276Y-164570561D01*
X28478595Y-164569057D01*
X28480557Y-164569447D01*
G37*
G36*
X26928081Y-164569447D02*
G01*
X26928724Y-164570561D01*
X26930087Y-164577411D01*
X26937343Y-164588271D01*
X27361327Y-165012255D01*
X27372187Y-165019511D01*
X27379037Y-165020874D01*
X27380541Y-165022193D01*
X27380151Y-165024155D01*
X27379037Y-165024798D01*
X27376582Y-165025286D01*
X27314966Y-165057517D01*
X27279604Y-165122278D01*
X27279119Y-165124717D01*
X27277800Y-165126221D01*
X27275838Y-165125831D01*
X27275195Y-165124717D01*
X27273832Y-165117867D01*
X27266576Y-165107007D01*
X26842592Y-164683023D01*
X26831732Y-164675767D01*
X26824882Y-164674404D01*
X26823378Y-164673085D01*
X26823768Y-164671123D01*
X26824882Y-164670480D01*
X26827337Y-164669992D01*
X26888953Y-164637761D01*
X26924315Y-164573000D01*
X26924800Y-164570561D01*
X26926119Y-164569057D01*
X26928081Y-164569447D01*
G37*
G36*
X66501462Y-162422759D02*
G01*
X66501462Y-162424759D01*
X66500059Y-162425732D01*
X66500053Y-162425733D01*
X66499724Y-162425760D01*
X63619396Y-162425760D01*
X63617664Y-162424760D01*
X63617664Y-162422760D01*
X63619396Y-162421760D01*
X66499730Y-162421759D01*
X66501462Y-162422759D01*
G37*
G36*
X70338772Y-161379000D02*
G01*
X70339040Y-161380000D01*
X70339040Y-161864801D01*
X70342767Y-161883545D01*
X70344080Y-161886716D01*
X70351331Y-161897569D01*
X70351462Y-161899565D01*
X70349799Y-161900676D01*
X70348557Y-161900343D01*
X70345590Y-161898361D01*
X70279225Y-161877593D01*
X70208442Y-161898383D01*
X70205538Y-161900324D01*
X70203543Y-161900455D01*
X70202431Y-161898792D01*
X70202764Y-161897550D01*
X70210000Y-161886716D01*
X70211313Y-161883545D01*
X70215040Y-161864801D01*
X70215040Y-161380000D01*
X70216040Y-161378268D01*
X70217040Y-161378000D01*
X70337040Y-161378000D01*
X70338772Y-161379000D01*
G37*
G36*
X70988772Y-161379000D02*
G01*
X70989040Y-161380000D01*
X70989040Y-161864801D01*
X70992767Y-161883545D01*
X70994080Y-161886716D01*
X71001331Y-161897569D01*
X71001462Y-161899565D01*
X70999799Y-161900676D01*
X70998557Y-161900343D01*
X70995590Y-161898361D01*
X70929225Y-161877593D01*
X70858442Y-161898383D01*
X70855538Y-161900324D01*
X70853543Y-161900455D01*
X70852431Y-161898792D01*
X70852764Y-161897550D01*
X70860000Y-161886716D01*
X70861313Y-161883545D01*
X70865040Y-161864801D01*
X70865040Y-161380000D01*
X70866040Y-161378268D01*
X70867040Y-161378000D01*
X70987040Y-161378000D01*
X70988772Y-161379000D01*
G37*
G36*
X71638772Y-161379000D02*
G01*
X71639040Y-161380000D01*
X71639040Y-161864801D01*
X71642767Y-161883545D01*
X71644080Y-161886716D01*
X71651331Y-161897569D01*
X71651462Y-161899565D01*
X71649799Y-161900676D01*
X71648557Y-161900343D01*
X71645590Y-161898361D01*
X71579225Y-161877593D01*
X71508442Y-161898383D01*
X71505538Y-161900324D01*
X71503543Y-161900455D01*
X71502431Y-161898792D01*
X71502764Y-161897550D01*
X71510000Y-161886716D01*
X71511313Y-161883545D01*
X71515040Y-161864801D01*
X71515040Y-161380000D01*
X71516040Y-161378268D01*
X71517040Y-161378000D01*
X71637040Y-161378000D01*
X71638772Y-161379000D01*
G37*
G36*
X57849898Y-161556500D02*
G01*
X57849898Y-161558500D01*
X57848166Y-161559500D01*
X48767828Y-161559501D01*
X48766096Y-161558501D01*
X48766096Y-161556501D01*
X48767499Y-161555528D01*
X48767505Y-161555527D01*
X48767834Y-161555500D01*
X57848166Y-161555500D01*
X57849898Y-161556500D01*
G37*
G36*
X66501456Y-160922760D02*
G01*
X66501456Y-160924760D01*
X66499724Y-160925760D01*
X63619390Y-160925761D01*
X63617658Y-160924761D01*
X63617658Y-160922761D01*
X63619061Y-160921788D01*
X63619067Y-160921787D01*
X63619396Y-160921760D01*
X66499724Y-160921760D01*
X66501456Y-160922760D01*
G37*
G36*
X33575375Y-158591137D02*
G01*
X33575543Y-158592412D01*
X33573000Y-158605199D01*
X33573000Y-158904801D01*
X33576691Y-158923355D01*
X33587087Y-158938913D01*
X33602645Y-158949309D01*
X33621199Y-158953000D01*
X34470801Y-158953000D01*
X34489355Y-158949309D01*
X34503747Y-158939692D01*
X34505743Y-158939561D01*
X34506854Y-158941224D01*
X34506767Y-158941953D01*
X34487718Y-159002788D01*
X34506918Y-159068176D01*
X34506446Y-159070119D01*
X34504527Y-159070683D01*
X34503888Y-159070402D01*
X34489355Y-159060691D01*
X34470801Y-159057000D01*
X33621199Y-159057000D01*
X33602645Y-159060691D01*
X33587087Y-159071087D01*
X33576691Y-159086645D01*
X33573000Y-159105199D01*
X33573000Y-159404801D01*
X33576691Y-159423355D01*
X33578576Y-159426177D01*
X33578707Y-159428173D01*
X33577044Y-159429284D01*
X33575630Y-159428823D01*
X33528576Y-159389498D01*
X33459889Y-159380870D01*
X33392325Y-159415447D01*
X33387892Y-159419880D01*
X33385960Y-159420398D01*
X33384546Y-159418984D01*
X33384815Y-159417355D01*
X33430182Y-159349459D01*
X33451000Y-159244801D01*
X33451000Y-158795199D01*
X33430182Y-158690541D01*
X33381299Y-158617384D01*
X33381168Y-158615388D01*
X33382831Y-158614277D01*
X33383920Y-158614518D01*
X33441377Y-158645890D01*
X33510431Y-158640952D01*
X33569949Y-158593858D01*
X33571918Y-158590911D01*
X33573712Y-158590026D01*
X33575375Y-158591137D01*
G37*
G36*
X35488112Y-158939598D02*
G01*
X35502645Y-158949309D01*
X35521199Y-158953000D01*
X36370801Y-158953000D01*
X36389355Y-158949309D01*
X36403747Y-158939692D01*
X36405743Y-158939561D01*
X36406854Y-158941224D01*
X36406767Y-158941953D01*
X36387718Y-159002788D01*
X36406918Y-159068176D01*
X36406446Y-159070119D01*
X36404527Y-159070683D01*
X36403888Y-159070402D01*
X36389355Y-159060691D01*
X36370801Y-159057000D01*
X35521199Y-159057000D01*
X35502645Y-159060691D01*
X35488253Y-159070308D01*
X35486257Y-159070439D01*
X35485146Y-159068776D01*
X35485233Y-159068047D01*
X35504282Y-159007212D01*
X35485082Y-158941824D01*
X35485554Y-158939881D01*
X35487473Y-158939317D01*
X35488112Y-158939598D01*
G37*
G36*
X70338772Y-157529960D02*
G01*
X70339040Y-157530960D01*
X70339040Y-158015761D01*
X70342767Y-158034505D01*
X70344080Y-158037676D01*
X70354596Y-158053415D01*
X70370324Y-158063920D01*
X70373495Y-158065233D01*
X70392239Y-158068960D01*
X70811841Y-158068960D01*
X70830585Y-158065233D01*
X70833756Y-158063920D01*
X70849495Y-158053404D01*
X70860000Y-158037676D01*
X70861313Y-158034505D01*
X70865040Y-158015761D01*
X70865040Y-157530960D01*
X70866040Y-157529228D01*
X70867040Y-157528960D01*
X70987040Y-157528960D01*
X70988772Y-157529960D01*
X70989040Y-157530960D01*
X70989040Y-158015761D01*
X70992767Y-158034505D01*
X70994080Y-158037676D01*
X71004596Y-158053415D01*
X71020324Y-158063920D01*
X71023495Y-158065233D01*
X71042239Y-158068960D01*
X71461841Y-158068960D01*
X71480585Y-158065233D01*
X71483756Y-158063920D01*
X71499495Y-158053404D01*
X71510000Y-158037676D01*
X71511313Y-158034505D01*
X71515040Y-158015761D01*
X71515040Y-157530960D01*
X71516040Y-157529228D01*
X71517040Y-157528960D01*
X71637040Y-157528960D01*
X71638772Y-157529960D01*
X71639040Y-157530960D01*
X71639040Y-158015761D01*
X71642767Y-158034505D01*
X71644080Y-158037676D01*
X71654596Y-158053415D01*
X71670324Y-158063920D01*
X71673495Y-158065233D01*
X71692239Y-158068960D01*
X72111841Y-158068960D01*
X72130585Y-158065233D01*
X72133756Y-158063920D01*
X72149495Y-158053404D01*
X72157710Y-158041105D01*
X72159503Y-158040220D01*
X72161167Y-158041331D01*
X72161335Y-158042606D01*
X72158338Y-158057681D01*
X72158731Y-158058026D01*
X72158746Y-158059265D01*
X72147890Y-158093954D01*
X72158966Y-158131667D01*
X72158495Y-158133611D01*
X72158407Y-158133659D01*
X72161708Y-158150256D01*
X72161065Y-158152150D01*
X72159103Y-158152540D01*
X72158083Y-158151757D01*
X72150953Y-158141087D01*
X72135395Y-158130691D01*
X72116841Y-158127000D01*
X71697239Y-158127000D01*
X71678685Y-158130691D01*
X71663127Y-158141087D01*
X71652731Y-158156645D01*
X71649040Y-158175199D01*
X71649040Y-158874801D01*
X71652731Y-158893355D01*
X71659862Y-158904027D01*
X71659993Y-158906023D01*
X71658330Y-158907134D01*
X71657088Y-158906801D01*
X71650614Y-158902476D01*
X71584251Y-158881696D01*
X71513452Y-158902485D01*
X71506992Y-158906801D01*
X71504996Y-158906932D01*
X71503885Y-158905269D01*
X71504218Y-158904027D01*
X71511349Y-158893355D01*
X71515040Y-158874801D01*
X71515040Y-158175199D01*
X71511349Y-158156645D01*
X71500953Y-158141087D01*
X71485395Y-158130691D01*
X71466841Y-158127000D01*
X71047239Y-158127000D01*
X71028685Y-158130691D01*
X71013127Y-158141087D01*
X71002731Y-158156645D01*
X70999040Y-158175199D01*
X70999040Y-158874801D01*
X71002731Y-158893355D01*
X71009862Y-158904027D01*
X71009993Y-158906023D01*
X71008330Y-158907134D01*
X71007088Y-158906801D01*
X71000614Y-158902476D01*
X70934251Y-158881696D01*
X70863452Y-158902485D01*
X70856992Y-158906801D01*
X70854996Y-158906932D01*
X70853885Y-158905269D01*
X70854218Y-158904027D01*
X70861349Y-158893355D01*
X70865040Y-158874801D01*
X70865040Y-158175199D01*
X70861349Y-158156645D01*
X70850953Y-158141087D01*
X70835395Y-158130691D01*
X70816841Y-158127000D01*
X70397239Y-158127000D01*
X70378685Y-158130691D01*
X70363127Y-158141087D01*
X70352731Y-158156645D01*
X70349040Y-158175199D01*
X70349040Y-158874801D01*
X70352731Y-158893355D01*
X70359862Y-158904027D01*
X70359993Y-158906023D01*
X70358330Y-158907134D01*
X70357088Y-158906801D01*
X70350614Y-158902476D01*
X70284251Y-158881696D01*
X70213452Y-158902485D01*
X70206992Y-158906801D01*
X70204996Y-158906932D01*
X70203885Y-158905269D01*
X70204218Y-158904027D01*
X70211349Y-158893355D01*
X70215040Y-158874801D01*
X70215040Y-158175199D01*
X70211349Y-158156645D01*
X70200953Y-158141087D01*
X70185395Y-158130691D01*
X70166841Y-158127000D01*
X69747239Y-158127000D01*
X69728685Y-158130691D01*
X69713127Y-158141087D01*
X69705996Y-158151759D01*
X69704202Y-158152644D01*
X69702539Y-158151533D01*
X69702371Y-158150258D01*
X69705607Y-158133989D01*
X69704752Y-158133819D01*
X69703248Y-158132500D01*
X69703233Y-158131259D01*
X69711191Y-158105842D01*
X69693026Y-158043976D01*
X69692983Y-158043802D01*
X69692745Y-158042603D01*
X69693389Y-158040710D01*
X69695351Y-158040320D01*
X69696370Y-158041103D01*
X69704596Y-158053415D01*
X69720324Y-158063920D01*
X69723495Y-158065233D01*
X69742239Y-158068960D01*
X70161841Y-158068960D01*
X70180585Y-158065233D01*
X70183756Y-158063920D01*
X70199495Y-158053404D01*
X70210000Y-158037676D01*
X70211313Y-158034505D01*
X70215040Y-158015761D01*
X70215040Y-157530960D01*
X70216040Y-157529228D01*
X70217040Y-157528960D01*
X70337040Y-157528960D01*
X70338772Y-157529960D01*
G37*
G36*
X33588112Y-158439598D02*
G01*
X33602645Y-158449309D01*
X33621199Y-158453000D01*
X34470801Y-158453000D01*
X34489355Y-158449309D01*
X34503747Y-158439692D01*
X34505743Y-158439561D01*
X34506854Y-158441224D01*
X34506767Y-158441953D01*
X34487718Y-158502788D01*
X34506918Y-158568176D01*
X34506446Y-158570119D01*
X34504527Y-158570683D01*
X34503888Y-158570402D01*
X34489355Y-158560691D01*
X34470801Y-158557000D01*
X33621199Y-158557000D01*
X33602645Y-158560691D01*
X33588253Y-158570308D01*
X33586257Y-158570439D01*
X33585146Y-158568776D01*
X33585233Y-158568047D01*
X33604282Y-158507211D01*
X33585082Y-158441824D01*
X33585554Y-158439881D01*
X33587473Y-158439317D01*
X33588112Y-158439598D01*
G37*
G36*
X35488112Y-158439598D02*
G01*
X35502645Y-158449309D01*
X35521199Y-158453000D01*
X36370801Y-158453000D01*
X36389355Y-158449309D01*
X36403747Y-158439692D01*
X36405743Y-158439561D01*
X36406854Y-158441224D01*
X36406767Y-158441953D01*
X36387718Y-158502788D01*
X36406918Y-158568176D01*
X36406446Y-158570119D01*
X36404527Y-158570683D01*
X36403888Y-158570402D01*
X36389355Y-158560691D01*
X36370801Y-158557000D01*
X35521199Y-158557000D01*
X35502645Y-158560691D01*
X35488253Y-158570308D01*
X35486257Y-158570439D01*
X35485146Y-158568776D01*
X35485233Y-158568047D01*
X35504282Y-158507212D01*
X35485082Y-158441824D01*
X35485554Y-158439881D01*
X35487473Y-158439317D01*
X35488112Y-158439598D01*
G37*
G36*
X66501462Y-158322759D02*
G01*
X66501462Y-158324759D01*
X66500059Y-158325732D01*
X66500053Y-158325733D01*
X66499724Y-158325760D01*
X63619396Y-158325760D01*
X63617664Y-158324760D01*
X63617664Y-158322760D01*
X63619396Y-158321760D01*
X66499730Y-158321759D01*
X66501462Y-158322759D01*
G37*
G36*
X33588112Y-157939598D02*
G01*
X33602645Y-157949309D01*
X33621199Y-157953000D01*
X34570801Y-157953000D01*
X34583589Y-157950456D01*
X34585483Y-157951099D01*
X34585873Y-157953061D01*
X34585090Y-157954081D01*
X34570235Y-157964007D01*
X34525640Y-158017366D01*
X34518381Y-158084880D01*
X34517201Y-158086495D01*
X34515213Y-158086281D01*
X34514729Y-158085777D01*
X34504913Y-158071087D01*
X34489355Y-158060691D01*
X34470801Y-158057000D01*
X33621199Y-158057000D01*
X33602645Y-158060691D01*
X33588253Y-158070308D01*
X33586257Y-158070439D01*
X33585146Y-158068776D01*
X33585233Y-158068047D01*
X33604282Y-158007212D01*
X33585082Y-157941824D01*
X33585554Y-157939881D01*
X33587473Y-157939317D01*
X33588112Y-157939598D01*
G37*
G36*
X35488112Y-157939598D02*
G01*
X35502645Y-157949309D01*
X35521199Y-157953000D01*
X36370801Y-157953000D01*
X36389355Y-157949309D01*
X36403747Y-157939692D01*
X36405743Y-157939561D01*
X36406854Y-157941224D01*
X36406767Y-157941953D01*
X36387718Y-158002788D01*
X36406918Y-158068176D01*
X36406446Y-158070119D01*
X36404527Y-158070683D01*
X36403888Y-158070402D01*
X36389355Y-158060691D01*
X36370801Y-158057000D01*
X35521199Y-158057000D01*
X35502645Y-158060691D01*
X35488253Y-158070308D01*
X35486257Y-158070439D01*
X35485146Y-158068776D01*
X35485233Y-158068047D01*
X35504282Y-158007212D01*
X35485082Y-157941824D01*
X35485554Y-157939881D01*
X35487473Y-157939317D01*
X35488112Y-157939598D01*
G37*
G36*
X66501456Y-156822760D02*
G01*
X66501456Y-156824760D01*
X66499724Y-156825760D01*
X63619390Y-156825761D01*
X63617658Y-156824761D01*
X63617658Y-156822761D01*
X63619061Y-156821788D01*
X63619067Y-156821787D01*
X63619396Y-156821760D01*
X66499724Y-156821760D01*
X66501456Y-156822760D01*
G37*
G36*
X70206992Y-154294159D02*
G01*
X70213466Y-154298484D01*
X70279829Y-154319264D01*
X70350628Y-154298475D01*
X70357088Y-154294159D01*
X70359084Y-154294028D01*
X70360195Y-154295691D01*
X70359862Y-154296933D01*
X70352731Y-154307605D01*
X70349040Y-154326159D01*
X70349040Y-155025761D01*
X70352731Y-155044315D01*
X70359862Y-155054987D01*
X70359993Y-155056983D01*
X70358330Y-155058094D01*
X70357088Y-155057761D01*
X70350614Y-155053436D01*
X70284251Y-155032656D01*
X70213452Y-155053445D01*
X70206992Y-155057761D01*
X70204996Y-155057892D01*
X70203885Y-155056229D01*
X70204218Y-155054987D01*
X70211349Y-155044315D01*
X70215040Y-155025761D01*
X70215040Y-154326159D01*
X70211349Y-154307605D01*
X70204218Y-154296933D01*
X70204087Y-154294937D01*
X70205750Y-154293826D01*
X70206992Y-154294159D01*
G37*
G36*
X71706274Y-154069916D02*
G01*
X71706033Y-154071005D01*
X71676641Y-154124834D01*
X71681581Y-154193916D01*
X71723086Y-154249360D01*
X71788224Y-154273656D01*
X71796790Y-154273961D01*
X71798486Y-154275022D01*
X71798414Y-154277021D01*
X71796719Y-154277960D01*
X71697239Y-154277960D01*
X71678685Y-154281651D01*
X71663127Y-154292047D01*
X71652731Y-154307605D01*
X71649040Y-154326159D01*
X71649040Y-155025761D01*
X71652731Y-155044315D01*
X71659862Y-155054987D01*
X71659993Y-155056983D01*
X71658330Y-155058094D01*
X71657088Y-155057761D01*
X71650614Y-155053436D01*
X71584251Y-155032656D01*
X71513452Y-155053445D01*
X71506992Y-155057761D01*
X71504996Y-155057892D01*
X71503885Y-155056229D01*
X71504218Y-155054987D01*
X71511349Y-155044315D01*
X71515040Y-155025761D01*
X71515040Y-154326159D01*
X71511349Y-154307605D01*
X71500953Y-154292047D01*
X71485395Y-154281651D01*
X71466841Y-154277960D01*
X71083457Y-154277960D01*
X71081725Y-154276960D01*
X71081725Y-154274960D01*
X71082894Y-154274041D01*
X71149906Y-154254365D01*
X71195261Y-154202022D01*
X71205118Y-154133469D01*
X71177600Y-154073215D01*
X71177790Y-154071224D01*
X71179609Y-154070393D01*
X71180530Y-154070721D01*
X71228169Y-154102552D01*
X71300299Y-154116900D01*
X71579901Y-154116900D01*
X71652031Y-154102552D01*
X71703167Y-154068384D01*
X71705163Y-154068253D01*
X71706274Y-154069916D01*
G37*
G36*
X70856992Y-154294159D02*
G01*
X70863466Y-154298484D01*
X70929829Y-154319264D01*
X71000628Y-154298475D01*
X71007088Y-154294159D01*
X71009084Y-154294028D01*
X71010195Y-154295691D01*
X71009862Y-154296933D01*
X71002731Y-154307605D01*
X70999040Y-154326159D01*
X70999040Y-155025761D01*
X71002731Y-155044315D01*
X71009862Y-155054987D01*
X71009993Y-155056983D01*
X71008330Y-155058094D01*
X71007088Y-155057761D01*
X71000614Y-155053436D01*
X70934251Y-155032656D01*
X70863452Y-155053445D01*
X70856992Y-155057761D01*
X70854996Y-155057892D01*
X70853885Y-155056229D01*
X70854218Y-155054987D01*
X70861349Y-155044315D01*
X70865040Y-155025761D01*
X70865040Y-154326159D01*
X70861349Y-154307605D01*
X70854218Y-154296933D01*
X70854087Y-154294937D01*
X70855750Y-154293826D01*
X70856992Y-154294159D01*
G37*
G36*
X57849904Y-147606499D02*
G01*
X57849904Y-147608499D01*
X57848501Y-147609472D01*
X57848495Y-147609473D01*
X57848166Y-147609500D01*
X48767834Y-147609500D01*
X48766102Y-147608500D01*
X48766102Y-147606500D01*
X48767834Y-147605500D01*
X57848172Y-147605499D01*
X57849904Y-147606499D01*
G37*
G36*
X48460000Y-143155340D02*
G01*
X48460001Y-147297672D01*
X48459001Y-147299404D01*
X48457001Y-147299404D01*
X48456028Y-147298001D01*
X48456027Y-147297995D01*
X48456000Y-147297666D01*
X48456000Y-143155340D01*
X48457000Y-143153608D01*
X48459000Y-143153608D01*
X48460000Y-143155340D01*
G37*
G36*
X38453443Y-145319022D02*
G01*
X38454086Y-145320136D01*
X38457323Y-145336408D01*
X38459022Y-145336070D01*
X38460916Y-145336713D01*
X38461404Y-145337853D01*
X38463535Y-145361614D01*
X38506032Y-145416300D01*
X38556924Y-145434245D01*
X38558225Y-145435764D01*
X38558221Y-145436521D01*
X38558091Y-145437175D01*
X38574360Y-145440411D01*
X38575864Y-145441730D01*
X38575474Y-145443692D01*
X38574360Y-145444335D01*
X38561770Y-145446840D01*
X38546044Y-145457348D01*
X37485664Y-146517728D01*
X37475156Y-146533454D01*
X37472651Y-146546044D01*
X37471332Y-146547548D01*
X37469370Y-146547158D01*
X37468727Y-146546044D01*
X37465491Y-146529775D01*
X37463793Y-146530113D01*
X37461899Y-146529470D01*
X37461411Y-146528329D01*
X37459283Y-146504578D01*
X37416791Y-146449888D01*
X37365891Y-146431936D01*
X37364590Y-146430417D01*
X37364594Y-146429660D01*
X37364724Y-146429007D01*
X37348452Y-146425770D01*
X37346948Y-146424451D01*
X37347338Y-146422489D01*
X37348452Y-146421846D01*
X37361044Y-146419341D01*
X37376770Y-146408834D01*
X38437150Y-145348454D01*
X38447657Y-145332728D01*
X38450162Y-145320136D01*
X38451481Y-145318632D01*
X38453443Y-145319022D01*
G37*
G36*
X37569560Y-144435140D02*
G01*
X37570203Y-144436254D01*
X37573439Y-144452523D01*
X37575137Y-144452185D01*
X37577031Y-144452828D01*
X37577519Y-144453969D01*
X37579647Y-144477720D01*
X37622139Y-144532410D01*
X37673039Y-144550362D01*
X37674340Y-144551881D01*
X37674336Y-144552638D01*
X37674206Y-144553291D01*
X37690478Y-144556528D01*
X37691982Y-144557847D01*
X37691592Y-144559809D01*
X37690478Y-144560452D01*
X37677886Y-144562957D01*
X37662160Y-144573464D01*
X36601780Y-145633844D01*
X36591273Y-145649570D01*
X36588768Y-145662162D01*
X36587449Y-145663666D01*
X36585487Y-145663276D01*
X36584844Y-145662162D01*
X36581607Y-145645890D01*
X36579908Y-145646228D01*
X36578014Y-145645585D01*
X36577526Y-145644445D01*
X36575395Y-145620684D01*
X36532898Y-145565998D01*
X36482006Y-145548053D01*
X36480705Y-145546534D01*
X36480709Y-145545777D01*
X36480839Y-145545123D01*
X36464570Y-145541887D01*
X36463066Y-145540568D01*
X36463456Y-145538606D01*
X36464570Y-145537963D01*
X36477160Y-145535458D01*
X36492886Y-145524950D01*
X37553266Y-144464570D01*
X37563774Y-144448844D01*
X37566279Y-144436254D01*
X37567598Y-144434750D01*
X37569560Y-144435140D01*
G37*
G36*
X34259087Y-137715265D02*
G01*
X34259730Y-137716379D01*
X34262966Y-137732650D01*
X34264233Y-137732398D01*
X34266127Y-137733041D01*
X34266615Y-137734182D01*
X34268868Y-137759353D01*
X34311354Y-137814048D01*
X34363627Y-137832490D01*
X34364928Y-137834009D01*
X34364925Y-137834629D01*
X34375714Y-137836775D01*
X34375990Y-137836851D01*
X34376829Y-137837147D01*
X34377115Y-137837127D01*
X34377647Y-137837160D01*
X34381220Y-137837871D01*
X34382724Y-137839190D01*
X34382334Y-137841152D01*
X34381220Y-137841795D01*
X34360974Y-137845821D01*
X34338759Y-137860664D01*
X33631932Y-138567491D01*
X33617089Y-138589706D01*
X33611917Y-138615715D01*
X33617089Y-138641724D01*
X33631932Y-138663938D01*
X33893282Y-138925288D01*
X33915496Y-138940131D01*
X33941505Y-138945303D01*
X33967514Y-138940131D01*
X33989729Y-138925288D01*
X34696556Y-138218461D01*
X34711399Y-138196246D01*
X34715426Y-138175999D01*
X34716745Y-138174495D01*
X34718707Y-138174885D01*
X34719350Y-138175999D01*
X34722586Y-138192270D01*
X34723853Y-138192018D01*
X34725747Y-138192661D01*
X34726235Y-138193802D01*
X34728485Y-138218965D01*
X34770970Y-138273664D01*
X34823246Y-138292109D01*
X34824547Y-138293628D01*
X34824544Y-138294248D01*
X34835326Y-138296393D01*
X34835601Y-138296469D01*
X34836441Y-138296765D01*
X34836729Y-138296745D01*
X34837261Y-138296778D01*
X34840839Y-138297490D01*
X34842343Y-138298809D01*
X34841953Y-138300771D01*
X34840839Y-138301414D01*
X34820593Y-138305440D01*
X34798378Y-138320283D01*
X34091551Y-139027110D01*
X34076708Y-139049325D01*
X34071536Y-139075334D01*
X34076708Y-139101343D01*
X34091551Y-139123557D01*
X34352901Y-139384907D01*
X34375115Y-139399750D01*
X34401124Y-139404922D01*
X34427133Y-139399750D01*
X34449348Y-139384907D01*
X35156175Y-138678080D01*
X35171018Y-138655865D01*
X35175045Y-138635618D01*
X35176364Y-138634114D01*
X35178326Y-138634504D01*
X35178969Y-138635618D01*
X35182205Y-138651889D01*
X35183472Y-138651637D01*
X35185366Y-138652280D01*
X35185854Y-138653421D01*
X35188107Y-138678592D01*
X35230593Y-138733287D01*
X35282865Y-138751729D01*
X35284166Y-138753248D01*
X35284163Y-138753868D01*
X35294954Y-138756015D01*
X35295229Y-138756091D01*
X35296067Y-138756386D01*
X35296354Y-138756366D01*
X35296886Y-138756399D01*
X35300458Y-138757110D01*
X35301962Y-138758429D01*
X35301572Y-138760391D01*
X35300458Y-138761034D01*
X35280212Y-138765060D01*
X35257997Y-138779903D01*
X34551170Y-139486730D01*
X34536327Y-139508945D01*
X34531155Y-139534954D01*
X34536327Y-139560963D01*
X34551170Y-139583177D01*
X34812520Y-139844527D01*
X34834734Y-139859370D01*
X34860743Y-139864542D01*
X34886752Y-139859370D01*
X34908967Y-139844527D01*
X35615794Y-139137700D01*
X35630637Y-139115485D01*
X35634664Y-139095238D01*
X35635983Y-139093734D01*
X35637945Y-139094124D01*
X35638588Y-139095238D01*
X35641824Y-139111509D01*
X35643091Y-139111257D01*
X35644985Y-139111900D01*
X35645473Y-139113041D01*
X35647723Y-139138204D01*
X35690208Y-139192903D01*
X35742485Y-139211349D01*
X35743786Y-139212868D01*
X35743783Y-139213487D01*
X35754562Y-139215631D01*
X35754838Y-139215707D01*
X35755681Y-139216004D01*
X35755968Y-139215984D01*
X35756500Y-139216017D01*
X35760078Y-139216729D01*
X35761582Y-139218048D01*
X35761192Y-139220010D01*
X35760078Y-139220653D01*
X35739832Y-139224679D01*
X35717617Y-139239522D01*
X35010790Y-139946349D01*
X34995947Y-139968564D01*
X34990775Y-139994573D01*
X34995947Y-140020582D01*
X35010790Y-140042796D01*
X35272140Y-140304146D01*
X35294354Y-140318989D01*
X35320363Y-140324161D01*
X35346372Y-140318989D01*
X35368587Y-140304146D01*
X36075414Y-139597319D01*
X36090257Y-139575104D01*
X36094284Y-139554857D01*
X36095603Y-139553353D01*
X36097565Y-139553743D01*
X36098208Y-139554857D01*
X36101444Y-139571128D01*
X36102711Y-139570876D01*
X36104605Y-139571519D01*
X36105093Y-139572660D01*
X36107343Y-139597823D01*
X36149828Y-139652522D01*
X36202104Y-139670967D01*
X36203405Y-139672486D01*
X36203402Y-139673106D01*
X36214184Y-139675251D01*
X36214459Y-139675327D01*
X36215299Y-139675623D01*
X36215587Y-139675603D01*
X36216119Y-139675636D01*
X36219697Y-139676348D01*
X36221201Y-139677667D01*
X36220811Y-139679629D01*
X36219697Y-139680272D01*
X36199451Y-139684298D01*
X36177236Y-139699141D01*
X35470409Y-140405968D01*
X35455566Y-140428183D01*
X35450394Y-140454192D01*
X35455566Y-140480201D01*
X35470409Y-140502415D01*
X35731759Y-140763765D01*
X35753973Y-140778608D01*
X35779982Y-140783780D01*
X35805991Y-140778608D01*
X35828206Y-140763765D01*
X36535033Y-140056938D01*
X36549876Y-140034723D01*
X36553903Y-140014476D01*
X36555222Y-140012972D01*
X36557184Y-140013362D01*
X36557827Y-140014476D01*
X36561063Y-140030747D01*
X36562330Y-140030495D01*
X36564224Y-140031138D01*
X36564712Y-140032279D01*
X36566965Y-140057450D01*
X36609451Y-140112145D01*
X36661724Y-140130587D01*
X36663025Y-140132106D01*
X36663022Y-140132726D01*
X36673811Y-140134872D01*
X36674087Y-140134948D01*
X36674926Y-140135244D01*
X36675212Y-140135224D01*
X36675744Y-140135257D01*
X36679317Y-140135968D01*
X36680821Y-140137287D01*
X36680431Y-140139249D01*
X36679317Y-140139892D01*
X36659071Y-140143918D01*
X36636856Y-140158761D01*
X35930029Y-140865588D01*
X35915186Y-140887803D01*
X35910014Y-140913812D01*
X35915186Y-140939821D01*
X35930029Y-140962035D01*
X36191379Y-141223385D01*
X36213593Y-141238228D01*
X36239602Y-141243400D01*
X36265611Y-141238228D01*
X36280293Y-141228418D01*
X36282289Y-141228287D01*
X36283400Y-141229950D01*
X36282939Y-141231364D01*
X36243620Y-141278413D01*
X36234987Y-141347128D01*
X36264951Y-141409759D01*
X36273613Y-141417265D01*
X36274267Y-141419155D01*
X36272957Y-141420666D01*
X36271192Y-141420439D01*
X36265611Y-141416710D01*
X36239602Y-141411538D01*
X36213593Y-141416710D01*
X36191379Y-141431553D01*
X35930029Y-141692903D01*
X35915186Y-141715117D01*
X35910014Y-141741126D01*
X35915186Y-141767135D01*
X35930029Y-141789350D01*
X36636856Y-142496177D01*
X36659071Y-142511020D01*
X36679318Y-142515047D01*
X36680822Y-142516366D01*
X36680432Y-142518328D01*
X36679318Y-142518971D01*
X36663047Y-142522207D01*
X36663299Y-142523474D01*
X36662656Y-142525368D01*
X36661515Y-142525856D01*
X36636344Y-142528109D01*
X36581649Y-142570595D01*
X36563207Y-142622868D01*
X36561688Y-142624169D01*
X36561068Y-142624166D01*
X36558922Y-142634955D01*
X36558846Y-142635231D01*
X36558550Y-142636070D01*
X36558570Y-142636356D01*
X36558537Y-142636888D01*
X36557826Y-142640461D01*
X36556507Y-142641965D01*
X36554545Y-142641575D01*
X36553902Y-142640461D01*
X36549876Y-142620215D01*
X36535033Y-142598000D01*
X35828206Y-141891173D01*
X35805991Y-141876330D01*
X35779982Y-141871158D01*
X35753973Y-141876330D01*
X35731759Y-141891173D01*
X35470409Y-142152523D01*
X35455566Y-142174737D01*
X35450394Y-142200746D01*
X35455566Y-142226755D01*
X35470409Y-142248970D01*
X36177236Y-142955797D01*
X36199451Y-142970640D01*
X36219698Y-142974667D01*
X36221202Y-142975986D01*
X36220812Y-142977948D01*
X36219698Y-142978591D01*
X36203427Y-142981827D01*
X36203679Y-142983094D01*
X36203036Y-142984988D01*
X36201895Y-142985476D01*
X36176732Y-142987726D01*
X36122033Y-143030211D01*
X36103588Y-143082487D01*
X36102069Y-143083788D01*
X36101449Y-143083785D01*
X36099304Y-143094567D01*
X36099228Y-143094842D01*
X36098932Y-143095682D01*
X36098952Y-143095970D01*
X36098919Y-143096502D01*
X36098207Y-143100080D01*
X36096888Y-143101584D01*
X36094926Y-143101194D01*
X36094283Y-143100080D01*
X36090257Y-143079834D01*
X36075414Y-143057619D01*
X35368587Y-142350792D01*
X35346372Y-142335949D01*
X35320363Y-142330777D01*
X35294354Y-142335949D01*
X35272140Y-142350792D01*
X35010790Y-142612142D01*
X34995947Y-142634356D01*
X34990775Y-142660365D01*
X34995947Y-142686374D01*
X35010790Y-142708589D01*
X35717617Y-143415416D01*
X35739832Y-143430259D01*
X35760079Y-143434286D01*
X35761583Y-143435605D01*
X35761193Y-143437567D01*
X35760079Y-143438210D01*
X35743808Y-143441446D01*
X35744060Y-143442713D01*
X35743417Y-143444607D01*
X35742276Y-143445095D01*
X35717105Y-143447348D01*
X35662410Y-143489834D01*
X35643968Y-143542106D01*
X35642449Y-143543407D01*
X35641829Y-143543404D01*
X35639682Y-143554195D01*
X35639606Y-143554470D01*
X35639311Y-143555308D01*
X35639331Y-143555595D01*
X35639298Y-143556127D01*
X35638587Y-143559699D01*
X35637268Y-143561203D01*
X35635306Y-143560813D01*
X35634663Y-143559699D01*
X35630637Y-143539453D01*
X35615794Y-143517238D01*
X34908967Y-142810411D01*
X34886752Y-142795568D01*
X34860743Y-142790396D01*
X34834734Y-142795568D01*
X34812520Y-142810411D01*
X34551170Y-143071761D01*
X34536327Y-143093975D01*
X34531155Y-143119984D01*
X34536327Y-143145993D01*
X34551170Y-143168208D01*
X35257997Y-143875035D01*
X35280212Y-143889878D01*
X35300459Y-143893905D01*
X35301963Y-143895224D01*
X35301573Y-143897186D01*
X35300459Y-143897829D01*
X35284188Y-143901065D01*
X35284440Y-143902332D01*
X35283797Y-143904226D01*
X35282656Y-143904714D01*
X35257493Y-143906964D01*
X35202794Y-143949449D01*
X35184348Y-144001726D01*
X35182829Y-144003027D01*
X35182210Y-144003024D01*
X35180066Y-144013803D01*
X35179990Y-144014079D01*
X35179693Y-144014922D01*
X35179713Y-144015209D01*
X35179680Y-144015741D01*
X35178968Y-144019319D01*
X35177649Y-144020823D01*
X35175687Y-144020433D01*
X35175044Y-144019319D01*
X35171018Y-143999073D01*
X35156175Y-143976858D01*
X34449348Y-143270031D01*
X34427133Y-143255188D01*
X34401124Y-143250016D01*
X34375115Y-143255188D01*
X34352901Y-143270031D01*
X34091551Y-143531381D01*
X34076708Y-143553595D01*
X34071536Y-143579604D01*
X34076708Y-143605613D01*
X34091551Y-143627828D01*
X34798378Y-144334655D01*
X34820593Y-144349498D01*
X34840840Y-144353525D01*
X34842344Y-144354844D01*
X34841954Y-144356806D01*
X34840840Y-144357449D01*
X34824569Y-144360685D01*
X34824821Y-144361952D01*
X34824178Y-144363846D01*
X34823037Y-144364334D01*
X34797874Y-144366584D01*
X34743175Y-144409069D01*
X34724730Y-144461345D01*
X34723211Y-144462646D01*
X34722591Y-144462643D01*
X34720446Y-144473425D01*
X34720370Y-144473700D01*
X34720074Y-144474540D01*
X34720094Y-144474828D01*
X34720061Y-144475360D01*
X34719349Y-144478938D01*
X34718030Y-144480442D01*
X34716068Y-144480052D01*
X34715425Y-144478938D01*
X34711399Y-144458692D01*
X34696556Y-144436477D01*
X33989729Y-143729650D01*
X33967514Y-143714807D01*
X33941505Y-143709635D01*
X33915496Y-143714807D01*
X33893282Y-143729650D01*
X33631932Y-143991000D01*
X33617089Y-144013214D01*
X33611917Y-144039223D01*
X33617089Y-144065232D01*
X33631932Y-144087447D01*
X34338759Y-144794274D01*
X34360974Y-144809117D01*
X34381221Y-144813144D01*
X34382725Y-144814463D01*
X34382335Y-144816425D01*
X34381221Y-144817068D01*
X34364950Y-144820304D01*
X34365202Y-144821571D01*
X34364559Y-144823465D01*
X34363418Y-144823953D01*
X34338247Y-144826206D01*
X34283552Y-144868692D01*
X34265110Y-144920965D01*
X34263591Y-144922266D01*
X34262971Y-144922263D01*
X34260825Y-144933052D01*
X34260749Y-144933328D01*
X34260453Y-144934167D01*
X34260473Y-144934453D01*
X34260440Y-144934985D01*
X34259729Y-144938558D01*
X34258410Y-144940062D01*
X34256448Y-144939672D01*
X34255805Y-144938558D01*
X34251779Y-144918312D01*
X34236936Y-144896097D01*
X33530109Y-144189270D01*
X33507894Y-144174427D01*
X33481885Y-144169255D01*
X33455876Y-144174427D01*
X33433662Y-144189270D01*
X33172312Y-144450620D01*
X33157469Y-144472834D01*
X33152297Y-144498843D01*
X33157469Y-144524852D01*
X33167279Y-144539534D01*
X33167410Y-144541530D01*
X33165747Y-144542641D01*
X33164333Y-144542180D01*
X33117284Y-144502861D01*
X33048569Y-144494228D01*
X32985938Y-144524192D01*
X32978432Y-144532854D01*
X32976542Y-144533508D01*
X32975031Y-144532198D01*
X32975258Y-144530433D01*
X32978987Y-144524852D01*
X32984159Y-144498843D01*
X32978987Y-144472834D01*
X32964144Y-144450620D01*
X32702794Y-144189270D01*
X32680580Y-144174427D01*
X32654571Y-144169255D01*
X32628562Y-144174427D01*
X32606347Y-144189270D01*
X31899520Y-144896097D01*
X31884677Y-144918312D01*
X31880650Y-144938559D01*
X31879331Y-144940063D01*
X31877369Y-144939673D01*
X31876726Y-144938559D01*
X31873490Y-144922288D01*
X31872223Y-144922540D01*
X31870329Y-144921897D01*
X31869841Y-144920756D01*
X31867588Y-144895585D01*
X31825102Y-144840890D01*
X31772829Y-144822448D01*
X31771528Y-144820929D01*
X31771531Y-144820309D01*
X31760742Y-144818163D01*
X31760466Y-144818087D01*
X31759627Y-144817791D01*
X31759341Y-144817811D01*
X31758809Y-144817778D01*
X31755236Y-144817067D01*
X31753732Y-144815748D01*
X31754122Y-144813786D01*
X31755236Y-144813143D01*
X31775482Y-144809117D01*
X31797697Y-144794274D01*
X32504524Y-144087447D01*
X32519367Y-144065232D01*
X32524539Y-144039223D01*
X32519367Y-144013214D01*
X32504524Y-143991000D01*
X32243174Y-143729650D01*
X32220960Y-143714807D01*
X32194951Y-143709635D01*
X32168942Y-143714807D01*
X32146727Y-143729650D01*
X31439900Y-144436477D01*
X31425057Y-144458692D01*
X31421030Y-144478939D01*
X31419711Y-144480443D01*
X31417749Y-144480053D01*
X31417106Y-144478939D01*
X31413870Y-144462668D01*
X31412603Y-144462920D01*
X31410709Y-144462277D01*
X31410221Y-144461136D01*
X31407971Y-144435973D01*
X31365486Y-144381274D01*
X31313210Y-144362829D01*
X31311909Y-144361310D01*
X31311912Y-144360690D01*
X31301130Y-144358545D01*
X31300855Y-144358469D01*
X31300015Y-144358173D01*
X31299727Y-144358193D01*
X31299195Y-144358160D01*
X31295617Y-144357448D01*
X31294113Y-144356129D01*
X31294503Y-144354167D01*
X31295617Y-144353524D01*
X31315863Y-144349498D01*
X31338078Y-144334655D01*
X32044905Y-143627828D01*
X32059748Y-143605613D01*
X32064920Y-143579604D01*
X32059748Y-143553595D01*
X32044905Y-143531381D01*
X31783555Y-143270031D01*
X31761341Y-143255188D01*
X31735332Y-143250016D01*
X31709323Y-143255188D01*
X31687108Y-143270031D01*
X30980281Y-143976858D01*
X30965438Y-143999073D01*
X30961411Y-144019320D01*
X30960092Y-144020824D01*
X30958130Y-144020434D01*
X30957487Y-144019320D01*
X30954251Y-144003049D01*
X30952984Y-144003301D01*
X30951090Y-144002658D01*
X30950602Y-144001517D01*
X30948349Y-143976346D01*
X30905863Y-143921651D01*
X30853591Y-143903209D01*
X30852290Y-143901690D01*
X30852293Y-143901070D01*
X30841502Y-143898923D01*
X30841227Y-143898847D01*
X30840389Y-143898552D01*
X30840102Y-143898572D01*
X30839570Y-143898539D01*
X30835998Y-143897828D01*
X30834494Y-143896509D01*
X30834884Y-143894547D01*
X30835998Y-143893904D01*
X30856244Y-143889878D01*
X30878459Y-143875035D01*
X31585286Y-143168208D01*
X31600129Y-143145993D01*
X31605301Y-143119984D01*
X31600129Y-143093975D01*
X31585286Y-143071761D01*
X31323936Y-142810411D01*
X31301722Y-142795568D01*
X31275713Y-142790396D01*
X31249704Y-142795568D01*
X31227489Y-142810411D01*
X30520662Y-143517238D01*
X30505819Y-143539453D01*
X30501792Y-143559700D01*
X30500473Y-143561204D01*
X30498511Y-143560814D01*
X30497868Y-143559700D01*
X30494632Y-143543429D01*
X30493365Y-143543681D01*
X30491471Y-143543038D01*
X30490983Y-143541897D01*
X30488733Y-143516734D01*
X30446248Y-143462035D01*
X30393971Y-143443589D01*
X30392670Y-143442070D01*
X30392673Y-143441451D01*
X30381894Y-143439307D01*
X30381618Y-143439231D01*
X30380775Y-143438934D01*
X30380488Y-143438954D01*
X30379956Y-143438921D01*
X30376378Y-143438209D01*
X30374874Y-143436890D01*
X30375264Y-143434928D01*
X30376378Y-143434285D01*
X30396624Y-143430259D01*
X30418839Y-143415416D01*
X31125666Y-142708589D01*
X31140509Y-142686374D01*
X31145681Y-142660365D01*
X31140509Y-142634356D01*
X31125666Y-142612142D01*
X30864316Y-142350792D01*
X30842102Y-142335949D01*
X30816093Y-142330777D01*
X30790084Y-142335949D01*
X30767869Y-142350792D01*
X30061042Y-143057619D01*
X30046199Y-143079834D01*
X30042172Y-143100081D01*
X30040853Y-143101585D01*
X30038891Y-143101195D01*
X30038248Y-143100081D01*
X30035012Y-143083810D01*
X30033745Y-143084062D01*
X30031851Y-143083419D01*
X30031363Y-143082278D01*
X30029113Y-143057115D01*
X29986628Y-143002416D01*
X29934352Y-142983971D01*
X29933051Y-142982452D01*
X29933054Y-142981832D01*
X29922272Y-142979687D01*
X29921997Y-142979611D01*
X29921157Y-142979315D01*
X29920869Y-142979335D01*
X29920337Y-142979302D01*
X29916759Y-142978590D01*
X29915255Y-142977271D01*
X29915645Y-142975309D01*
X29916759Y-142974666D01*
X29937005Y-142970640D01*
X29959220Y-142955797D01*
X30666047Y-142248970D01*
X30680890Y-142226755D01*
X30686062Y-142200746D01*
X30680890Y-142174737D01*
X30666047Y-142152523D01*
X30404697Y-141891173D01*
X30382483Y-141876330D01*
X30356474Y-141871158D01*
X30330465Y-141876330D01*
X30308250Y-141891173D01*
X29601423Y-142598000D01*
X29586580Y-142620215D01*
X29582553Y-142640462D01*
X29581234Y-142641966D01*
X29579272Y-142641576D01*
X29578629Y-142640462D01*
X29575393Y-142624191D01*
X29574126Y-142624443D01*
X29572232Y-142623800D01*
X29571744Y-142622659D01*
X29569491Y-142597488D01*
X29527005Y-142542793D01*
X29474732Y-142524351D01*
X29473431Y-142522832D01*
X29473434Y-142522212D01*
X29462645Y-142520066D01*
X29462369Y-142519990D01*
X29461530Y-142519694D01*
X29461244Y-142519714D01*
X29460712Y-142519681D01*
X29457139Y-142518970D01*
X29455635Y-142517651D01*
X29456025Y-142515689D01*
X29457139Y-142515046D01*
X29477385Y-142511020D01*
X29499600Y-142496177D01*
X30206427Y-141789350D01*
X30221270Y-141767135D01*
X30226442Y-141741126D01*
X30221270Y-141715117D01*
X30206427Y-141692903D01*
X29945077Y-141431553D01*
X29922863Y-141416710D01*
X29896854Y-141411538D01*
X29870845Y-141416710D01*
X29856163Y-141426520D01*
X29854167Y-141426651D01*
X29853056Y-141424988D01*
X29853517Y-141423574D01*
X29892836Y-141376525D01*
X29898999Y-141327469D01*
X29995065Y-141327469D01*
X30000237Y-141353478D01*
X30015081Y-141375692D01*
X33020005Y-144380616D01*
X33042219Y-144395460D01*
X33068228Y-144400632D01*
X33094237Y-144395460D01*
X33116451Y-144380616D01*
X36121375Y-141375692D01*
X36136219Y-141353478D01*
X36141391Y-141327469D01*
X36136219Y-141301460D01*
X36121375Y-141279246D01*
X33116451Y-138274322D01*
X33094237Y-138259478D01*
X33068228Y-138254306D01*
X33042219Y-138259478D01*
X33020005Y-138274322D01*
X30015081Y-141279246D01*
X30000237Y-141301460D01*
X29995065Y-141327469D01*
X29898999Y-141327469D01*
X29901469Y-141307810D01*
X29871505Y-141245179D01*
X29862843Y-141237673D01*
X29862189Y-141235783D01*
X29863499Y-141234272D01*
X29865264Y-141234499D01*
X29870845Y-141238228D01*
X29896854Y-141243400D01*
X29922863Y-141238228D01*
X29945077Y-141223385D01*
X30206427Y-140962035D01*
X30221270Y-140939821D01*
X30226442Y-140913812D01*
X30221270Y-140887803D01*
X30206427Y-140865588D01*
X29499600Y-140158761D01*
X29477385Y-140143918D01*
X29457138Y-140139891D01*
X29455634Y-140138572D01*
X29456024Y-140136610D01*
X29457138Y-140135967D01*
X29473409Y-140132731D01*
X29473157Y-140131464D01*
X29473800Y-140129570D01*
X29474941Y-140129082D01*
X29500112Y-140126829D01*
X29554807Y-140084343D01*
X29573249Y-140032070D01*
X29574768Y-140030769D01*
X29575388Y-140030772D01*
X29577534Y-140019983D01*
X29577610Y-140019707D01*
X29577906Y-140018868D01*
X29577886Y-140018582D01*
X29577919Y-140018050D01*
X29578630Y-140014477D01*
X29579949Y-140012973D01*
X29581911Y-140013363D01*
X29582554Y-140014477D01*
X29586580Y-140034723D01*
X29601423Y-140056938D01*
X30308250Y-140763765D01*
X30330465Y-140778608D01*
X30356474Y-140783780D01*
X30382483Y-140778608D01*
X30404697Y-140763765D01*
X30666047Y-140502415D01*
X30680890Y-140480201D01*
X30686062Y-140454192D01*
X30680890Y-140428183D01*
X30666047Y-140405968D01*
X29959220Y-139699141D01*
X29937005Y-139684298D01*
X29916758Y-139680271D01*
X29915254Y-139678952D01*
X29915644Y-139676990D01*
X29916758Y-139676347D01*
X29933029Y-139673111D01*
X29932777Y-139671844D01*
X29933420Y-139669950D01*
X29934561Y-139669462D01*
X29959724Y-139667212D01*
X30014423Y-139624727D01*
X30032868Y-139572451D01*
X30034387Y-139571150D01*
X30035007Y-139571153D01*
X30037152Y-139560371D01*
X30037228Y-139560096D01*
X30037524Y-139559256D01*
X30037504Y-139558968D01*
X30037537Y-139558436D01*
X30038249Y-139554858D01*
X30039568Y-139553354D01*
X30041530Y-139553744D01*
X30042173Y-139554858D01*
X30046199Y-139575104D01*
X30061042Y-139597319D01*
X30767869Y-140304146D01*
X30790084Y-140318989D01*
X30816093Y-140324161D01*
X30842102Y-140318989D01*
X30864316Y-140304146D01*
X31125666Y-140042796D01*
X31140509Y-140020582D01*
X31145681Y-139994573D01*
X31140509Y-139968564D01*
X31125666Y-139946349D01*
X30418839Y-139239522D01*
X30396624Y-139224679D01*
X30376377Y-139220652D01*
X30374873Y-139219333D01*
X30375263Y-139217371D01*
X30376377Y-139216728D01*
X30392648Y-139213492D01*
X30392396Y-139212225D01*
X30393039Y-139210331D01*
X30394180Y-139209843D01*
X30419351Y-139207590D01*
X30474046Y-139165104D01*
X30492488Y-139112832D01*
X30494007Y-139111531D01*
X30494627Y-139111534D01*
X30496774Y-139100743D01*
X30496850Y-139100468D01*
X30497145Y-139099630D01*
X30497125Y-139099343D01*
X30497158Y-139098811D01*
X30497869Y-139095239D01*
X30499188Y-139093735D01*
X30501150Y-139094125D01*
X30501793Y-139095239D01*
X30505819Y-139115485D01*
X30520662Y-139137700D01*
X31227489Y-139844527D01*
X31249704Y-139859370D01*
X31275713Y-139864542D01*
X31301722Y-139859370D01*
X31323936Y-139844527D01*
X31585286Y-139583177D01*
X31600129Y-139560963D01*
X31605301Y-139534954D01*
X31600129Y-139508945D01*
X31585286Y-139486730D01*
X30878459Y-138779903D01*
X30856244Y-138765060D01*
X30835997Y-138761033D01*
X30834493Y-138759714D01*
X30834883Y-138757752D01*
X30835997Y-138757109D01*
X30852268Y-138753873D01*
X30852016Y-138752606D01*
X30852659Y-138750712D01*
X30853800Y-138750224D01*
X30878963Y-138747974D01*
X30933662Y-138705489D01*
X30952108Y-138653212D01*
X30953627Y-138651911D01*
X30954246Y-138651914D01*
X30956390Y-138641135D01*
X30956466Y-138640859D01*
X30956763Y-138640016D01*
X30956743Y-138639729D01*
X30956776Y-138639197D01*
X30957488Y-138635619D01*
X30958807Y-138634115D01*
X30960769Y-138634505D01*
X30961412Y-138635619D01*
X30965438Y-138655865D01*
X30980281Y-138678080D01*
X31687108Y-139384907D01*
X31709323Y-139399750D01*
X31735332Y-139404922D01*
X31761341Y-139399750D01*
X31783555Y-139384907D01*
X32044905Y-139123557D01*
X32059748Y-139101343D01*
X32064920Y-139075334D01*
X32059748Y-139049325D01*
X32044905Y-139027110D01*
X31338078Y-138320283D01*
X31315863Y-138305440D01*
X31295616Y-138301413D01*
X31294112Y-138300094D01*
X31294502Y-138298132D01*
X31295616Y-138297489D01*
X31311887Y-138294253D01*
X31311635Y-138292986D01*
X31312278Y-138291092D01*
X31313419Y-138290604D01*
X31338582Y-138288354D01*
X31393281Y-138245869D01*
X31411726Y-138193593D01*
X31413245Y-138192292D01*
X31413865Y-138192295D01*
X31416010Y-138181513D01*
X31416086Y-138181238D01*
X31416382Y-138180398D01*
X31416362Y-138180110D01*
X31416395Y-138179578D01*
X31417107Y-138176000D01*
X31418426Y-138174496D01*
X31420388Y-138174886D01*
X31421031Y-138176000D01*
X31425057Y-138196246D01*
X31439900Y-138218461D01*
X32146727Y-138925288D01*
X32168942Y-138940131D01*
X32194951Y-138945303D01*
X32220960Y-138940131D01*
X32243174Y-138925288D01*
X32504524Y-138663938D01*
X32519367Y-138641724D01*
X32524539Y-138615715D01*
X32519367Y-138589706D01*
X32504524Y-138567491D01*
X31797697Y-137860664D01*
X31775482Y-137845821D01*
X31755235Y-137841794D01*
X31753731Y-137840475D01*
X31754121Y-137838513D01*
X31755235Y-137837870D01*
X31771506Y-137834634D01*
X31771254Y-137833367D01*
X31771897Y-137831473D01*
X31773038Y-137830985D01*
X31798209Y-137828732D01*
X31852904Y-137786246D01*
X31871346Y-137733973D01*
X31872865Y-137732672D01*
X31873485Y-137732675D01*
X31875631Y-137721886D01*
X31875707Y-137721610D01*
X31876003Y-137720771D01*
X31875983Y-137720485D01*
X31876016Y-137719953D01*
X31876727Y-137716380D01*
X31878046Y-137714876D01*
X31880008Y-137715266D01*
X31880651Y-137716380D01*
X31884677Y-137736626D01*
X31899520Y-137758841D01*
X32606347Y-138465668D01*
X32628562Y-138480511D01*
X32654571Y-138485683D01*
X32680580Y-138480511D01*
X32702794Y-138465668D01*
X32964144Y-138204318D01*
X32978987Y-138182104D01*
X32984159Y-138156095D01*
X32978987Y-138130086D01*
X32969177Y-138115404D01*
X32969046Y-138113408D01*
X32970709Y-138112297D01*
X32972123Y-138112758D01*
X33019172Y-138152077D01*
X33087887Y-138160710D01*
X33150518Y-138130746D01*
X33158024Y-138122084D01*
X33159914Y-138121430D01*
X33161425Y-138122740D01*
X33161198Y-138124505D01*
X33157469Y-138130086D01*
X33152297Y-138156095D01*
X33157469Y-138182104D01*
X33172312Y-138204318D01*
X33433662Y-138465668D01*
X33455876Y-138480511D01*
X33481885Y-138485683D01*
X33507894Y-138480511D01*
X33530109Y-138465668D01*
X34236936Y-137758841D01*
X34251779Y-137736626D01*
X34255806Y-137716379D01*
X34257125Y-137714875D01*
X34259087Y-137715265D01*
G37*
G36*
X58159972Y-139016999D02*
G01*
X58159973Y-139017005D01*
X58160000Y-139017334D01*
X58160000Y-143160973D01*
X58159000Y-143162705D01*
X58157000Y-143162705D01*
X58156000Y-143160973D01*
X58155999Y-139017328D01*
X58156999Y-139015596D01*
X58158999Y-139015596D01*
X58159972Y-139016999D01*
G37*
G36*
X66501462Y-139567839D02*
G01*
X66501462Y-139569839D01*
X66500059Y-139570812D01*
X66500053Y-139570813D01*
X66499724Y-139570840D01*
X63619396Y-139570840D01*
X63617664Y-139569840D01*
X63617664Y-139567840D01*
X63619396Y-139566840D01*
X66499730Y-139566839D01*
X66501462Y-139567839D01*
G37*
G36*
X70338772Y-138529160D02*
G01*
X70339040Y-138530160D01*
X70339040Y-139014961D01*
X70342767Y-139033705D01*
X70344080Y-139036876D01*
X70351331Y-139047729D01*
X70351462Y-139049725D01*
X70349799Y-139050836D01*
X70348557Y-139050503D01*
X70345590Y-139048521D01*
X70279225Y-139027753D01*
X70208442Y-139048543D01*
X70205538Y-139050484D01*
X70203543Y-139050615D01*
X70202431Y-139048952D01*
X70202764Y-139047710D01*
X70210000Y-139036876D01*
X70211313Y-139033705D01*
X70215040Y-139014961D01*
X70215040Y-138530160D01*
X70216040Y-138528428D01*
X70217040Y-138528160D01*
X70337040Y-138528160D01*
X70338772Y-138529160D01*
G37*
G36*
X71638772Y-138529160D02*
G01*
X71639040Y-138530160D01*
X71639040Y-139014961D01*
X71642767Y-139033705D01*
X71644080Y-139036876D01*
X71651331Y-139047729D01*
X71651462Y-139049725D01*
X71649799Y-139050836D01*
X71648557Y-139050503D01*
X71645590Y-139048521D01*
X71579225Y-139027753D01*
X71508442Y-139048543D01*
X71505538Y-139050484D01*
X71503543Y-139050615D01*
X71502431Y-139048952D01*
X71502764Y-139047710D01*
X71510000Y-139036876D01*
X71511313Y-139033705D01*
X71515040Y-139014961D01*
X71515040Y-138530160D01*
X71516040Y-138528428D01*
X71517040Y-138528160D01*
X71637040Y-138528160D01*
X71638772Y-138529160D01*
G37*
G36*
X70988772Y-138529160D02*
G01*
X70989040Y-138530160D01*
X70989040Y-139014961D01*
X70992767Y-139033705D01*
X70994080Y-139036876D01*
X71001331Y-139047729D01*
X71001462Y-139049725D01*
X70999799Y-139050836D01*
X70998557Y-139050503D01*
X70995590Y-139048521D01*
X70929225Y-139027753D01*
X70858442Y-139048543D01*
X70855538Y-139050484D01*
X70853543Y-139050615D01*
X70852431Y-139048952D01*
X70852764Y-139047710D01*
X70860000Y-139036876D01*
X70861313Y-139033705D01*
X70865040Y-139014961D01*
X70865040Y-138530160D01*
X70866040Y-138528428D01*
X70867040Y-138528160D01*
X70987040Y-138528160D01*
X70988772Y-138529160D01*
G37*
G36*
X57849898Y-138706500D02*
G01*
X57849898Y-138708500D01*
X57848166Y-138709500D01*
X48767828Y-138709501D01*
X48766096Y-138708501D01*
X48766096Y-138706501D01*
X48767499Y-138705528D01*
X48767505Y-138705527D01*
X48767834Y-138705500D01*
X57848166Y-138705500D01*
X57849898Y-138706500D01*
G37*
G36*
X66501456Y-138067840D02*
G01*
X66501456Y-138069840D01*
X66499724Y-138070840D01*
X63619390Y-138070841D01*
X63617658Y-138069841D01*
X63617658Y-138067841D01*
X63619061Y-138066868D01*
X63619067Y-138066867D01*
X63619396Y-138066840D01*
X66499724Y-138066840D01*
X66501456Y-138067840D01*
G37*
G36*
X70338772Y-134678520D02*
G01*
X70339040Y-134679520D01*
X70339040Y-135164321D01*
X70342767Y-135183065D01*
X70344080Y-135186236D01*
X70354596Y-135201975D01*
X70370324Y-135212480D01*
X70373495Y-135213793D01*
X70392239Y-135217520D01*
X70811841Y-135217520D01*
X70830585Y-135213793D01*
X70833756Y-135212480D01*
X70849495Y-135201964D01*
X70860000Y-135186236D01*
X70861313Y-135183065D01*
X70865040Y-135164321D01*
X70865040Y-134679520D01*
X70866040Y-134677788D01*
X70867040Y-134677520D01*
X70987040Y-134677520D01*
X70988772Y-134678520D01*
X70989040Y-134679520D01*
X70989040Y-135164321D01*
X70992767Y-135183065D01*
X70994080Y-135186236D01*
X71004596Y-135201975D01*
X71020324Y-135212480D01*
X71023495Y-135213793D01*
X71042239Y-135217520D01*
X71461841Y-135217520D01*
X71480585Y-135213793D01*
X71483756Y-135212480D01*
X71499495Y-135201964D01*
X71510000Y-135186236D01*
X71511313Y-135183065D01*
X71515040Y-135164321D01*
X71515040Y-134679520D01*
X71516040Y-134677788D01*
X71517040Y-134677520D01*
X71637040Y-134677520D01*
X71638772Y-134678520D01*
X71639040Y-134679520D01*
X71639040Y-135164321D01*
X71642767Y-135183065D01*
X71644080Y-135186236D01*
X71654596Y-135201975D01*
X71670324Y-135212480D01*
X71673495Y-135213793D01*
X71692239Y-135217520D01*
X72111841Y-135217520D01*
X72130585Y-135213793D01*
X72133756Y-135212480D01*
X72149495Y-135201964D01*
X72157710Y-135189665D01*
X72159503Y-135188780D01*
X72161167Y-135189891D01*
X72161335Y-135191166D01*
X72158308Y-135206393D01*
X72158463Y-135206529D01*
X72158479Y-135207771D01*
X72147355Y-135243323D01*
X72158681Y-135281883D01*
X72158319Y-135283377D01*
X72161708Y-135300416D01*
X72161065Y-135302310D01*
X72159103Y-135302700D01*
X72158083Y-135301917D01*
X72150953Y-135291247D01*
X72135395Y-135280851D01*
X72116841Y-135277160D01*
X71697239Y-135277160D01*
X71678685Y-135280851D01*
X71663127Y-135291247D01*
X71652731Y-135306805D01*
X71649040Y-135325359D01*
X71649040Y-136024961D01*
X71652731Y-136043515D01*
X71659862Y-136054187D01*
X71659993Y-136056183D01*
X71658330Y-136057294D01*
X71657088Y-136056961D01*
X71650614Y-136052636D01*
X71584251Y-136031856D01*
X71513452Y-136052645D01*
X71506992Y-136056961D01*
X71504996Y-136057092D01*
X71503885Y-136055429D01*
X71504218Y-136054187D01*
X71511349Y-136043515D01*
X71515040Y-136024961D01*
X71515040Y-135325359D01*
X71511349Y-135306805D01*
X71500953Y-135291247D01*
X71485395Y-135280851D01*
X71466841Y-135277160D01*
X71047239Y-135277160D01*
X71028685Y-135280851D01*
X71013127Y-135291247D01*
X71002731Y-135306805D01*
X70999040Y-135325359D01*
X70999040Y-136024961D01*
X71002731Y-136043515D01*
X71009862Y-136054187D01*
X71009993Y-136056183D01*
X71008330Y-136057294D01*
X71007088Y-136056961D01*
X71000614Y-136052636D01*
X70934251Y-136031856D01*
X70863452Y-136052645D01*
X70856992Y-136056961D01*
X70854996Y-136057092D01*
X70853885Y-136055429D01*
X70854218Y-136054187D01*
X70861349Y-136043515D01*
X70865040Y-136024961D01*
X70865040Y-135325359D01*
X70861349Y-135306805D01*
X70850953Y-135291247D01*
X70835395Y-135280851D01*
X70816841Y-135277160D01*
X70397239Y-135277160D01*
X70378685Y-135280851D01*
X70363127Y-135291247D01*
X70352731Y-135306805D01*
X70349040Y-135325359D01*
X70349040Y-136024961D01*
X70352731Y-136043515D01*
X70359862Y-136054187D01*
X70359993Y-136056183D01*
X70358330Y-136057294D01*
X70357088Y-136056961D01*
X70350614Y-136052636D01*
X70284251Y-136031856D01*
X70213452Y-136052645D01*
X70206992Y-136056961D01*
X70204996Y-136057092D01*
X70203885Y-136055429D01*
X70204218Y-136054187D01*
X70211349Y-136043515D01*
X70215040Y-136024961D01*
X70215040Y-135325359D01*
X70211349Y-135306805D01*
X70200953Y-135291247D01*
X70185395Y-135280851D01*
X70166841Y-135277160D01*
X69747239Y-135277160D01*
X69728685Y-135280851D01*
X69713127Y-135291247D01*
X69705996Y-135301919D01*
X69704202Y-135302804D01*
X69702539Y-135301693D01*
X69702371Y-135300418D01*
X69705607Y-135284149D01*
X69705020Y-135284032D01*
X69703516Y-135282713D01*
X69703501Y-135281472D01*
X69711726Y-135255210D01*
X69693120Y-135191834D01*
X69693592Y-135189891D01*
X69695511Y-135189327D01*
X69696702Y-135190160D01*
X69704596Y-135201975D01*
X69720324Y-135212480D01*
X69723495Y-135213793D01*
X69742239Y-135217520D01*
X70161841Y-135217520D01*
X70180585Y-135213793D01*
X70183756Y-135212480D01*
X70199495Y-135201964D01*
X70210000Y-135186236D01*
X70211313Y-135183065D01*
X70215040Y-135164321D01*
X70215040Y-134679520D01*
X70216040Y-134677788D01*
X70217040Y-134677520D01*
X70337040Y-134677520D01*
X70338772Y-134678520D01*
G37*
G36*
X66501462Y-135467839D02*
G01*
X66501462Y-135469839D01*
X66500059Y-135470812D01*
X66500053Y-135470813D01*
X66499724Y-135470840D01*
X63619396Y-135470840D01*
X63617664Y-135469840D01*
X63617664Y-135467840D01*
X63619396Y-135466840D01*
X66499730Y-135466839D01*
X66501462Y-135467839D01*
G37*
G36*
X66501456Y-133967840D02*
G01*
X66501456Y-133969840D01*
X66499724Y-133970840D01*
X63619390Y-133970841D01*
X63617658Y-133969841D01*
X63617658Y-133967841D01*
X63619061Y-133966868D01*
X63619067Y-133966867D01*
X63619396Y-133966840D01*
X66499724Y-133966840D01*
X66501456Y-133967840D01*
G37*
G36*
X70206992Y-131442719D02*
G01*
X70213466Y-131447044D01*
X70279829Y-131467824D01*
X70350628Y-131447035D01*
X70357088Y-131442719D01*
X70359084Y-131442588D01*
X70360195Y-131444251D01*
X70359862Y-131445493D01*
X70352731Y-131456165D01*
X70349040Y-131474719D01*
X70349040Y-132174321D01*
X70352731Y-132192875D01*
X70359862Y-132203547D01*
X70359993Y-132205543D01*
X70358330Y-132206654D01*
X70357088Y-132206321D01*
X70350614Y-132201996D01*
X70284251Y-132181216D01*
X70213452Y-132202005D01*
X70206992Y-132206321D01*
X70204996Y-132206452D01*
X70203885Y-132204789D01*
X70204218Y-132203547D01*
X70211349Y-132192875D01*
X70215040Y-132174321D01*
X70215040Y-131474719D01*
X70211349Y-131456165D01*
X70204218Y-131445493D01*
X70204087Y-131443497D01*
X70205750Y-131442386D01*
X70206992Y-131442719D01*
G37*
G36*
X71708142Y-131217985D02*
G01*
X71707901Y-131219074D01*
X71678241Y-131273394D01*
X71683181Y-131342476D01*
X71724686Y-131397920D01*
X71789824Y-131422216D01*
X71798390Y-131422521D01*
X71800086Y-131423582D01*
X71800014Y-131425581D01*
X71798319Y-131426520D01*
X71697239Y-131426520D01*
X71678685Y-131430211D01*
X71663127Y-131440607D01*
X71652731Y-131456165D01*
X71649040Y-131474719D01*
X71649040Y-132174321D01*
X71652731Y-132192875D01*
X71659862Y-132203547D01*
X71659993Y-132205543D01*
X71658330Y-132206654D01*
X71657088Y-132206321D01*
X71650614Y-132201996D01*
X71584251Y-132181216D01*
X71513452Y-132202005D01*
X71506992Y-132206321D01*
X71504996Y-132206452D01*
X71503885Y-132204789D01*
X71504218Y-132203547D01*
X71511349Y-132192875D01*
X71515040Y-132174321D01*
X71515040Y-131474719D01*
X71511349Y-131456165D01*
X71500953Y-131440607D01*
X71485395Y-131430211D01*
X71466841Y-131426520D01*
X71086937Y-131426520D01*
X71085205Y-131425520D01*
X71085205Y-131423520D01*
X71086374Y-131422601D01*
X71153386Y-131402925D01*
X71198741Y-131350582D01*
X71208598Y-131282029D01*
X71180875Y-131221326D01*
X71181065Y-131219335D01*
X71182884Y-131218504D01*
X71183805Y-131218832D01*
X71230709Y-131250172D01*
X71302839Y-131264520D01*
X71582441Y-131264520D01*
X71654571Y-131250172D01*
X71705035Y-131216453D01*
X71707031Y-131216322D01*
X71708142Y-131217985D01*
G37*
G36*
X70856992Y-131442719D02*
G01*
X70863466Y-131447044D01*
X70929829Y-131467824D01*
X71000628Y-131447035D01*
X71007088Y-131442719D01*
X71009084Y-131442588D01*
X71010195Y-131444251D01*
X71009862Y-131445493D01*
X71002731Y-131456165D01*
X70999040Y-131474719D01*
X70999040Y-132174321D01*
X71002731Y-132192875D01*
X71009862Y-132203547D01*
X71009993Y-132205543D01*
X71008330Y-132206654D01*
X71007088Y-132206321D01*
X71000614Y-132201996D01*
X70934251Y-132181216D01*
X70863452Y-132202005D01*
X70856992Y-132206321D01*
X70854996Y-132206452D01*
X70853885Y-132204789D01*
X70854218Y-132203547D01*
X70861349Y-132192875D01*
X70865040Y-132174321D01*
X70865040Y-131474719D01*
X70861349Y-131456165D01*
X70854218Y-131445493D01*
X70854087Y-131443497D01*
X70855750Y-131442386D01*
X70856992Y-131442719D01*
G37*
M02*
