M48
; DRILL file {KiCad 5.1.10-88a1d61d58~90~ubuntu20.04.1} date Mon Dec 20 19:35:57 2021
; FORMAT={-:-/ absolute / metric / decimal}
; #@! TF.CreationDate,2021-12-20T19:35:57+01:00
; #@! TF.GenerationSoftware,Kicad,Pcbnew,5.1.10-88a1d61d58~90~ubuntu20.04.1
; #@! TF.FileFunction,Plated,1,4,PTH
FMAT,2
METRIC
T1C0.200
T2C1.000
T3C2.700
%
G90
G05
T1
X14.978Y-125.645
X14.978Y-128.645
X14.978Y-134.645
X14.978Y-136.645
X14.978Y-140.645
X14.978Y-142.645
X14.978Y-144.645
X14.978Y-146.645
X14.978Y-148.645
X14.978Y-160.645
X14.978Y-162.645
X14.978Y-166.645
X14.978Y-174.645
X14.978Y-176.645
X14.978Y-178.645
X14.978Y-180.645
X14.978Y-182.645
X14.978Y-184.645
X14.978Y-186.645
X14.978Y-188.645
X14.978Y-190.645
X15.978Y-192.645
X16.978Y-128.645
X16.978Y-134.645
X16.978Y-136.645
X16.978Y-138.645
X16.978Y-140.645
X16.978Y-142.645
X16.978Y-144.645
X16.978Y-146.645
X16.978Y-148.645
X16.978Y-158.645
X16.978Y-162.645
X16.978Y-172.645
X16.978Y-174.645
X16.978Y-176.645
X16.978Y-178.645
X16.978Y-180.645
X16.978Y-182.645
X16.978Y-184.645
X16.978Y-186.645
X17.12Y-169.862
X17.978Y-194.645
X18.778Y-172.148
X18.978Y-130.645
X18.978Y-132.645
X18.978Y-136.645
X18.978Y-138.645
X18.978Y-140.645
X18.978Y-142.645
X18.978Y-144.645
X18.978Y-146.645
X18.978Y-174.645
X18.978Y-176.645
X18.978Y-178.645
X18.978Y-180.645
X19.978Y-194.645
X20.978Y-128.645
X20.978Y-130.645
X20.978Y-132.645
X20.978Y-134.645
X20.978Y-142.645
X20.978Y-144.645
X20.978Y-176.645
X20.978Y-178.645
X20.978Y-180.645
X21.463Y-171.45
X21.628Y-179.745
X21.678Y-183.395
X21.828Y-168.578
X21.869Y-184.315
X21.958Y-169.558
X21.978Y-192.645
X21.978Y-194.645
X22.328Y-168.245
X22.666Y-173.557
X22.669Y-178.359
X22.853Y-168.545
X22.978Y-128.645
X22.978Y-130.645
X22.978Y-132.645
X22.978Y-134.645
X22.978Y-136.645
X22.978Y-138.645
X22.978Y-140.645
X22.978Y-148.645
X22.978Y-150.645
X22.978Y-152.645
X22.978Y-156.645
X22.978Y-158.645
X22.978Y-160.645
X22.978Y-162.645
X22.978Y-164.645
X22.987Y-183.959
X23.038Y-179.362
X23.178Y-170.945
X23.762Y-185.509
X23.828Y-165.025
X23.838Y-186.563
X23.978Y-190.645
X23.978Y-192.645
X23.978Y-194.645
X24.041Y-184.645
X24.041Y-185.864
X24.32Y-185.509
X24.39Y-174.581
X24.427Y-168.346
X24.453Y-175.97
X24.473Y-167.64
X24.506Y-177.55
X24.839Y-165.756
X24.945Y-178.528
X24.948Y-128.045
X24.978Y-128.645
X24.978Y-130.645
X24.978Y-132.645
X24.978Y-134.645
X24.978Y-136.645
X24.978Y-138.645
X24.978Y-140.645
X24.978Y-148.645
X24.978Y-150.645
X24.979Y-176.745
X25.044Y-184.874
X25.103Y-145.57
X25.203Y-183.371
X25.278Y-180.12
X25.297Y-179.517
X25.298Y-175.819
X25.4Y-162.179
X25.478Y-160.52
X25.487Y-165.708
X25.503Y-170.755
X25.553Y-145.17
X25.578Y-167.57
X25.738Y-163.075
X25.978Y-192.645
X25.978Y-194.645
X26.137Y-189.954
X26.303Y-175.345
X26.428Y-166.72
X26.428Y-167.57
X26.428Y-168.42
X26.428Y-177.27
X26.632Y-174.714
X26.683Y-182.778
X26.978Y-128.645
X26.978Y-130.645
X26.978Y-132.645
X26.978Y-134.645
X26.978Y-136.645
X26.978Y-138.645
X26.978Y-144.645
X26.978Y-148.645
X26.978Y-152.645
X26.978Y-154.645
X26.978Y-156.645
X26.978Y-158.645
X26.978Y-160.645
X27.022Y-179.074
X27.178Y-161.195
X27.278Y-165.87
X27.278Y-166.72
X27.278Y-167.57
X27.278Y-168.42
X27.278Y-169.27
X27.318Y-163.385
X27.488Y-128.045
X27.529Y-139.433
X27.534Y-172.491
X27.803Y-171.07
X27.978Y-192.645
X27.978Y-194.645
X28.076Y-182.736
X28.125Y-191.149
X28.128Y-165.87
X28.128Y-166.72
X28.128Y-167.57
X28.128Y-168.42
X28.128Y-169.27
X28.194Y-160.655
X28.403Y-173.37
X28.461Y-140.233
X28.478Y-146.82
X28.553Y-177.445
X28.575Y-136.144
X28.651Y-175.146
X28.745Y-177.993
X28.804Y-139.802
X28.804Y-156.896
X28.878Y-164.62
X28.978Y-132.645
X28.978Y-134.645
X28.978Y-150.645
X28.978Y-152.645
X28.978Y-158.645
X28.978Y-166.72
X28.978Y-167.57
X28.978Y-168.42
X29.058Y-173.914
X29.064Y-181.748
X29.082Y-183.742
X29.103Y-176.67
X29.137Y-170.695
X29.159Y-139.37
X29.178Y-142.47
X29.312Y-174.549
X29.497Y-160.607
X29.528Y-147.645
X29.537Y-170.028
X29.553Y-162.103
X29.638Y-142.92
X29.728Y-155.295
X29.778Y-176.72
X29.828Y-167.57
X29.845Y-164.211
X29.878Y-154.42
X29.978Y-190.645
X29.978Y-192.645
X29.978Y-194.645
X30.028Y-128.045
X30.052Y-180.761
X30.069Y-182.754
X30.123Y-184.784
X30.175Y-144.018
X30.228Y-151.245
X30.278Y-152.245
X30.278Y-173.27
X30.328Y-153.245
X30.353Y-174.17
X30.366Y-138.443
X30.467Y-174.815
X30.48Y-147.411
X30.734Y-165.379
X30.767Y-135.811
X30.943Y-141.327
X30.978Y-128.645
X30.978Y-130.645
X30.978Y-132.645
X30.978Y-158.645
X30.978Y-160.645
X30.978Y-162.645
X30.988Y-134.874
X31.039Y-178.371
X31.039Y-179.773
X31.057Y-181.766
X31.111Y-183.796
X31.115Y-166.37
X31.128Y-151.245
X31.128Y-152.245
X31.128Y-174.87
X31.129Y-185.789
X31.14Y-164.935
X31.191Y-165.824
X31.217Y-188.379
X31.547Y-174.422
X31.598Y-171.272
X31.681Y-167.884
X31.78Y-145.854
X31.793Y-140.477
X31.793Y-141.327
X31.793Y-142.177
X31.902Y-174.015
X31.978Y-151.245
X31.978Y-152.245
X31.978Y-192.645
X31.978Y-194.645
X32.018Y-159.025
X32.045Y-180.779
X32.094Y-147.109
X32.099Y-182.808
X32.117Y-184.802
X32.194Y-135.052
X32.258Y-173.761
X32.568Y-128.045
X32.603Y-173.495
X32.643Y-139.627
X32.643Y-140.477
X32.643Y-141.327
X32.643Y-142.177
X32.643Y-143.027
X32.703Y-188.37
X32.803Y-172.795
X32.928Y-161.498
X32.978Y-128.645
X32.978Y-130.645
X32.978Y-132.645
X32.978Y-162.645
X32.978Y-164.645
X33.087Y-181.82
X33.103Y-145.27
X33.105Y-183.814
X33.378Y-161.498
X33.396Y-149.177
X33.478Y-187.67
X33.493Y-139.627
X33.493Y-140.477
X33.493Y-141.327
X33.493Y-142.177
X33.493Y-143.027
X33.528Y-137.071
X33.678Y-188.575
X33.978Y-190.645
X33.978Y-192.645
X33.978Y-194.645
X34.093Y-182.826
X34.188Y-145.225
X34.343Y-140.477
X34.343Y-141.327
X34.343Y-142.177
X34.509Y-187.293
X34.582Y-134.544
X34.676Y-186.752
X34.678Y-144.745
X34.845Y-186.228
X34.978Y-128.645
X34.978Y-130.645
X34.978Y-148.645
X34.978Y-150.645
X34.978Y-157.645
X34.978Y-158.245
X34.978Y-158.845
X34.978Y-164.645
X34.978Y-166.645
X35.108Y-128.045
X35.193Y-141.327
X35.255Y-144.437
X35.478Y-160.895
X35.853Y-160.27
X35.928Y-179.995
X35.978Y-190.645
X35.978Y-192.645
X35.978Y-194.645
X36.278Y-180.495
X36.303Y-179.495
X36.353Y-175.195
X36.478Y-143.42
X36.503Y-139.72
X36.625Y-185.166
X36.628Y-184.395
X36.628Y-185.87
X36.906Y-182.994
X36.932Y-141.3
X36.97Y-133.998
X36.978Y-146.645
X36.978Y-148.645
X36.978Y-150.645
X36.978Y-168.645
X36.978Y-170.645
X36.978Y-172.645
X36.978Y-174.645
X36.978Y-140.17
X37.328Y-163.245
X37.328Y-167.31
X37.648Y-128.045
X37.846Y-175.438
X37.978Y-190.645
X37.978Y-192.645
X37.978Y-194.645
X38.036Y-134.823
X38.341Y-136.906
X38.478Y-163.245
X38.478Y-167.31
X38.516Y-141.736
X38.978Y-140.645
X38.978Y-144.645
X38.978Y-150.645
X38.978Y-168.645
X38.978Y-170.645
X38.978Y-172.645
X38.978Y-174.645
X39.11Y-145.739
X39.257Y-142.381
X39.378Y-138.195
X39.624Y-153.035
X39.624Y-154.432
X39.624Y-155.829
X39.624Y-157.226
X39.858Y-175.218
X39.978Y-161.945
X39.978Y-180.645
X39.978Y-188.645
X39.978Y-190.645
X39.978Y-192.645
X39.978Y-194.645
X40.188Y-128.045
X40.458Y-175.768
X40.978Y-128.645
X40.978Y-130.645
X40.978Y-132.645
X40.978Y-134.645
X40.978Y-136.645
X40.978Y-138.645
X40.978Y-140.645
X40.978Y-142.645
X40.978Y-144.645
X40.978Y-146.645
X40.978Y-148.645
X40.978Y-162.645
X40.978Y-164.645
X40.978Y-166.645
X40.978Y-168.645
X40.978Y-170.645
X40.978Y-172.645
X40.978Y-174.645
X41.403Y-161.37
X41.703Y-157.945
X41.703Y-158.545
X41.703Y-159.145
X41.703Y-159.745
X41.703Y-160.345
X41.978Y-178.645
X41.978Y-186.645
X41.978Y-188.645
X41.978Y-190.645
X41.978Y-192.645
X41.978Y-194.645
X42.203Y-158.245
X42.203Y-158.845
X42.203Y-159.445
X42.203Y-160.045
X42.503Y-147.525
X42.503Y-151.4
X42.728Y-128.045
X43.978Y-122.645
X43.978Y-124.645
X43.978Y-126.645
X43.978Y-128.645
X43.978Y-130.645
X43.978Y-132.645
X43.978Y-134.645
X43.978Y-148.645
X43.978Y-150.645
X43.978Y-152.645
X43.978Y-154.645
X43.978Y-156.645
X43.978Y-158.645
X44.463Y-137.96
X44.463Y-139.46
X44.463Y-140.96
X44.463Y-142.46
X44.463Y-143.96
X44.463Y-145.46
X44.463Y-146.96
X44.478Y-160.795
X44.478Y-162.295
X44.478Y-163.795
X44.478Y-165.295
X44.478Y-166.795
X44.478Y-168.295
X44.478Y-169.795
X44.478Y-183.645
X44.478Y-185.145
X44.478Y-186.645
X44.478Y-188.145
X44.478Y-189.645
X44.478Y-191.145
X44.478Y-192.645
X44.978Y-172.645
X44.978Y-174.645
X45.978Y-122.645
X45.978Y-124.645
X45.978Y-126.645
X45.978Y-128.645
X45.978Y-130.645
X45.978Y-132.645
X45.978Y-134.645
X45.978Y-148.645
X45.978Y-150.645
X45.978Y-152.645
X45.978Y-154.645
X45.978Y-156.645
X45.978Y-158.645
X45.978Y-194.645
X46.463Y-137.96
X46.463Y-139.46
X46.463Y-140.96
X46.463Y-142.46
X46.463Y-143.96
X46.463Y-145.46
X46.463Y-146.96
X46.478Y-160.795
X46.478Y-162.295
X46.478Y-163.795
X46.478Y-165.295
X46.478Y-166.795
X46.478Y-168.295
X46.478Y-169.795
X46.478Y-183.645
X46.478Y-185.145
X46.478Y-186.645
X46.478Y-188.145
X46.478Y-189.645
X46.478Y-191.145
X46.478Y-192.645
X46.978Y-172.645
X46.978Y-174.645
X47.978Y-122.645
X47.978Y-124.645
X47.978Y-126.645
X47.978Y-128.645
X47.978Y-130.645
X47.978Y-132.645
X47.978Y-134.645
X47.978Y-148.645
X47.978Y-150.645
X47.978Y-152.645
X47.978Y-154.645
X47.978Y-156.645
X47.978Y-158.645
X47.978Y-194.645
X48.463Y-137.96
X48.463Y-139.46
X48.463Y-140.96
X48.463Y-142.46
X48.463Y-143.96
X48.463Y-145.46
X48.463Y-146.96
X48.478Y-160.795
X48.478Y-162.295
X48.478Y-163.795
X48.478Y-165.295
X48.478Y-166.795
X48.478Y-168.295
X48.478Y-169.795
X48.478Y-183.645
X48.478Y-185.145
X48.478Y-186.645
X48.478Y-188.145
X48.478Y-189.645
X48.478Y-191.145
X48.478Y-192.645
X48.978Y-172.645
X48.978Y-174.645
X49.978Y-122.645
X49.978Y-124.645
X49.978Y-126.645
X49.978Y-128.645
X49.978Y-130.645
X49.978Y-132.645
X49.978Y-134.645
X49.978Y-148.645
X49.978Y-150.645
X49.978Y-152.645
X49.978Y-154.645
X49.978Y-156.645
X49.978Y-158.645
X49.978Y-194.645
X50.463Y-137.96
X50.463Y-139.46
X50.463Y-140.96
X50.463Y-142.46
X50.463Y-143.96
X50.463Y-145.46
X50.463Y-146.96
X50.478Y-160.795
X50.478Y-162.295
X50.478Y-163.795
X50.478Y-165.295
X50.478Y-166.795
X50.478Y-168.295
X50.478Y-169.795
X50.478Y-183.645
X50.478Y-185.145
X50.478Y-186.645
X50.478Y-188.145
X50.478Y-189.645
X50.478Y-191.145
X50.478Y-192.645
X50.978Y-172.645
X50.978Y-174.645
X51.978Y-122.645
X51.978Y-124.645
X51.978Y-126.645
X51.978Y-128.645
X51.978Y-130.645
X51.978Y-132.645
X51.978Y-134.645
X51.978Y-148.645
X51.978Y-150.645
X51.978Y-152.645
X51.978Y-154.645
X51.978Y-156.645
X51.978Y-158.645
X51.978Y-194.645
X52.463Y-137.96
X52.463Y-139.46
X52.463Y-140.96
X52.463Y-142.46
X52.463Y-143.96
X52.463Y-145.46
X52.463Y-146.96
X52.478Y-160.795
X52.478Y-162.295
X52.478Y-163.795
X52.478Y-165.295
X52.478Y-166.795
X52.478Y-168.295
X52.478Y-169.795
X52.478Y-183.645
X52.478Y-185.145
X52.478Y-186.645
X52.478Y-188.145
X52.478Y-189.645
X52.478Y-191.145
X52.478Y-192.645
X52.978Y-172.645
X52.978Y-174.645
X53.978Y-122.645
X53.978Y-124.645
X53.978Y-126.645
X53.978Y-128.645
X53.978Y-130.645
X53.978Y-132.645
X53.978Y-134.645
X53.978Y-148.645
X53.978Y-150.645
X53.978Y-154.645
X53.978Y-156.645
X53.978Y-158.645
X53.978Y-194.645
X54.115Y-152.507
X54.463Y-137.96
X54.463Y-139.46
X54.463Y-140.96
X54.463Y-142.46
X54.463Y-143.96
X54.463Y-145.46
X54.463Y-146.96
X54.478Y-160.795
X54.478Y-162.295
X54.478Y-163.795
X54.478Y-165.295
X54.478Y-166.795
X54.478Y-168.295
X54.478Y-169.795
X54.478Y-183.645
X54.478Y-185.145
X54.478Y-186.645
X54.478Y-188.145
X54.478Y-189.645
X54.478Y-191.145
X54.478Y-192.645
X54.978Y-172.645
X54.978Y-174.645
X55.978Y-122.645
X55.978Y-124.645
X55.978Y-126.645
X55.978Y-128.645
X55.978Y-130.645
X55.978Y-132.645
X55.978Y-134.645
X55.978Y-148.645
X55.978Y-150.645
X55.978Y-154.645
X55.978Y-156.645
X55.978Y-158.645
X55.978Y-194.645
X56.115Y-152.507
X56.463Y-137.96
X56.463Y-139.46
X56.463Y-140.96
X56.463Y-142.46
X56.463Y-143.96
X56.463Y-145.46
X56.463Y-146.96
X56.478Y-160.795
X56.478Y-162.295
X56.478Y-163.795
X56.478Y-165.295
X56.478Y-166.795
X56.478Y-168.295
X56.478Y-169.795
X56.478Y-183.645
X56.478Y-185.145
X56.478Y-186.645
X56.478Y-188.145
X56.478Y-189.645
X56.478Y-191.145
X56.478Y-192.645
X56.978Y-172.645
X56.978Y-174.645
X57.978Y-122.645
X57.978Y-124.645
X57.978Y-128.645
X57.978Y-130.645
X57.978Y-132.645
X57.978Y-134.645
X57.978Y-148.645
X57.978Y-150.645
X57.978Y-154.645
X57.978Y-156.645
X57.978Y-158.645
X57.978Y-194.645
X58.115Y-152.507
X58.463Y-137.96
X58.463Y-139.46
X58.463Y-140.96
X58.463Y-142.46
X58.463Y-143.96
X58.463Y-145.46
X58.463Y-146.96
X58.478Y-160.795
X58.478Y-162.295
X58.478Y-163.795
X58.478Y-165.295
X58.478Y-166.795
X58.478Y-168.295
X58.478Y-169.795
X58.478Y-183.645
X58.478Y-185.145
X58.478Y-186.645
X58.478Y-188.145
X58.478Y-189.645
X58.478Y-191.145
X58.478Y-192.645
X58.978Y-172.645
X58.978Y-174.645
X59.965Y-130.657
X59.978Y-122.645
X59.978Y-124.645
X59.978Y-126.645
X59.978Y-128.645
X59.978Y-132.645
X59.978Y-134.645
X59.978Y-148.645
X59.978Y-150.645
X59.978Y-152.645
X59.978Y-154.645
X59.978Y-156.645
X59.978Y-158.645
X59.978Y-194.645
X60.463Y-137.96
X60.463Y-139.46
X60.463Y-140.96
X60.463Y-142.46
X60.463Y-143.96
X60.463Y-145.46
X60.463Y-146.96
X60.478Y-160.795
X60.478Y-162.295
X60.478Y-163.795
X60.478Y-165.295
X60.478Y-166.795
X60.478Y-168.295
X60.478Y-169.795
X60.478Y-183.645
X60.478Y-185.145
X60.478Y-186.645
X60.478Y-188.145
X60.478Y-189.645
X60.478Y-191.145
X60.478Y-192.645
X60.978Y-172.645
X60.978Y-174.645
X61.965Y-132.657
X61.978Y-128.645
X61.978Y-130.645
X61.978Y-134.645
X61.978Y-148.645
X61.978Y-150.645
X61.978Y-152.645
X61.978Y-154.645
X61.978Y-156.645
X61.978Y-158.645
X61.978Y-194.645
X62.463Y-137.96
X62.463Y-139.46
X62.463Y-140.96
X62.463Y-142.46
X62.463Y-143.96
X62.463Y-145.46
X62.463Y-146.96
X62.478Y-122.395
X62.478Y-123.645
X62.478Y-124.895
X62.478Y-126.145
X62.478Y-160.795
X62.478Y-162.295
X62.478Y-163.795
X62.478Y-165.295
X62.478Y-166.795
X62.478Y-168.295
X62.478Y-169.795
X62.478Y-186.645
X62.478Y-188.145
X62.478Y-189.645
X62.478Y-191.145
X62.478Y-192.645
X62.978Y-172.645
X62.978Y-174.645
X63.978Y-128.645
X63.978Y-130.645
X63.978Y-148.645
X63.978Y-150.645
X63.978Y-152.645
X63.978Y-154.645
X63.978Y-194.645
X64.054Y-132.568
X64.054Y-178.275
X64.328Y-122.395
X64.328Y-123.645
X64.328Y-124.895
X64.328Y-126.145
X64.463Y-140.96
X64.463Y-142.46
X64.463Y-143.96
X64.463Y-145.46
X64.463Y-146.96
X64.478Y-163.795
X64.478Y-165.295
X64.478Y-166.795
X64.478Y-168.295
X64.478Y-169.795
X64.478Y-186.645
X64.478Y-188.145
X64.478Y-189.645
X64.478Y-191.145
X64.478Y-192.645
X64.978Y-172.645
X64.978Y-174.645
X65.978Y-128.645
X65.978Y-148.645
X65.978Y-150.645
X65.978Y-152.645
X65.978Y-194.645
X66.178Y-122.395
X66.178Y-123.645
X66.178Y-124.895
X66.178Y-126.145
X66.478Y-186.645
X66.478Y-188.145
X66.478Y-189.645
X66.478Y-191.145
X66.478Y-192.645
X67.559Y-153.035
X67.818Y-140.843
X67.899Y-163.119
X67.904Y-185.969
X67.92Y-140.284
X67.978Y-128.645
X67.978Y-144.645
X67.978Y-146.645
X67.978Y-148.645
X67.978Y-150.645
X67.978Y-152.645
X67.978Y-166.645
X67.978Y-168.645
X67.978Y-170.645
X67.978Y-172.645
X67.978Y-174.645
X67.978Y-188.645
X67.978Y-190.645
X67.978Y-192.645
X67.978Y-194.645
X68.028Y-122.395
X68.028Y-123.645
X68.028Y-126.145
X69.215Y-131.445
X69.329Y-182.22
X69.34Y-159.182
X69.391Y-136.271
X69.878Y-122.395
X69.878Y-123.645
X69.878Y-126.145
X69.978Y-128.645
X69.978Y-144.645
X69.978Y-146.645
X69.978Y-148.645
X69.978Y-150.645
X69.978Y-152.645
X69.978Y-188.645
X69.978Y-190.645
X69.978Y-192.645
X69.978Y-194.645
X70.777Y-153.759
X70.785Y-130.907
X71.728Y-122.395
X71.728Y-123.645
X71.728Y-126.145
X71.97Y-142.58
X71.978Y-128.645
X71.978Y-144.645
X71.978Y-146.645
X71.978Y-148.645
X71.978Y-150.645
X71.978Y-152.645
X71.978Y-168.645
X71.978Y-170.645
X71.978Y-172.645
X71.978Y-188.645
X71.978Y-190.645
X71.978Y-192.645
X71.978Y-194.645
X72.644Y-178.054
X72.771Y-135.89
X72.898Y-181.991
X73.061Y-185.974
X73.063Y-140.284
X73.685Y-158.775
X73.706Y-135.773
X73.812Y-163.124
X73.876Y-181.686
X73.97Y-138.58
X73.978Y-128.645
X73.978Y-186.645
X73.978Y-188.645
X73.978Y-190.645
X73.978Y-192.645
X73.978Y-194.645
X74.778Y-122.395
X74.778Y-123.645
X74.778Y-126.145
X74.948Y-136.075
X74.948Y-158.925
X74.953Y-181.785
X75.692Y-132.08
X75.692Y-136.906
X75.978Y-128.645
X75.978Y-140.645
X75.978Y-142.645
X75.978Y-144.645
X75.978Y-146.645
X75.978Y-148.645
X75.978Y-150.645
X75.978Y-152.645
X75.978Y-164.645
X75.978Y-166.645
X75.978Y-168.645
X75.978Y-170.645
X75.978Y-172.645
X75.978Y-174.645
X75.978Y-176.645
X75.978Y-186.645
X75.978Y-188.645
X75.978Y-190.645
X75.978Y-192.645
X75.978Y-194.645
X76.628Y-122.395
X76.628Y-123.645
X76.628Y-126.145
X77.978Y-128.645
X77.978Y-142.645
X77.978Y-144.645
X77.978Y-146.645
X77.978Y-148.645
X77.978Y-150.645
X77.978Y-152.645
X77.978Y-164.645
X77.978Y-166.645
X77.978Y-168.645
X77.978Y-170.645
X77.978Y-172.645
X77.978Y-174.645
X77.978Y-186.645
X77.978Y-188.645
X77.978Y-190.645
X77.978Y-192.645
X77.978Y-194.645
X78.478Y-122.395
X78.478Y-123.645
X78.478Y-124.895
X78.478Y-126.145
X79.978Y-128.645
X79.978Y-142.645
X79.978Y-144.645
X79.978Y-146.645
X79.978Y-148.645
X79.978Y-150.645
X79.978Y-152.645
X79.978Y-164.645
X79.978Y-166.645
X79.978Y-168.645
X79.978Y-170.645
X79.978Y-172.645
X79.978Y-174.645
X79.978Y-186.645
X79.978Y-188.645
X79.978Y-190.645
X79.978Y-192.645
X79.978Y-194.645
X80.328Y-122.395
X80.328Y-123.645
X80.328Y-124.895
X80.328Y-126.145
X81.978Y-122.645
X81.978Y-128.645
X81.978Y-142.645
X81.978Y-144.645
X81.978Y-146.645
X81.978Y-148.645
X81.978Y-150.645
X81.978Y-152.645
X81.978Y-164.645
X81.978Y-166.645
X81.978Y-168.645
X81.978Y-170.645
X81.978Y-172.645
X81.978Y-174.645
X81.978Y-186.645
X81.978Y-194.645
X83.978Y-142.645
X83.978Y-144.645
X83.978Y-146.645
X83.978Y-148.645
X83.978Y-150.645
X83.978Y-152.645
X83.978Y-164.645
X83.978Y-166.645
X83.978Y-168.645
X83.978Y-170.645
X83.978Y-172.645
X83.978Y-174.645
X83.978Y-186.645
X83.978Y-194.645
X85.978Y-122.645
X85.978Y-128.645
X85.978Y-142.645
X85.978Y-144.645
X85.978Y-146.645
X85.978Y-148.645
X85.978Y-150.645
X85.978Y-152.645
X85.978Y-164.645
X85.978Y-166.645
X85.978Y-168.645
X85.978Y-170.645
X85.978Y-172.645
X85.978Y-174.645
X85.978Y-186.645
X85.978Y-194.645
X87.978Y-124.645
X87.978Y-126.645
X87.978Y-128.645
X87.978Y-130.645
X87.978Y-132.645
X87.978Y-134.645
X87.978Y-136.645
X87.978Y-138.645
X87.978Y-140.645
X87.978Y-142.645
X87.978Y-144.645
X87.978Y-146.645
X87.978Y-148.645
X87.978Y-150.645
X87.978Y-152.645
X87.978Y-154.645
X87.978Y-156.645
X87.978Y-158.645
X87.978Y-160.645
X87.978Y-162.645
X87.978Y-164.645
X87.978Y-166.645
X87.978Y-168.645
X87.978Y-170.645
X87.978Y-172.645
X87.978Y-174.645
X87.978Y-176.645
X87.978Y-178.645
X87.978Y-180.645
X87.978Y-182.645
X87.978Y-184.645
X87.978Y-186.645
X87.978Y-188.645
X87.978Y-190.645
X87.978Y-192.645
T2
X15.803Y-130.525
X15.803Y-133.065
X15.803Y-135.605
X15.803Y-138.145
X15.803Y-151.47
X15.803Y-154.01
X15.803Y-156.55
X15.803Y-159.09
X15.803Y-161.63
X15.803Y-165.25
X15.803Y-167.79
X15.803Y-170.33
X15.803Y-172.87
X23.928Y-122.505
X23.928Y-125.045
X26.468Y-122.505
X26.468Y-125.045
X29.008Y-122.505
X29.008Y-125.045
X31.548Y-122.505
X31.548Y-125.045
X34.088Y-122.505
X34.088Y-125.045
X36.628Y-122.505
X36.628Y-125.045
X39.168Y-122.505
X39.168Y-125.045
X41.708Y-122.505
X41.708Y-125.045
X68.453Y-124.895
X70.993Y-124.895
X73.533Y-124.895
X76.073Y-124.895
T3
X18.978Y-125.645
X18.978Y-190.645
X83.978Y-125.645
X83.978Y-190.645
T0
M30
