G04 #@! TF.GenerationSoftware,KiCad,Pcbnew,5.1.10-88a1d61d58~90~ubuntu20.04.1*
G04 #@! TF.CreationDate,2021-12-20T19:36:00+01:00*
G04 #@! TF.ProjectId,eval_board_tmc6200-ta,6576616c-5f62-46f6-9172-645f746d6336,rev?*
G04 #@! TF.SameCoordinates,Original*
G04 #@! TF.FileFunction,Soldermask,Top*
G04 #@! TF.FilePolarity,Negative*
%FSLAX46Y46*%
G04 Gerber Fmt 4.6, Leading zero omitted, Abs format (unit mm)*
G04 Created by KiCad (PCBNEW 5.1.10-88a1d61d58~90~ubuntu20.04.1) date 2021-12-20 19:36:00*
%MOMM*%
%LPD*%
G01*
G04 APERTURE LIST*
%ADD10C,0.100000*%
%ADD11C,0.010000*%
%ADD12R,0.420000X0.700000*%
%ADD13R,0.800000X0.900000*%
%ADD14C,5.400000*%
%ADD15C,3.100000*%
%ADD16R,1.200000X4.700000*%
%ADD17O,1.700000X1.700000*%
%ADD18R,1.700000X1.700000*%
%ADD19R,0.850000X0.300000*%
%ADD20R,0.950000X0.300000*%
%ADD21R,0.900000X1.200000*%
G04 APERTURE END LIST*
D10*
G36*
X80728000Y-126645000D02*
G01*
X72478000Y-126645000D01*
X72478000Y-120645000D01*
X80728000Y-120645000D01*
X80728000Y-126645000D01*
G37*
X80728000Y-126645000D02*
X72478000Y-126645000D01*
X72478000Y-120645000D01*
X80728000Y-120645000D01*
X80728000Y-126645000D01*
G36*
X72228000Y-126645000D02*
G01*
X61978000Y-126645000D01*
X61978000Y-120645000D01*
X72228000Y-120645000D01*
X72228000Y-126645000D01*
G37*
X72228000Y-126645000D02*
X61978000Y-126645000D01*
X61978000Y-120645000D01*
X72228000Y-120645000D01*
X72228000Y-126645000D01*
D11*
G36*
X22728000Y-123145000D02*
G01*
X17228000Y-123145000D01*
X17228000Y-120645000D01*
X22728000Y-120645000D01*
X22728000Y-123145000D01*
G37*
X22728000Y-123145000D02*
X17228000Y-123145000D01*
X17228000Y-120645000D01*
X22728000Y-120645000D01*
X22728000Y-123145000D01*
D10*
G36*
X85771011Y-184995000D02*
G01*
X77007526Y-184995000D01*
X77007526Y-176995000D01*
X85771011Y-176995000D01*
X85771011Y-184995000D01*
G37*
X85771011Y-184995000D02*
X77007526Y-184995000D01*
X77007526Y-176995000D01*
X85771011Y-176995000D01*
X85771011Y-184995000D01*
G36*
X85786231Y-139295000D02*
G01*
X77022746Y-139295000D01*
X77022746Y-131295000D01*
X85786231Y-131295000D01*
X85786231Y-139295000D01*
G37*
X85786231Y-139295000D02*
X77022746Y-139295000D01*
X77022746Y-131295000D01*
X85786231Y-131295000D01*
X85786231Y-139295000D01*
G36*
X85766011Y-162145000D02*
G01*
X77002526Y-162145000D01*
X77002526Y-154145000D01*
X85766011Y-154145000D01*
X85766011Y-162145000D01*
G37*
X85766011Y-162145000D02*
X77002526Y-162145000D01*
X77002526Y-154145000D01*
X85766011Y-154145000D01*
X85766011Y-162145000D01*
G36*
G01*
X27428721Y-190212026D02*
X27782275Y-189858472D01*
G75*
G02*
X28100473Y-189858472I159099J-159099D01*
G01*
X28418671Y-190176670D01*
G75*
G02*
X28418671Y-190494868I-159099J-159099D01*
G01*
X28065117Y-190848422D01*
G75*
G02*
X27746919Y-190848422I-159099J159099D01*
G01*
X27428721Y-190530224D01*
G75*
G02*
X27428721Y-190212026I159099J159099D01*
G01*
G37*
G36*
G01*
X26332705Y-189116010D02*
X26686259Y-188762456D01*
G75*
G02*
X27004457Y-188762456I159099J-159099D01*
G01*
X27322655Y-189080654D01*
G75*
G02*
X27322655Y-189398852I-159099J-159099D01*
G01*
X26969101Y-189752406D01*
G75*
G02*
X26650903Y-189752406I-159099J159099D01*
G01*
X26332705Y-189434208D01*
G75*
G02*
X26332705Y-189116010I159099J159099D01*
G01*
G37*
G36*
G01*
X69302600Y-187830040D02*
X69302600Y-187460040D01*
G75*
G02*
X69437600Y-187325040I135000J0D01*
G01*
X69707600Y-187325040D01*
G75*
G02*
X69842600Y-187460040I0J-135000D01*
G01*
X69842600Y-187830040D01*
G75*
G02*
X69707600Y-187965040I-135000J0D01*
G01*
X69437600Y-187965040D01*
G75*
G02*
X69302600Y-187830040I0J135000D01*
G01*
G37*
G36*
G01*
X68282600Y-187830040D02*
X68282600Y-187460040D01*
G75*
G02*
X68417600Y-187325040I135000J0D01*
G01*
X68687600Y-187325040D01*
G75*
G02*
X68822600Y-187460040I0J-135000D01*
G01*
X68822600Y-187830040D01*
G75*
G02*
X68687600Y-187965040I-135000J0D01*
G01*
X68417600Y-187965040D01*
G75*
G02*
X68282600Y-187830040I0J135000D01*
G01*
G37*
D12*
X69957040Y-135675160D03*
X70607040Y-135675160D03*
D10*
G36*
X71691065Y-139020064D02*
G01*
X71690127Y-139019779D01*
X71689262Y-139019317D01*
X71688504Y-139018696D01*
X71687883Y-139017938D01*
X71687421Y-139017073D01*
X71687136Y-139016135D01*
X71687040Y-139015160D01*
X71687040Y-138480160D01*
X71467040Y-138480160D01*
X71467040Y-139015160D01*
X71466944Y-139016135D01*
X71466659Y-139017073D01*
X71466197Y-139017938D01*
X71465576Y-139018696D01*
X71464818Y-139019317D01*
X71463953Y-139019779D01*
X71463015Y-139020064D01*
X71462040Y-139020160D01*
X71042040Y-139020160D01*
X71041065Y-139020064D01*
X71040127Y-139019779D01*
X71039262Y-139019317D01*
X71038504Y-139018696D01*
X71037883Y-139017938D01*
X71037421Y-139017073D01*
X71037136Y-139016135D01*
X71037040Y-139015160D01*
X71037040Y-138480160D01*
X70817040Y-138480160D01*
X70817040Y-139015160D01*
X70816944Y-139016135D01*
X70816659Y-139017073D01*
X70816197Y-139017938D01*
X70815576Y-139018696D01*
X70814818Y-139019317D01*
X70813953Y-139019779D01*
X70813015Y-139020064D01*
X70812040Y-139020160D01*
X70392040Y-139020160D01*
X70391065Y-139020064D01*
X70390127Y-139019779D01*
X70389262Y-139019317D01*
X70388504Y-139018696D01*
X70387883Y-139017938D01*
X70387421Y-139017073D01*
X70387136Y-139016135D01*
X70387040Y-139015160D01*
X70387040Y-138480160D01*
X70167040Y-138480160D01*
X70167040Y-139015160D01*
X70166944Y-139016135D01*
X70166659Y-139017073D01*
X70166197Y-139017938D01*
X70165576Y-139018696D01*
X70164818Y-139019317D01*
X70163953Y-139019779D01*
X70163015Y-139020064D01*
X70162040Y-139020160D01*
X69742040Y-139020160D01*
X69741065Y-139020064D01*
X69740127Y-139019779D01*
X69739262Y-139019317D01*
X69738504Y-139018696D01*
X69737883Y-139017938D01*
X69737421Y-139017073D01*
X69737136Y-139016135D01*
X69737040Y-139015160D01*
X69737040Y-136765160D01*
X69737136Y-136764185D01*
X69737421Y-136763247D01*
X69737883Y-136762382D01*
X69738504Y-136761624D01*
X69739262Y-136761003D01*
X69740127Y-136760541D01*
X69741065Y-136760256D01*
X69742040Y-136760160D01*
X72112040Y-136760160D01*
X72113015Y-136760256D01*
X72113953Y-136760541D01*
X72114818Y-136761003D01*
X72115576Y-136761624D01*
X72116197Y-136762382D01*
X72116659Y-136763247D01*
X72116944Y-136764185D01*
X72117040Y-136765160D01*
X72117040Y-139015160D01*
X72116944Y-139016135D01*
X72116659Y-139017073D01*
X72116197Y-139017938D01*
X72115576Y-139018696D01*
X72114818Y-139019317D01*
X72113953Y-139019779D01*
X72113015Y-139020064D01*
X72112040Y-139020160D01*
X71692040Y-139020160D01*
X71691065Y-139020064D01*
G37*
D12*
X71257040Y-135675160D03*
X71907040Y-135675160D03*
X69957040Y-131824520D03*
X70607040Y-131824520D03*
D10*
G36*
X71691065Y-135169424D02*
G01*
X71690127Y-135169139D01*
X71689262Y-135168677D01*
X71688504Y-135168056D01*
X71687883Y-135167298D01*
X71687421Y-135166433D01*
X71687136Y-135165495D01*
X71687040Y-135164520D01*
X71687040Y-134629520D01*
X71467040Y-134629520D01*
X71467040Y-135164520D01*
X71466944Y-135165495D01*
X71466659Y-135166433D01*
X71466197Y-135167298D01*
X71465576Y-135168056D01*
X71464818Y-135168677D01*
X71463953Y-135169139D01*
X71463015Y-135169424D01*
X71462040Y-135169520D01*
X71042040Y-135169520D01*
X71041065Y-135169424D01*
X71040127Y-135169139D01*
X71039262Y-135168677D01*
X71038504Y-135168056D01*
X71037883Y-135167298D01*
X71037421Y-135166433D01*
X71037136Y-135165495D01*
X71037040Y-135164520D01*
X71037040Y-134629520D01*
X70817040Y-134629520D01*
X70817040Y-135164520D01*
X70816944Y-135165495D01*
X70816659Y-135166433D01*
X70816197Y-135167298D01*
X70815576Y-135168056D01*
X70814818Y-135168677D01*
X70813953Y-135169139D01*
X70813015Y-135169424D01*
X70812040Y-135169520D01*
X70392040Y-135169520D01*
X70391065Y-135169424D01*
X70390127Y-135169139D01*
X70389262Y-135168677D01*
X70388504Y-135168056D01*
X70387883Y-135167298D01*
X70387421Y-135166433D01*
X70387136Y-135165495D01*
X70387040Y-135164520D01*
X70387040Y-134629520D01*
X70167040Y-134629520D01*
X70167040Y-135164520D01*
X70166944Y-135165495D01*
X70166659Y-135166433D01*
X70166197Y-135167298D01*
X70165576Y-135168056D01*
X70164818Y-135168677D01*
X70163953Y-135169139D01*
X70163015Y-135169424D01*
X70162040Y-135169520D01*
X69742040Y-135169520D01*
X69741065Y-135169424D01*
X69740127Y-135169139D01*
X69739262Y-135168677D01*
X69738504Y-135168056D01*
X69737883Y-135167298D01*
X69737421Y-135166433D01*
X69737136Y-135165495D01*
X69737040Y-135164520D01*
X69737040Y-132914520D01*
X69737136Y-132913545D01*
X69737421Y-132912607D01*
X69737883Y-132911742D01*
X69738504Y-132910984D01*
X69739262Y-132910363D01*
X69740127Y-132909901D01*
X69741065Y-132909616D01*
X69742040Y-132909520D01*
X72112040Y-132909520D01*
X72113015Y-132909616D01*
X72113953Y-132909901D01*
X72114818Y-132910363D01*
X72115576Y-132910984D01*
X72116197Y-132911742D01*
X72116659Y-132912607D01*
X72116944Y-132913545D01*
X72117040Y-132914520D01*
X72117040Y-135164520D01*
X72116944Y-135165495D01*
X72116659Y-135166433D01*
X72116197Y-135167298D01*
X72115576Y-135168056D01*
X72114818Y-135168677D01*
X72113953Y-135169139D01*
X72113015Y-135169424D01*
X72112040Y-135169520D01*
X71692040Y-135169520D01*
X71691065Y-135169424D01*
G37*
D12*
X71257040Y-131824520D03*
X71907040Y-131824520D03*
X69957040Y-154675960D03*
X70607040Y-154675960D03*
D10*
G36*
X71691065Y-158020864D02*
G01*
X71690127Y-158020579D01*
X71689262Y-158020117D01*
X71688504Y-158019496D01*
X71687883Y-158018738D01*
X71687421Y-158017873D01*
X71687136Y-158016935D01*
X71687040Y-158015960D01*
X71687040Y-157480960D01*
X71467040Y-157480960D01*
X71467040Y-158015960D01*
X71466944Y-158016935D01*
X71466659Y-158017873D01*
X71466197Y-158018738D01*
X71465576Y-158019496D01*
X71464818Y-158020117D01*
X71463953Y-158020579D01*
X71463015Y-158020864D01*
X71462040Y-158020960D01*
X71042040Y-158020960D01*
X71041065Y-158020864D01*
X71040127Y-158020579D01*
X71039262Y-158020117D01*
X71038504Y-158019496D01*
X71037883Y-158018738D01*
X71037421Y-158017873D01*
X71037136Y-158016935D01*
X71037040Y-158015960D01*
X71037040Y-157480960D01*
X70817040Y-157480960D01*
X70817040Y-158015960D01*
X70816944Y-158016935D01*
X70816659Y-158017873D01*
X70816197Y-158018738D01*
X70815576Y-158019496D01*
X70814818Y-158020117D01*
X70813953Y-158020579D01*
X70813015Y-158020864D01*
X70812040Y-158020960D01*
X70392040Y-158020960D01*
X70391065Y-158020864D01*
X70390127Y-158020579D01*
X70389262Y-158020117D01*
X70388504Y-158019496D01*
X70387883Y-158018738D01*
X70387421Y-158017873D01*
X70387136Y-158016935D01*
X70387040Y-158015960D01*
X70387040Y-157480960D01*
X70167040Y-157480960D01*
X70167040Y-158015960D01*
X70166944Y-158016935D01*
X70166659Y-158017873D01*
X70166197Y-158018738D01*
X70165576Y-158019496D01*
X70164818Y-158020117D01*
X70163953Y-158020579D01*
X70163015Y-158020864D01*
X70162040Y-158020960D01*
X69742040Y-158020960D01*
X69741065Y-158020864D01*
X69740127Y-158020579D01*
X69739262Y-158020117D01*
X69738504Y-158019496D01*
X69737883Y-158018738D01*
X69737421Y-158017873D01*
X69737136Y-158016935D01*
X69737040Y-158015960D01*
X69737040Y-155765960D01*
X69737136Y-155764985D01*
X69737421Y-155764047D01*
X69737883Y-155763182D01*
X69738504Y-155762424D01*
X69739262Y-155761803D01*
X69740127Y-155761341D01*
X69741065Y-155761056D01*
X69742040Y-155760960D01*
X72112040Y-155760960D01*
X72113015Y-155761056D01*
X72113953Y-155761341D01*
X72114818Y-155761803D01*
X72115576Y-155762424D01*
X72116197Y-155763182D01*
X72116659Y-155764047D01*
X72116944Y-155764985D01*
X72117040Y-155765960D01*
X72117040Y-158015960D01*
X72116944Y-158016935D01*
X72116659Y-158017873D01*
X72116197Y-158018738D01*
X72115576Y-158019496D01*
X72114818Y-158020117D01*
X72113953Y-158020579D01*
X72113015Y-158020864D01*
X72112040Y-158020960D01*
X71692040Y-158020960D01*
X71691065Y-158020864D01*
G37*
D12*
X71257040Y-154675960D03*
X71907040Y-154675960D03*
X69957040Y-158525000D03*
X70607040Y-158525000D03*
D10*
G36*
X71691065Y-161869904D02*
G01*
X71690127Y-161869619D01*
X71689262Y-161869157D01*
X71688504Y-161868536D01*
X71687883Y-161867778D01*
X71687421Y-161866913D01*
X71687136Y-161865975D01*
X71687040Y-161865000D01*
X71687040Y-161330000D01*
X71467040Y-161330000D01*
X71467040Y-161865000D01*
X71466944Y-161865975D01*
X71466659Y-161866913D01*
X71466197Y-161867778D01*
X71465576Y-161868536D01*
X71464818Y-161869157D01*
X71463953Y-161869619D01*
X71463015Y-161869904D01*
X71462040Y-161870000D01*
X71042040Y-161870000D01*
X71041065Y-161869904D01*
X71040127Y-161869619D01*
X71039262Y-161869157D01*
X71038504Y-161868536D01*
X71037883Y-161867778D01*
X71037421Y-161866913D01*
X71037136Y-161865975D01*
X71037040Y-161865000D01*
X71037040Y-161330000D01*
X70817040Y-161330000D01*
X70817040Y-161865000D01*
X70816944Y-161865975D01*
X70816659Y-161866913D01*
X70816197Y-161867778D01*
X70815576Y-161868536D01*
X70814818Y-161869157D01*
X70813953Y-161869619D01*
X70813015Y-161869904D01*
X70812040Y-161870000D01*
X70392040Y-161870000D01*
X70391065Y-161869904D01*
X70390127Y-161869619D01*
X70389262Y-161869157D01*
X70388504Y-161868536D01*
X70387883Y-161867778D01*
X70387421Y-161866913D01*
X70387136Y-161865975D01*
X70387040Y-161865000D01*
X70387040Y-161330000D01*
X70167040Y-161330000D01*
X70167040Y-161865000D01*
X70166944Y-161865975D01*
X70166659Y-161866913D01*
X70166197Y-161867778D01*
X70165576Y-161868536D01*
X70164818Y-161869157D01*
X70163953Y-161869619D01*
X70163015Y-161869904D01*
X70162040Y-161870000D01*
X69742040Y-161870000D01*
X69741065Y-161869904D01*
X69740127Y-161869619D01*
X69739262Y-161869157D01*
X69738504Y-161868536D01*
X69737883Y-161867778D01*
X69737421Y-161866913D01*
X69737136Y-161865975D01*
X69737040Y-161865000D01*
X69737040Y-159615000D01*
X69737136Y-159614025D01*
X69737421Y-159613087D01*
X69737883Y-159612222D01*
X69738504Y-159611464D01*
X69739262Y-159610843D01*
X69740127Y-159610381D01*
X69741065Y-159610096D01*
X69742040Y-159610000D01*
X72112040Y-159610000D01*
X72113015Y-159610096D01*
X72113953Y-159610381D01*
X72114818Y-159610843D01*
X72115576Y-159611464D01*
X72116197Y-159612222D01*
X72116659Y-159613087D01*
X72116944Y-159614025D01*
X72117040Y-159615000D01*
X72117040Y-161865000D01*
X72116944Y-161865975D01*
X72116659Y-161866913D01*
X72116197Y-161867778D01*
X72115576Y-161868536D01*
X72114818Y-161869157D01*
X72113953Y-161869619D01*
X72113015Y-161869904D01*
X72112040Y-161870000D01*
X71692040Y-161870000D01*
X71691065Y-161869904D01*
G37*
D12*
X71257040Y-158525000D03*
X71907040Y-158525000D03*
X69957040Y-177524200D03*
X70607040Y-177524200D03*
D10*
G36*
X71691065Y-180869104D02*
G01*
X71690127Y-180868819D01*
X71689262Y-180868357D01*
X71688504Y-180867736D01*
X71687883Y-180866978D01*
X71687421Y-180866113D01*
X71687136Y-180865175D01*
X71687040Y-180864200D01*
X71687040Y-180329200D01*
X71467040Y-180329200D01*
X71467040Y-180864200D01*
X71466944Y-180865175D01*
X71466659Y-180866113D01*
X71466197Y-180866978D01*
X71465576Y-180867736D01*
X71464818Y-180868357D01*
X71463953Y-180868819D01*
X71463015Y-180869104D01*
X71462040Y-180869200D01*
X71042040Y-180869200D01*
X71041065Y-180869104D01*
X71040127Y-180868819D01*
X71039262Y-180868357D01*
X71038504Y-180867736D01*
X71037883Y-180866978D01*
X71037421Y-180866113D01*
X71037136Y-180865175D01*
X71037040Y-180864200D01*
X71037040Y-180329200D01*
X70817040Y-180329200D01*
X70817040Y-180864200D01*
X70816944Y-180865175D01*
X70816659Y-180866113D01*
X70816197Y-180866978D01*
X70815576Y-180867736D01*
X70814818Y-180868357D01*
X70813953Y-180868819D01*
X70813015Y-180869104D01*
X70812040Y-180869200D01*
X70392040Y-180869200D01*
X70391065Y-180869104D01*
X70390127Y-180868819D01*
X70389262Y-180868357D01*
X70388504Y-180867736D01*
X70387883Y-180866978D01*
X70387421Y-180866113D01*
X70387136Y-180865175D01*
X70387040Y-180864200D01*
X70387040Y-180329200D01*
X70167040Y-180329200D01*
X70167040Y-180864200D01*
X70166944Y-180865175D01*
X70166659Y-180866113D01*
X70166197Y-180866978D01*
X70165576Y-180867736D01*
X70164818Y-180868357D01*
X70163953Y-180868819D01*
X70163015Y-180869104D01*
X70162040Y-180869200D01*
X69742040Y-180869200D01*
X69741065Y-180869104D01*
X69740127Y-180868819D01*
X69739262Y-180868357D01*
X69738504Y-180867736D01*
X69737883Y-180866978D01*
X69737421Y-180866113D01*
X69737136Y-180865175D01*
X69737040Y-180864200D01*
X69737040Y-178614200D01*
X69737136Y-178613225D01*
X69737421Y-178612287D01*
X69737883Y-178611422D01*
X69738504Y-178610664D01*
X69739262Y-178610043D01*
X69740127Y-178609581D01*
X69741065Y-178609296D01*
X69742040Y-178609200D01*
X72112040Y-178609200D01*
X72113015Y-178609296D01*
X72113953Y-178609581D01*
X72114818Y-178610043D01*
X72115576Y-178610664D01*
X72116197Y-178611422D01*
X72116659Y-178612287D01*
X72116944Y-178613225D01*
X72117040Y-178614200D01*
X72117040Y-180864200D01*
X72116944Y-180865175D01*
X72116659Y-180866113D01*
X72116197Y-180866978D01*
X72115576Y-180867736D01*
X72114818Y-180868357D01*
X72113953Y-180868819D01*
X72113015Y-180869104D01*
X72112040Y-180869200D01*
X71692040Y-180869200D01*
X71691065Y-180869104D01*
G37*
D12*
X71257040Y-177524200D03*
X71907040Y-177524200D03*
X69957040Y-181374840D03*
X70607040Y-181374840D03*
D10*
G36*
X71691065Y-184719744D02*
G01*
X71690127Y-184719459D01*
X71689262Y-184718997D01*
X71688504Y-184718376D01*
X71687883Y-184717618D01*
X71687421Y-184716753D01*
X71687136Y-184715815D01*
X71687040Y-184714840D01*
X71687040Y-184179840D01*
X71467040Y-184179840D01*
X71467040Y-184714840D01*
X71466944Y-184715815D01*
X71466659Y-184716753D01*
X71466197Y-184717618D01*
X71465576Y-184718376D01*
X71464818Y-184718997D01*
X71463953Y-184719459D01*
X71463015Y-184719744D01*
X71462040Y-184719840D01*
X71042040Y-184719840D01*
X71041065Y-184719744D01*
X71040127Y-184719459D01*
X71039262Y-184718997D01*
X71038504Y-184718376D01*
X71037883Y-184717618D01*
X71037421Y-184716753D01*
X71037136Y-184715815D01*
X71037040Y-184714840D01*
X71037040Y-184179840D01*
X70817040Y-184179840D01*
X70817040Y-184714840D01*
X70816944Y-184715815D01*
X70816659Y-184716753D01*
X70816197Y-184717618D01*
X70815576Y-184718376D01*
X70814818Y-184718997D01*
X70813953Y-184719459D01*
X70813015Y-184719744D01*
X70812040Y-184719840D01*
X70392040Y-184719840D01*
X70391065Y-184719744D01*
X70390127Y-184719459D01*
X70389262Y-184718997D01*
X70388504Y-184718376D01*
X70387883Y-184717618D01*
X70387421Y-184716753D01*
X70387136Y-184715815D01*
X70387040Y-184714840D01*
X70387040Y-184179840D01*
X70167040Y-184179840D01*
X70167040Y-184714840D01*
X70166944Y-184715815D01*
X70166659Y-184716753D01*
X70166197Y-184717618D01*
X70165576Y-184718376D01*
X70164818Y-184718997D01*
X70163953Y-184719459D01*
X70163015Y-184719744D01*
X70162040Y-184719840D01*
X69742040Y-184719840D01*
X69741065Y-184719744D01*
X69740127Y-184719459D01*
X69739262Y-184718997D01*
X69738504Y-184718376D01*
X69737883Y-184717618D01*
X69737421Y-184716753D01*
X69737136Y-184715815D01*
X69737040Y-184714840D01*
X69737040Y-182464840D01*
X69737136Y-182463865D01*
X69737421Y-182462927D01*
X69737883Y-182462062D01*
X69738504Y-182461304D01*
X69739262Y-182460683D01*
X69740127Y-182460221D01*
X69741065Y-182459936D01*
X69742040Y-182459840D01*
X72112040Y-182459840D01*
X72113015Y-182459936D01*
X72113953Y-182460221D01*
X72114818Y-182460683D01*
X72115576Y-182461304D01*
X72116197Y-182462062D01*
X72116659Y-182462927D01*
X72116944Y-182463865D01*
X72117040Y-182464840D01*
X72117040Y-184714840D01*
X72116944Y-184715815D01*
X72116659Y-184716753D01*
X72116197Y-184717618D01*
X72115576Y-184718376D01*
X72114818Y-184718997D01*
X72113953Y-184719459D01*
X72113015Y-184719744D01*
X72112040Y-184719840D01*
X71692040Y-184719840D01*
X71691065Y-184719744D01*
G37*
D12*
X71257040Y-181374840D03*
X71907040Y-181374840D03*
G36*
G01*
X19315400Y-183280900D02*
X19315400Y-182910900D01*
G75*
G02*
X19450400Y-182775900I135000J0D01*
G01*
X19720400Y-182775900D01*
G75*
G02*
X19855400Y-182910900I0J-135000D01*
G01*
X19855400Y-183280900D01*
G75*
G02*
X19720400Y-183415900I-135000J0D01*
G01*
X19450400Y-183415900D01*
G75*
G02*
X19315400Y-183280900I0J135000D01*
G01*
G37*
G36*
G01*
X18295400Y-183280900D02*
X18295400Y-182910900D01*
G75*
G02*
X18430400Y-182775900I135000J0D01*
G01*
X18700400Y-182775900D01*
G75*
G02*
X18835400Y-182910900I0J-135000D01*
G01*
X18835400Y-183280900D01*
G75*
G02*
X18700400Y-183415900I-135000J0D01*
G01*
X18430400Y-183415900D01*
G75*
G02*
X18295400Y-183280900I0J135000D01*
G01*
G37*
D10*
G36*
X36458805Y-145491149D02*
G01*
X36069896Y-145102240D01*
X36070322Y-145101814D01*
X36052973Y-145084466D01*
X36021846Y-145046536D01*
X35994585Y-145005738D01*
X35971455Y-144962464D01*
X35952677Y-144917132D01*
X35938434Y-144870177D01*
X35928861Y-144822052D01*
X35924052Y-144773221D01*
X35924052Y-144724152D01*
X35928861Y-144675322D01*
X35938434Y-144627197D01*
X35952677Y-144580242D01*
X35971455Y-144534909D01*
X35994585Y-144491635D01*
X36021846Y-144450837D01*
X36052973Y-144412907D01*
X36070322Y-144395559D01*
X36069896Y-144395133D01*
X36423449Y-144041580D01*
X36423875Y-144042006D01*
X36441223Y-144024657D01*
X36479153Y-143993530D01*
X36519951Y-143966269D01*
X36563225Y-143943139D01*
X36608558Y-143924361D01*
X36655513Y-143910118D01*
X36703638Y-143900545D01*
X36752468Y-143895736D01*
X36801537Y-143895736D01*
X36850368Y-143900545D01*
X36898493Y-143910118D01*
X36945448Y-143924361D01*
X36990780Y-143943139D01*
X37034054Y-143966269D01*
X37074852Y-143993530D01*
X37112782Y-144024657D01*
X37130130Y-144042006D01*
X37130556Y-144041580D01*
X37519465Y-144430489D01*
X36458805Y-145491149D01*
G37*
G36*
X36635582Y-145667926D02*
G01*
X37696242Y-144607266D01*
X38403348Y-145314372D01*
X37342688Y-146375032D01*
X36635582Y-145667926D01*
G37*
G36*
X38968608Y-145880484D02*
G01*
X38985957Y-145897832D01*
X39017084Y-145935762D01*
X39044345Y-145976560D01*
X39067475Y-146019834D01*
X39086253Y-146065166D01*
X39100496Y-146112121D01*
X39110069Y-146160246D01*
X39114878Y-146209077D01*
X39114878Y-146258146D01*
X39110069Y-146306976D01*
X39100496Y-146355101D01*
X39086253Y-146402056D01*
X39067475Y-146447389D01*
X39044345Y-146490663D01*
X39017084Y-146531461D01*
X38985957Y-146569391D01*
X38968608Y-146586739D01*
X38969034Y-146587165D01*
X38615481Y-146940718D01*
X38615055Y-146940292D01*
X38597707Y-146957641D01*
X38559777Y-146988768D01*
X38518979Y-147016029D01*
X38475705Y-147039159D01*
X38430372Y-147057937D01*
X38383417Y-147072180D01*
X38335292Y-147081753D01*
X38286462Y-147086562D01*
X38237393Y-147086562D01*
X38188562Y-147081753D01*
X38140437Y-147072180D01*
X38093482Y-147057937D01*
X38048150Y-147039159D01*
X38004876Y-147016029D01*
X37964078Y-146988768D01*
X37926148Y-146957641D01*
X37908800Y-146940292D01*
X37908374Y-146940718D01*
X37519465Y-146551809D01*
X38580125Y-145491149D01*
X38969034Y-145880058D01*
X38968608Y-145880484D01*
G37*
G36*
G01*
X57861600Y-179757500D02*
X48754400Y-179757500D01*
G75*
G02*
X48508000Y-179511100I0J246400D01*
G01*
X48508000Y-171203900D01*
G75*
G02*
X48754400Y-170957500I246400J0D01*
G01*
X57861600Y-170957500D01*
G75*
G02*
X58108000Y-171203900I0J-246400D01*
G01*
X58108000Y-179511100D01*
G75*
G02*
X57861600Y-179757500I-246400J0D01*
G01*
G37*
G36*
G01*
X57858003Y-193257500D02*
X48757997Y-193257500D01*
G75*
G02*
X48508000Y-193007503I0J249997D01*
G01*
X48508000Y-184707497D01*
G75*
G02*
X48757997Y-184457500I249997J0D01*
G01*
X57858003Y-184457500D01*
G75*
G02*
X58108000Y-184707497I0J-249997D01*
G01*
X58108000Y-193007503D01*
G75*
G02*
X57858003Y-193257500I-249997J0D01*
G01*
G37*
D13*
X19888200Y-186318400D03*
X18938200Y-184318400D03*
X20838200Y-184318400D03*
D14*
X18978000Y-190645000D03*
D15*
X18978000Y-190645000D03*
G36*
G01*
X26706072Y-172527220D02*
X26444443Y-172265591D01*
G75*
G02*
X26444443Y-172074673I95459J95459D01*
G01*
X26635362Y-171883754D01*
G75*
G02*
X26826280Y-171883754I95459J-95459D01*
G01*
X27087909Y-172145383D01*
G75*
G02*
X27087909Y-172336301I-95459J-95459D01*
G01*
X26896990Y-172527220D01*
G75*
G02*
X26706072Y-172527220I-95459J95459D01*
G01*
G37*
G36*
G01*
X25984824Y-173248468D02*
X25723195Y-172986839D01*
G75*
G02*
X25723195Y-172795921I95459J95459D01*
G01*
X25914114Y-172605002D01*
G75*
G02*
X26105032Y-172605002I95459J-95459D01*
G01*
X26366661Y-172866631D01*
G75*
G02*
X26366661Y-173057549I-95459J-95459D01*
G01*
X26175742Y-173248468D01*
G75*
G02*
X25984824Y-173248468I-95459J95459D01*
G01*
G37*
G36*
G01*
X26264109Y-161044480D02*
X26002480Y-161306109D01*
G75*
G02*
X25811562Y-161306109I-95459J95459D01*
G01*
X25620643Y-161115190D01*
G75*
G02*
X25620643Y-160924272I95459J95459D01*
G01*
X25882272Y-160662643D01*
G75*
G02*
X26073190Y-160662643I95459J-95459D01*
G01*
X26264109Y-160853562D01*
G75*
G02*
X26264109Y-161044480I-95459J-95459D01*
G01*
G37*
G36*
G01*
X26985357Y-161765728D02*
X26723728Y-162027357D01*
G75*
G02*
X26532810Y-162027357I-95459J95459D01*
G01*
X26341891Y-161836438D01*
G75*
G02*
X26341891Y-161645520I95459J95459D01*
G01*
X26603520Y-161383891D01*
G75*
G02*
X26794438Y-161383891I95459J-95459D01*
G01*
X26985357Y-161574810D01*
G75*
G02*
X26985357Y-161765728I-95459J-95459D01*
G01*
G37*
G36*
G01*
X42688000Y-148265000D02*
X42318000Y-148265000D01*
G75*
G02*
X42183000Y-148130000I0J135000D01*
G01*
X42183000Y-147860000D01*
G75*
G02*
X42318000Y-147725000I135000J0D01*
G01*
X42688000Y-147725000D01*
G75*
G02*
X42823000Y-147860000I0J-135000D01*
G01*
X42823000Y-148130000D01*
G75*
G02*
X42688000Y-148265000I-135000J0D01*
G01*
G37*
G36*
G01*
X42688000Y-149285000D02*
X42318000Y-149285000D01*
G75*
G02*
X42183000Y-149150000I0J135000D01*
G01*
X42183000Y-148880000D01*
G75*
G02*
X42318000Y-148745000I135000J0D01*
G01*
X42688000Y-148745000D01*
G75*
G02*
X42823000Y-148880000I0J-135000D01*
G01*
X42823000Y-149150000D01*
G75*
G02*
X42688000Y-149285000I-135000J0D01*
G01*
G37*
G36*
G01*
X38663000Y-164010000D02*
X38293000Y-164010000D01*
G75*
G02*
X38158000Y-163875000I0J135000D01*
G01*
X38158000Y-163605000D01*
G75*
G02*
X38293000Y-163470000I135000J0D01*
G01*
X38663000Y-163470000D01*
G75*
G02*
X38798000Y-163605000I0J-135000D01*
G01*
X38798000Y-163875000D01*
G75*
G02*
X38663000Y-164010000I-135000J0D01*
G01*
G37*
G36*
G01*
X38663000Y-165030000D02*
X38293000Y-165030000D01*
G75*
G02*
X38158000Y-164895000I0J135000D01*
G01*
X38158000Y-164625000D01*
G75*
G02*
X38293000Y-164490000I135000J0D01*
G01*
X38663000Y-164490000D01*
G75*
G02*
X38798000Y-164625000I0J-135000D01*
G01*
X38798000Y-164895000D01*
G75*
G02*
X38663000Y-165030000I-135000J0D01*
G01*
G37*
G36*
G01*
X37513000Y-164010000D02*
X37143000Y-164010000D01*
G75*
G02*
X37008000Y-163875000I0J135000D01*
G01*
X37008000Y-163605000D01*
G75*
G02*
X37143000Y-163470000I135000J0D01*
G01*
X37513000Y-163470000D01*
G75*
G02*
X37648000Y-163605000I0J-135000D01*
G01*
X37648000Y-163875000D01*
G75*
G02*
X37513000Y-164010000I-135000J0D01*
G01*
G37*
G36*
G01*
X37513000Y-165030000D02*
X37143000Y-165030000D01*
G75*
G02*
X37008000Y-164895000I0J135000D01*
G01*
X37008000Y-164625000D01*
G75*
G02*
X37143000Y-164490000I135000J0D01*
G01*
X37513000Y-164490000D01*
G75*
G02*
X37648000Y-164625000I0J-135000D01*
G01*
X37648000Y-164895000D01*
G75*
G02*
X37513000Y-165030000I-135000J0D01*
G01*
G37*
G36*
G01*
X29228638Y-147121030D02*
X29490267Y-146859401D01*
G75*
G02*
X29681185Y-146859401I95459J-95459D01*
G01*
X29872104Y-147050320D01*
G75*
G02*
X29872104Y-147241238I-95459J-95459D01*
G01*
X29610475Y-147502867D01*
G75*
G02*
X29419557Y-147502867I-95459J95459D01*
G01*
X29228638Y-147311948D01*
G75*
G02*
X29228638Y-147121030I95459J95459D01*
G01*
G37*
G36*
G01*
X28507390Y-146399782D02*
X28769019Y-146138153D01*
G75*
G02*
X28959937Y-146138153I95459J-95459D01*
G01*
X29150856Y-146329072D01*
G75*
G02*
X29150856Y-146519990I-95459J-95459D01*
G01*
X28889227Y-146781619D01*
G75*
G02*
X28698309Y-146781619I-95459J95459D01*
G01*
X28507390Y-146590700D01*
G75*
G02*
X28507390Y-146399782I95459J95459D01*
G01*
G37*
G36*
G01*
X22152480Y-182658891D02*
X22414109Y-182920520D01*
G75*
G02*
X22414109Y-183111438I-95459J-95459D01*
G01*
X22223190Y-183302357D01*
G75*
G02*
X22032272Y-183302357I-95459J95459D01*
G01*
X21770643Y-183040728D01*
G75*
G02*
X21770643Y-182849810I95459J95459D01*
G01*
X21961562Y-182658891D01*
G75*
G02*
X22152480Y-182658891I95459J-95459D01*
G01*
G37*
G36*
G01*
X22873728Y-181937643D02*
X23135357Y-182199272D01*
G75*
G02*
X23135357Y-182390190I-95459J-95459D01*
G01*
X22944438Y-182581109D01*
G75*
G02*
X22753520Y-182581109I-95459J95459D01*
G01*
X22491891Y-182319480D01*
G75*
G02*
X22491891Y-182128562I95459J95459D01*
G01*
X22682810Y-181937643D01*
G75*
G02*
X22873728Y-181937643I95459J-95459D01*
G01*
G37*
G36*
G01*
X22414109Y-180269480D02*
X22152480Y-180531109D01*
G75*
G02*
X21961562Y-180531109I-95459J95459D01*
G01*
X21770643Y-180340190D01*
G75*
G02*
X21770643Y-180149272I95459J95459D01*
G01*
X22032272Y-179887643D01*
G75*
G02*
X22223190Y-179887643I95459J-95459D01*
G01*
X22414109Y-180078562D01*
G75*
G02*
X22414109Y-180269480I-95459J-95459D01*
G01*
G37*
G36*
G01*
X23135357Y-180990728D02*
X22873728Y-181252357D01*
G75*
G02*
X22682810Y-181252357I-95459J95459D01*
G01*
X22491891Y-181061438D01*
G75*
G02*
X22491891Y-180870520I95459J95459D01*
G01*
X22753520Y-180608891D01*
G75*
G02*
X22944438Y-180608891I95459J-95459D01*
G01*
X23135357Y-180799810D01*
G75*
G02*
X23135357Y-180990728I-95459J-95459D01*
G01*
G37*
G36*
G01*
X35828520Y-175981109D02*
X35566891Y-175719480D01*
G75*
G02*
X35566891Y-175528562I95459J95459D01*
G01*
X35757810Y-175337643D01*
G75*
G02*
X35948728Y-175337643I95459J-95459D01*
G01*
X36210357Y-175599272D01*
G75*
G02*
X36210357Y-175790190I-95459J-95459D01*
G01*
X36019438Y-175981109D01*
G75*
G02*
X35828520Y-175981109I-95459J95459D01*
G01*
G37*
G36*
G01*
X35107272Y-176702357D02*
X34845643Y-176440728D01*
G75*
G02*
X34845643Y-176249810I95459J95459D01*
G01*
X35036562Y-176058891D01*
G75*
G02*
X35227480Y-176058891I95459J-95459D01*
G01*
X35489109Y-176320520D01*
G75*
G02*
X35489109Y-176511438I-95459J-95459D01*
G01*
X35298190Y-176702357D01*
G75*
G02*
X35107272Y-176702357I-95459J95459D01*
G01*
G37*
G36*
G01*
X24518978Y-182960645D02*
X24780607Y-182699016D01*
G75*
G02*
X24971525Y-182699016I95459J-95459D01*
G01*
X25162444Y-182889935D01*
G75*
G02*
X25162444Y-183080853I-95459J-95459D01*
G01*
X24900815Y-183342482D01*
G75*
G02*
X24709897Y-183342482I-95459J95459D01*
G01*
X24518978Y-183151563D01*
G75*
G02*
X24518978Y-182960645I95459J95459D01*
G01*
G37*
G36*
G01*
X23797730Y-182239397D02*
X24059359Y-181977768D01*
G75*
G02*
X24250277Y-181977768I95459J-95459D01*
G01*
X24441196Y-182168687D01*
G75*
G02*
X24441196Y-182359605I-95459J-95459D01*
G01*
X24179567Y-182621234D01*
G75*
G02*
X23988649Y-182621234I-95459J95459D01*
G01*
X23797730Y-182430315D01*
G75*
G02*
X23797730Y-182239397I95459J95459D01*
G01*
G37*
G36*
G01*
X26781719Y-187578052D02*
X26392810Y-187189143D01*
G75*
G02*
X26392810Y-186906301I141421J141421D01*
G01*
X26675653Y-186623458D01*
G75*
G02*
X26958495Y-186623458I141421J-141421D01*
G01*
X27347404Y-187012367D01*
G75*
G02*
X27347404Y-187295209I-141421J-141421D01*
G01*
X27064561Y-187578052D01*
G75*
G02*
X26781719Y-187578052I-141421J141421D01*
G01*
G37*
G36*
G01*
X25614993Y-188744778D02*
X25226084Y-188355869D01*
G75*
G02*
X25226084Y-188073027I141421J141421D01*
G01*
X25508927Y-187790184D01*
G75*
G02*
X25791769Y-187790184I141421J-141421D01*
G01*
X26180678Y-188179093D01*
G75*
G02*
X26180678Y-188461935I-141421J-141421D01*
G01*
X25897835Y-188744778D01*
G75*
G02*
X25614993Y-188744778I-141421J141421D01*
G01*
G37*
G36*
G01*
X25332517Y-173883097D02*
X25088565Y-173639145D01*
G75*
G02*
X25088565Y-173430549I104298J104298D01*
G01*
X25297161Y-173221953D01*
G75*
G02*
X25505757Y-173221953I104298J-104298D01*
G01*
X25749709Y-173465905D01*
G75*
G02*
X25749709Y-173674501I-104298J-104298D01*
G01*
X25541113Y-173883097D01*
G75*
G02*
X25332517Y-173883097I-104298J104298D01*
G01*
G37*
G36*
G01*
X24646623Y-174568991D02*
X24402671Y-174325039D01*
G75*
G02*
X24402671Y-174116443I104298J104298D01*
G01*
X24611267Y-173907847D01*
G75*
G02*
X24819863Y-173907847I104298J-104298D01*
G01*
X25063815Y-174151799D01*
G75*
G02*
X25063815Y-174360395I-104298J-104298D01*
G01*
X24855219Y-174568991D01*
G75*
G02*
X24646623Y-174568991I-104298J104298D01*
G01*
G37*
G36*
G01*
X42675500Y-150240000D02*
X42330500Y-150240000D01*
G75*
G02*
X42183000Y-150092500I0J147500D01*
G01*
X42183000Y-149797500D01*
G75*
G02*
X42330500Y-149650000I147500J0D01*
G01*
X42675500Y-149650000D01*
G75*
G02*
X42823000Y-149797500I0J-147500D01*
G01*
X42823000Y-150092500D01*
G75*
G02*
X42675500Y-150240000I-147500J0D01*
G01*
G37*
G36*
G01*
X42675500Y-151210000D02*
X42330500Y-151210000D01*
G75*
G02*
X42183000Y-151062500I0J147500D01*
G01*
X42183000Y-150767500D01*
G75*
G02*
X42330500Y-150620000I147500J0D01*
G01*
X42675500Y-150620000D01*
G75*
G02*
X42823000Y-150767500I0J-147500D01*
G01*
X42823000Y-151062500D01*
G75*
G02*
X42675500Y-151210000I-147500J0D01*
G01*
G37*
G36*
G01*
X38650500Y-165930000D02*
X38305500Y-165930000D01*
G75*
G02*
X38158000Y-165782500I0J147500D01*
G01*
X38158000Y-165487500D01*
G75*
G02*
X38305500Y-165340000I147500J0D01*
G01*
X38650500Y-165340000D01*
G75*
G02*
X38798000Y-165487500I0J-147500D01*
G01*
X38798000Y-165782500D01*
G75*
G02*
X38650500Y-165930000I-147500J0D01*
G01*
G37*
G36*
G01*
X38650500Y-166900000D02*
X38305500Y-166900000D01*
G75*
G02*
X38158000Y-166752500I0J147500D01*
G01*
X38158000Y-166457500D01*
G75*
G02*
X38305500Y-166310000I147500J0D01*
G01*
X38650500Y-166310000D01*
G75*
G02*
X38798000Y-166457500I0J-147500D01*
G01*
X38798000Y-166752500D01*
G75*
G02*
X38650500Y-166900000I-147500J0D01*
G01*
G37*
D16*
X41258000Y-154970000D03*
X37948000Y-154970000D03*
D17*
X15803000Y-161630000D03*
X15803000Y-159090000D03*
X15803000Y-156550000D03*
X15803000Y-154010000D03*
D18*
X15803000Y-151470000D03*
G36*
G01*
X23751766Y-183049034D02*
X23490137Y-183310663D01*
G75*
G02*
X23299219Y-183310663I-95459J95459D01*
G01*
X23108300Y-183119744D01*
G75*
G02*
X23108300Y-182928826I95459J95459D01*
G01*
X23369929Y-182667197D01*
G75*
G02*
X23560847Y-182667197I95459J-95459D01*
G01*
X23751766Y-182858116D01*
G75*
G02*
X23751766Y-183049034I-95459J-95459D01*
G01*
G37*
G36*
G01*
X24473014Y-183770282D02*
X24211385Y-184031911D01*
G75*
G02*
X24020467Y-184031911I-95459J95459D01*
G01*
X23829548Y-183840992D01*
G75*
G02*
X23829548Y-183650074I95459J95459D01*
G01*
X24091177Y-183388445D01*
G75*
G02*
X24282095Y-183388445I95459J-95459D01*
G01*
X24473014Y-183579364D01*
G75*
G02*
X24473014Y-183770282I-95459J-95459D01*
G01*
G37*
G36*
G01*
X25130625Y-181670176D02*
X24868996Y-181931805D01*
G75*
G02*
X24678078Y-181931805I-95459J95459D01*
G01*
X24487159Y-181740886D01*
G75*
G02*
X24487159Y-181549968I95459J95459D01*
G01*
X24748788Y-181288339D01*
G75*
G02*
X24939706Y-181288339I95459J-95459D01*
G01*
X25130625Y-181479258D01*
G75*
G02*
X25130625Y-181670176I-95459J-95459D01*
G01*
G37*
G36*
G01*
X25851873Y-182391424D02*
X25590244Y-182653053D01*
G75*
G02*
X25399326Y-182653053I-95459J95459D01*
G01*
X25208407Y-182462134D01*
G75*
G02*
X25208407Y-182271216I95459J95459D01*
G01*
X25470036Y-182009587D01*
G75*
G02*
X25660954Y-182009587I95459J-95459D01*
G01*
X25851873Y-182200506D01*
G75*
G02*
X25851873Y-182391424I-95459J-95459D01*
G01*
G37*
G36*
G01*
X24780607Y-180648405D02*
X24518978Y-180386776D01*
G75*
G02*
X24518978Y-180195858I95459J95459D01*
G01*
X24709897Y-180004939D01*
G75*
G02*
X24900815Y-180004939I95459J-95459D01*
G01*
X25162444Y-180266568D01*
G75*
G02*
X25162444Y-180457486I-95459J-95459D01*
G01*
X24971525Y-180648405D01*
G75*
G02*
X24780607Y-180648405I-95459J95459D01*
G01*
G37*
G36*
G01*
X24059359Y-181369653D02*
X23797730Y-181108024D01*
G75*
G02*
X23797730Y-180917106I95459J95459D01*
G01*
X23988649Y-180726187D01*
G75*
G02*
X24179567Y-180726187I95459J-95459D01*
G01*
X24441196Y-180987816D01*
G75*
G02*
X24441196Y-181178734I-95459J-95459D01*
G01*
X24250277Y-181369653D01*
G75*
G02*
X24059359Y-181369653I-95459J95459D01*
G01*
G37*
G36*
G01*
X24444731Y-179605423D02*
X24183102Y-179343794D01*
G75*
G02*
X24183102Y-179152876I95459J95459D01*
G01*
X24374021Y-178961957D01*
G75*
G02*
X24564939Y-178961957I95459J-95459D01*
G01*
X24826568Y-179223586D01*
G75*
G02*
X24826568Y-179414504I-95459J-95459D01*
G01*
X24635649Y-179605423D01*
G75*
G02*
X24444731Y-179605423I-95459J95459D01*
G01*
G37*
G36*
G01*
X23723483Y-180326671D02*
X23461854Y-180065042D01*
G75*
G02*
X23461854Y-179874124I95459J95459D01*
G01*
X23652773Y-179683205D01*
G75*
G02*
X23843691Y-179683205I95459J-95459D01*
G01*
X24105320Y-179944834D01*
G75*
G02*
X24105320Y-180135752I-95459J-95459D01*
G01*
X23914401Y-180326671D01*
G75*
G02*
X23723483Y-180326671I-95459J95459D01*
G01*
G37*
G36*
G01*
X24179566Y-178491729D02*
X23917937Y-178230100D01*
G75*
G02*
X23917937Y-178039182I95459J95459D01*
G01*
X24108856Y-177848263D01*
G75*
G02*
X24299774Y-177848263I95459J-95459D01*
G01*
X24561403Y-178109892D01*
G75*
G02*
X24561403Y-178300810I-95459J-95459D01*
G01*
X24370484Y-178491729D01*
G75*
G02*
X24179566Y-178491729I-95459J95459D01*
G01*
G37*
G36*
G01*
X23458318Y-179212977D02*
X23196689Y-178951348D01*
G75*
G02*
X23196689Y-178760430I95459J95459D01*
G01*
X23387608Y-178569511D01*
G75*
G02*
X23578526Y-178569511I95459J-95459D01*
G01*
X23840155Y-178831140D01*
G75*
G02*
X23840155Y-179022058I-95459J-95459D01*
G01*
X23649236Y-179212977D01*
G75*
G02*
X23458318Y-179212977I-95459J95459D01*
G01*
G37*
G36*
G01*
X23808335Y-177484102D02*
X23546706Y-177222473D01*
G75*
G02*
X23546706Y-177031555I95459J95459D01*
G01*
X23737625Y-176840636D01*
G75*
G02*
X23928543Y-176840636I95459J-95459D01*
G01*
X24190172Y-177102265D01*
G75*
G02*
X24190172Y-177293183I-95459J-95459D01*
G01*
X23999253Y-177484102D01*
G75*
G02*
X23808335Y-177484102I-95459J95459D01*
G01*
G37*
G36*
G01*
X23087087Y-178205350D02*
X22825458Y-177943721D01*
G75*
G02*
X22825458Y-177752803I95459J95459D01*
G01*
X23016377Y-177561884D01*
G75*
G02*
X23207295Y-177561884I95459J-95459D01*
G01*
X23468924Y-177823513D01*
G75*
G02*
X23468924Y-178014431I-95459J-95459D01*
G01*
X23278005Y-178205350D01*
G75*
G02*
X23087087Y-178205350I-95459J95459D01*
G01*
G37*
G36*
G01*
X25777628Y-176122923D02*
X26039257Y-175861294D01*
G75*
G02*
X26230175Y-175861294I95459J-95459D01*
G01*
X26421094Y-176052213D01*
G75*
G02*
X26421094Y-176243131I-95459J-95459D01*
G01*
X26159465Y-176504760D01*
G75*
G02*
X25968547Y-176504760I-95459J95459D01*
G01*
X25777628Y-176313841D01*
G75*
G02*
X25777628Y-176122923I95459J95459D01*
G01*
G37*
G36*
G01*
X26498876Y-176844171D02*
X26760505Y-176582542D01*
G75*
G02*
X26951423Y-176582542I95459J-95459D01*
G01*
X27142342Y-176773461D01*
G75*
G02*
X27142342Y-176964379I-95459J-95459D01*
G01*
X26880713Y-177226008D01*
G75*
G02*
X26689795Y-177226008I-95459J95459D01*
G01*
X26498876Y-177035089D01*
G75*
G02*
X26498876Y-176844171I95459J95459D01*
G01*
G37*
G36*
G01*
X27566891Y-175845520D02*
X27828520Y-175583891D01*
G75*
G02*
X28019438Y-175583891I95459J-95459D01*
G01*
X28210357Y-175774810D01*
G75*
G02*
X28210357Y-175965728I-95459J-95459D01*
G01*
X27948728Y-176227357D01*
G75*
G02*
X27757810Y-176227357I-95459J95459D01*
G01*
X27566891Y-176036438D01*
G75*
G02*
X27566891Y-175845520I95459J95459D01*
G01*
G37*
G36*
G01*
X26845643Y-175124272D02*
X27107272Y-174862643D01*
G75*
G02*
X27298190Y-174862643I95459J-95459D01*
G01*
X27489109Y-175053562D01*
G75*
G02*
X27489109Y-175244480I-95459J-95459D01*
G01*
X27227480Y-175506109D01*
G75*
G02*
X27036562Y-175506109I-95459J95459D01*
G01*
X26845643Y-175315190D01*
G75*
G02*
X26845643Y-175124272I95459J95459D01*
G01*
G37*
D17*
X15803000Y-165250000D03*
X15803000Y-167790000D03*
X15803000Y-170330000D03*
D18*
X15803000Y-172870000D03*
D17*
X76073000Y-124895000D03*
X73533000Y-124895000D03*
X70993000Y-124895000D03*
D18*
X68453000Y-124895000D03*
D17*
X41708000Y-122505000D03*
X41708000Y-125045000D03*
X39168000Y-122505000D03*
X39168000Y-125045000D03*
X36628000Y-122505000D03*
X36628000Y-125045000D03*
X34088000Y-122505000D03*
X34088000Y-125045000D03*
X31548000Y-122505000D03*
X31548000Y-125045000D03*
X29008000Y-122505000D03*
X29008000Y-125045000D03*
X26468000Y-122505000D03*
X26468000Y-125045000D03*
X23928000Y-122505000D03*
D18*
X23928000Y-125045000D03*
G36*
G01*
X36173000Y-160955000D02*
X36543000Y-160955000D01*
G75*
G02*
X36678000Y-161090000I0J-135000D01*
G01*
X36678000Y-161360000D01*
G75*
G02*
X36543000Y-161495000I-135000J0D01*
G01*
X36173000Y-161495000D01*
G75*
G02*
X36038000Y-161360000I0J135000D01*
G01*
X36038000Y-161090000D01*
G75*
G02*
X36173000Y-160955000I135000J0D01*
G01*
G37*
G36*
G01*
X36173000Y-159935000D02*
X36543000Y-159935000D01*
G75*
G02*
X36678000Y-160070000I0J-135000D01*
G01*
X36678000Y-160340000D01*
G75*
G02*
X36543000Y-160475000I-135000J0D01*
G01*
X36173000Y-160475000D01*
G75*
G02*
X36038000Y-160340000I0J135000D01*
G01*
X36038000Y-160070000D01*
G75*
G02*
X36173000Y-159935000I135000J0D01*
G01*
G37*
G36*
G01*
X35338041Y-136641707D02*
X35599670Y-136380078D01*
G75*
G02*
X35790588Y-136380078I95459J-95459D01*
G01*
X35981507Y-136570997D01*
G75*
G02*
X35981507Y-136761915I-95459J-95459D01*
G01*
X35719878Y-137023544D01*
G75*
G02*
X35528960Y-137023544I-95459J95459D01*
G01*
X35338041Y-136832625D01*
G75*
G02*
X35338041Y-136641707I95459J95459D01*
G01*
G37*
G36*
G01*
X34616793Y-135920459D02*
X34878422Y-135658830D01*
G75*
G02*
X35069340Y-135658830I95459J-95459D01*
G01*
X35260259Y-135849749D01*
G75*
G02*
X35260259Y-136040667I-95459J-95459D01*
G01*
X34998630Y-136302296D01*
G75*
G02*
X34807712Y-136302296I-95459J95459D01*
G01*
X34616793Y-136111377D01*
G75*
G02*
X34616793Y-135920459I95459J95459D01*
G01*
G37*
G36*
G01*
X28783161Y-138006423D02*
X29044790Y-137744794D01*
G75*
G02*
X29235708Y-137744794I95459J-95459D01*
G01*
X29426627Y-137935713D01*
G75*
G02*
X29426627Y-138126631I-95459J-95459D01*
G01*
X29164998Y-138388260D01*
G75*
G02*
X28974080Y-138388260I-95459J95459D01*
G01*
X28783161Y-138197341D01*
G75*
G02*
X28783161Y-138006423I95459J95459D01*
G01*
G37*
G36*
G01*
X28061913Y-137285175D02*
X28323542Y-137023546D01*
G75*
G02*
X28514460Y-137023546I95459J-95459D01*
G01*
X28705379Y-137214465D01*
G75*
G02*
X28705379Y-137405383I-95459J-95459D01*
G01*
X28443750Y-137667012D01*
G75*
G02*
X28252832Y-137667012I-95459J95459D01*
G01*
X28061913Y-137476093D01*
G75*
G02*
X28061913Y-137285175I95459J95459D01*
G01*
G37*
G36*
G01*
X34838000Y-127520000D02*
X34838000Y-127150000D01*
G75*
G02*
X34973000Y-127015000I135000J0D01*
G01*
X35243000Y-127015000D01*
G75*
G02*
X35378000Y-127150000I0J-135000D01*
G01*
X35378000Y-127520000D01*
G75*
G02*
X35243000Y-127655000I-135000J0D01*
G01*
X34973000Y-127655000D01*
G75*
G02*
X34838000Y-127520000I0J135000D01*
G01*
G37*
G36*
G01*
X33818000Y-127520000D02*
X33818000Y-127150000D01*
G75*
G02*
X33953000Y-127015000I135000J0D01*
G01*
X34223000Y-127015000D01*
G75*
G02*
X34358000Y-127150000I0J-135000D01*
G01*
X34358000Y-127520000D01*
G75*
G02*
X34223000Y-127655000I-135000J0D01*
G01*
X33953000Y-127655000D01*
G75*
G02*
X33818000Y-127520000I0J135000D01*
G01*
G37*
G36*
G01*
X24678000Y-127520000D02*
X24678000Y-127150000D01*
G75*
G02*
X24813000Y-127015000I135000J0D01*
G01*
X25083000Y-127015000D01*
G75*
G02*
X25218000Y-127150000I0J-135000D01*
G01*
X25218000Y-127520000D01*
G75*
G02*
X25083000Y-127655000I-135000J0D01*
G01*
X24813000Y-127655000D01*
G75*
G02*
X24678000Y-127520000I0J135000D01*
G01*
G37*
G36*
G01*
X23658000Y-127520000D02*
X23658000Y-127150000D01*
G75*
G02*
X23793000Y-127015000I135000J0D01*
G01*
X24063000Y-127015000D01*
G75*
G02*
X24198000Y-127150000I0J-135000D01*
G01*
X24198000Y-127520000D01*
G75*
G02*
X24063000Y-127655000I-135000J0D01*
G01*
X23793000Y-127655000D01*
G75*
G02*
X23658000Y-127520000I0J135000D01*
G01*
G37*
G36*
G01*
X38029760Y-142470625D02*
X37768131Y-142208996D01*
G75*
G02*
X37768131Y-142018078I95459J95459D01*
G01*
X37959050Y-141827159D01*
G75*
G02*
X38149968Y-141827159I95459J-95459D01*
G01*
X38411597Y-142088788D01*
G75*
G02*
X38411597Y-142279706I-95459J-95459D01*
G01*
X38220678Y-142470625D01*
G75*
G02*
X38029760Y-142470625I-95459J95459D01*
G01*
G37*
G36*
G01*
X37308512Y-143191873D02*
X37046883Y-142930244D01*
G75*
G02*
X37046883Y-142739326I95459J95459D01*
G01*
X37237802Y-142548407D01*
G75*
G02*
X37428720Y-142548407I95459J-95459D01*
G01*
X37690349Y-142810036D01*
G75*
G02*
X37690349Y-143000954I-95459J-95459D01*
G01*
X37499430Y-143191873D01*
G75*
G02*
X37308512Y-143191873I-95459J95459D01*
G01*
G37*
G36*
G01*
X36045148Y-135934600D02*
X36306777Y-135672971D01*
G75*
G02*
X36497695Y-135672971I95459J-95459D01*
G01*
X36688614Y-135863890D01*
G75*
G02*
X36688614Y-136054808I-95459J-95459D01*
G01*
X36426985Y-136316437D01*
G75*
G02*
X36236067Y-136316437I-95459J95459D01*
G01*
X36045148Y-136125518D01*
G75*
G02*
X36045148Y-135934600I95459J95459D01*
G01*
G37*
G36*
G01*
X35323900Y-135213352D02*
X35585529Y-134951723D01*
G75*
G02*
X35776447Y-134951723I95459J-95459D01*
G01*
X35967366Y-135142642D01*
G75*
G02*
X35967366Y-135333560I-95459J-95459D01*
G01*
X35705737Y-135595189D01*
G75*
G02*
X35514819Y-135595189I-95459J95459D01*
G01*
X35323900Y-135404270D01*
G75*
G02*
X35323900Y-135213352I95459J95459D01*
G01*
G37*
G36*
G01*
X29172070Y-135022433D02*
X29433699Y-135284062D01*
G75*
G02*
X29433699Y-135474980I-95459J-95459D01*
G01*
X29242780Y-135665899D01*
G75*
G02*
X29051862Y-135665899I-95459J95459D01*
G01*
X28790233Y-135404270D01*
G75*
G02*
X28790233Y-135213352I95459J95459D01*
G01*
X28981152Y-135022433D01*
G75*
G02*
X29172070Y-135022433I95459J-95459D01*
G01*
G37*
G36*
G01*
X29893318Y-134301185D02*
X30154947Y-134562814D01*
G75*
G02*
X30154947Y-134753732I-95459J-95459D01*
G01*
X29964028Y-134944651D01*
G75*
G02*
X29773110Y-134944651I-95459J95459D01*
G01*
X29511481Y-134683022D01*
G75*
G02*
X29511481Y-134492104I95459J95459D01*
G01*
X29702400Y-134301185D01*
G75*
G02*
X29893318Y-134301185I95459J-95459D01*
G01*
G37*
G36*
G01*
X37378000Y-127520000D02*
X37378000Y-127150000D01*
G75*
G02*
X37513000Y-127015000I135000J0D01*
G01*
X37783000Y-127015000D01*
G75*
G02*
X37918000Y-127150000I0J-135000D01*
G01*
X37918000Y-127520000D01*
G75*
G02*
X37783000Y-127655000I-135000J0D01*
G01*
X37513000Y-127655000D01*
G75*
G02*
X37378000Y-127520000I0J135000D01*
G01*
G37*
G36*
G01*
X36358000Y-127520000D02*
X36358000Y-127150000D01*
G75*
G02*
X36493000Y-127015000I135000J0D01*
G01*
X36763000Y-127015000D01*
G75*
G02*
X36898000Y-127150000I0J-135000D01*
G01*
X36898000Y-127520000D01*
G75*
G02*
X36763000Y-127655000I-135000J0D01*
G01*
X36493000Y-127655000D01*
G75*
G02*
X36358000Y-127520000I0J135000D01*
G01*
G37*
G36*
G01*
X27218000Y-127520000D02*
X27218000Y-127150000D01*
G75*
G02*
X27353000Y-127015000I135000J0D01*
G01*
X27623000Y-127015000D01*
G75*
G02*
X27758000Y-127150000I0J-135000D01*
G01*
X27758000Y-127520000D01*
G75*
G02*
X27623000Y-127655000I-135000J0D01*
G01*
X27353000Y-127655000D01*
G75*
G02*
X27218000Y-127520000I0J135000D01*
G01*
G37*
G36*
G01*
X26198000Y-127520000D02*
X26198000Y-127150000D01*
G75*
G02*
X26333000Y-127015000I135000J0D01*
G01*
X26603000Y-127015000D01*
G75*
G02*
X26738000Y-127150000I0J-135000D01*
G01*
X26738000Y-127520000D01*
G75*
G02*
X26603000Y-127655000I-135000J0D01*
G01*
X26333000Y-127655000D01*
G75*
G02*
X26198000Y-127520000I0J135000D01*
G01*
G37*
G36*
G01*
X36426986Y-137157896D02*
X36688615Y-137419525D01*
G75*
G02*
X36688615Y-137610443I-95459J-95459D01*
G01*
X36497696Y-137801362D01*
G75*
G02*
X36306778Y-137801362I-95459J95459D01*
G01*
X36045149Y-137539733D01*
G75*
G02*
X36045149Y-137348815I95459J95459D01*
G01*
X36236068Y-137157896D01*
G75*
G02*
X36426986Y-137157896I95459J-95459D01*
G01*
G37*
G36*
G01*
X37148234Y-136436648D02*
X37409863Y-136698277D01*
G75*
G02*
X37409863Y-136889195I-95459J-95459D01*
G01*
X37218944Y-137080114D01*
G75*
G02*
X37028026Y-137080114I-95459J95459D01*
G01*
X36766397Y-136818485D01*
G75*
G02*
X36766397Y-136627567I95459J95459D01*
G01*
X36957316Y-136436648D01*
G75*
G02*
X37148234Y-136436648I95459J-95459D01*
G01*
G37*
G36*
G01*
X32064136Y-136182088D02*
X32325765Y-135920459D01*
G75*
G02*
X32516683Y-135920459I95459J-95459D01*
G01*
X32707602Y-136111378D01*
G75*
G02*
X32707602Y-136302296I-95459J-95459D01*
G01*
X32445973Y-136563925D01*
G75*
G02*
X32255055Y-136563925I-95459J95459D01*
G01*
X32064136Y-136373006D01*
G75*
G02*
X32064136Y-136182088I95459J95459D01*
G01*
G37*
G36*
G01*
X31342888Y-135460840D02*
X31604517Y-135199211D01*
G75*
G02*
X31795435Y-135199211I95459J-95459D01*
G01*
X31986354Y-135390130D01*
G75*
G02*
X31986354Y-135581048I-95459J-95459D01*
G01*
X31724725Y-135842677D01*
G75*
G02*
X31533807Y-135842677I-95459J95459D01*
G01*
X31342888Y-135651758D01*
G75*
G02*
X31342888Y-135460840I95459J95459D01*
G01*
G37*
G36*
G01*
X39918000Y-127520000D02*
X39918000Y-127150000D01*
G75*
G02*
X40053000Y-127015000I135000J0D01*
G01*
X40323000Y-127015000D01*
G75*
G02*
X40458000Y-127150000I0J-135000D01*
G01*
X40458000Y-127520000D01*
G75*
G02*
X40323000Y-127655000I-135000J0D01*
G01*
X40053000Y-127655000D01*
G75*
G02*
X39918000Y-127520000I0J135000D01*
G01*
G37*
G36*
G01*
X38898000Y-127520000D02*
X38898000Y-127150000D01*
G75*
G02*
X39033000Y-127015000I135000J0D01*
G01*
X39303000Y-127015000D01*
G75*
G02*
X39438000Y-127150000I0J-135000D01*
G01*
X39438000Y-127520000D01*
G75*
G02*
X39303000Y-127655000I-135000J0D01*
G01*
X39033000Y-127655000D01*
G75*
G02*
X38898000Y-127520000I0J135000D01*
G01*
G37*
G36*
G01*
X29758000Y-127520000D02*
X29758000Y-127150000D01*
G75*
G02*
X29893000Y-127015000I135000J0D01*
G01*
X30163000Y-127015000D01*
G75*
G02*
X30298000Y-127150000I0J-135000D01*
G01*
X30298000Y-127520000D01*
G75*
G02*
X30163000Y-127655000I-135000J0D01*
G01*
X29893000Y-127655000D01*
G75*
G02*
X29758000Y-127520000I0J135000D01*
G01*
G37*
G36*
G01*
X28738000Y-127520000D02*
X28738000Y-127150000D01*
G75*
G02*
X28873000Y-127015000I135000J0D01*
G01*
X29143000Y-127015000D01*
G75*
G02*
X29278000Y-127150000I0J-135000D01*
G01*
X29278000Y-127520000D01*
G75*
G02*
X29143000Y-127655000I-135000J0D01*
G01*
X28873000Y-127655000D01*
G75*
G02*
X28738000Y-127520000I0J135000D01*
G01*
G37*
G36*
G01*
X37827057Y-138557967D02*
X38088686Y-138819596D01*
G75*
G02*
X38088686Y-139010514I-95459J-95459D01*
G01*
X37897767Y-139201433D01*
G75*
G02*
X37706849Y-139201433I-95459J95459D01*
G01*
X37445220Y-138939804D01*
G75*
G02*
X37445220Y-138748886I95459J95459D01*
G01*
X37636139Y-138557967D01*
G75*
G02*
X37827057Y-138557967I95459J-95459D01*
G01*
G37*
G36*
G01*
X38548305Y-137836719D02*
X38809934Y-138098348D01*
G75*
G02*
X38809934Y-138289266I-95459J-95459D01*
G01*
X38619015Y-138480185D01*
G75*
G02*
X38428097Y-138480185I-95459J95459D01*
G01*
X38166468Y-138218556D01*
G75*
G02*
X38166468Y-138027638I95459J95459D01*
G01*
X38357387Y-137836719D01*
G75*
G02*
X38548305Y-137836719I95459J-95459D01*
G01*
G37*
G36*
G01*
X32905594Y-135022433D02*
X33167223Y-135284062D01*
G75*
G02*
X33167223Y-135474980I-95459J-95459D01*
G01*
X32976304Y-135665899D01*
G75*
G02*
X32785386Y-135665899I-95459J95459D01*
G01*
X32523757Y-135404270D01*
G75*
G02*
X32523757Y-135213352I95459J95459D01*
G01*
X32714676Y-135022433D01*
G75*
G02*
X32905594Y-135022433I95459J-95459D01*
G01*
G37*
G36*
G01*
X33626842Y-134301185D02*
X33888471Y-134562814D01*
G75*
G02*
X33888471Y-134753732I-95459J-95459D01*
G01*
X33697552Y-134944651D01*
G75*
G02*
X33506634Y-134944651I-95459J95459D01*
G01*
X33245005Y-134683022D01*
G75*
G02*
X33245005Y-134492104I95459J95459D01*
G01*
X33435924Y-134301185D01*
G75*
G02*
X33626842Y-134301185I95459J-95459D01*
G01*
G37*
G36*
G01*
X29443000Y-157375000D02*
X29993000Y-157375000D01*
G75*
G02*
X30193000Y-157575000I0J-200000D01*
G01*
X30193000Y-157975000D01*
G75*
G02*
X29993000Y-158175000I-200000J0D01*
G01*
X29443000Y-158175000D01*
G75*
G02*
X29243000Y-157975000I0J200000D01*
G01*
X29243000Y-157575000D01*
G75*
G02*
X29443000Y-157375000I200000J0D01*
G01*
G37*
G36*
G01*
X29443000Y-155725000D02*
X29993000Y-155725000D01*
G75*
G02*
X30193000Y-155925000I0J-200000D01*
G01*
X30193000Y-156325000D01*
G75*
G02*
X29993000Y-156525000I-200000J0D01*
G01*
X29443000Y-156525000D01*
G75*
G02*
X29243000Y-156325000I0J200000D01*
G01*
X29243000Y-155925000D01*
G75*
G02*
X29443000Y-155725000I200000J0D01*
G01*
G37*
G36*
G01*
X31513000Y-156525000D02*
X30963000Y-156525000D01*
G75*
G02*
X30763000Y-156325000I0J200000D01*
G01*
X30763000Y-155925000D01*
G75*
G02*
X30963000Y-155725000I200000J0D01*
G01*
X31513000Y-155725000D01*
G75*
G02*
X31713000Y-155925000I0J-200000D01*
G01*
X31713000Y-156325000D01*
G75*
G02*
X31513000Y-156525000I-200000J0D01*
G01*
G37*
G36*
G01*
X31513000Y-158175000D02*
X30963000Y-158175000D01*
G75*
G02*
X30763000Y-157975000I0J200000D01*
G01*
X30763000Y-157575000D01*
G75*
G02*
X30963000Y-157375000I200000J0D01*
G01*
X31513000Y-157375000D01*
G75*
G02*
X31713000Y-157575000I0J-200000D01*
G01*
X31713000Y-157975000D01*
G75*
G02*
X31513000Y-158175000I-200000J0D01*
G01*
G37*
G36*
G01*
X42458000Y-127520000D02*
X42458000Y-127150000D01*
G75*
G02*
X42593000Y-127015000I135000J0D01*
G01*
X42863000Y-127015000D01*
G75*
G02*
X42998000Y-127150000I0J-135000D01*
G01*
X42998000Y-127520000D01*
G75*
G02*
X42863000Y-127655000I-135000J0D01*
G01*
X42593000Y-127655000D01*
G75*
G02*
X42458000Y-127520000I0J135000D01*
G01*
G37*
G36*
G01*
X41438000Y-127520000D02*
X41438000Y-127150000D01*
G75*
G02*
X41573000Y-127015000I135000J0D01*
G01*
X41843000Y-127015000D01*
G75*
G02*
X41978000Y-127150000I0J-135000D01*
G01*
X41978000Y-127520000D01*
G75*
G02*
X41843000Y-127655000I-135000J0D01*
G01*
X41573000Y-127655000D01*
G75*
G02*
X41438000Y-127520000I0J135000D01*
G01*
G37*
G36*
G01*
X32298000Y-127520000D02*
X32298000Y-127150000D01*
G75*
G02*
X32433000Y-127015000I135000J0D01*
G01*
X32703000Y-127015000D01*
G75*
G02*
X32838000Y-127150000I0J-135000D01*
G01*
X32838000Y-127520000D01*
G75*
G02*
X32703000Y-127655000I-135000J0D01*
G01*
X32433000Y-127655000D01*
G75*
G02*
X32298000Y-127520000I0J135000D01*
G01*
G37*
G36*
G01*
X31278000Y-127520000D02*
X31278000Y-127150000D01*
G75*
G02*
X31413000Y-127015000I135000J0D01*
G01*
X31683000Y-127015000D01*
G75*
G02*
X31818000Y-127150000I0J-135000D01*
G01*
X31818000Y-127520000D01*
G75*
G02*
X31683000Y-127655000I-135000J0D01*
G01*
X31413000Y-127655000D01*
G75*
G02*
X31278000Y-127520000I0J135000D01*
G01*
G37*
G36*
G01*
X34592043Y-136793736D02*
X34351627Y-137034152D01*
G75*
G02*
X34153637Y-137034152I-98995J98995D01*
G01*
X33955647Y-136836162D01*
G75*
G02*
X33955647Y-136638172I98995J98995D01*
G01*
X34196063Y-136397756D01*
G75*
G02*
X34394053Y-136397756I98995J-98995D01*
G01*
X34592043Y-136595746D01*
G75*
G02*
X34592043Y-136793736I-98995J-98995D01*
G01*
G37*
G36*
G01*
X35270865Y-137472558D02*
X35030449Y-137712974D01*
G75*
G02*
X34832459Y-137712974I-98995J98995D01*
G01*
X34634469Y-137514984D01*
G75*
G02*
X34634469Y-137316994I98995J98995D01*
G01*
X34874885Y-137076578D01*
G75*
G02*
X35072875Y-137076578I98995J-98995D01*
G01*
X35270865Y-137274568D01*
G75*
G02*
X35270865Y-137472558I-98995J-98995D01*
G01*
G37*
G36*
G01*
X29437235Y-136758381D02*
X29196819Y-136998797D01*
G75*
G02*
X28998829Y-136998797I-98995J98995D01*
G01*
X28800839Y-136800807D01*
G75*
G02*
X28800839Y-136602817I98995J98995D01*
G01*
X29041255Y-136362401D01*
G75*
G02*
X29239245Y-136362401I98995J-98995D01*
G01*
X29437235Y-136560391D01*
G75*
G02*
X29437235Y-136758381I-98995J-98995D01*
G01*
G37*
G36*
G01*
X30116057Y-137437203D02*
X29875641Y-137677619D01*
G75*
G02*
X29677651Y-137677619I-98995J98995D01*
G01*
X29479661Y-137479629D01*
G75*
G02*
X29479661Y-137281639I98995J98995D01*
G01*
X29720077Y-137041223D01*
G75*
G02*
X29918067Y-137041223I98995J-98995D01*
G01*
X30116057Y-137239213D01*
G75*
G02*
X30116057Y-137437203I-98995J-98995D01*
G01*
G37*
G36*
G01*
X38669691Y-143209552D02*
X38429275Y-142969136D01*
G75*
G02*
X38429275Y-142771146I98995J98995D01*
G01*
X38627265Y-142573156D01*
G75*
G02*
X38825255Y-142573156I98995J-98995D01*
G01*
X39065671Y-142813572D01*
G75*
G02*
X39065671Y-143011562I-98995J-98995D01*
G01*
X38867681Y-143209552D01*
G75*
G02*
X38669691Y-143209552I-98995J98995D01*
G01*
G37*
G36*
G01*
X37990869Y-143888374D02*
X37750453Y-143647958D01*
G75*
G02*
X37750453Y-143449968I98995J98995D01*
G01*
X37948443Y-143251978D01*
G75*
G02*
X38146433Y-143251978I98995J-98995D01*
G01*
X38386849Y-143492394D01*
G75*
G02*
X38386849Y-143690384I-98995J-98995D01*
G01*
X38188859Y-143888374D01*
G75*
G02*
X37990869Y-143888374I-98995J98995D01*
G01*
G37*
G36*
G01*
X36699221Y-134686558D02*
X36458805Y-134926974D01*
G75*
G02*
X36260815Y-134926974I-98995J98995D01*
G01*
X36062825Y-134728984D01*
G75*
G02*
X36062825Y-134530994I98995J98995D01*
G01*
X36303241Y-134290578D01*
G75*
G02*
X36501231Y-134290578I98995J-98995D01*
G01*
X36699221Y-134488568D01*
G75*
G02*
X36699221Y-134686558I-98995J-98995D01*
G01*
G37*
G36*
G01*
X37378043Y-135365380D02*
X37137627Y-135605796D01*
G75*
G02*
X36939637Y-135605796I-98995J98995D01*
G01*
X36741647Y-135407806D01*
G75*
G02*
X36741647Y-135209816I98995J98995D01*
G01*
X36982063Y-134969400D01*
G75*
G02*
X37180053Y-134969400I98995J-98995D01*
G01*
X37378043Y-135167390D01*
G75*
G02*
X37378043Y-135365380I-98995J-98995D01*
G01*
G37*
G36*
G01*
X30420113Y-135676507D02*
X30179697Y-135436091D01*
G75*
G02*
X30179697Y-135238101I98995J98995D01*
G01*
X30377687Y-135040111D01*
G75*
G02*
X30575677Y-135040111I98995J-98995D01*
G01*
X30816093Y-135280527D01*
G75*
G02*
X30816093Y-135478517I-98995J-98995D01*
G01*
X30618103Y-135676507D01*
G75*
G02*
X30420113Y-135676507I-98995J98995D01*
G01*
G37*
G36*
G01*
X29741291Y-136355329D02*
X29500875Y-136114913D01*
G75*
G02*
X29500875Y-135916923I98995J98995D01*
G01*
X29698865Y-135718933D01*
G75*
G02*
X29896855Y-135718933I98995J-98995D01*
G01*
X30137271Y-135959349D01*
G75*
G02*
X30137271Y-136157339I-98995J-98995D01*
G01*
X29939281Y-136355329D01*
G75*
G02*
X29741291Y-136355329I-98995J98995D01*
G01*
G37*
G36*
G01*
X37675028Y-137811969D02*
X37434612Y-137571553D01*
G75*
G02*
X37434612Y-137373563I98995J98995D01*
G01*
X37632602Y-137175573D01*
G75*
G02*
X37830592Y-137175573I98995J-98995D01*
G01*
X38071008Y-137415989D01*
G75*
G02*
X38071008Y-137613979I-98995J-98995D01*
G01*
X37873018Y-137811969D01*
G75*
G02*
X37675028Y-137811969I-98995J98995D01*
G01*
G37*
G36*
G01*
X36996206Y-138490791D02*
X36755790Y-138250375D01*
G75*
G02*
X36755790Y-138052385I98995J98995D01*
G01*
X36953780Y-137854395D01*
G75*
G02*
X37151770Y-137854395I98995J-98995D01*
G01*
X37392186Y-138094811D01*
G75*
G02*
X37392186Y-138292801I-98995J-98995D01*
G01*
X37194196Y-138490791D01*
G75*
G02*
X36996206Y-138490791I-98995J98995D01*
G01*
G37*
G36*
G01*
X31318139Y-136334117D02*
X31077723Y-136574533D01*
G75*
G02*
X30879733Y-136574533I-98995J98995D01*
G01*
X30681743Y-136376543D01*
G75*
G02*
X30681743Y-136178553I98995J98995D01*
G01*
X30922159Y-135938137D01*
G75*
G02*
X31120149Y-135938137I98995J-98995D01*
G01*
X31318139Y-136136127D01*
G75*
G02*
X31318139Y-136334117I-98995J-98995D01*
G01*
G37*
G36*
G01*
X31996961Y-137012939D02*
X31756545Y-137253355D01*
G75*
G02*
X31558555Y-137253355I-98995J98995D01*
G01*
X31360565Y-137055365D01*
G75*
G02*
X31360565Y-136857375I98995J98995D01*
G01*
X31600981Y-136616959D01*
G75*
G02*
X31798971Y-136616959I98995J-98995D01*
G01*
X31996961Y-136814949D01*
G75*
G02*
X31996961Y-137012939I-98995J-98995D01*
G01*
G37*
G36*
G01*
X39075100Y-139212041D02*
X38834684Y-138971625D01*
G75*
G02*
X38834684Y-138773635I98995J98995D01*
G01*
X39032674Y-138575645D01*
G75*
G02*
X39230664Y-138575645I98995J-98995D01*
G01*
X39471080Y-138816061D01*
G75*
G02*
X39471080Y-139014051I-98995J-98995D01*
G01*
X39273090Y-139212041D01*
G75*
G02*
X39075100Y-139212041I-98995J98995D01*
G01*
G37*
G36*
G01*
X38396278Y-139890863D02*
X38155862Y-139650447D01*
G75*
G02*
X38155862Y-139452457I98995J98995D01*
G01*
X38353852Y-139254467D01*
G75*
G02*
X38551842Y-139254467I98995J-98995D01*
G01*
X38792258Y-139494883D01*
G75*
G02*
X38792258Y-139692873I-98995J-98995D01*
G01*
X38594268Y-139890863D01*
G75*
G02*
X38396278Y-139890863I-98995J98995D01*
G01*
G37*
G36*
G01*
X34153636Y-135676507D02*
X33913220Y-135436091D01*
G75*
G02*
X33913220Y-135238101I98995J98995D01*
G01*
X34111210Y-135040111D01*
G75*
G02*
X34309200Y-135040111I98995J-98995D01*
G01*
X34549616Y-135280527D01*
G75*
G02*
X34549616Y-135478517I-98995J-98995D01*
G01*
X34351626Y-135676507D01*
G75*
G02*
X34153636Y-135676507I-98995J98995D01*
G01*
G37*
G36*
G01*
X33474814Y-136355329D02*
X33234398Y-136114913D01*
G75*
G02*
X33234398Y-135916923I98995J98995D01*
G01*
X33432388Y-135718933D01*
G75*
G02*
X33630378Y-135718933I98995J-98995D01*
G01*
X33870794Y-135959349D01*
G75*
G02*
X33870794Y-136157339I-98995J-98995D01*
G01*
X33672804Y-136355329D01*
G75*
G02*
X33474814Y-136355329I-98995J98995D01*
G01*
G37*
G36*
G01*
X30981085Y-145295516D02*
X31221501Y-145055100D01*
G75*
G02*
X31419491Y-145055100I98995J-98995D01*
G01*
X31617481Y-145253090D01*
G75*
G02*
X31617481Y-145451080I-98995J-98995D01*
G01*
X31377065Y-145691496D01*
G75*
G02*
X31179075Y-145691496I-98995J98995D01*
G01*
X30981085Y-145493506D01*
G75*
G02*
X30981085Y-145295516I98995J98995D01*
G01*
G37*
G36*
G01*
X30302263Y-144616694D02*
X30542679Y-144376278D01*
G75*
G02*
X30740669Y-144376278I98995J-98995D01*
G01*
X30938659Y-144574268D01*
G75*
G02*
X30938659Y-144772258I-98995J-98995D01*
G01*
X30698243Y-145012674D01*
G75*
G02*
X30500253Y-145012674I-98995J98995D01*
G01*
X30302263Y-144814684D01*
G75*
G02*
X30302263Y-144616694I98995J98995D01*
G01*
G37*
G36*
G01*
X30423649Y-145911877D02*
X30070095Y-146265431D01*
G75*
G02*
X29751897Y-146265431I-159099J159099D01*
G01*
X29433699Y-145947233D01*
G75*
G02*
X29433699Y-145629035I159099J159099D01*
G01*
X29787253Y-145275481D01*
G75*
G02*
X30105451Y-145275481I159099J-159099D01*
G01*
X30423649Y-145593679D01*
G75*
G02*
X30423649Y-145911877I-159099J-159099D01*
G01*
G37*
G36*
G01*
X31519665Y-147007893D02*
X31166111Y-147361447D01*
G75*
G02*
X30847913Y-147361447I-159099J159099D01*
G01*
X30529715Y-147043249D01*
G75*
G02*
X30529715Y-146725051I159099J159099D01*
G01*
X30883269Y-146371497D01*
G75*
G02*
X31201467Y-146371497I159099J-159099D01*
G01*
X31519665Y-146689695D01*
G75*
G02*
X31519665Y-147007893I-159099J-159099D01*
G01*
G37*
D10*
G36*
X24088000Y-173195660D02*
G01*
X23699091Y-173584569D01*
X23698665Y-173584143D01*
X23681317Y-173601492D01*
X23643387Y-173632619D01*
X23602589Y-173659880D01*
X23559315Y-173683010D01*
X23513983Y-173701788D01*
X23467028Y-173716031D01*
X23418903Y-173725604D01*
X23370072Y-173730413D01*
X23321003Y-173730413D01*
X23272173Y-173725604D01*
X23224048Y-173716031D01*
X23177093Y-173701788D01*
X23131760Y-173683010D01*
X23088486Y-173659880D01*
X23047688Y-173632619D01*
X23009758Y-173601492D01*
X22992410Y-173584143D01*
X22991984Y-173584569D01*
X22638431Y-173231016D01*
X22638857Y-173230590D01*
X22621508Y-173213242D01*
X22590381Y-173175312D01*
X22563120Y-173134514D01*
X22539990Y-173091240D01*
X22521212Y-173045907D01*
X22506969Y-172998952D01*
X22497396Y-172950827D01*
X22492587Y-172901997D01*
X22492587Y-172852928D01*
X22497396Y-172804097D01*
X22506969Y-172755972D01*
X22521212Y-172709017D01*
X22539990Y-172663685D01*
X22563120Y-172620411D01*
X22590381Y-172579613D01*
X22621508Y-172541683D01*
X22638857Y-172524335D01*
X22638431Y-172523909D01*
X23027340Y-172135000D01*
X24088000Y-173195660D01*
G37*
G36*
X24264777Y-173018883D02*
G01*
X23204117Y-171958223D01*
X23911223Y-171251117D01*
X24971883Y-172311777D01*
X24264777Y-173018883D01*
G37*
G36*
X24477335Y-170685857D02*
G01*
X24494683Y-170668508D01*
X24532613Y-170637381D01*
X24573411Y-170610120D01*
X24616685Y-170586990D01*
X24662017Y-170568212D01*
X24708972Y-170553969D01*
X24757097Y-170544396D01*
X24805928Y-170539587D01*
X24854997Y-170539587D01*
X24903827Y-170544396D01*
X24951952Y-170553969D01*
X24998907Y-170568212D01*
X25044240Y-170586990D01*
X25087514Y-170610120D01*
X25128312Y-170637381D01*
X25166242Y-170668508D01*
X25183590Y-170685857D01*
X25184016Y-170685431D01*
X25537569Y-171038984D01*
X25537143Y-171039410D01*
X25554492Y-171056758D01*
X25585619Y-171094688D01*
X25612880Y-171135486D01*
X25636010Y-171178760D01*
X25654788Y-171224093D01*
X25669031Y-171271048D01*
X25678604Y-171319173D01*
X25683413Y-171368003D01*
X25683413Y-171417072D01*
X25678604Y-171465903D01*
X25669031Y-171514028D01*
X25654788Y-171560983D01*
X25636010Y-171606315D01*
X25612880Y-171649589D01*
X25585619Y-171690387D01*
X25554492Y-171728317D01*
X25537143Y-171745665D01*
X25537569Y-171746091D01*
X25148660Y-172135000D01*
X24088000Y-171074340D01*
X24476909Y-170685431D01*
X24477335Y-170685857D01*
G37*
D19*
X35946000Y-159255000D03*
X35946000Y-158755000D03*
X35946000Y-158255000D03*
X35946000Y-157755000D03*
X34046000Y-159255000D03*
X34046000Y-158755000D03*
X34046000Y-158255000D03*
D20*
X34096000Y-157755000D03*
G36*
G01*
X38278000Y-158444999D02*
X38278000Y-159745001D01*
G75*
G02*
X38028001Y-159995000I-249999J0D01*
G01*
X37377999Y-159995000D01*
G75*
G02*
X37128000Y-159745001I0J249999D01*
G01*
X37128000Y-158444999D01*
G75*
G02*
X37377999Y-158195000I249999J0D01*
G01*
X38028001Y-158195000D01*
G75*
G02*
X38278000Y-158444999I0J-249999D01*
G01*
G37*
G36*
G01*
X41228000Y-158444999D02*
X41228000Y-159745001D01*
G75*
G02*
X40978001Y-159995000I-249999J0D01*
G01*
X40327999Y-159995000D01*
G75*
G02*
X40078000Y-159745001I0J249999D01*
G01*
X40078000Y-158444999D01*
G75*
G02*
X40327999Y-158195000I249999J0D01*
G01*
X40978001Y-158195000D01*
G75*
G02*
X41228000Y-158444999I0J-249999D01*
G01*
G37*
D17*
X15803000Y-130525000D03*
X15803000Y-133065000D03*
X15803000Y-135605000D03*
D18*
X15803000Y-138145000D03*
G36*
G01*
X24568000Y-164840000D02*
X24568000Y-165210000D01*
G75*
G02*
X24433000Y-165345000I-135000J0D01*
G01*
X24163000Y-165345000D01*
G75*
G02*
X24028000Y-165210000I0J135000D01*
G01*
X24028000Y-164840000D01*
G75*
G02*
X24163000Y-164705000I135000J0D01*
G01*
X24433000Y-164705000D01*
G75*
G02*
X24568000Y-164840000I0J-135000D01*
G01*
G37*
G36*
G01*
X25588000Y-164840000D02*
X25588000Y-165210000D01*
G75*
G02*
X25453000Y-165345000I-135000J0D01*
G01*
X25183000Y-165345000D01*
G75*
G02*
X25048000Y-165210000I0J135000D01*
G01*
X25048000Y-164840000D01*
G75*
G02*
X25183000Y-164705000I135000J0D01*
G01*
X25453000Y-164705000D01*
G75*
G02*
X25588000Y-164840000I0J-135000D01*
G01*
G37*
G36*
G01*
X26443000Y-163335000D02*
X26073000Y-163335000D01*
G75*
G02*
X25938000Y-163200000I0J135000D01*
G01*
X25938000Y-162930000D01*
G75*
G02*
X26073000Y-162795000I135000J0D01*
G01*
X26443000Y-162795000D01*
G75*
G02*
X26578000Y-162930000I0J-135000D01*
G01*
X26578000Y-163200000D01*
G75*
G02*
X26443000Y-163335000I-135000J0D01*
G01*
G37*
G36*
G01*
X26443000Y-164355000D02*
X26073000Y-164355000D01*
G75*
G02*
X25938000Y-164220000I0J135000D01*
G01*
X25938000Y-163950000D01*
G75*
G02*
X26073000Y-163815000I135000J0D01*
G01*
X26443000Y-163815000D01*
G75*
G02*
X26578000Y-163950000I0J-135000D01*
G01*
X26578000Y-164220000D01*
G75*
G02*
X26443000Y-164355000I-135000J0D01*
G01*
G37*
G36*
G01*
X37500500Y-165930000D02*
X37155500Y-165930000D01*
G75*
G02*
X37008000Y-165782500I0J147500D01*
G01*
X37008000Y-165487500D01*
G75*
G02*
X37155500Y-165340000I147500J0D01*
G01*
X37500500Y-165340000D01*
G75*
G02*
X37648000Y-165487500I0J-147500D01*
G01*
X37648000Y-165782500D01*
G75*
G02*
X37500500Y-165930000I-147500J0D01*
G01*
G37*
G36*
G01*
X37500500Y-166900000D02*
X37155500Y-166900000D01*
G75*
G02*
X37008000Y-166752500I0J147500D01*
G01*
X37008000Y-166457500D01*
G75*
G02*
X37155500Y-166310000I147500J0D01*
G01*
X37500500Y-166310000D01*
G75*
G02*
X37648000Y-166457500I0J-147500D01*
G01*
X37648000Y-166752500D01*
G75*
G02*
X37500500Y-166900000I-147500J0D01*
G01*
G37*
G36*
G01*
X31513000Y-153510000D02*
X30963000Y-153510000D01*
G75*
G02*
X30763000Y-153310000I0J200000D01*
G01*
X30763000Y-152910000D01*
G75*
G02*
X30963000Y-152710000I200000J0D01*
G01*
X31513000Y-152710000D01*
G75*
G02*
X31713000Y-152910000I0J-200000D01*
G01*
X31713000Y-153310000D01*
G75*
G02*
X31513000Y-153510000I-200000J0D01*
G01*
G37*
G36*
G01*
X31513000Y-155160000D02*
X30963000Y-155160000D01*
G75*
G02*
X30763000Y-154960000I0J200000D01*
G01*
X30763000Y-154560000D01*
G75*
G02*
X30963000Y-154360000I200000J0D01*
G01*
X31513000Y-154360000D01*
G75*
G02*
X31713000Y-154560000I0J-200000D01*
G01*
X31713000Y-154960000D01*
G75*
G02*
X31513000Y-155160000I-200000J0D01*
G01*
G37*
G36*
G01*
X32678000Y-158570000D02*
X33178000Y-158570000D01*
G75*
G02*
X33403000Y-158795000I0J-225000D01*
G01*
X33403000Y-159245000D01*
G75*
G02*
X33178000Y-159470000I-225000J0D01*
G01*
X32678000Y-159470000D01*
G75*
G02*
X32453000Y-159245000I0J225000D01*
G01*
X32453000Y-158795000D01*
G75*
G02*
X32678000Y-158570000I225000J0D01*
G01*
G37*
G36*
G01*
X32678000Y-160120000D02*
X33178000Y-160120000D01*
G75*
G02*
X33403000Y-160345000I0J-225000D01*
G01*
X33403000Y-160795000D01*
G75*
G02*
X33178000Y-161020000I-225000J0D01*
G01*
X32678000Y-161020000D01*
G75*
G02*
X32453000Y-160795000I0J225000D01*
G01*
X32453000Y-160345000D01*
G75*
G02*
X32678000Y-160120000I225000J0D01*
G01*
G37*
G36*
G01*
X35223000Y-153415450D02*
X35223000Y-151214550D01*
G75*
G02*
X35472550Y-150965000I249550J0D01*
G01*
X36123450Y-150965000D01*
G75*
G02*
X36373000Y-151214550I0J-249550D01*
G01*
X36373000Y-153415450D01*
G75*
G02*
X36123450Y-153665000I-249550J0D01*
G01*
X35472550Y-153665000D01*
G75*
G02*
X35223000Y-153415450I0J249550D01*
G01*
G37*
G36*
G01*
X32273000Y-153415001D02*
X32273000Y-151214999D01*
G75*
G02*
X32522999Y-150965000I249999J0D01*
G01*
X33173001Y-150965000D01*
G75*
G02*
X33423000Y-151214999I0J-249999D01*
G01*
X33423000Y-153415001D01*
G75*
G02*
X33173001Y-153665000I-249999J0D01*
G01*
X32522999Y-153665000D01*
G75*
G02*
X32273000Y-153415001I0J249999D01*
G01*
G37*
G36*
G01*
X35221000Y-156668450D02*
X35221000Y-154467550D01*
G75*
G02*
X35470550Y-154218000I249550J0D01*
G01*
X36121450Y-154218000D01*
G75*
G02*
X36371000Y-154467550I0J-249550D01*
G01*
X36371000Y-156668450D01*
G75*
G02*
X36121450Y-156918000I-249550J0D01*
G01*
X35470550Y-156918000D01*
G75*
G02*
X35221000Y-156668450I0J249550D01*
G01*
G37*
G36*
G01*
X32271000Y-156668001D02*
X32271000Y-154467999D01*
G75*
G02*
X32520999Y-154218000I249999J0D01*
G01*
X33171001Y-154218000D01*
G75*
G02*
X33421000Y-154467999I0J-249999D01*
G01*
X33421000Y-156668001D01*
G75*
G02*
X33171001Y-156918000I-249999J0D01*
G01*
X32520999Y-156918000D01*
G75*
G02*
X32271000Y-156668001I0J249999D01*
G01*
G37*
D14*
X18978000Y-125645000D03*
D15*
X18978000Y-125645000D03*
D14*
X83978000Y-125645000D03*
D15*
X83978000Y-125645000D03*
D14*
X83978000Y-190645000D03*
D15*
X83978000Y-190645000D03*
G36*
G01*
X29936891Y-172635520D02*
X30198520Y-172373891D01*
G75*
G02*
X30389438Y-172373891I95459J-95459D01*
G01*
X30580357Y-172564810D01*
G75*
G02*
X30580357Y-172755728I-95459J-95459D01*
G01*
X30318728Y-173017357D01*
G75*
G02*
X30127810Y-173017357I-95459J95459D01*
G01*
X29936891Y-172826438D01*
G75*
G02*
X29936891Y-172635520I95459J95459D01*
G01*
G37*
G36*
G01*
X29215643Y-171914272D02*
X29477272Y-171652643D01*
G75*
G02*
X29668190Y-171652643I95459J-95459D01*
G01*
X29859109Y-171843562D01*
G75*
G02*
X29859109Y-172034480I-95459J-95459D01*
G01*
X29597480Y-172296109D01*
G75*
G02*
X29406562Y-172296109I-95459J95459D01*
G01*
X29215643Y-172105190D01*
G75*
G02*
X29215643Y-171914272I95459J95459D01*
G01*
G37*
G36*
G01*
X30620375Y-171891327D02*
X30864327Y-171647375D01*
G75*
G02*
X31072923Y-171647375I104298J-104298D01*
G01*
X31281519Y-171855971D01*
G75*
G02*
X31281519Y-172064567I-104298J-104298D01*
G01*
X31037567Y-172308519D01*
G75*
G02*
X30828971Y-172308519I-104298J104298D01*
G01*
X30620375Y-172099923D01*
G75*
G02*
X30620375Y-171891327I104298J104298D01*
G01*
G37*
G36*
G01*
X29934481Y-171205433D02*
X30178433Y-170961481D01*
G75*
G02*
X30387029Y-170961481I104298J-104298D01*
G01*
X30595625Y-171170077D01*
G75*
G02*
X30595625Y-171378673I-104298J-104298D01*
G01*
X30351673Y-171622625D01*
G75*
G02*
X30143077Y-171622625I-104298J104298D01*
G01*
X29934481Y-171414029D01*
G75*
G02*
X29934481Y-171205433I104298J104298D01*
G01*
G37*
G36*
G01*
X29229213Y-173306629D02*
X29469629Y-173066213D01*
G75*
G02*
X29667619Y-173066213I98995J-98995D01*
G01*
X29865609Y-173264203D01*
G75*
G02*
X29865609Y-173462193I-98995J-98995D01*
G01*
X29625193Y-173702609D01*
G75*
G02*
X29427203Y-173702609I-98995J98995D01*
G01*
X29229213Y-173504619D01*
G75*
G02*
X29229213Y-173306629I98995J98995D01*
G01*
G37*
G36*
G01*
X28550391Y-172627807D02*
X28790807Y-172387391D01*
G75*
G02*
X28988797Y-172387391I98995J-98995D01*
G01*
X29186787Y-172585381D01*
G75*
G02*
X29186787Y-172783371I-98995J-98995D01*
G01*
X28946371Y-173023787D01*
G75*
G02*
X28748381Y-173023787I-98995J98995D01*
G01*
X28550391Y-172825797D01*
G75*
G02*
X28550391Y-172627807I98995J98995D01*
G01*
G37*
G36*
G01*
X30569213Y-170446629D02*
X30809629Y-170206213D01*
G75*
G02*
X31007619Y-170206213I98995J-98995D01*
G01*
X31205609Y-170404203D01*
G75*
G02*
X31205609Y-170602193I-98995J-98995D01*
G01*
X30965193Y-170842609D01*
G75*
G02*
X30767203Y-170842609I-98995J98995D01*
G01*
X30569213Y-170644619D01*
G75*
G02*
X30569213Y-170446629I98995J98995D01*
G01*
G37*
G36*
G01*
X29890391Y-169767807D02*
X30130807Y-169527391D01*
G75*
G02*
X30328797Y-169527391I98995J-98995D01*
G01*
X30526787Y-169725381D01*
G75*
G02*
X30526787Y-169923371I-98995J-98995D01*
G01*
X30286371Y-170163787D01*
G75*
G02*
X30088381Y-170163787I-98995J98995D01*
G01*
X29890391Y-169965797D01*
G75*
G02*
X29890391Y-169767807I98995J98995D01*
G01*
G37*
G36*
G01*
X32204587Y-172811967D02*
X31851033Y-172458413D01*
G75*
G02*
X31851033Y-172140215I159099J159099D01*
G01*
X32169231Y-171822017D01*
G75*
G02*
X32487429Y-171822017I159099J-159099D01*
G01*
X32840983Y-172175571D01*
G75*
G02*
X32840983Y-172493769I-159099J-159099D01*
G01*
X32522785Y-172811967D01*
G75*
G02*
X32204587Y-172811967I-159099J159099D01*
G01*
G37*
G36*
G01*
X31108571Y-173907983D02*
X30755017Y-173554429D01*
G75*
G02*
X30755017Y-173236231I159099J159099D01*
G01*
X31073215Y-172918033D01*
G75*
G02*
X31391413Y-172918033I159099J-159099D01*
G01*
X31744967Y-173271587D01*
G75*
G02*
X31744967Y-173589785I-159099J-159099D01*
G01*
X31426769Y-173907983D01*
G75*
G02*
X31108571Y-173907983I-159099J159099D01*
G01*
G37*
G36*
G01*
X28989629Y-163098787D02*
X28749213Y-162858371D01*
G75*
G02*
X28749213Y-162660381I98995J98995D01*
G01*
X28947203Y-162462391D01*
G75*
G02*
X29145193Y-162462391I98995J-98995D01*
G01*
X29385609Y-162702807D01*
G75*
G02*
X29385609Y-162900797I-98995J-98995D01*
G01*
X29187619Y-163098787D01*
G75*
G02*
X28989629Y-163098787I-98995J98995D01*
G01*
G37*
G36*
G01*
X28310807Y-163777609D02*
X28070391Y-163537193D01*
G75*
G02*
X28070391Y-163339203I98995J98995D01*
G01*
X28268381Y-163141213D01*
G75*
G02*
X28466371Y-163141213I98995J-98995D01*
G01*
X28706787Y-163381629D01*
G75*
G02*
X28706787Y-163579619I-98995J-98995D01*
G01*
X28508797Y-163777609D01*
G75*
G02*
X28310807Y-163777609I-98995J98995D01*
G01*
G37*
G36*
G01*
X28895193Y-170987391D02*
X29135609Y-171227807D01*
G75*
G02*
X29135609Y-171425797I-98995J-98995D01*
G01*
X28937619Y-171623787D01*
G75*
G02*
X28739629Y-171623787I-98995J98995D01*
G01*
X28499213Y-171383371D01*
G75*
G02*
X28499213Y-171185381I98995J98995D01*
G01*
X28697203Y-170987391D01*
G75*
G02*
X28895193Y-170987391I98995J-98995D01*
G01*
G37*
G36*
G01*
X28216371Y-171666213D02*
X28456787Y-171906629D01*
G75*
G02*
X28456787Y-172104619I-98995J-98995D01*
G01*
X28258797Y-172302609D01*
G75*
G02*
X28060807Y-172302609I-98995J98995D01*
G01*
X27820391Y-172062193D01*
G75*
G02*
X27820391Y-171864203I98995J98995D01*
G01*
X28018381Y-171666213D01*
G75*
G02*
X28216371Y-171666213I98995J-98995D01*
G01*
G37*
G36*
G01*
X27846413Y-161898033D02*
X28199967Y-162251587D01*
G75*
G02*
X28199967Y-162569785I-159099J-159099D01*
G01*
X27881769Y-162887983D01*
G75*
G02*
X27563571Y-162887983I-159099J159099D01*
G01*
X27210017Y-162534429D01*
G75*
G02*
X27210017Y-162216231I159099J159099D01*
G01*
X27528215Y-161898033D01*
G75*
G02*
X27846413Y-161898033I159099J-159099D01*
G01*
G37*
G36*
G01*
X28942429Y-160802017D02*
X29295983Y-161155571D01*
G75*
G02*
X29295983Y-161473769I-159099J-159099D01*
G01*
X28977785Y-161791967D01*
G75*
G02*
X28659587Y-161791967I-159099J159099D01*
G01*
X28306033Y-161438413D01*
G75*
G02*
X28306033Y-161120215I159099J159099D01*
G01*
X28624231Y-160802017D01*
G75*
G02*
X28942429Y-160802017I159099J-159099D01*
G01*
G37*
G36*
G01*
X74248000Y-155749997D02*
X74248000Y-157900003D01*
G75*
G02*
X73998003Y-158150000I-249997J0D01*
G01*
X73372997Y-158150000D01*
G75*
G02*
X73123000Y-157900003I0J249997D01*
G01*
X73123000Y-155749997D01*
G75*
G02*
X73372997Y-155500000I249997J0D01*
G01*
X73998003Y-155500000D01*
G75*
G02*
X74248000Y-155749997I0J-249997D01*
G01*
G37*
G36*
G01*
X77173000Y-155749997D02*
X77173000Y-157900003D01*
G75*
G02*
X76923003Y-158150000I-249997J0D01*
G01*
X76297997Y-158150000D01*
G75*
G02*
X76048000Y-157900003I0J249997D01*
G01*
X76048000Y-155749997D01*
G75*
G02*
X76297997Y-155500000I249997J0D01*
G01*
X76923003Y-155500000D01*
G75*
G02*
X77173000Y-155749997I0J-249997D01*
G01*
G37*
G36*
G01*
X67811680Y-176416120D02*
X67811680Y-176786120D01*
G75*
G02*
X67676680Y-176921120I-135000J0D01*
G01*
X67406680Y-176921120D01*
G75*
G02*
X67271680Y-176786120I0J135000D01*
G01*
X67271680Y-176416120D01*
G75*
G02*
X67406680Y-176281120I135000J0D01*
G01*
X67676680Y-176281120D01*
G75*
G02*
X67811680Y-176416120I0J-135000D01*
G01*
G37*
G36*
G01*
X68831680Y-176416120D02*
X68831680Y-176786120D01*
G75*
G02*
X68696680Y-176921120I-135000J0D01*
G01*
X68426680Y-176921120D01*
G75*
G02*
X68291680Y-176786120I0J135000D01*
G01*
X68291680Y-176416120D01*
G75*
G02*
X68426680Y-176281120I135000J0D01*
G01*
X68696680Y-176281120D01*
G75*
G02*
X68831680Y-176416120I0J-135000D01*
G01*
G37*
G36*
G01*
X73170200Y-177354200D02*
X73540200Y-177354200D01*
G75*
G02*
X73675200Y-177489200I0J-135000D01*
G01*
X73675200Y-177759200D01*
G75*
G02*
X73540200Y-177894200I-135000J0D01*
G01*
X73170200Y-177894200D01*
G75*
G02*
X73035200Y-177759200I0J135000D01*
G01*
X73035200Y-177489200D01*
G75*
G02*
X73170200Y-177354200I135000J0D01*
G01*
G37*
G36*
G01*
X73170200Y-176334200D02*
X73540200Y-176334200D01*
G75*
G02*
X73675200Y-176469200I0J-135000D01*
G01*
X73675200Y-176739200D01*
G75*
G02*
X73540200Y-176874200I-135000J0D01*
G01*
X73170200Y-176874200D01*
G75*
G02*
X73035200Y-176739200I0J135000D01*
G01*
X73035200Y-176469200D01*
G75*
G02*
X73170200Y-176334200I135000J0D01*
G01*
G37*
G36*
G01*
X75865500Y-181600000D02*
X75865500Y-181970000D01*
G75*
G02*
X75730500Y-182105000I-135000J0D01*
G01*
X75460500Y-182105000D01*
G75*
G02*
X75325500Y-181970000I0J135000D01*
G01*
X75325500Y-181600000D01*
G75*
G02*
X75460500Y-181465000I135000J0D01*
G01*
X75730500Y-181465000D01*
G75*
G02*
X75865500Y-181600000I0J-135000D01*
G01*
G37*
G36*
G01*
X76885500Y-181600000D02*
X76885500Y-181970000D01*
G75*
G02*
X76750500Y-182105000I-135000J0D01*
G01*
X76480500Y-182105000D01*
G75*
G02*
X76345500Y-181970000I0J135000D01*
G01*
X76345500Y-181600000D01*
G75*
G02*
X76480500Y-181465000I135000J0D01*
G01*
X76750500Y-181465000D01*
G75*
G02*
X76885500Y-181600000I0J-135000D01*
G01*
G37*
G36*
G01*
X74268760Y-178604350D02*
X74268760Y-180754850D01*
G75*
G02*
X74019010Y-181004600I-249750J0D01*
G01*
X73393510Y-181004600D01*
G75*
G02*
X73143760Y-180754850I0J249750D01*
G01*
X73143760Y-178604350D01*
G75*
G02*
X73393510Y-178354600I249750J0D01*
G01*
X74019010Y-178354600D01*
G75*
G02*
X74268760Y-178604350I0J-249750D01*
G01*
G37*
G36*
G01*
X77193760Y-178604350D02*
X77193760Y-180754850D01*
G75*
G02*
X76944010Y-181004600I-249750J0D01*
G01*
X76318510Y-181004600D01*
G75*
G02*
X76068760Y-180754850I0J249750D01*
G01*
X76068760Y-178604350D01*
G75*
G02*
X76318510Y-178354600I249750J0D01*
G01*
X76944010Y-178354600D01*
G75*
G02*
X77193760Y-178604350I0J-249750D01*
G01*
G37*
G36*
G01*
X68286600Y-181104120D02*
X68286600Y-180734120D01*
G75*
G02*
X68421600Y-180599120I135000J0D01*
G01*
X68691600Y-180599120D01*
G75*
G02*
X68826600Y-180734120I0J-135000D01*
G01*
X68826600Y-181104120D01*
G75*
G02*
X68691600Y-181239120I-135000J0D01*
G01*
X68421600Y-181239120D01*
G75*
G02*
X68286600Y-181104120I0J135000D01*
G01*
G37*
G36*
G01*
X67266600Y-181104120D02*
X67266600Y-180734120D01*
G75*
G02*
X67401600Y-180599120I135000J0D01*
G01*
X67671600Y-180599120D01*
G75*
G02*
X67806600Y-180734120I0J-135000D01*
G01*
X67806600Y-181104120D01*
G75*
G02*
X67671600Y-181239120I-135000J0D01*
G01*
X67401600Y-181239120D01*
G75*
G02*
X67266600Y-181104120I0J135000D01*
G01*
G37*
G36*
G01*
X67809680Y-153560000D02*
X67809680Y-153930000D01*
G75*
G02*
X67674680Y-154065000I-135000J0D01*
G01*
X67404680Y-154065000D01*
G75*
G02*
X67269680Y-153930000I0J135000D01*
G01*
X67269680Y-153560000D01*
G75*
G02*
X67404680Y-153425000I135000J0D01*
G01*
X67674680Y-153425000D01*
G75*
G02*
X67809680Y-153560000I0J-135000D01*
G01*
G37*
G36*
G01*
X68829680Y-153560000D02*
X68829680Y-153930000D01*
G75*
G02*
X68694680Y-154065000I-135000J0D01*
G01*
X68424680Y-154065000D01*
G75*
G02*
X68289680Y-153930000I0J135000D01*
G01*
X68289680Y-153560000D01*
G75*
G02*
X68424680Y-153425000I135000J0D01*
G01*
X68694680Y-153425000D01*
G75*
G02*
X68829680Y-153560000I0J-135000D01*
G01*
G37*
G36*
G01*
X73170200Y-154468800D02*
X73540200Y-154468800D01*
G75*
G02*
X73675200Y-154603800I0J-135000D01*
G01*
X73675200Y-154873800D01*
G75*
G02*
X73540200Y-155008800I-135000J0D01*
G01*
X73170200Y-155008800D01*
G75*
G02*
X73035200Y-154873800I0J135000D01*
G01*
X73035200Y-154603800D01*
G75*
G02*
X73170200Y-154468800I135000J0D01*
G01*
G37*
G36*
G01*
X73170200Y-153448800D02*
X73540200Y-153448800D01*
G75*
G02*
X73675200Y-153583800I0J-135000D01*
G01*
X73675200Y-153853800D01*
G75*
G02*
X73540200Y-153988800I-135000J0D01*
G01*
X73170200Y-153988800D01*
G75*
G02*
X73035200Y-153853800I0J135000D01*
G01*
X73035200Y-153583800D01*
G75*
G02*
X73170200Y-153448800I135000J0D01*
G01*
G37*
G36*
G01*
X75860500Y-158740000D02*
X75860500Y-159110000D01*
G75*
G02*
X75725500Y-159245000I-135000J0D01*
G01*
X75455500Y-159245000D01*
G75*
G02*
X75320500Y-159110000I0J135000D01*
G01*
X75320500Y-158740000D01*
G75*
G02*
X75455500Y-158605000I135000J0D01*
G01*
X75725500Y-158605000D01*
G75*
G02*
X75860500Y-158740000I0J-135000D01*
G01*
G37*
G36*
G01*
X76880500Y-158740000D02*
X76880500Y-159110000D01*
G75*
G02*
X76745500Y-159245000I-135000J0D01*
G01*
X76475500Y-159245000D01*
G75*
G02*
X76340500Y-159110000I0J135000D01*
G01*
X76340500Y-158740000D01*
G75*
G02*
X76475500Y-158605000I135000J0D01*
G01*
X76745500Y-158605000D01*
G75*
G02*
X76880500Y-158740000I0J-135000D01*
G01*
G37*
G36*
G01*
X69302600Y-164980200D02*
X69302600Y-164610200D01*
G75*
G02*
X69437600Y-164475200I135000J0D01*
G01*
X69707600Y-164475200D01*
G75*
G02*
X69842600Y-164610200I0J-135000D01*
G01*
X69842600Y-164980200D01*
G75*
G02*
X69707600Y-165115200I-135000J0D01*
G01*
X69437600Y-165115200D01*
G75*
G02*
X69302600Y-164980200I0J135000D01*
G01*
G37*
G36*
G01*
X68282600Y-164980200D02*
X68282600Y-164610200D01*
G75*
G02*
X68417600Y-164475200I135000J0D01*
G01*
X68687600Y-164475200D01*
G75*
G02*
X68822600Y-164610200I0J-135000D01*
G01*
X68822600Y-164980200D01*
G75*
G02*
X68687600Y-165115200I-135000J0D01*
G01*
X68417600Y-165115200D01*
G75*
G02*
X68282600Y-164980200I0J135000D01*
G01*
G37*
G36*
G01*
X68286600Y-158249200D02*
X68286600Y-157879200D01*
G75*
G02*
X68421600Y-157744200I135000J0D01*
G01*
X68691600Y-157744200D01*
G75*
G02*
X68826600Y-157879200I0J-135000D01*
G01*
X68826600Y-158249200D01*
G75*
G02*
X68691600Y-158384200I-135000J0D01*
G01*
X68421600Y-158384200D01*
G75*
G02*
X68286600Y-158249200I0J135000D01*
G01*
G37*
G36*
G01*
X67266600Y-158249200D02*
X67266600Y-157879200D01*
G75*
G02*
X67401600Y-157744200I135000J0D01*
G01*
X67671600Y-157744200D01*
G75*
G02*
X67806600Y-157879200I0J-135000D01*
G01*
X67806600Y-158249200D01*
G75*
G02*
X67671600Y-158384200I-135000J0D01*
G01*
X67401600Y-158384200D01*
G75*
G02*
X67266600Y-158249200I0J135000D01*
G01*
G37*
G36*
G01*
X67809280Y-130711360D02*
X67809280Y-131081360D01*
G75*
G02*
X67674280Y-131216360I-135000J0D01*
G01*
X67404280Y-131216360D01*
G75*
G02*
X67269280Y-131081360I0J135000D01*
G01*
X67269280Y-130711360D01*
G75*
G02*
X67404280Y-130576360I135000J0D01*
G01*
X67674280Y-130576360D01*
G75*
G02*
X67809280Y-130711360I0J-135000D01*
G01*
G37*
G36*
G01*
X68829280Y-130711360D02*
X68829280Y-131081360D01*
G75*
G02*
X68694280Y-131216360I-135000J0D01*
G01*
X68424280Y-131216360D01*
G75*
G02*
X68289280Y-131081360I0J135000D01*
G01*
X68289280Y-130711360D01*
G75*
G02*
X68424280Y-130576360I135000J0D01*
G01*
X68694280Y-130576360D01*
G75*
G02*
X68829280Y-130711360I0J-135000D01*
G01*
G37*
G36*
G01*
X73170200Y-131654520D02*
X73540200Y-131654520D01*
G75*
G02*
X73675200Y-131789520I0J-135000D01*
G01*
X73675200Y-132059520D01*
G75*
G02*
X73540200Y-132194520I-135000J0D01*
G01*
X73170200Y-132194520D01*
G75*
G02*
X73035200Y-132059520I0J135000D01*
G01*
X73035200Y-131789520D01*
G75*
G02*
X73170200Y-131654520I135000J0D01*
G01*
G37*
G36*
G01*
X73170200Y-130634520D02*
X73540200Y-130634520D01*
G75*
G02*
X73675200Y-130769520I0J-135000D01*
G01*
X73675200Y-131039520D01*
G75*
G02*
X73540200Y-131174520I-135000J0D01*
G01*
X73170200Y-131174520D01*
G75*
G02*
X73035200Y-131039520I0J135000D01*
G01*
X73035200Y-130769520D01*
G75*
G02*
X73170200Y-130634520I135000J0D01*
G01*
G37*
G36*
G01*
X75876180Y-135890000D02*
X75876180Y-136260000D01*
G75*
G02*
X75741180Y-136395000I-135000J0D01*
G01*
X75471180Y-136395000D01*
G75*
G02*
X75336180Y-136260000I0J135000D01*
G01*
X75336180Y-135890000D01*
G75*
G02*
X75471180Y-135755000I135000J0D01*
G01*
X75741180Y-135755000D01*
G75*
G02*
X75876180Y-135890000I0J-135000D01*
G01*
G37*
G36*
G01*
X76896180Y-135890000D02*
X76896180Y-136260000D01*
G75*
G02*
X76761180Y-136395000I-135000J0D01*
G01*
X76491180Y-136395000D01*
G75*
G02*
X76356180Y-136260000I0J135000D01*
G01*
X76356180Y-135890000D01*
G75*
G02*
X76491180Y-135755000I135000J0D01*
G01*
X76761180Y-135755000D01*
G75*
G02*
X76896180Y-135890000I0J-135000D01*
G01*
G37*
G36*
G01*
X74263680Y-132899590D02*
X74263680Y-135050090D01*
G75*
G02*
X74013930Y-135299840I-249750J0D01*
G01*
X73388430Y-135299840D01*
G75*
G02*
X73138680Y-135050090I0J249750D01*
G01*
X73138680Y-132899590D01*
G75*
G02*
X73388430Y-132649840I249750J0D01*
G01*
X74013930Y-132649840D01*
G75*
G02*
X74263680Y-132899590I0J-249750D01*
G01*
G37*
G36*
G01*
X77188680Y-132899837D02*
X77188680Y-135049843D01*
G75*
G02*
X76938683Y-135299840I-249997J0D01*
G01*
X76313677Y-135299840D01*
G75*
G02*
X76063680Y-135049843I0J249997D01*
G01*
X76063680Y-132899837D01*
G75*
G02*
X76313677Y-132649840I249997J0D01*
G01*
X76938683Y-132649840D01*
G75*
G02*
X77188680Y-132899837I0J-249997D01*
G01*
G37*
G36*
G01*
X69302600Y-142130360D02*
X69302600Y-141760360D01*
G75*
G02*
X69437600Y-141625360I135000J0D01*
G01*
X69707600Y-141625360D01*
G75*
G02*
X69842600Y-141760360I0J-135000D01*
G01*
X69842600Y-142130360D01*
G75*
G02*
X69707600Y-142265360I-135000J0D01*
G01*
X69437600Y-142265360D01*
G75*
G02*
X69302600Y-142130360I0J135000D01*
G01*
G37*
G36*
G01*
X68282600Y-142130360D02*
X68282600Y-141760360D01*
G75*
G02*
X68417600Y-141625360I135000J0D01*
G01*
X68687600Y-141625360D01*
G75*
G02*
X68822600Y-141760360I0J-135000D01*
G01*
X68822600Y-142130360D01*
G75*
G02*
X68687600Y-142265360I-135000J0D01*
G01*
X68417600Y-142265360D01*
G75*
G02*
X68282600Y-142130360I0J135000D01*
G01*
G37*
G36*
G01*
X67266600Y-135404440D02*
X67266600Y-135034440D01*
G75*
G02*
X67401600Y-134899440I135000J0D01*
G01*
X67671600Y-134899440D01*
G75*
G02*
X67806600Y-135034440I0J-135000D01*
G01*
X67806600Y-135404440D01*
G75*
G02*
X67671600Y-135539440I-135000J0D01*
G01*
X67401600Y-135539440D01*
G75*
G02*
X67266600Y-135404440I0J135000D01*
G01*
G37*
G36*
G01*
X68286600Y-135404440D02*
X68286600Y-135034440D01*
G75*
G02*
X68421600Y-134899440I135000J0D01*
G01*
X68691600Y-134899440D01*
G75*
G02*
X68826600Y-135034440I0J-135000D01*
G01*
X68826600Y-135404440D01*
G75*
G02*
X68691600Y-135539440I-135000J0D01*
G01*
X68421600Y-135539440D01*
G75*
G02*
X68286600Y-135404440I0J135000D01*
G01*
G37*
D21*
X68279280Y-178272440D03*
X64979280Y-178272440D03*
X68829920Y-185973720D03*
X72129920Y-185973720D03*
X68278400Y-155420000D03*
X64978400Y-155420000D03*
X68829920Y-163123880D03*
X72129920Y-163123880D03*
X68279280Y-132567680D03*
X64979280Y-132567680D03*
X68829920Y-140274040D03*
X72129920Y-140274040D03*
G36*
G01*
X72122640Y-176776200D02*
X72122640Y-176436200D01*
G75*
G02*
X72262640Y-176296200I140000J0D01*
G01*
X72542640Y-176296200D01*
G75*
G02*
X72682640Y-176436200I0J-140000D01*
G01*
X72682640Y-176776200D01*
G75*
G02*
X72542640Y-176916200I-140000J0D01*
G01*
X72262640Y-176916200D01*
G75*
G02*
X72122640Y-176776200I0J140000D01*
G01*
G37*
G36*
G01*
X71162640Y-176776200D02*
X71162640Y-176436200D01*
G75*
G02*
X71302640Y-176296200I140000J0D01*
G01*
X71582640Y-176296200D01*
G75*
G02*
X71722640Y-176436200I0J-140000D01*
G01*
X71722640Y-176776200D01*
G75*
G02*
X71582640Y-176916200I-140000J0D01*
G01*
X71302640Y-176916200D01*
G75*
G02*
X71162640Y-176776200I0J140000D01*
G01*
G37*
G36*
G01*
X63609559Y-183823600D02*
X66509561Y-183823600D01*
G75*
G02*
X66759560Y-184073599I0J-249999D01*
G01*
X66759560Y-184973601D01*
G75*
G02*
X66509561Y-185223600I-249999J0D01*
G01*
X63609559Y-185223600D01*
G75*
G02*
X63359560Y-184973601I0J249999D01*
G01*
X63359560Y-184073599D01*
G75*
G02*
X63609559Y-183823600I249999J0D01*
G01*
G37*
G36*
G01*
X63609559Y-179723600D02*
X66509561Y-179723600D01*
G75*
G02*
X66759560Y-179973599I0J-249999D01*
G01*
X66759560Y-180873601D01*
G75*
G02*
X66509561Y-181123600I-249999J0D01*
G01*
X63609559Y-181123600D01*
G75*
G02*
X63359560Y-180873601I0J249999D01*
G01*
X63359560Y-179973599D01*
G75*
G02*
X63609559Y-179723600I249999J0D01*
G01*
G37*
G36*
G01*
X67866920Y-179763600D02*
X67866920Y-180103600D01*
G75*
G02*
X67726920Y-180243600I-140000J0D01*
G01*
X67446920Y-180243600D01*
G75*
G02*
X67306920Y-180103600I0J140000D01*
G01*
X67306920Y-179763600D01*
G75*
G02*
X67446920Y-179623600I140000J0D01*
G01*
X67726920Y-179623600D01*
G75*
G02*
X67866920Y-179763600I0J-140000D01*
G01*
G37*
G36*
G01*
X68826920Y-179763600D02*
X68826920Y-180103600D01*
G75*
G02*
X68686920Y-180243600I-140000J0D01*
G01*
X68406920Y-180243600D01*
G75*
G02*
X68266920Y-180103600I0J140000D01*
G01*
X68266920Y-179763600D01*
G75*
G02*
X68406920Y-179623600I140000J0D01*
G01*
X68686920Y-179623600D01*
G75*
G02*
X68826920Y-179763600I0J-140000D01*
G01*
G37*
G36*
G01*
X72120100Y-153928900D02*
X72120100Y-153588900D01*
G75*
G02*
X72260100Y-153448900I140000J0D01*
G01*
X72540100Y-153448900D01*
G75*
G02*
X72680100Y-153588900I0J-140000D01*
G01*
X72680100Y-153928900D01*
G75*
G02*
X72540100Y-154068900I-140000J0D01*
G01*
X72260100Y-154068900D01*
G75*
G02*
X72120100Y-153928900I0J140000D01*
G01*
G37*
G36*
G01*
X71160100Y-153928900D02*
X71160100Y-153588900D01*
G75*
G02*
X71300100Y-153448900I140000J0D01*
G01*
X71580100Y-153448900D01*
G75*
G02*
X71720100Y-153588900I0J-140000D01*
G01*
X71720100Y-153928900D01*
G75*
G02*
X71580100Y-154068900I-140000J0D01*
G01*
X71300100Y-154068900D01*
G75*
G02*
X71160100Y-153928900I0J140000D01*
G01*
G37*
G36*
G01*
X57861600Y-156907500D02*
X48754400Y-156907500D01*
G75*
G02*
X48508000Y-156661100I0J246400D01*
G01*
X48508000Y-148353900D01*
G75*
G02*
X48754400Y-148107500I246400J0D01*
G01*
X57861600Y-148107500D01*
G75*
G02*
X58108000Y-148353900I0J-246400D01*
G01*
X58108000Y-156661100D01*
G75*
G02*
X57861600Y-156907500I-246400J0D01*
G01*
G37*
G36*
G01*
X57858003Y-170407500D02*
X48757997Y-170407500D01*
G75*
G02*
X48508000Y-170157503I0J249997D01*
G01*
X48508000Y-161857497D01*
G75*
G02*
X48757997Y-161607500I249997J0D01*
G01*
X57858003Y-161607500D01*
G75*
G02*
X58108000Y-161857497I0J-249997D01*
G01*
X58108000Y-170157503D01*
G75*
G02*
X57858003Y-170407500I-249997J0D01*
G01*
G37*
G36*
G01*
X63609559Y-160973760D02*
X66509561Y-160973760D01*
G75*
G02*
X66759560Y-161223759I0J-249999D01*
G01*
X66759560Y-162123761D01*
G75*
G02*
X66509561Y-162373760I-249999J0D01*
G01*
X63609559Y-162373760D01*
G75*
G02*
X63359560Y-162123761I0J249999D01*
G01*
X63359560Y-161223759D01*
G75*
G02*
X63609559Y-160973760I249999J0D01*
G01*
G37*
G36*
G01*
X63609559Y-156873760D02*
X66509561Y-156873760D01*
G75*
G02*
X66759560Y-157123759I0J-249999D01*
G01*
X66759560Y-158023761D01*
G75*
G02*
X66509561Y-158273760I-249999J0D01*
G01*
X63609559Y-158273760D01*
G75*
G02*
X63359560Y-158023761I0J249999D01*
G01*
X63359560Y-157123759D01*
G75*
G02*
X63609559Y-156873760I249999J0D01*
G01*
G37*
G36*
G01*
X67866920Y-156913760D02*
X67866920Y-157253760D01*
G75*
G02*
X67726920Y-157393760I-140000J0D01*
G01*
X67446920Y-157393760D01*
G75*
G02*
X67306920Y-157253760I0J140000D01*
G01*
X67306920Y-156913760D01*
G75*
G02*
X67446920Y-156773760I140000J0D01*
G01*
X67726920Y-156773760D01*
G75*
G02*
X67866920Y-156913760I0J-140000D01*
G01*
G37*
G36*
G01*
X68826920Y-156913760D02*
X68826920Y-157253760D01*
G75*
G02*
X68686920Y-157393760I-140000J0D01*
G01*
X68406920Y-157393760D01*
G75*
G02*
X68266920Y-157253760I0J140000D01*
G01*
X68266920Y-156913760D01*
G75*
G02*
X68406920Y-156773760I140000J0D01*
G01*
X68686920Y-156773760D01*
G75*
G02*
X68826920Y-156913760I0J-140000D01*
G01*
G37*
G36*
G01*
X72122640Y-131076520D02*
X72122640Y-130736520D01*
G75*
G02*
X72262640Y-130596520I140000J0D01*
G01*
X72542640Y-130596520D01*
G75*
G02*
X72682640Y-130736520I0J-140000D01*
G01*
X72682640Y-131076520D01*
G75*
G02*
X72542640Y-131216520I-140000J0D01*
G01*
X72262640Y-131216520D01*
G75*
G02*
X72122640Y-131076520I0J140000D01*
G01*
G37*
G36*
G01*
X71162640Y-131076520D02*
X71162640Y-130736520D01*
G75*
G02*
X71302640Y-130596520I140000J0D01*
G01*
X71582640Y-130596520D01*
G75*
G02*
X71722640Y-130736520I0J-140000D01*
G01*
X71722640Y-131076520D01*
G75*
G02*
X71582640Y-131216520I-140000J0D01*
G01*
X71302640Y-131216520D01*
G75*
G02*
X71162640Y-131076520I0J140000D01*
G01*
G37*
G36*
G01*
X57861600Y-134057500D02*
X48754400Y-134057500D01*
G75*
G02*
X48508000Y-133811100I0J246400D01*
G01*
X48508000Y-125503900D01*
G75*
G02*
X48754400Y-125257500I246400J0D01*
G01*
X57861600Y-125257500D01*
G75*
G02*
X58108000Y-125503900I0J-246400D01*
G01*
X58108000Y-133811100D01*
G75*
G02*
X57861600Y-134057500I-246400J0D01*
G01*
G37*
G36*
G01*
X57858003Y-147557500D02*
X48757997Y-147557500D01*
G75*
G02*
X48508000Y-147307503I0J249997D01*
G01*
X48508000Y-139007497D01*
G75*
G02*
X48757997Y-138757500I249997J0D01*
G01*
X57858003Y-138757500D01*
G75*
G02*
X58108000Y-139007497I0J-249997D01*
G01*
X58108000Y-147307503D01*
G75*
G02*
X57858003Y-147557500I-249997J0D01*
G01*
G37*
G36*
G01*
X63609559Y-138118840D02*
X66509561Y-138118840D01*
G75*
G02*
X66759560Y-138368839I0J-249999D01*
G01*
X66759560Y-139268841D01*
G75*
G02*
X66509561Y-139518840I-249999J0D01*
G01*
X63609559Y-139518840D01*
G75*
G02*
X63359560Y-139268841I0J249999D01*
G01*
X63359560Y-138368839D01*
G75*
G02*
X63609559Y-138118840I249999J0D01*
G01*
G37*
G36*
G01*
X63609559Y-134018840D02*
X66509561Y-134018840D01*
G75*
G02*
X66759560Y-134268839I0J-249999D01*
G01*
X66759560Y-135168841D01*
G75*
G02*
X66509561Y-135418840I-249999J0D01*
G01*
X63609559Y-135418840D01*
G75*
G02*
X63359560Y-135168841I0J249999D01*
G01*
X63359560Y-134268839D01*
G75*
G02*
X63609559Y-134018840I249999J0D01*
G01*
G37*
G36*
G01*
X67866920Y-134063920D02*
X67866920Y-134403920D01*
G75*
G02*
X67726920Y-134543920I-140000J0D01*
G01*
X67446920Y-134543920D01*
G75*
G02*
X67306920Y-134403920I0J140000D01*
G01*
X67306920Y-134063920D01*
G75*
G02*
X67446920Y-133923920I140000J0D01*
G01*
X67726920Y-133923920D01*
G75*
G02*
X67866920Y-134063920I0J-140000D01*
G01*
G37*
G36*
G01*
X68826920Y-134063920D02*
X68826920Y-134403920D01*
G75*
G02*
X68686920Y-134543920I-140000J0D01*
G01*
X68406920Y-134543920D01*
G75*
G02*
X68266920Y-134403920I0J140000D01*
G01*
X68266920Y-134063920D01*
G75*
G02*
X68406920Y-133923920I140000J0D01*
G01*
X68686920Y-133923920D01*
G75*
G02*
X68826920Y-134063920I0J-140000D01*
G01*
G37*
G36*
G01*
X30240036Y-175669808D02*
X29886482Y-176023362D01*
G75*
G02*
X29568284Y-176023362I-159099J159099D01*
G01*
X29250086Y-175705164D01*
G75*
G02*
X29250086Y-175386966I159099J159099D01*
G01*
X29603640Y-175033412D01*
G75*
G02*
X29921838Y-175033412I159099J-159099D01*
G01*
X30240036Y-175351610D01*
G75*
G02*
X30240036Y-175669808I-159099J-159099D01*
G01*
G37*
G36*
G01*
X31336052Y-176765824D02*
X30982498Y-177119378D01*
G75*
G02*
X30664300Y-177119378I-159099J159099D01*
G01*
X30346102Y-176801180D01*
G75*
G02*
X30346102Y-176482982I159099J159099D01*
G01*
X30699656Y-176129428D01*
G75*
G02*
X31017854Y-176129428I159099J-159099D01*
G01*
X31336052Y-176447626D01*
G75*
G02*
X31336052Y-176765824I-159099J-159099D01*
G01*
G37*
G36*
G01*
X33078505Y-189533202D02*
X32724951Y-189179648D01*
G75*
G02*
X32724951Y-188861450I159099J159099D01*
G01*
X33043149Y-188543252D01*
G75*
G02*
X33361347Y-188543252I159099J-159099D01*
G01*
X33714901Y-188896806D01*
G75*
G02*
X33714901Y-189215004I-159099J-159099D01*
G01*
X33396703Y-189533202D01*
G75*
G02*
X33078505Y-189533202I-159099J159099D01*
G01*
G37*
G36*
G01*
X31982489Y-190629218D02*
X31628935Y-190275664D01*
G75*
G02*
X31628935Y-189957466I159099J159099D01*
G01*
X31947133Y-189639268D01*
G75*
G02*
X32265331Y-189639268I159099J-159099D01*
G01*
X32618885Y-189992822D01*
G75*
G02*
X32618885Y-190311020I-159099J-159099D01*
G01*
X32300687Y-190629218D01*
G75*
G02*
X31982489Y-190629218I-159099J159099D01*
G01*
G37*
G36*
G01*
X25950868Y-177448747D02*
X25597314Y-177802301D01*
G75*
G02*
X25279116Y-177802301I-159099J159099D01*
G01*
X24960918Y-177484103D01*
G75*
G02*
X24960918Y-177165905I159099J159099D01*
G01*
X25314472Y-176812351D01*
G75*
G02*
X25632670Y-176812351I159099J-159099D01*
G01*
X25950868Y-177130549D01*
G75*
G02*
X25950868Y-177448747I-159099J-159099D01*
G01*
G37*
G36*
G01*
X27046884Y-178544763D02*
X26693330Y-178898317D01*
G75*
G02*
X26375132Y-178898317I-159099J159099D01*
G01*
X26056934Y-178580119D01*
G75*
G02*
X26056934Y-178261921I159099J159099D01*
G01*
X26410488Y-177908367D01*
G75*
G02*
X26728686Y-177908367I159099J-159099D01*
G01*
X27046884Y-178226565D01*
G75*
G02*
X27046884Y-178544763I-159099J-159099D01*
G01*
G37*
G36*
G01*
X37009587Y-176666967D02*
X36656033Y-176313413D01*
G75*
G02*
X36656033Y-175995215I159099J159099D01*
G01*
X36974231Y-175677017D01*
G75*
G02*
X37292429Y-175677017I159099J-159099D01*
G01*
X37645983Y-176030571D01*
G75*
G02*
X37645983Y-176348769I-159099J-159099D01*
G01*
X37327785Y-176666967D01*
G75*
G02*
X37009587Y-176666967I-159099J159099D01*
G01*
G37*
G36*
G01*
X35913571Y-177762983D02*
X35560017Y-177409429D01*
G75*
G02*
X35560017Y-177091231I159099J159099D01*
G01*
X35878215Y-176773033D01*
G75*
G02*
X36196413Y-176773033I159099J-159099D01*
G01*
X36549967Y-177126587D01*
G75*
G02*
X36549967Y-177444785I-159099J-159099D01*
G01*
X36231769Y-177762983D01*
G75*
G02*
X35913571Y-177762983I-159099J159099D01*
G01*
G37*
G36*
G01*
X39649017Y-177343224D02*
X38729776Y-176423983D01*
G75*
G02*
X38729776Y-176070431I176776J176776D01*
G01*
X39189397Y-175610810D01*
G75*
G02*
X39542949Y-175610810I176776J-176776D01*
G01*
X40462190Y-176530051D01*
G75*
G02*
X40462190Y-176883603I-176776J-176776D01*
G01*
X40002569Y-177343224D01*
G75*
G02*
X39649017Y-177343224I-176776J176776D01*
G01*
G37*
G36*
G01*
X37563051Y-179429190D02*
X36643810Y-178509949D01*
G75*
G02*
X36643810Y-178156397I176776J176776D01*
G01*
X37103431Y-177696776D01*
G75*
G02*
X37456983Y-177696776I176776J-176776D01*
G01*
X38376224Y-178616017D01*
G75*
G02*
X38376224Y-178969569I-176776J-176776D01*
G01*
X37916603Y-179429190D01*
G75*
G02*
X37563051Y-179429190I-176776J176776D01*
G01*
G37*
G36*
G01*
X24837174Y-186623458D02*
X25190728Y-186977012D01*
G75*
G02*
X25190728Y-187295210I-159099J-159099D01*
G01*
X24872530Y-187613408D01*
G75*
G02*
X24554332Y-187613408I-159099J159099D01*
G01*
X24200778Y-187259854D01*
G75*
G02*
X24200778Y-186941656I159099J159099D01*
G01*
X24518976Y-186623458D01*
G75*
G02*
X24837174Y-186623458I159099J-159099D01*
G01*
G37*
G36*
G01*
X25933190Y-185527442D02*
X26286744Y-185880996D01*
G75*
G02*
X26286744Y-186199194I-159099J-159099D01*
G01*
X25968546Y-186517392D01*
G75*
G02*
X25650348Y-186517392I-159099J159099D01*
G01*
X25296794Y-186163838D01*
G75*
G02*
X25296794Y-185845640I159099J159099D01*
G01*
X25614992Y-185527442D01*
G75*
G02*
X25933190Y-185527442I159099J-159099D01*
G01*
G37*
G36*
G01*
X36816130Y-187832046D02*
X37169684Y-187478492D01*
G75*
G02*
X37487882Y-187478492I159099J-159099D01*
G01*
X37806080Y-187796690D01*
G75*
G02*
X37806080Y-188114888I-159099J-159099D01*
G01*
X37452526Y-188468442D01*
G75*
G02*
X37134328Y-188468442I-159099J159099D01*
G01*
X36816130Y-188150244D01*
G75*
G02*
X36816130Y-187832046I159099J159099D01*
G01*
G37*
G36*
G01*
X35720114Y-186736030D02*
X36073668Y-186382476D01*
G75*
G02*
X36391866Y-186382476I159099J-159099D01*
G01*
X36710064Y-186700674D01*
G75*
G02*
X36710064Y-187018872I-159099J-159099D01*
G01*
X36356510Y-187372426D01*
G75*
G02*
X36038312Y-187372426I-159099J159099D01*
G01*
X35720114Y-187054228D01*
G75*
G02*
X35720114Y-186736030I159099J159099D01*
G01*
G37*
G36*
G01*
X28503524Y-189137223D02*
X28857078Y-188783669D01*
G75*
G02*
X29175276Y-188783669I159099J-159099D01*
G01*
X29493474Y-189101867D01*
G75*
G02*
X29493474Y-189420065I-159099J-159099D01*
G01*
X29139920Y-189773619D01*
G75*
G02*
X28821722Y-189773619I-159099J159099D01*
G01*
X28503524Y-189455421D01*
G75*
G02*
X28503524Y-189137223I159099J159099D01*
G01*
G37*
G36*
G01*
X27407508Y-188041207D02*
X27761062Y-187687653D01*
G75*
G02*
X28079260Y-187687653I159099J-159099D01*
G01*
X28397458Y-188005851D01*
G75*
G02*
X28397458Y-188324049I-159099J-159099D01*
G01*
X28043904Y-188677603D01*
G75*
G02*
X27725706Y-188677603I-159099J159099D01*
G01*
X27407508Y-188359405D01*
G75*
G02*
X27407508Y-188041207I159099J159099D01*
G01*
G37*
G36*
G01*
X37572167Y-184332432D02*
X37925721Y-184685986D01*
G75*
G02*
X37925721Y-185004184I-159099J-159099D01*
G01*
X37607523Y-185322382D01*
G75*
G02*
X37289325Y-185322382I-159099J159099D01*
G01*
X36935771Y-184968828D01*
G75*
G02*
X36935771Y-184650630I159099J159099D01*
G01*
X37253969Y-184332432D01*
G75*
G02*
X37572167Y-184332432I159099J-159099D01*
G01*
G37*
G36*
G01*
X38668183Y-183236416D02*
X39021737Y-183589970D01*
G75*
G02*
X39021737Y-183908168I-159099J-159099D01*
G01*
X38703539Y-184226366D01*
G75*
G02*
X38385341Y-184226366I-159099J159099D01*
G01*
X38031787Y-183872812D01*
G75*
G02*
X38031787Y-183554614I159099J159099D01*
G01*
X38349985Y-183236416D01*
G75*
G02*
X38668183Y-183236416I159099J-159099D01*
G01*
G37*
G36*
G01*
X24112391Y-188302836D02*
X23758837Y-188656390D01*
G75*
G02*
X23440639Y-188656390I-159099J159099D01*
G01*
X23122441Y-188338192D01*
G75*
G02*
X23122441Y-188019994I159099J159099D01*
G01*
X23475995Y-187666440D01*
G75*
G02*
X23794193Y-187666440I159099J-159099D01*
G01*
X24112391Y-187984638D01*
G75*
G02*
X24112391Y-188302836I-159099J-159099D01*
G01*
G37*
G36*
G01*
X25208407Y-189398852D02*
X24854853Y-189752406D01*
G75*
G02*
X24536655Y-189752406I-159099J159099D01*
G01*
X24218457Y-189434208D01*
G75*
G02*
X24218457Y-189116010I159099J159099D01*
G01*
X24572011Y-188762456D01*
G75*
G02*
X24890209Y-188762456I159099J-159099D01*
G01*
X25208407Y-189080654D01*
G75*
G02*
X25208407Y-189398852I-159099J-159099D01*
G01*
G37*
G36*
G01*
X34238489Y-137760114D02*
X33531382Y-138467221D01*
G75*
G02*
X33432388Y-138467221I-49497J49497D01*
G01*
X33170759Y-138205592D01*
G75*
G02*
X33170759Y-138106598I49497J49497D01*
G01*
X33877866Y-137399491D01*
G75*
G02*
X33976860Y-137399491I49497J-49497D01*
G01*
X34238489Y-137661120D01*
G75*
G02*
X34238489Y-137760114I-49497J-49497D01*
G01*
G37*
G36*
G01*
X30667600Y-142250243D02*
X29960493Y-142957350D01*
G75*
G02*
X29861499Y-142957350I-49497J49497D01*
G01*
X29599870Y-142695721D01*
G75*
G02*
X29599870Y-142596727I49497J49497D01*
G01*
X30306977Y-141889620D01*
G75*
G02*
X30405971Y-141889620I49497J-49497D01*
G01*
X30667600Y-142151249D01*
G75*
G02*
X30667600Y-142250243I-49497J-49497D01*
G01*
G37*
G36*
G01*
X35617347Y-139138973D02*
X34910240Y-139846080D01*
G75*
G02*
X34811246Y-139846080I-49497J49497D01*
G01*
X34549617Y-139584451D01*
G75*
G02*
X34549617Y-139485457I49497J49497D01*
G01*
X35256724Y-138778350D01*
G75*
G02*
X35355718Y-138778350I49497J-49497D01*
G01*
X35617347Y-139039979D01*
G75*
G02*
X35617347Y-139138973I-49497J-49497D01*
G01*
G37*
G36*
G01*
X30207980Y-141790623D02*
X29500873Y-142497730D01*
G75*
G02*
X29401879Y-142497730I-49497J49497D01*
G01*
X29140250Y-142236101D01*
G75*
G02*
X29140250Y-142137107I49497J49497D01*
G01*
X29847357Y-141430000D01*
G75*
G02*
X29946351Y-141430000I49497J-49497D01*
G01*
X30207980Y-141691629D01*
G75*
G02*
X30207980Y-141790623I-49497J-49497D01*
G01*
G37*
G36*
G01*
X31127219Y-142709862D02*
X30420112Y-143416969D01*
G75*
G02*
X30321118Y-143416969I-49497J49497D01*
G01*
X30059489Y-143155340D01*
G75*
G02*
X30059489Y-143056346I49497J49497D01*
G01*
X30766596Y-142349239D01*
G75*
G02*
X30865590Y-142349239I49497J-49497D01*
G01*
X31127219Y-142610868D01*
G75*
G02*
X31127219Y-142709862I-49497J-49497D01*
G01*
G37*
G36*
G01*
X32046458Y-143629101D02*
X31339351Y-144336208D01*
G75*
G02*
X31240357Y-144336208I-49497J49497D01*
G01*
X30978728Y-144074579D01*
G75*
G02*
X30978728Y-143975585I49497J49497D01*
G01*
X31685835Y-143268478D01*
G75*
G02*
X31784829Y-143268478I49497J-49497D01*
G01*
X32046458Y-143530107D01*
G75*
G02*
X32046458Y-143629101I-49497J-49497D01*
G01*
G37*
G36*
G01*
X31586839Y-143169481D02*
X30879732Y-143876588D01*
G75*
G02*
X30780738Y-143876588I-49497J49497D01*
G01*
X30519109Y-143614959D01*
G75*
G02*
X30519109Y-143515965I49497J49497D01*
G01*
X31226216Y-142808858D01*
G75*
G02*
X31325210Y-142808858I49497J-49497D01*
G01*
X31586839Y-143070487D01*
G75*
G02*
X31586839Y-143169481I-49497J-49497D01*
G01*
G37*
G36*
G01*
X34698109Y-138219734D02*
X33991002Y-138926841D01*
G75*
G02*
X33892008Y-138926841I-49497J49497D01*
G01*
X33630379Y-138665212D01*
G75*
G02*
X33630379Y-138566218I49497J49497D01*
G01*
X34337486Y-137859111D01*
G75*
G02*
X34436480Y-137859111I49497J-49497D01*
G01*
X34698109Y-138120740D01*
G75*
G02*
X34698109Y-138219734I-49497J-49497D01*
G01*
G37*
G36*
G01*
X32506077Y-144088720D02*
X31798970Y-144795827D01*
G75*
G02*
X31699976Y-144795827I-49497J49497D01*
G01*
X31438347Y-144534198D01*
G75*
G02*
X31438347Y-144435204I49497J49497D01*
G01*
X32145454Y-143728097D01*
G75*
G02*
X32244448Y-143728097I49497J-49497D01*
G01*
X32506077Y-143989726D01*
G75*
G02*
X32506077Y-144088720I-49497J-49497D01*
G01*
G37*
G36*
G01*
X32965697Y-144548340D02*
X32258590Y-145255447D01*
G75*
G02*
X32159596Y-145255447I-49497J49497D01*
G01*
X31897967Y-144993818D01*
G75*
G02*
X31897967Y-144894824I49497J49497D01*
G01*
X32605074Y-144187717D01*
G75*
G02*
X32704068Y-144187717I49497J-49497D01*
G01*
X32965697Y-144449346D01*
G75*
G02*
X32965697Y-144548340I-49497J-49497D01*
G01*
G37*
G36*
G01*
X36996206Y-140517831D02*
X36289099Y-141224938D01*
G75*
G02*
X36190105Y-141224938I-49497J49497D01*
G01*
X35928476Y-140963309D01*
G75*
G02*
X35928476Y-140864315I49497J49497D01*
G01*
X36635583Y-140157208D01*
G75*
G02*
X36734577Y-140157208I49497J-49497D01*
G01*
X36996206Y-140418837D01*
G75*
G02*
X36996206Y-140517831I-49497J-49497D01*
G01*
G37*
G36*
G01*
X36536586Y-140058211D02*
X35829479Y-140765318D01*
G75*
G02*
X35730485Y-140765318I-49497J49497D01*
G01*
X35468856Y-140503689D01*
G75*
G02*
X35468856Y-140404695I49497J49497D01*
G01*
X36175963Y-139697588D01*
G75*
G02*
X36274957Y-139697588I49497J-49497D01*
G01*
X36536586Y-139959217D01*
G75*
G02*
X36536586Y-140058211I-49497J-49497D01*
G01*
G37*
G36*
G01*
X36076967Y-139598592D02*
X35369860Y-140305699D01*
G75*
G02*
X35270866Y-140305699I-49497J49497D01*
G01*
X35009237Y-140044070D01*
G75*
G02*
X35009237Y-139945076I49497J49497D01*
G01*
X35716344Y-139237969D01*
G75*
G02*
X35815338Y-139237969I49497J-49497D01*
G01*
X36076967Y-139499598D01*
G75*
G02*
X36076967Y-139598592I-49497J-49497D01*
G01*
G37*
G36*
G01*
X35157728Y-138679353D02*
X34450621Y-139386460D01*
G75*
G02*
X34351627Y-139386460I-49497J49497D01*
G01*
X34089998Y-139124831D01*
G75*
G02*
X34089998Y-139025837I49497J49497D01*
G01*
X34797105Y-138318730D01*
G75*
G02*
X34896099Y-138318730I49497J-49497D01*
G01*
X35157728Y-138580359D01*
G75*
G02*
X35157728Y-138679353I-49497J-49497D01*
G01*
G37*
G36*
G01*
X33018731Y-144382170D02*
X30013527Y-141376966D01*
G75*
G02*
X30013527Y-141277972I49497J49497D01*
G01*
X33018731Y-138272768D01*
G75*
G02*
X33117725Y-138272768I49497J-49497D01*
G01*
X36122929Y-141277972D01*
G75*
G02*
X36122929Y-141376966I-49497J-49497D01*
G01*
X33117725Y-144382170D01*
G75*
G02*
X33018731Y-144382170I-49497J49497D01*
G01*
G37*
G36*
G01*
X36635583Y-142497730D02*
X35928476Y-141790623D01*
G75*
G02*
X35928476Y-141691629I49497J49497D01*
G01*
X36190105Y-141430000D01*
G75*
G02*
X36289099Y-141430000I49497J-49497D01*
G01*
X36996206Y-142137107D01*
G75*
G02*
X36996206Y-142236101I-49497J-49497D01*
G01*
X36734577Y-142497730D01*
G75*
G02*
X36635583Y-142497730I-49497J49497D01*
G01*
G37*
G36*
G01*
X36175963Y-142957350D02*
X35468856Y-142250243D01*
G75*
G02*
X35468856Y-142151249I49497J49497D01*
G01*
X35730485Y-141889620D01*
G75*
G02*
X35829479Y-141889620I49497J-49497D01*
G01*
X36536586Y-142596727D01*
G75*
G02*
X36536586Y-142695721I-49497J-49497D01*
G01*
X36274957Y-142957350D01*
G75*
G02*
X36175963Y-142957350I-49497J49497D01*
G01*
G37*
G36*
G01*
X35716344Y-143416969D02*
X35009237Y-142709862D01*
G75*
G02*
X35009237Y-142610868I49497J49497D01*
G01*
X35270866Y-142349239D01*
G75*
G02*
X35369860Y-142349239I49497J-49497D01*
G01*
X36076967Y-143056346D01*
G75*
G02*
X36076967Y-143155340I-49497J-49497D01*
G01*
X35815338Y-143416969D01*
G75*
G02*
X35716344Y-143416969I-49497J49497D01*
G01*
G37*
G36*
G01*
X35256724Y-143876588D02*
X34549617Y-143169481D01*
G75*
G02*
X34549617Y-143070487I49497J49497D01*
G01*
X34811246Y-142808858D01*
G75*
G02*
X34910240Y-142808858I49497J-49497D01*
G01*
X35617347Y-143515965D01*
G75*
G02*
X35617347Y-143614959I-49497J-49497D01*
G01*
X35355718Y-143876588D01*
G75*
G02*
X35256724Y-143876588I-49497J49497D01*
G01*
G37*
G36*
G01*
X34797105Y-144336208D02*
X34089998Y-143629101D01*
G75*
G02*
X34089998Y-143530107I49497J49497D01*
G01*
X34351627Y-143268478D01*
G75*
G02*
X34450621Y-143268478I49497J-49497D01*
G01*
X35157728Y-143975585D01*
G75*
G02*
X35157728Y-144074579I-49497J-49497D01*
G01*
X34896099Y-144336208D01*
G75*
G02*
X34797105Y-144336208I-49497J49497D01*
G01*
G37*
G36*
G01*
X34337486Y-144795827D02*
X33630379Y-144088720D01*
G75*
G02*
X33630379Y-143989726I49497J49497D01*
G01*
X33892008Y-143728097D01*
G75*
G02*
X33991002Y-143728097I49497J-49497D01*
G01*
X34698109Y-144435204D01*
G75*
G02*
X34698109Y-144534198I-49497J-49497D01*
G01*
X34436480Y-144795827D01*
G75*
G02*
X34337486Y-144795827I-49497J49497D01*
G01*
G37*
G36*
G01*
X33877866Y-145255447D02*
X33170759Y-144548340D01*
G75*
G02*
X33170759Y-144449346I49497J49497D01*
G01*
X33432388Y-144187717D01*
G75*
G02*
X33531382Y-144187717I49497J-49497D01*
G01*
X34238489Y-144894824D01*
G75*
G02*
X34238489Y-144993818I-49497J-49497D01*
G01*
X33976860Y-145255447D01*
G75*
G02*
X33877866Y-145255447I-49497J49497D01*
G01*
G37*
G36*
G01*
X32605074Y-138467221D02*
X31897967Y-137760114D01*
G75*
G02*
X31897967Y-137661120I49497J49497D01*
G01*
X32159596Y-137399491D01*
G75*
G02*
X32258590Y-137399491I49497J-49497D01*
G01*
X32965697Y-138106598D01*
G75*
G02*
X32965697Y-138205592I-49497J-49497D01*
G01*
X32704068Y-138467221D01*
G75*
G02*
X32605074Y-138467221I-49497J49497D01*
G01*
G37*
G36*
G01*
X32145454Y-138926841D02*
X31438347Y-138219734D01*
G75*
G02*
X31438347Y-138120740I49497J49497D01*
G01*
X31699976Y-137859111D01*
G75*
G02*
X31798970Y-137859111I49497J-49497D01*
G01*
X32506077Y-138566218D01*
G75*
G02*
X32506077Y-138665212I-49497J-49497D01*
G01*
X32244448Y-138926841D01*
G75*
G02*
X32145454Y-138926841I-49497J49497D01*
G01*
G37*
G36*
G01*
X31685835Y-139386460D02*
X30978728Y-138679353D01*
G75*
G02*
X30978728Y-138580359I49497J49497D01*
G01*
X31240357Y-138318730D01*
G75*
G02*
X31339351Y-138318730I49497J-49497D01*
G01*
X32046458Y-139025837D01*
G75*
G02*
X32046458Y-139124831I-49497J-49497D01*
G01*
X31784829Y-139386460D01*
G75*
G02*
X31685835Y-139386460I-49497J49497D01*
G01*
G37*
G36*
G01*
X31226216Y-139846080D02*
X30519109Y-139138973D01*
G75*
G02*
X30519109Y-139039979I49497J49497D01*
G01*
X30780738Y-138778350D01*
G75*
G02*
X30879732Y-138778350I49497J-49497D01*
G01*
X31586839Y-139485457D01*
G75*
G02*
X31586839Y-139584451I-49497J-49497D01*
G01*
X31325210Y-139846080D01*
G75*
G02*
X31226216Y-139846080I-49497J49497D01*
G01*
G37*
G36*
G01*
X30766596Y-140305699D02*
X30059489Y-139598592D01*
G75*
G02*
X30059489Y-139499598I49497J49497D01*
G01*
X30321118Y-139237969D01*
G75*
G02*
X30420112Y-139237969I49497J-49497D01*
G01*
X31127219Y-139945076D01*
G75*
G02*
X31127219Y-140044070I-49497J-49497D01*
G01*
X30865590Y-140305699D01*
G75*
G02*
X30766596Y-140305699I-49497J49497D01*
G01*
G37*
G36*
G01*
X30306977Y-140765318D02*
X29599870Y-140058211D01*
G75*
G02*
X29599870Y-139959217I49497J49497D01*
G01*
X29861499Y-139697588D01*
G75*
G02*
X29960493Y-139697588I49497J-49497D01*
G01*
X30667600Y-140404695D01*
G75*
G02*
X30667600Y-140503689I-49497J-49497D01*
G01*
X30405971Y-140765318D01*
G75*
G02*
X30306977Y-140765318I-49497J49497D01*
G01*
G37*
G36*
G01*
X29847357Y-141224938D02*
X29140250Y-140517831D01*
G75*
G02*
X29140250Y-140418837I49497J49497D01*
G01*
X29401879Y-140157208D01*
G75*
G02*
X29500873Y-140157208I49497J-49497D01*
G01*
X30207980Y-140864315D01*
G75*
G02*
X30207980Y-140963309I-49497J-49497D01*
G01*
X29946351Y-141224938D01*
G75*
G02*
X29847357Y-141224938I-49497J49497D01*
G01*
G37*
D10*
G36*
X31070887Y-179187664D02*
G01*
X34677132Y-182793909D01*
X31070887Y-186400154D01*
X27464642Y-182793909D01*
X31070887Y-179187664D01*
G37*
G36*
X35013008Y-183801536D02*
G01*
X35260495Y-183554049D01*
X36250444Y-184543998D01*
X36002957Y-184791485D01*
X35013008Y-183801536D01*
G37*
G36*
X29073311Y-177861839D02*
G01*
X29320798Y-177614352D01*
X30310747Y-178604301D01*
X30063260Y-178851788D01*
X29073311Y-177861839D01*
G37*
G36*
X32184581Y-186629963D02*
G01*
X32432068Y-186382476D01*
X33422017Y-187372425D01*
X33174530Y-187619912D01*
X32184581Y-186629963D01*
G37*
G36*
X25891330Y-181043820D02*
G01*
X26138817Y-180796333D01*
X27128766Y-181786282D01*
X26881279Y-182033769D01*
X25891330Y-181043820D01*
G37*
G36*
X32538134Y-186276410D02*
G01*
X32785621Y-186028923D01*
X33775570Y-187018872D01*
X33528083Y-187266359D01*
X32538134Y-186276410D01*
G37*
G36*
X26244884Y-180690266D02*
G01*
X26492371Y-180442779D01*
X27482320Y-181432728D01*
X27234833Y-181680215D01*
X26244884Y-180690266D01*
G37*
G36*
X27659097Y-179276053D02*
G01*
X27906584Y-179028566D01*
X28896533Y-180018515D01*
X28649046Y-180266002D01*
X27659097Y-179276053D01*
G37*
G36*
X33245241Y-185569303D02*
G01*
X33492728Y-185321816D01*
X34482677Y-186311765D01*
X34235190Y-186559252D01*
X33245241Y-185569303D01*
G37*
G36*
X26951990Y-179983160D02*
G01*
X27199477Y-179735673D01*
X28189426Y-180725622D01*
X27941939Y-180973109D01*
X26951990Y-179983160D01*
G37*
G36*
X31831027Y-186983517D02*
G01*
X32078514Y-186736030D01*
X33068463Y-187725979D01*
X32820976Y-187973466D01*
X31831027Y-186983517D01*
G37*
G36*
X25537777Y-181397373D02*
G01*
X25785264Y-181149886D01*
X26775213Y-182139835D01*
X26527726Y-182387322D01*
X25537777Y-181397373D01*
G37*
G36*
X31477474Y-187337070D02*
G01*
X31724961Y-187089583D01*
X32714910Y-188079532D01*
X32467423Y-188327019D01*
X31477474Y-187337070D01*
G37*
G36*
X29426864Y-177508286D02*
G01*
X29674351Y-177260799D01*
X30664300Y-178250748D01*
X30416813Y-178498235D01*
X29426864Y-177508286D01*
G37*
G36*
X33598794Y-185215750D02*
G01*
X33846281Y-184968263D01*
X34836230Y-185958212D01*
X34588743Y-186205699D01*
X33598794Y-185215750D01*
G37*
G36*
X27305544Y-179629606D02*
G01*
X27553031Y-179382119D01*
X28542980Y-180372068D01*
X28295493Y-180619555D01*
X27305544Y-179629606D01*
G37*
G36*
X32891687Y-185922857D02*
G01*
X33139174Y-185675370D01*
X34129123Y-186665319D01*
X33881636Y-186912806D01*
X32891687Y-185922857D01*
G37*
G36*
X26598437Y-180336713D02*
G01*
X26845924Y-180089226D01*
X27835873Y-181079175D01*
X27588386Y-181326662D01*
X26598437Y-180336713D01*
G37*
G36*
X33952348Y-184862196D02*
G01*
X34199835Y-184614709D01*
X35189784Y-185604658D01*
X34942297Y-185852145D01*
X33952348Y-184862196D01*
G37*
G36*
X35366561Y-183447983D02*
G01*
X35614048Y-183200496D01*
X36603997Y-184190445D01*
X36356510Y-184437932D01*
X35366561Y-183447983D01*
G37*
G36*
X28012651Y-178922499D02*
G01*
X28260138Y-178675012D01*
X29250087Y-179664961D01*
X29002600Y-179912448D01*
X28012651Y-178922499D01*
G37*
G36*
X34305901Y-184508643D02*
G01*
X34553388Y-184261156D01*
X35543337Y-185251105D01*
X35295850Y-185498592D01*
X34305901Y-184508643D01*
G37*
G36*
X28719757Y-178215393D02*
G01*
X28967244Y-177967906D01*
X29957193Y-178957855D01*
X29709706Y-179205342D01*
X28719757Y-178215393D01*
G37*
G36*
X34659454Y-184155090D02*
G01*
X34906941Y-183907603D01*
X35896890Y-184897552D01*
X35649403Y-185145039D01*
X34659454Y-184155090D01*
G37*
G36*
X28366204Y-178568946D02*
G01*
X28613691Y-178321459D01*
X29603640Y-179311408D01*
X29356153Y-179558895D01*
X28366204Y-178568946D01*
G37*
G36*
X26527726Y-183200496D02*
G01*
X26775213Y-183447983D01*
X25785264Y-184437932D01*
X25537777Y-184190445D01*
X26527726Y-183200496D01*
G37*
G36*
X32467423Y-177260799D02*
G01*
X32714910Y-177508286D01*
X31724961Y-178498235D01*
X31477474Y-178250748D01*
X32467423Y-177260799D01*
G37*
G36*
X26881279Y-183554049D02*
G01*
X27128766Y-183801536D01*
X26138817Y-184791485D01*
X25891330Y-184543998D01*
X26881279Y-183554049D01*
G37*
G36*
X32820976Y-177614352D02*
G01*
X33068463Y-177861839D01*
X32078514Y-178851788D01*
X31831027Y-178604301D01*
X32820976Y-177614352D01*
G37*
G36*
X27234833Y-183907603D02*
G01*
X27482320Y-184155090D01*
X26492371Y-185145039D01*
X26244884Y-184897552D01*
X27234833Y-183907603D01*
G37*
G36*
X33174530Y-177967906D02*
G01*
X33422017Y-178215393D01*
X32432068Y-179205342D01*
X32184581Y-178957855D01*
X33174530Y-177967906D01*
G37*
G36*
X27588386Y-184261156D02*
G01*
X27835873Y-184508643D01*
X26845924Y-185498592D01*
X26598437Y-185251105D01*
X27588386Y-184261156D01*
G37*
G36*
X33528083Y-178321459D02*
G01*
X33775570Y-178568946D01*
X32785621Y-179558895D01*
X32538134Y-179311408D01*
X33528083Y-178321459D01*
G37*
G36*
X27941939Y-184614709D02*
G01*
X28189426Y-184862196D01*
X27199477Y-185852145D01*
X26951990Y-185604658D01*
X27941939Y-184614709D01*
G37*
G36*
X33881636Y-178675012D02*
G01*
X34129123Y-178922499D01*
X33139174Y-179912448D01*
X32891687Y-179664961D01*
X33881636Y-178675012D01*
G37*
G36*
X28295493Y-184968263D02*
G01*
X28542980Y-185215750D01*
X27553031Y-186205699D01*
X27305544Y-185958212D01*
X28295493Y-184968263D01*
G37*
G36*
X34235190Y-179028566D02*
G01*
X34482677Y-179276053D01*
X33492728Y-180266002D01*
X33245241Y-180018515D01*
X34235190Y-179028566D01*
G37*
G36*
X28649046Y-185321816D02*
G01*
X28896533Y-185569303D01*
X27906584Y-186559252D01*
X27659097Y-186311765D01*
X28649046Y-185321816D01*
G37*
G36*
X34588743Y-179382119D02*
G01*
X34836230Y-179629606D01*
X33846281Y-180619555D01*
X33598794Y-180372068D01*
X34588743Y-179382119D01*
G37*
G36*
X29002600Y-185675370D02*
G01*
X29250087Y-185922857D01*
X28260138Y-186912806D01*
X28012651Y-186665319D01*
X29002600Y-185675370D01*
G37*
G36*
X34942297Y-179735673D02*
G01*
X35189784Y-179983160D01*
X34199835Y-180973109D01*
X33952348Y-180725622D01*
X34942297Y-179735673D01*
G37*
G36*
X29356153Y-186028923D02*
G01*
X29603640Y-186276410D01*
X28613691Y-187266359D01*
X28366204Y-187018872D01*
X29356153Y-186028923D01*
G37*
G36*
X35295850Y-180089226D02*
G01*
X35543337Y-180336713D01*
X34553388Y-181326662D01*
X34305901Y-181079175D01*
X35295850Y-180089226D01*
G37*
G36*
X29709706Y-186382476D02*
G01*
X29957193Y-186629963D01*
X28967244Y-187619912D01*
X28719757Y-187372425D01*
X29709706Y-186382476D01*
G37*
G36*
X35649403Y-180442779D02*
G01*
X35896890Y-180690266D01*
X34906941Y-181680215D01*
X34659454Y-181432728D01*
X35649403Y-180442779D01*
G37*
G36*
X30063260Y-186736030D02*
G01*
X30310747Y-186983517D01*
X29320798Y-187973466D01*
X29073311Y-187725979D01*
X30063260Y-186736030D01*
G37*
G36*
X36002957Y-180796333D02*
G01*
X36250444Y-181043820D01*
X35260495Y-182033769D01*
X35013008Y-181786282D01*
X36002957Y-180796333D01*
G37*
G36*
X30416813Y-187089583D02*
G01*
X30664300Y-187337070D01*
X29674351Y-188327019D01*
X29426864Y-188079532D01*
X30416813Y-187089583D01*
G37*
G36*
X36356510Y-181149886D02*
G01*
X36603997Y-181397373D01*
X35614048Y-182387322D01*
X35366561Y-182139835D01*
X36356510Y-181149886D01*
G37*
G36*
G01*
X30167267Y-167594749D02*
X27727749Y-170034267D01*
G75*
G02*
X27678251Y-170034267I-24749J24749D01*
G01*
X25238733Y-167594749D01*
G75*
G02*
X25238733Y-167545251I24749J24749D01*
G01*
X27678251Y-165105733D01*
G75*
G02*
X27727749Y-165105733I24749J-24749D01*
G01*
X30167267Y-167545251D01*
G75*
G02*
X30167267Y-167594749I-24749J-24749D01*
G01*
G37*
G36*
G01*
X25641784Y-168358424D02*
X25853916Y-168570556D01*
G75*
G02*
X25853916Y-168620054I-24749J-24749D01*
G01*
X25429652Y-169044318D01*
G75*
G02*
X25380154Y-169044318I-24749J24749D01*
G01*
X25168022Y-168832186D01*
G75*
G02*
X25168022Y-168782688I24749J24749D01*
G01*
X25592286Y-168358424D01*
G75*
G02*
X25641784Y-168358424I24749J-24749D01*
G01*
G37*
G36*
G01*
X25288231Y-168004870D02*
X25500363Y-168217002D01*
G75*
G02*
X25500363Y-168266500I-24749J-24749D01*
G01*
X25076099Y-168690764D01*
G75*
G02*
X25026601Y-168690764I-24749J24749D01*
G01*
X24814469Y-168478632D01*
G75*
G02*
X24814469Y-168429134I24749J24749D01*
G01*
X25238733Y-168004870D01*
G75*
G02*
X25288231Y-168004870I24749J-24749D01*
G01*
G37*
G36*
G01*
X26348891Y-169065531D02*
X26561023Y-169277663D01*
G75*
G02*
X26561023Y-169327161I-24749J-24749D01*
G01*
X26136759Y-169751425D01*
G75*
G02*
X26087261Y-169751425I-24749J24749D01*
G01*
X25875129Y-169539293D01*
G75*
G02*
X25875129Y-169489795I24749J24749D01*
G01*
X26299393Y-169065531D01*
G75*
G02*
X26348891Y-169065531I24749J-24749D01*
G01*
G37*
G36*
G01*
X29318739Y-165388575D02*
X29530871Y-165600707D01*
G75*
G02*
X29530871Y-165650205I-24749J-24749D01*
G01*
X29106607Y-166074469D01*
G75*
G02*
X29057109Y-166074469I-24749J24749D01*
G01*
X28844977Y-165862337D01*
G75*
G02*
X28844977Y-165812839I24749J24749D01*
G01*
X29269241Y-165388575D01*
G75*
G02*
X29318739Y-165388575I24749J-24749D01*
G01*
G37*
G36*
G01*
X28965186Y-165035022D02*
X29177318Y-165247154D01*
G75*
G02*
X29177318Y-165296652I-24749J-24749D01*
G01*
X28753054Y-165720916D01*
G75*
G02*
X28703556Y-165720916I-24749J24749D01*
G01*
X28491424Y-165508784D01*
G75*
G02*
X28491424Y-165459286I24749J24749D01*
G01*
X28915688Y-165035022D01*
G75*
G02*
X28965186Y-165035022I24749J-24749D01*
G01*
G37*
G36*
G01*
X24934677Y-167651317D02*
X25146809Y-167863449D01*
G75*
G02*
X25146809Y-167912947I-24749J-24749D01*
G01*
X24722545Y-168337211D01*
G75*
G02*
X24673047Y-168337211I-24749J24749D01*
G01*
X24460915Y-168125079D01*
G75*
G02*
X24460915Y-168075581I24749J24749D01*
G01*
X24885179Y-167651317D01*
G75*
G02*
X24934677Y-167651317I24749J-24749D01*
G01*
G37*
G36*
G01*
X28258079Y-164327915D02*
X28470211Y-164540047D01*
G75*
G02*
X28470211Y-164589545I-24749J-24749D01*
G01*
X28045947Y-165013809D01*
G75*
G02*
X27996449Y-165013809I-24749J24749D01*
G01*
X27784317Y-164801677D01*
G75*
G02*
X27784317Y-164752179I24749J24749D01*
G01*
X28208581Y-164327915D01*
G75*
G02*
X28258079Y-164327915I24749J-24749D01*
G01*
G37*
G36*
G01*
X25995337Y-168711977D02*
X26207469Y-168924109D01*
G75*
G02*
X26207469Y-168973607I-24749J-24749D01*
G01*
X25783205Y-169397871D01*
G75*
G02*
X25733707Y-169397871I-24749J24749D01*
G01*
X25521575Y-169185739D01*
G75*
G02*
X25521575Y-169136241I24749J24749D01*
G01*
X25945839Y-168711977D01*
G75*
G02*
X25995337Y-168711977I24749J-24749D01*
G01*
G37*
G36*
G01*
X27409551Y-170126191D02*
X27621683Y-170338323D01*
G75*
G02*
X27621683Y-170387821I-24749J-24749D01*
G01*
X27197419Y-170812085D01*
G75*
G02*
X27147921Y-170812085I-24749J24749D01*
G01*
X26935789Y-170599953D01*
G75*
G02*
X26935789Y-170550455I24749J24749D01*
G01*
X27360053Y-170126191D01*
G75*
G02*
X27409551Y-170126191I24749J-24749D01*
G01*
G37*
G36*
G01*
X27055998Y-169772637D02*
X27268130Y-169984769D01*
G75*
G02*
X27268130Y-170034267I-24749J-24749D01*
G01*
X26843866Y-170458531D01*
G75*
G02*
X26794368Y-170458531I-24749J24749D01*
G01*
X26582236Y-170246399D01*
G75*
G02*
X26582236Y-170196901I24749J24749D01*
G01*
X27006500Y-169772637D01*
G75*
G02*
X27055998Y-169772637I24749J-24749D01*
G01*
G37*
G36*
G01*
X30379399Y-166449236D02*
X30591531Y-166661368D01*
G75*
G02*
X30591531Y-166710866I-24749J-24749D01*
G01*
X30167267Y-167135130D01*
G75*
G02*
X30117769Y-167135130I-24749J24749D01*
G01*
X29905637Y-166922998D01*
G75*
G02*
X29905637Y-166873500I24749J24749D01*
G01*
X30329901Y-166449236D01*
G75*
G02*
X30379399Y-166449236I24749J-24749D01*
G01*
G37*
G36*
G01*
X30025846Y-166095682D02*
X30237978Y-166307814D01*
G75*
G02*
X30237978Y-166357312I-24749J-24749D01*
G01*
X29813714Y-166781576D01*
G75*
G02*
X29764216Y-166781576I-24749J24749D01*
G01*
X29552084Y-166569444D01*
G75*
G02*
X29552084Y-166519946I24749J24749D01*
G01*
X29976348Y-166095682D01*
G75*
G02*
X30025846Y-166095682I24749J-24749D01*
G01*
G37*
G36*
G01*
X26702444Y-169419084D02*
X26914576Y-169631216D01*
G75*
G02*
X26914576Y-169680714I-24749J-24749D01*
G01*
X26490312Y-170104978D01*
G75*
G02*
X26440814Y-170104978I-24749J24749D01*
G01*
X26228682Y-169892846D01*
G75*
G02*
X26228682Y-169843348I24749J24749D01*
G01*
X26652946Y-169419084D01*
G75*
G02*
X26702444Y-169419084I24749J-24749D01*
G01*
G37*
G36*
G01*
X29672293Y-165742129D02*
X29884425Y-165954261D01*
G75*
G02*
X29884425Y-166003759I-24749J-24749D01*
G01*
X29460161Y-166428023D01*
G75*
G02*
X29410663Y-166428023I-24749J24749D01*
G01*
X29198531Y-166215891D01*
G75*
G02*
X29198531Y-166166393I24749J24749D01*
G01*
X29622795Y-165742129D01*
G75*
G02*
X29672293Y-165742129I24749J-24749D01*
G01*
G37*
G36*
G01*
X28611632Y-164681469D02*
X28823764Y-164893601D01*
G75*
G02*
X28823764Y-164943099I-24749J-24749D01*
G01*
X28399500Y-165367363D01*
G75*
G02*
X28350002Y-165367363I-24749J24749D01*
G01*
X28137870Y-165155231D01*
G75*
G02*
X28137870Y-165105733I24749J24749D01*
G01*
X28562134Y-164681469D01*
G75*
G02*
X28611632Y-164681469I24749J-24749D01*
G01*
G37*
G36*
G01*
X30732953Y-166802789D02*
X30945085Y-167014921D01*
G75*
G02*
X30945085Y-167064419I-24749J-24749D01*
G01*
X30520821Y-167488683D01*
G75*
G02*
X30471323Y-167488683I-24749J24749D01*
G01*
X30259191Y-167276551D01*
G75*
G02*
X30259191Y-167227053I24749J24749D01*
G01*
X30683455Y-166802789D01*
G75*
G02*
X30732953Y-166802789I24749J-24749D01*
G01*
G37*
G36*
G01*
X27621683Y-164801677D02*
X27409551Y-165013809D01*
G75*
G02*
X27360053Y-165013809I-24749J24749D01*
G01*
X26935789Y-164589545D01*
G75*
G02*
X26935789Y-164540047I24749J24749D01*
G01*
X27147921Y-164327915D01*
G75*
G02*
X27197419Y-164327915I24749J-24749D01*
G01*
X27621683Y-164752179D01*
G75*
G02*
X27621683Y-164801677I-24749J-24749D01*
G01*
G37*
G36*
G01*
X30945085Y-168125079D02*
X30732953Y-168337211D01*
G75*
G02*
X30683455Y-168337211I-24749J24749D01*
G01*
X30259191Y-167912947D01*
G75*
G02*
X30259191Y-167863449I24749J24749D01*
G01*
X30471323Y-167651317D01*
G75*
G02*
X30520821Y-167651317I24749J-24749D01*
G01*
X30945085Y-168075581D01*
G75*
G02*
X30945085Y-168125079I-24749J-24749D01*
G01*
G37*
G36*
G01*
X27268130Y-165155231D02*
X27055998Y-165367363D01*
G75*
G02*
X27006500Y-165367363I-24749J24749D01*
G01*
X26582236Y-164943099D01*
G75*
G02*
X26582236Y-164893601I24749J24749D01*
G01*
X26794368Y-164681469D01*
G75*
G02*
X26843866Y-164681469I24749J-24749D01*
G01*
X27268130Y-165105733D01*
G75*
G02*
X27268130Y-165155231I-24749J-24749D01*
G01*
G37*
G36*
G01*
X30591531Y-168478632D02*
X30379399Y-168690764D01*
G75*
G02*
X30329901Y-168690764I-24749J24749D01*
G01*
X29905637Y-168266500D01*
G75*
G02*
X29905637Y-168217002I24749J24749D01*
G01*
X30117769Y-168004870D01*
G75*
G02*
X30167267Y-168004870I24749J-24749D01*
G01*
X30591531Y-168429134D01*
G75*
G02*
X30591531Y-168478632I-24749J-24749D01*
G01*
G37*
G36*
G01*
X26914576Y-165508784D02*
X26702444Y-165720916D01*
G75*
G02*
X26652946Y-165720916I-24749J24749D01*
G01*
X26228682Y-165296652D01*
G75*
G02*
X26228682Y-165247154I24749J24749D01*
G01*
X26440814Y-165035022D01*
G75*
G02*
X26490312Y-165035022I24749J-24749D01*
G01*
X26914576Y-165459286D01*
G75*
G02*
X26914576Y-165508784I-24749J-24749D01*
G01*
G37*
G36*
G01*
X30237978Y-168832186D02*
X30025846Y-169044318D01*
G75*
G02*
X29976348Y-169044318I-24749J24749D01*
G01*
X29552084Y-168620054D01*
G75*
G02*
X29552084Y-168570556I24749J24749D01*
G01*
X29764216Y-168358424D01*
G75*
G02*
X29813714Y-168358424I24749J-24749D01*
G01*
X30237978Y-168782688D01*
G75*
G02*
X30237978Y-168832186I-24749J-24749D01*
G01*
G37*
G36*
G01*
X26561023Y-165862337D02*
X26348891Y-166074469D01*
G75*
G02*
X26299393Y-166074469I-24749J24749D01*
G01*
X25875129Y-165650205D01*
G75*
G02*
X25875129Y-165600707I24749J24749D01*
G01*
X26087261Y-165388575D01*
G75*
G02*
X26136759Y-165388575I24749J-24749D01*
G01*
X26561023Y-165812839D01*
G75*
G02*
X26561023Y-165862337I-24749J-24749D01*
G01*
G37*
G36*
G01*
X29884425Y-169185739D02*
X29672293Y-169397871D01*
G75*
G02*
X29622795Y-169397871I-24749J24749D01*
G01*
X29198531Y-168973607D01*
G75*
G02*
X29198531Y-168924109I24749J24749D01*
G01*
X29410663Y-168711977D01*
G75*
G02*
X29460161Y-168711977I24749J-24749D01*
G01*
X29884425Y-169136241D01*
G75*
G02*
X29884425Y-169185739I-24749J-24749D01*
G01*
G37*
G36*
G01*
X26207469Y-166215891D02*
X25995337Y-166428023D01*
G75*
G02*
X25945839Y-166428023I-24749J24749D01*
G01*
X25521575Y-166003759D01*
G75*
G02*
X25521575Y-165954261I24749J24749D01*
G01*
X25733707Y-165742129D01*
G75*
G02*
X25783205Y-165742129I24749J-24749D01*
G01*
X26207469Y-166166393D01*
G75*
G02*
X26207469Y-166215891I-24749J-24749D01*
G01*
G37*
G36*
G01*
X29530871Y-169539293D02*
X29318739Y-169751425D01*
G75*
G02*
X29269241Y-169751425I-24749J24749D01*
G01*
X28844977Y-169327161D01*
G75*
G02*
X28844977Y-169277663I24749J24749D01*
G01*
X29057109Y-169065531D01*
G75*
G02*
X29106607Y-169065531I24749J-24749D01*
G01*
X29530871Y-169489795D01*
G75*
G02*
X29530871Y-169539293I-24749J-24749D01*
G01*
G37*
G36*
G01*
X25853916Y-166569444D02*
X25641784Y-166781576D01*
G75*
G02*
X25592286Y-166781576I-24749J24749D01*
G01*
X25168022Y-166357312D01*
G75*
G02*
X25168022Y-166307814I24749J24749D01*
G01*
X25380154Y-166095682D01*
G75*
G02*
X25429652Y-166095682I24749J-24749D01*
G01*
X25853916Y-166519946D01*
G75*
G02*
X25853916Y-166569444I-24749J-24749D01*
G01*
G37*
G36*
G01*
X29177318Y-169892846D02*
X28965186Y-170104978D01*
G75*
G02*
X28915688Y-170104978I-24749J24749D01*
G01*
X28491424Y-169680714D01*
G75*
G02*
X28491424Y-169631216I24749J24749D01*
G01*
X28703556Y-169419084D01*
G75*
G02*
X28753054Y-169419084I24749J-24749D01*
G01*
X29177318Y-169843348D01*
G75*
G02*
X29177318Y-169892846I-24749J-24749D01*
G01*
G37*
G36*
G01*
X25500363Y-166922998D02*
X25288231Y-167135130D01*
G75*
G02*
X25238733Y-167135130I-24749J24749D01*
G01*
X24814469Y-166710866D01*
G75*
G02*
X24814469Y-166661368I24749J24749D01*
G01*
X25026601Y-166449236D01*
G75*
G02*
X25076099Y-166449236I24749J-24749D01*
G01*
X25500363Y-166873500D01*
G75*
G02*
X25500363Y-166922998I-24749J-24749D01*
G01*
G37*
G36*
G01*
X28823764Y-170246399D02*
X28611632Y-170458531D01*
G75*
G02*
X28562134Y-170458531I-24749J24749D01*
G01*
X28137870Y-170034267D01*
G75*
G02*
X28137870Y-169984769I24749J24749D01*
G01*
X28350002Y-169772637D01*
G75*
G02*
X28399500Y-169772637I24749J-24749D01*
G01*
X28823764Y-170196901D01*
G75*
G02*
X28823764Y-170246399I-24749J-24749D01*
G01*
G37*
G36*
G01*
X25146809Y-167276551D02*
X24934677Y-167488683D01*
G75*
G02*
X24885179Y-167488683I-24749J24749D01*
G01*
X24460915Y-167064419D01*
G75*
G02*
X24460915Y-167014921I24749J24749D01*
G01*
X24673047Y-166802789D01*
G75*
G02*
X24722545Y-166802789I24749J-24749D01*
G01*
X25146809Y-167227053D01*
G75*
G02*
X25146809Y-167276551I-24749J-24749D01*
G01*
G37*
G36*
G01*
X28470211Y-170599953D02*
X28258079Y-170812085D01*
G75*
G02*
X28208581Y-170812085I-24749J24749D01*
G01*
X27784317Y-170387821D01*
G75*
G02*
X27784317Y-170338323I24749J24749D01*
G01*
X27996449Y-170126191D01*
G75*
G02*
X28045947Y-170126191I24749J-24749D01*
G01*
X28470211Y-170550455D01*
G75*
G02*
X28470211Y-170599953I-24749J-24749D01*
G01*
G37*
M02*
